<svg width="53" height="17" viewBox="0 0 53 17" fill="none" xmlns="http://www.w3.org/2000/svg">
<path d="M5.22585 1.90909V15H3.24432V3.89062H3.16761L0.0355114 5.93608V4.04403L3.30185 1.90909H5.22585ZM8.76705 15V13.5682L13.1967 8.97869C13.6697 8.48011 14.0597 8.04332 14.3665 7.66832C14.6776 7.28906 14.9098 6.92898 15.0632 6.58807C15.2166 6.24716 15.2933 5.88494 15.2933 5.50142C15.2933 5.06676 15.1911 4.69176 14.9865 4.37642C14.782 4.05682 14.5028 3.81179 14.1491 3.64134C13.7955 3.46662 13.397 3.37926 12.9538 3.37926C12.4851 3.37926 12.076 3.47514 11.7266 3.6669C11.3771 3.85866 11.1087 4.12926 10.9212 4.47869C10.7337 4.82812 10.6399 5.23722 10.6399 5.70597H8.75426C8.75426 4.90909 8.9375 4.21236 9.30398 3.61577C9.67045 3.01918 10.1733 2.55682 10.8125 2.22869C11.4517 1.89631 12.1783 1.73011 12.9922 1.73011C13.8146 1.73011 14.5391 1.89418 15.1655 2.2223C15.7962 2.54616 16.2884 2.98935 16.642 3.55185C16.9957 4.11009 17.1726 4.74077 17.1726 5.44389C17.1726 5.92969 17.081 6.40483 16.8977 6.86932C16.7188 7.33381 16.4055 7.85156 15.9581 8.42259C15.5107 8.98935 14.8885 9.67756 14.0916 10.4872L11.4901 13.2102V13.3061H17.3835V15H8.76705ZM24.3636 15.2173C23.3537 15.2131 22.4908 14.9467 21.7749 14.4183C21.0589 13.8899 20.5114 13.1207 20.1321 12.1108C19.7528 11.1009 19.5632 9.88423 19.5632 8.46094C19.5632 7.0419 19.7528 5.82955 20.1321 4.82386C20.5156 3.81818 21.0653 3.05114 21.7812 2.52273C22.5014 1.99432 23.3622 1.73011 24.3636 1.73011C25.3651 1.73011 26.2237 1.99645 26.9396 2.52912C27.6555 3.05753 28.2031 3.82457 28.5824 4.83026C28.9659 5.83168 29.1577 7.0419 29.1577 8.46094C29.1577 9.88849 28.968 11.1072 28.5888 12.1172C28.2095 13.1229 27.6619 13.892 26.946 14.4247C26.2301 14.9531 25.3693 15.2173 24.3636 15.2173ZM24.3636 13.5107C25.25 13.5107 25.9425 13.0781 26.4411 12.2131C26.9439 11.348 27.1953 10.0973 27.1953 8.46094C27.1953 7.37429 27.0803 6.45597 26.8501 5.70597C26.6243 4.9517 26.2983 4.38068 25.8722 3.9929C25.4503 3.60085 24.9474 3.40483 24.3636 3.40483C23.4815 3.40483 22.7891 3.83949 22.2862 4.70881C21.7834 5.57812 21.5298 6.82884 21.5256 8.46094C21.5256 9.55185 21.6385 10.4744 21.8643 11.2287C22.0945 11.9787 22.4205 12.5476 22.8423 12.9354C23.2642 13.3189 23.7713 13.5107 24.3636 13.5107ZM35.9828 15.2173C34.9728 15.2131 34.1099 14.9467 33.394 14.4183C32.6781 13.8899 32.1305 13.1207 31.7512 12.1108C31.372 11.1009 31.1824 9.88423 31.1824 8.46094C31.1824 7.0419 31.372 5.82955 31.7512 4.82386C32.1348 3.81818 32.6845 3.05114 33.4004 2.52273C34.1206 1.99432 34.9814 1.73011 35.9828 1.73011C36.9842 1.73011 37.8429 1.99645 38.5588 2.52912C39.2747 3.05753 39.8223 3.82457 40.2015 4.83026C40.585 5.83168 40.7768 7.0419 40.7768 8.46094C40.7768 9.88849 40.5872 11.1072 40.2079 12.1172C39.8287 13.1229 39.2811 13.892 38.5652 14.4247C37.8493 14.9531 36.9885 15.2173 35.9828 15.2173ZM35.9828 13.5107C36.8691 13.5107 37.5616 13.0781 38.0602 12.2131C38.563 11.348 38.8145 10.0973 38.8145 8.46094C38.8145 7.37429 38.6994 6.45597 38.4693 5.70597C38.2434 4.9517 37.9174 4.38068 37.4913 3.9929C37.0694 3.60085 36.5666 3.40483 35.9828 3.40483C35.1007 3.40483 34.4082 3.83949 33.9054 4.70881C33.4025 5.57812 33.149 6.82884 33.1447 8.46094C33.1447 9.55185 33.2576 10.4744 33.4835 11.2287C33.7136 11.9787 34.0396 12.5476 34.4615 12.9354C34.8833 13.3189 35.3904 13.5107 35.9828 13.5107ZM47.0842 16.6364V0.272726H48.1325V16.6364H47.0842ZM50.3633 5.34801C50.2951 4.7429 50.0138 4.27415 49.5195 3.94176C49.0252 3.60511 48.4031 3.43679 47.6531 3.43679C47.1161 3.43679 46.6516 3.52202 46.2596 3.69247C45.8675 3.85866 45.5629 4.08878 45.3455 4.38281C45.1325 4.67258 45.0259 5.00284 45.0259 5.37358C45.0259 5.68466 45.0984 5.95312 45.2433 6.17898C45.3924 6.40483 45.5863 6.59446 45.8249 6.74787C46.0678 6.89702 46.3278 7.02273 46.6048 7.125C46.8817 7.22301 47.1481 7.30398 47.4038 7.3679L48.6822 7.70028C49.0998 7.80256 49.5281 7.94105 49.967 8.11577C50.4059 8.29048 50.8129 8.5206 51.1879 8.80611C51.5629 9.09162 51.8654 9.44531 52.0955 9.86719C52.3299 10.2891 52.4471 10.794 52.4471 11.3821C52.4471 12.1236 52.2553 12.782 51.8718 13.3572C51.4925 13.9325 50.9407 14.3864 50.2163 14.7188C49.4961 15.0511 48.6246 15.2173 47.6019 15.2173C46.6218 15.2173 45.7738 15.0618 45.0579 14.7507C44.342 14.4396 43.7816 13.9986 43.3768 13.4276C42.9719 12.8523 42.7482 12.1705 42.7056 11.3821H44.6871C44.7255 11.8551 44.8789 12.2493 45.1474 12.5646C45.4201 12.8757 45.7674 13.108 46.1893 13.2614C46.6154 13.4105 47.082 13.4851 47.5891 13.4851C48.1474 13.4851 48.6438 13.3977 49.0785 13.223C49.5174 13.044 49.8626 12.7969 50.114 12.4815C50.3654 12.1619 50.4911 11.7891 50.4911 11.3629C50.4911 10.9751 50.3803 10.6577 50.1587 10.4105C49.9414 10.1634 49.6452 9.95881 49.2702 9.79688C48.8995 9.63494 48.4798 9.49219 48.011 9.36861L46.4641 8.94673C45.4158 8.66122 44.5849 8.24148 43.9712 7.6875C43.3619 7.13352 43.0572 6.40057 43.0572 5.48864C43.0572 4.73437 43.2617 4.07599 43.6708 3.51349C44.0799 2.95099 44.6339 2.5142 45.3327 2.20312C46.0316 1.88778 46.82 1.73011 47.6978 1.73011C48.5842 1.73011 49.3661 1.88565 50.0437 2.19673C50.7255 2.50781 51.2624 2.93608 51.6545 3.48153C52.0465 4.02273 52.2511 4.64489 52.2681 5.34801H50.3633Z" fill="white"/>
</svg>
