<svg width="313" height="28" viewBox="0 0 313 28" fill="none" xmlns="http://www.w3.org/2000/svg">
<path d="M8.48961 27H0.819158L9.4612 0.818181H19.1771L27.8192 27H20.1487L14.4214 8.02841H14.2169L8.48961 27ZM7.05779 16.6705H21.4783V21.9886H7.05779V16.6705ZM30.3408 27V0.818181H41.6931C43.6874 0.818181 45.3621 1.08665 46.7172 1.62358C48.0809 2.16051 49.1079 2.91903 49.7982 3.89915C50.4971 4.87926 50.8465 6.03409 50.8465 7.36364C50.8465 8.3267 50.6334 9.20454 50.2073 9.99716C49.7897 10.7898 49.2016 11.4545 48.4431 11.9915C47.6846 12.5199 46.7982 12.8864 45.784 13.0909V13.3466C46.909 13.3892 47.9317 13.6747 48.8522 14.2031C49.7726 14.723 50.5056 15.4432 51.051 16.3636C51.5965 17.2756 51.8692 18.3494 51.8692 19.5852C51.8692 21.017 51.4942 22.2912 50.7442 23.4077C50.0028 24.5241 48.9459 25.402 47.5738 26.0412C46.2016 26.6804 44.5653 27 42.6647 27H30.3408ZM37.4488 21.3239H40.7726C41.9658 21.3239 42.8607 21.1023 43.4573 20.6591C44.0539 20.2074 44.3522 19.5426 44.3522 18.6648C44.3522 18.0511 44.2116 17.5312 43.9303 17.1051C43.6491 16.679 43.2485 16.3551 42.7286 16.1335C42.2172 15.9119 41.5993 15.8011 40.8749 15.8011H37.4488V21.3239ZM37.4488 11.4034H40.3635C40.9857 11.4034 41.5354 11.3054 42.0127 11.1094C42.49 10.9134 42.8607 10.6321 43.1249 10.2656C43.3976 9.89062 43.534 9.43466 43.534 8.89773C43.534 8.08807 43.2442 7.47017 42.6647 7.04403C42.0851 6.60938 41.3522 6.39205 40.4658 6.39205H37.4488V11.4034ZM79.7513 13.9091C79.7513 16.8239 79.1846 19.2827 78.051 21.2855C76.9175 23.2798 75.3877 24.7926 73.4616 25.8239C71.5354 26.8466 69.3877 27.358 67.0184 27.358C64.632 27.358 62.4758 26.8423 60.5496 25.8111C58.632 24.7713 57.1064 23.2543 55.9729 21.2599C54.8479 19.2571 54.2854 16.8068 54.2854 13.9091C54.2854 10.9943 54.8479 8.53977 55.9729 6.54545C57.1064 4.54261 58.632 3.02983 60.5496 2.0071C62.4758 0.975851 64.632 0.460226 67.0184 0.460226C69.3877 0.460226 71.5354 0.975851 73.4616 2.0071C75.3877 3.02983 76.9175 4.54261 78.051 6.54545C79.1846 8.53977 79.7513 10.9943 79.7513 13.9091ZM72.4388 13.9091C72.4388 12.3409 72.23 11.0199 71.8124 9.94602C71.4033 8.86364 70.7939 8.04545 69.9843 7.49148C69.1832 6.92898 68.1945 6.64773 67.0184 6.64773C65.8422 6.64773 64.8493 6.92898 64.0397 7.49148C63.2385 8.04545 62.6292 8.86364 62.2116 9.94602C61.8025 11.0199 61.5979 12.3409 61.5979 13.9091C61.5979 15.4773 61.8025 16.8026 62.2116 17.8849C62.6292 18.9588 63.2385 19.777 64.0397 20.3395C64.8493 20.8935 65.8422 21.1705 67.0184 21.1705C68.1945 21.1705 69.1832 20.8935 69.9843 20.3395C70.7939 19.777 71.4033 18.9588 71.8124 17.8849C72.23 16.8026 72.4388 15.4773 72.4388 13.9091ZM98.5344 0.818181H105.642V17.5909C105.642 19.5852 105.165 21.3111 104.21 22.7685C103.264 24.2173 101.943 25.3381 100.247 26.1307C98.5514 26.9148 96.5827 27.3068 94.3412 27.3068C92.0827 27.3068 90.1054 26.9148 88.4094 26.1307C86.7133 25.3381 85.3923 24.2173 84.4463 22.7685C83.5088 21.3111 83.04 19.5852 83.04 17.5909V0.818181H90.148V16.9773C90.148 17.7869 90.327 18.5114 90.6849 19.1506C91.0429 19.7812 91.5372 20.2756 92.1679 20.6335C92.8071 20.9915 93.5315 21.1705 94.3412 21.1705C95.1594 21.1705 95.8838 20.9915 96.5145 20.6335C97.1452 20.2756 97.6395 19.7812 97.9974 19.1506C98.3554 18.5114 98.5344 17.7869 98.5344 16.9773V0.818181ZM108.305 6.54545V0.818181H131.06V6.54545H123.185V27H116.18V6.54545H108.305Z" fill="white"/>
<path d="M142.39 27V0.818181H151.237C153.291 0.818181 154.97 1.18892 156.274 1.9304C157.586 2.66335 158.558 3.65625 159.188 4.90909C159.819 6.16193 160.135 7.55966 160.135 9.10227C160.135 10.6449 159.819 12.0469 159.188 13.3082C158.566 14.5696 157.603 15.5753 156.299 16.3253C154.995 17.0668 153.325 17.4375 151.288 17.4375H144.947V14.625H151.186C152.592 14.625 153.721 14.3821 154.573 13.8963C155.426 13.4105 156.044 12.7543 156.427 11.9276C156.819 11.0923 157.015 10.1506 157.015 9.10227C157.015 8.05398 156.819 7.11648 156.427 6.28977C156.044 5.46307 155.421 4.81534 154.561 4.34659C153.7 3.86932 152.558 3.63068 151.134 3.63068H145.561V27H142.39ZM165.242 27V0.818181H174.088C176.134 0.818181 177.813 1.16761 179.125 1.86648C180.438 2.55682 181.409 3.5071 182.04 4.71733C182.671 5.92756 182.986 7.30398 182.986 8.84659C182.986 10.3892 182.671 11.7571 182.04 12.9503C181.409 14.1435 180.442 15.081 179.138 15.7628C177.834 16.4361 176.168 16.7727 174.139 16.7727H166.98V13.9091H174.037C175.435 13.9091 176.56 13.7045 177.412 13.2955C178.273 12.8864 178.895 12.3068 179.279 11.5568C179.671 10.7983 179.867 9.89489 179.867 8.84659C179.867 7.79829 179.671 6.8821 179.279 6.09801C178.887 5.31392 178.26 4.70881 177.399 4.28267C176.539 3.84801 175.401 3.63068 173.986 3.63068H168.412V27H165.242ZM177.566 15.2386L184.009 27H180.327L173.986 15.2386H177.566ZM210.36 13.9091C210.36 16.6705 209.861 19.0568 208.864 21.0682C207.867 23.0795 206.499 24.6307 204.761 25.7216C203.022 26.8125 201.036 27.358 198.803 27.358C196.57 27.358 194.584 26.8125 192.846 25.7216C191.107 24.6307 189.739 23.0795 188.742 21.0682C187.745 19.0568 187.246 16.6705 187.246 13.9091C187.246 11.1477 187.745 8.76136 188.742 6.75C189.739 4.73864 191.107 3.1875 192.846 2.09659C194.584 1.00568 196.57 0.460226 198.803 0.460226C201.036 0.460226 203.022 1.00568 204.761 2.09659C206.499 3.1875 207.867 4.73864 208.864 6.75C209.861 8.76136 210.36 11.1477 210.36 13.9091ZM207.292 13.9091C207.292 11.642 206.913 9.72869 206.154 8.16903C205.404 6.60938 204.386 5.42898 203.099 4.62784C201.82 3.8267 200.388 3.42614 198.803 3.42614C197.218 3.42614 195.782 3.8267 194.495 4.62784C193.217 5.42898 192.198 6.60938 191.44 8.16903C190.69 9.72869 190.315 11.642 190.315 13.9091C190.315 16.1761 190.69 18.0895 191.44 19.6491C192.198 21.2088 193.217 22.3892 194.495 23.1903C195.782 23.9915 197.218 24.392 198.803 24.392C200.388 24.392 201.82 23.9915 203.099 23.1903C204.386 22.3892 205.404 21.2088 206.154 19.6491C206.913 18.0895 207.292 16.1761 207.292 13.9091ZM223.771 27H215.691V0.818181H224.128C226.668 0.818181 228.842 1.34233 230.648 2.39062C232.455 3.4304 233.84 4.92614 234.803 6.87784C235.766 8.82102 236.248 11.1477 236.248 13.858C236.248 16.5852 235.762 18.9332 234.79 20.902C233.819 22.8622 232.404 24.3707 230.546 25.4276C228.688 26.4759 226.43 27 223.771 27ZM218.861 24.1875H223.566C225.731 24.1875 227.525 23.7699 228.948 22.9347C230.371 22.0994 231.432 20.9105 232.131 19.3679C232.83 17.8253 233.18 15.9886 233.18 13.858C233.18 11.7443 232.834 9.92472 232.144 8.39915C231.454 6.86506 230.422 5.68892 229.05 4.87074C227.678 4.04403 225.969 3.63068 223.924 3.63068H218.861V24.1875ZM258.748 0.818181H261.918V18.1534C261.918 19.9432 261.496 21.5412 260.653 22.9474C259.817 24.3452 258.637 25.4489 257.111 26.2585C255.586 27.0597 253.796 27.4602 251.742 27.4602C249.688 27.4602 247.898 27.0597 246.373 26.2585C244.847 25.4489 243.663 24.3452 242.819 22.9474C241.984 21.5412 241.566 19.9432 241.566 18.1534V0.818181H244.736V17.8977C244.736 19.1761 245.018 20.3139 245.58 21.3111C246.143 22.2997 246.944 23.0795 247.984 23.6506C249.032 24.2131 250.285 24.4943 251.742 24.4943C253.199 24.4943 254.452 24.2131 255.501 23.6506C256.549 23.0795 257.35 22.2997 257.904 21.3111C258.467 20.3139 258.748 19.1761 258.748 17.8977V0.818181ZM289.318 9H286.147C285.96 8.08807 285.632 7.28693 285.163 6.59659C284.703 5.90625 284.14 5.3267 283.475 4.85795C282.819 4.38068 282.09 4.02273 281.289 3.78409C280.488 3.54545 279.653 3.42614 278.784 3.42614C277.198 3.42614 275.762 3.8267 274.475 4.62784C273.197 5.42898 272.179 6.60938 271.42 8.16903C270.67 9.72869 270.295 11.642 270.295 13.9091C270.295 16.1761 270.67 18.0895 271.42 19.6491C272.179 21.2088 273.197 22.3892 274.475 23.1903C275.762 23.9915 277.198 24.392 278.784 24.392C279.653 24.392 280.488 24.2727 281.289 24.0341C282.09 23.7955 282.819 23.4418 283.475 22.973C284.14 22.4957 284.703 21.9119 285.163 21.2216C285.632 20.5227 285.96 19.7216 286.147 18.8182H289.318C289.079 20.1562 288.644 21.3537 288.014 22.4105C287.383 23.4673 286.599 24.3665 285.661 25.108C284.724 25.8409 283.671 26.3991 282.504 26.7827C281.345 27.1662 280.105 27.358 278.784 27.358C276.551 27.358 274.565 26.8125 272.826 25.7216C271.088 24.6307 269.72 23.0795 268.723 21.0682C267.725 19.0568 267.227 16.6705 267.227 13.9091C267.227 11.1477 267.725 8.76136 268.723 6.75C269.72 4.73864 271.088 3.1875 272.826 2.09659C274.565 1.00568 276.551 0.460226 278.784 0.460226C280.105 0.460226 281.345 0.651988 282.504 1.03551C283.671 1.41903 284.724 1.98153 285.661 2.72301C286.599 3.45596 287.383 4.35085 288.014 5.40767C288.644 6.45596 289.079 7.65341 289.318 9ZM293.009 3.63068V0.818181H312.646V3.63068H304.413V27H301.242V3.63068H293.009Z" fill="#05C2DF"/>
</svg>
