<svg width="269" height="89" viewBox="0 0 269 89" fill="none" xmlns="http://www.w3.org/2000/svg">
<path d="M5.04545 13H1.27841V1.36364H5.16477C6.30492 1.36364 7.28409 1.59659 8.10227 2.0625C8.92045 2.52462 9.54735 3.18939 9.98295 4.05682C10.4223 4.92045 10.642 5.95644 10.642 7.16477C10.642 8.37689 10.4205 9.41856 9.97727 10.2898C9.53788 11.161 8.90152 11.8314 8.06818 12.3011C7.23485 12.767 6.22727 13 5.04545 13ZM3.03409 11.4659H4.94886C5.83523 11.4659 6.57197 11.2992 7.15909 10.9659C7.74621 10.6288 8.18561 10.142 8.47727 9.50568C8.76894 8.86553 8.91477 8.08523 8.91477 7.16477C8.91477 6.25189 8.76894 5.47727 8.47727 4.84091C8.18939 4.20455 7.75947 3.72159 7.1875 3.39205C6.61553 3.0625 5.9053 2.89773 5.05682 2.89773H3.03409V11.4659ZM12.6889 13V4.27273H14.3878V13H12.6889ZM13.5469 2.92614C13.2514 2.92614 12.9976 2.82765 12.7855 2.63068C12.5772 2.42992 12.473 2.19129 12.473 1.91477C12.473 1.63447 12.5772 1.39583 12.7855 1.19886C12.9976 0.998106 13.2514 0.897727 13.5469 0.897727C13.8423 0.897727 14.0942 0.998106 14.3026 1.19886C14.5147 1.39583 14.6207 1.63447 14.6207 1.91477C14.6207 2.19129 14.5147 2.42992 14.3026 2.63068C14.0942 2.82765 13.8423 2.92614 13.5469 2.92614ZM23.2131 6.40341L21.6733 6.67614C21.6089 6.47917 21.5066 6.29167 21.3665 6.11364C21.2301 5.93561 21.0445 5.78977 20.8097 5.67614C20.5748 5.5625 20.2813 5.50568 19.929 5.50568C19.4479 5.50568 19.0464 5.61364 18.7244 5.82955C18.4025 6.04167 18.2415 6.31629 18.2415 6.65341C18.2415 6.94508 18.3494 7.17992 18.5653 7.35795C18.7813 7.53598 19.1297 7.68182 19.6108 7.79545L20.9972 8.11364C21.8002 8.29924 22.3987 8.58523 22.7926 8.97159C23.1866 9.35795 23.3835 9.85985 23.3835 10.4773C23.3835 11 23.232 11.4659 22.929 11.875C22.6297 12.2803 22.2112 12.5985 21.6733 12.8295C21.1392 13.0606 20.5199 13.1761 19.8153 13.1761C18.8381 13.1761 18.0407 12.9678 17.4233 12.5511C16.8059 12.1307 16.4271 11.5341 16.2869 10.7614L17.929 10.5114C18.0313 10.9394 18.2415 11.2633 18.5597 11.483C18.8778 11.6989 19.2926 11.8068 19.804 11.8068C20.3608 11.8068 20.8059 11.6913 21.1392 11.4602C21.4725 11.2254 21.6392 10.9394 21.6392 10.6023C21.6392 10.3295 21.5369 10.1004 21.3324 9.91477C21.1316 9.72917 20.8229 9.58902 20.4062 9.49432L18.929 9.17045C18.1146 8.98485 17.5123 8.68939 17.1222 8.28409C16.7358 7.87879 16.5426 7.36553 16.5426 6.74432C16.5426 6.22917 16.6866 5.77841 16.9744 5.39205C17.2623 5.00568 17.66 4.70455 18.1676 4.48864C18.6752 4.26894 19.2566 4.15909 19.9119 4.15909C20.8551 4.15909 21.5975 4.36364 22.1392 4.77273C22.6809 5.17803 23.0388 5.72159 23.2131 6.40341ZM28.9276 13.1761C28.0829 13.1761 27.3556 12.9848 26.7457 12.6023C26.1397 12.2159 25.6738 11.6837 25.348 11.0057C25.0223 10.3277 24.8594 9.55114 24.8594 8.67614C24.8594 7.78977 25.026 7.00758 25.3594 6.32955C25.6927 5.64773 26.1624 5.11553 26.7685 4.73295C27.3745 4.35038 28.0885 4.15909 28.9105 4.15909C29.5734 4.15909 30.1643 4.2822 30.6832 4.52841C31.2022 4.77083 31.6207 5.11174 31.9389 5.55114C32.2609 5.99053 32.4522 6.50379 32.5128 7.09091H30.8594C30.7685 6.68182 30.5601 6.32955 30.2344 6.03409C29.9124 5.73864 29.4806 5.59091 28.9389 5.59091C28.4654 5.59091 28.0507 5.71591 27.6946 5.96591C27.3423 6.21212 27.0677 6.56439 26.8707 7.02273C26.6738 7.47727 26.5753 8.01515 26.5753 8.63636C26.5753 9.27273 26.6719 9.82197 26.8651 10.2841C27.0582 10.7462 27.331 11.1042 27.6832 11.358C28.0393 11.6117 28.4579 11.7386 28.9389 11.7386C29.2609 11.7386 29.5526 11.6799 29.8139 11.5625C30.0791 11.4413 30.3007 11.2689 30.4787 11.0455C30.6605 10.822 30.7874 10.553 30.8594 10.2386H32.5128C32.4522 10.803 32.2685 11.3068 31.9616 11.75C31.6548 12.1932 31.2438 12.5417 30.7287 12.7955C30.2173 13.0492 29.617 13.1761 28.9276 13.1761ZM38.0057 13.1761C37.1875 13.1761 36.4735 12.9886 35.8636 12.6136C35.2538 12.2386 34.7803 11.714 34.4432 11.0398C34.1061 10.3655 33.9375 9.57765 33.9375 8.67614C33.9375 7.77083 34.1061 6.97917 34.4432 6.30114C34.7803 5.62311 35.2538 5.09659 35.8636 4.72159C36.4735 4.34659 37.1875 4.15909 38.0057 4.15909C38.8239 4.15909 39.5379 4.34659 40.1477 4.72159C40.7576 5.09659 41.2311 5.62311 41.5682 6.30114C41.9053 6.97917 42.0739 7.77083 42.0739 8.67614C42.0739 9.57765 41.9053 10.3655 41.5682 11.0398C41.2311 11.714 40.7576 12.2386 40.1477 12.6136C39.5379 12.9886 38.8239 13.1761 38.0057 13.1761ZM38.0114 11.75C38.5417 11.75 38.9811 11.6098 39.3295 11.3295C39.678 11.0492 39.9356 10.6761 40.1023 10.2102C40.2727 9.74432 40.358 9.23106 40.358 8.67045C40.358 8.11364 40.2727 7.60227 40.1023 7.13636C39.9356 6.66667 39.678 6.28977 39.3295 6.00568C38.9811 5.72159 38.5417 5.57955 38.0114 5.57955C37.4773 5.57955 37.0341 5.72159 36.6818 6.00568C36.3333 6.28977 36.0739 6.66667 35.9034 7.13636C35.7367 7.60227 35.6534 8.11364 35.6534 8.67045C35.6534 9.23106 35.7367 9.74432 35.9034 10.2102C36.0739 10.6761 36.3333 11.0492 36.6818 11.3295C37.0341 11.6098 37.4773 11.75 38.0114 11.75ZM51.1392 4.27273L47.9744 13H46.1562L42.9858 4.27273H44.8097L47.0199 10.9886H47.1108L49.3153 4.27273H51.1392ZM56.2003 13.1761C55.3404 13.1761 54.5999 12.9924 53.9787 12.625C53.3613 12.2538 52.884 11.733 52.5469 11.0625C52.2135 10.3883 52.0469 9.59848 52.0469 8.69318C52.0469 7.79924 52.2135 7.01136 52.5469 6.32955C52.884 5.64773 53.3537 5.11553 53.956 4.73295C54.562 4.35038 55.2704 4.15909 56.081 4.15909C56.5734 4.15909 57.0507 4.24053 57.5128 4.40341C57.9749 4.56629 58.3897 4.82197 58.7571 5.17045C59.1245 5.51894 59.4143 5.97159 59.6264 6.52841C59.8385 7.08144 59.9446 7.75379 59.9446 8.54545V9.14773H53.0071V7.875H58.2798C58.2798 7.42803 58.1889 7.0322 58.0071 6.6875C57.8253 6.33902 57.5696 6.06439 57.2401 5.86364C56.9143 5.66288 56.5317 5.5625 56.0923 5.5625C55.6151 5.5625 55.1984 5.67992 54.8423 5.91477C54.4901 6.14583 54.2173 6.44886 54.0241 6.82386C53.8348 7.19508 53.7401 7.59848 53.7401 8.03409V9.02841C53.7401 9.61174 53.8423 10.108 54.0469 10.517C54.2552 10.9261 54.545 11.2386 54.9162 11.4545C55.2874 11.6667 55.7211 11.7727 56.2173 11.7727C56.5393 11.7727 56.8329 11.7273 57.098 11.6364C57.3632 11.5417 57.5923 11.4015 57.7855 11.2159C57.9787 11.0303 58.1264 10.8011 58.2287 10.5284L59.8366 10.8182C59.7079 11.2917 59.4768 11.7064 59.1435 12.0625C58.8139 12.4148 58.3991 12.6894 57.8991 12.8864C57.4029 13.0795 56.8366 13.1761 56.2003 13.1761ZM61.8295 13V4.27273H63.4716V5.65909H63.5625C63.7216 5.18939 64.0019 4.82008 64.4034 4.55114C64.8087 4.27841 65.267 4.14205 65.7784 4.14205C65.8845 4.14205 66.0095 4.14583 66.1534 4.15341C66.3011 4.16098 66.4167 4.17045 66.5 4.18182V5.80682C66.4318 5.78788 66.3106 5.76705 66.1364 5.74432C65.9621 5.7178 65.7879 5.70455 65.6136 5.70455C65.2121 5.70455 64.8542 5.78977 64.5398 5.96023C64.2292 6.12689 63.983 6.35985 63.8011 6.65909C63.6193 6.95455 63.5284 7.29167 63.5284 7.67045V13H61.8295ZM76.2784 4.27273V5.63636H71.5114V4.27273H76.2784ZM72.7898 2.18182H74.4886V10.4375C74.4886 10.767 74.5379 11.0152 74.6364 11.1818C74.7348 11.3447 74.8617 11.4564 75.017 11.517C75.1761 11.5739 75.3485 11.6023 75.5341 11.6023C75.6705 11.6023 75.7898 11.5928 75.892 11.5739C75.9943 11.5549 76.0739 11.5398 76.1307 11.5284L76.4375 12.9318C76.339 12.9697 76.1989 13.0076 76.017 13.0455C75.8352 13.0871 75.608 13.1098 75.3352 13.1136C74.8883 13.1212 74.4716 13.0417 74.0852 12.875C73.6989 12.7083 73.3864 12.4508 73.1477 12.1023C72.9091 11.7538 72.7898 11.3163 72.7898 10.7898V2.18182ZM80.044 7.81818V13H78.3452V1.36364H80.0213V5.69318H80.1293C80.3338 5.22348 80.6463 4.85038 81.0668 4.57386C81.4872 4.29735 82.0365 4.15909 82.7145 4.15909C83.313 4.15909 83.8357 4.2822 84.2827 4.52841C84.7334 4.77462 85.0819 5.14205 85.3281 5.63068C85.5781 6.11553 85.7031 6.72159 85.7031 7.44886V13H84.0043V7.65341C84.0043 7.01326 83.8395 6.51705 83.5099 6.16477C83.1804 5.80871 82.7221 5.63068 82.1349 5.63068C81.7334 5.63068 81.3736 5.71591 81.0554 5.88636C80.741 6.05682 80.4929 6.30682 80.3111 6.63636C80.133 6.96212 80.044 7.35606 80.044 7.81818ZM91.7315 13.1761C90.8717 13.1761 90.1312 12.9924 89.5099 12.625C88.8925 12.2538 88.4152 11.733 88.0781 11.0625C87.7448 10.3883 87.5781 9.59848 87.5781 8.69318C87.5781 7.79924 87.7448 7.01136 88.0781 6.32955C88.4152 5.64773 88.8849 5.11553 89.4872 4.73295C90.0933 4.35038 90.8016 4.15909 91.6122 4.15909C92.1046 4.15909 92.5819 4.24053 93.044 4.40341C93.5062 4.56629 93.9209 4.82197 94.2884 5.17045C94.6558 5.51894 94.9455 5.97159 95.1577 6.52841C95.3698 7.08144 95.4759 7.75379 95.4759 8.54545V9.14773H88.5384V7.875H93.8111C93.8111 7.42803 93.7202 7.0322 93.5384 6.6875C93.3565 6.33902 93.1009 6.06439 92.7713 5.86364C92.4455 5.66288 92.063 5.5625 91.6236 5.5625C91.1463 5.5625 90.7296 5.67992 90.3736 5.91477C90.0213 6.14583 89.7486 6.44886 89.5554 6.82386C89.366 7.19508 89.2713 7.59848 89.2713 8.03409V9.02841C89.2713 9.61174 89.3736 10.108 89.5781 10.517C89.7865 10.9261 90.0762 11.2386 90.4474 11.4545C90.8187 11.6667 91.2524 11.7727 91.7486 11.7727C92.0705 11.7727 92.3641 11.7273 92.6293 11.6364C92.8944 11.5417 93.1236 11.4015 93.3168 11.2159C93.5099 11.0303 93.6577 10.8011 93.7599 10.5284L95.3679 10.8182C95.2391 11.2917 95.008 11.7064 94.6747 12.0625C94.3452 12.4148 93.9304 12.6894 93.4304 12.8864C92.9342 13.0795 92.3679 13.1761 91.7315 13.1761ZM101.595 13V4.27273H103.226V5.69318H103.334C103.516 5.21212 103.813 4.83712 104.226 4.56818C104.639 4.29545 105.133 4.15909 105.709 4.15909C106.292 4.15909 106.781 4.29545 107.175 4.56818C107.572 4.84091 107.866 5.21591 108.055 5.69318H108.146C108.355 5.22727 108.686 4.85606 109.141 4.57955C109.595 4.29924 110.137 4.15909 110.766 4.15909C111.557 4.15909 112.203 4.4072 112.703 4.90341C113.207 5.39962 113.459 6.14773 113.459 7.14773V13H111.76V7.30682C111.76 6.71591 111.599 6.28788 111.277 6.02273C110.955 5.75758 110.571 5.625 110.124 5.625C109.571 5.625 109.141 5.79545 108.834 6.13636C108.527 6.47348 108.374 6.9072 108.374 7.4375V13H106.68V7.19886C106.68 6.72538 106.533 6.3447 106.237 6.05682C105.942 5.76894 105.557 5.625 105.084 5.625C104.762 5.625 104.464 5.71023 104.192 5.88068C103.923 6.04735 103.705 6.2803 103.538 6.57955C103.375 6.87879 103.294 7.22538 103.294 7.61932V13H101.595ZM119.412 13.1761C118.594 13.1761 117.88 12.9886 117.27 12.6136C116.66 12.2386 116.187 11.714 115.849 11.0398C115.512 10.3655 115.344 9.57765 115.344 8.67614C115.344 7.77083 115.512 6.97917 115.849 6.30114C116.187 5.62311 116.66 5.09659 117.27 4.72159C117.88 4.34659 118.594 4.15909 119.412 4.15909C120.23 4.15909 120.944 4.34659 121.554 4.72159C122.164 5.09659 122.637 5.62311 122.974 6.30114C123.312 6.97917 123.48 7.77083 123.48 8.67614C123.48 9.57765 123.312 10.3655 122.974 11.0398C122.637 11.714 122.164 12.2386 121.554 12.6136C120.944 12.9886 120.23 13.1761 119.412 13.1761ZM119.418 11.75C119.948 11.75 120.387 11.6098 120.736 11.3295C121.084 11.0492 121.342 10.6761 121.509 10.2102C121.679 9.74432 121.764 9.23106 121.764 8.67045C121.764 8.11364 121.679 7.60227 121.509 7.13636C121.342 6.66667 121.084 6.28977 120.736 6.00568C120.387 5.72159 119.948 5.57955 119.418 5.57955C118.884 5.57955 118.44 5.72159 118.088 6.00568C117.74 6.28977 117.48 6.66667 117.31 7.13636C117.143 7.60227 117.06 8.11364 117.06 8.67045C117.06 9.23106 117.143 9.74432 117.31 10.2102C117.48 10.6761 117.74 11.0492 118.088 11.3295C118.44 11.6098 118.884 11.75 119.418 11.75ZM131.916 6.40341L130.376 6.67614C130.312 6.47917 130.21 6.29167 130.07 6.11364C129.933 5.93561 129.748 5.78977 129.513 5.67614C129.278 5.5625 128.984 5.50568 128.632 5.50568C128.151 5.50568 127.75 5.61364 127.428 5.82955C127.106 6.04167 126.945 6.31629 126.945 6.65341C126.945 6.94508 127.053 7.17992 127.268 7.35795C127.484 7.53598 127.833 7.68182 128.314 7.79545L129.7 8.11364C130.503 8.29924 131.102 8.58523 131.496 8.97159C131.89 9.35795 132.087 9.85985 132.087 10.4773C132.087 11 131.935 11.4659 131.632 11.875C131.333 12.2803 130.914 12.5985 130.376 12.8295C129.842 13.0606 129.223 13.1761 128.518 13.1761C127.541 13.1761 126.744 12.9678 126.126 12.5511C125.509 12.1307 125.13 11.5341 124.99 10.7614L126.632 10.5114C126.734 10.9394 126.945 11.2633 127.263 11.483C127.581 11.6989 127.996 11.8068 128.507 11.8068C129.064 11.8068 129.509 11.6913 129.842 11.4602C130.176 11.2254 130.342 10.9394 130.342 10.6023C130.342 10.3295 130.24 10.1004 130.036 9.91477C129.835 9.72917 129.526 9.58902 129.109 9.49432L127.632 9.17045C126.818 8.98485 126.215 8.68939 125.825 8.28409C125.439 7.87879 125.246 7.36553 125.246 6.74432C125.246 6.22917 125.39 5.77841 125.678 5.39205C125.965 5.00568 126.363 4.70455 126.871 4.48864C127.378 4.26894 127.96 4.15909 128.615 4.15909C129.558 4.15909 130.301 4.36364 130.842 4.77273C131.384 5.17803 131.742 5.72159 131.916 6.40341ZM138.028 4.27273V5.63636H133.261V4.27273H138.028ZM134.54 2.18182H136.239V10.4375C136.239 10.767 136.288 11.0152 136.386 11.1818C136.485 11.3447 136.612 11.4564 136.767 11.517C136.926 11.5739 137.098 11.6023 137.284 11.6023C137.42 11.6023 137.54 11.5928 137.642 11.5739C137.744 11.5549 137.824 11.5398 137.881 11.5284L138.188 12.9318C138.089 12.9697 137.949 13.0076 137.767 13.0455C137.585 13.0871 137.358 13.1098 137.085 13.1136C136.638 13.1212 136.222 13.0417 135.835 12.875C135.449 12.7083 135.136 12.4508 134.898 12.1023C134.659 11.7538 134.54 11.3163 134.54 10.7898V2.18182ZM147.818 13.1761C146.973 13.1761 146.246 12.9848 145.636 12.6023C145.03 12.2159 144.564 11.6837 144.239 11.0057C143.913 10.3277 143.75 9.55114 143.75 8.67614C143.75 7.78977 143.917 7.00758 144.25 6.32955C144.583 5.64773 145.053 5.11553 145.659 4.73295C146.265 4.35038 146.979 4.15909 147.801 4.15909C148.464 4.15909 149.055 4.2822 149.574 4.52841C150.093 4.77083 150.511 5.11174 150.83 5.55114C151.152 5.99053 151.343 6.50379 151.403 7.09091H149.75C149.659 6.68182 149.451 6.32955 149.125 6.03409C148.803 5.73864 148.371 5.59091 147.83 5.59091C147.356 5.59091 146.941 5.71591 146.585 5.96591C146.233 6.21212 145.958 6.56439 145.761 7.02273C145.564 7.47727 145.466 8.01515 145.466 8.63636C145.466 9.27273 145.563 9.82197 145.756 10.2841C145.949 10.7462 146.222 11.1042 146.574 11.358C146.93 11.6117 147.348 11.7386 147.83 11.7386C148.152 11.7386 148.443 11.6799 148.705 11.5625C148.97 11.4413 149.191 11.2689 149.369 11.0455C149.551 10.822 149.678 10.553 149.75 10.2386H151.403C151.343 10.803 151.159 11.3068 150.852 11.75C150.545 12.1932 150.134 12.5417 149.619 12.7955C149.108 13.0492 148.508 13.1761 147.818 13.1761ZM156.896 13.1761C156.078 13.1761 155.364 12.9886 154.754 12.6136C154.144 12.2386 153.671 11.714 153.334 11.0398C152.997 10.3655 152.828 9.57765 152.828 8.67614C152.828 7.77083 152.997 6.97917 153.334 6.30114C153.671 5.62311 154.144 5.09659 154.754 4.72159C155.364 4.34659 156.078 4.15909 156.896 4.15909C157.714 4.15909 158.429 4.34659 159.038 4.72159C159.648 5.09659 160.122 5.62311 160.459 6.30114C160.796 6.97917 160.964 7.77083 160.964 8.67614C160.964 9.57765 160.796 10.3655 160.459 11.0398C160.122 11.714 159.648 12.2386 159.038 12.6136C158.429 12.9886 157.714 13.1761 156.896 13.1761ZM156.902 11.75C157.432 11.75 157.872 11.6098 158.22 11.3295C158.569 11.0492 158.826 10.6761 158.993 10.2102C159.163 9.74432 159.249 9.23106 159.249 8.67045C159.249 8.11364 159.163 7.60227 158.993 7.13636C158.826 6.66667 158.569 6.28977 158.22 6.00568C157.872 5.72159 157.432 5.57955 156.902 5.57955C156.368 5.57955 155.925 5.72159 155.572 6.00568C155.224 6.28977 154.964 6.66667 154.794 7.13636C154.627 7.60227 154.544 8.11364 154.544 8.67045C154.544 9.23106 154.627 9.74432 154.794 10.2102C154.964 10.6761 155.224 11.0492 155.572 11.3295C155.925 11.6098 156.368 11.75 156.902 11.75ZM162.861 13V4.27273H164.491V5.69318H164.599C164.781 5.21212 165.079 4.83712 165.491 4.56818C165.904 4.29545 166.399 4.15909 166.974 4.15909C167.558 4.15909 168.046 4.29545 168.44 4.56818C168.838 4.84091 169.132 5.21591 169.321 5.69318H169.412C169.62 5.22727 169.952 4.85606 170.406 4.57955C170.861 4.29924 171.402 4.15909 172.031 4.15909C172.823 4.15909 173.469 4.4072 173.969 4.90341C174.473 5.39962 174.724 6.14773 174.724 7.14773V13H173.026V7.30682C173.026 6.71591 172.865 6.28788 172.543 6.02273C172.221 5.75758 171.836 5.625 171.389 5.625C170.836 5.625 170.406 5.79545 170.099 6.13636C169.793 6.47348 169.639 6.9072 169.639 7.4375V13H167.946V7.19886C167.946 6.72538 167.798 6.3447 167.503 6.05682C167.207 5.76894 166.823 5.625 166.349 5.625C166.027 5.625 165.73 5.71023 165.457 5.88068C165.188 6.04735 164.971 6.2803 164.804 6.57955C164.641 6.87879 164.56 7.22538 164.56 7.61932V13H162.861ZM177.001 16.2727V4.27273H178.661V5.6875H178.803C178.901 5.50568 179.043 5.29545 179.229 5.05682C179.414 4.81818 179.672 4.60985 180.001 4.43182C180.331 4.25 180.767 4.15909 181.308 4.15909C182.013 4.15909 182.642 4.33712 183.195 4.69318C183.748 5.04924 184.181 5.5625 184.496 6.23295C184.814 6.90341 184.973 7.71023 184.973 8.65341C184.973 9.59659 184.816 10.4053 184.501 11.0795C184.187 11.75 183.755 12.267 183.206 12.6307C182.657 12.9905 182.03 13.1705 181.325 13.1705C180.795 13.1705 180.361 13.0814 180.024 12.9034C179.691 12.7254 179.429 12.517 179.24 12.2784C179.051 12.0398 178.905 11.8277 178.803 11.642H178.7V16.2727H177.001ZM178.666 8.63636C178.666 9.25 178.755 9.78788 178.933 10.25C179.111 10.7121 179.369 11.0739 179.706 11.3352C180.043 11.5928 180.456 11.7216 180.945 11.7216C181.452 11.7216 181.876 11.5871 182.217 11.3182C182.558 11.0455 182.816 10.6761 182.99 10.2102C183.168 9.74432 183.257 9.2197 183.257 8.63636C183.257 8.06061 183.17 7.54356 182.996 7.08523C182.825 6.62689 182.568 6.26515 182.223 6C181.882 5.73485 181.456 5.60227 180.945 5.60227C180.452 5.60227 180.036 5.72917 179.695 5.98295C179.357 6.23674 179.102 6.59091 178.928 7.04545C178.753 7.5 178.666 8.0303 178.666 8.63636ZM186.876 13V4.27273H188.518V5.65909H188.609C188.768 5.18939 189.049 4.82008 189.45 4.55114C189.856 4.27841 190.314 4.14205 190.825 4.14205C190.931 4.14205 191.056 4.14583 191.2 4.15341C191.348 4.16098 191.464 4.17045 191.547 4.18182V5.80682C191.479 5.78788 191.357 5.76705 191.183 5.74432C191.009 5.7178 190.835 5.70455 190.661 5.70455C190.259 5.70455 189.901 5.78977 189.587 5.96023C189.276 6.12689 189.03 6.35985 188.848 6.65909C188.666 6.95455 188.575 7.29167 188.575 7.67045V13H186.876ZM196.466 13.1761C195.606 13.1761 194.866 12.9924 194.244 12.625C193.627 12.2538 193.15 11.733 192.812 11.0625C192.479 10.3883 192.312 9.59848 192.312 8.69318C192.312 7.79924 192.479 7.01136 192.812 6.32955C193.15 5.64773 193.619 5.11553 194.222 4.73295C194.828 4.35038 195.536 4.15909 196.347 4.15909C196.839 4.15909 197.316 4.24053 197.778 4.40341C198.241 4.56629 198.655 4.82197 199.023 5.17045C199.39 5.51894 199.68 5.97159 199.892 6.52841C200.104 7.08144 200.21 7.75379 200.21 8.54545V9.14773H193.273V7.875H198.545C198.545 7.42803 198.455 7.0322 198.273 6.6875C198.091 6.33902 197.835 6.06439 197.506 5.86364C197.18 5.66288 196.797 5.5625 196.358 5.5625C195.881 5.5625 195.464 5.67992 195.108 5.91477C194.756 6.14583 194.483 6.44886 194.29 6.82386C194.1 7.19508 194.006 7.59848 194.006 8.03409V9.02841C194.006 9.61174 194.108 10.108 194.312 10.517C194.521 10.9261 194.811 11.2386 195.182 11.4545C195.553 11.6667 195.987 11.7727 196.483 11.7727C196.805 11.7727 197.098 11.7273 197.364 11.6364C197.629 11.5417 197.858 11.4015 198.051 11.2159C198.244 11.0303 198.392 10.8011 198.494 10.5284L200.102 10.8182C199.973 11.2917 199.742 11.7064 199.409 12.0625C199.08 12.4148 198.665 12.6894 198.165 12.8864C197.669 13.0795 197.102 13.1761 196.466 13.1761ZM203.794 7.81818V13H202.095V1.36364H203.771V5.69318H203.879C204.084 5.22348 204.396 4.85038 204.817 4.57386C205.237 4.29735 205.786 4.15909 206.464 4.15909C207.063 4.15909 207.586 4.2822 208.033 4.52841C208.483 4.77462 208.832 5.14205 209.078 5.63068C209.328 6.11553 209.453 6.72159 209.453 7.44886V13H207.754V7.65341C207.754 7.01326 207.589 6.51705 207.26 6.16477C206.93 5.80871 206.472 5.63068 205.885 5.63068C205.483 5.63068 205.124 5.71591 204.805 5.88636C204.491 6.05682 204.243 6.30682 204.061 6.63636C203.883 6.96212 203.794 7.35606 203.794 7.81818ZM215.482 13.1761C214.622 13.1761 213.881 12.9924 213.26 12.625C212.643 12.2538 212.165 11.733 211.828 11.0625C211.495 10.3883 211.328 9.59848 211.328 8.69318C211.328 7.79924 211.495 7.01136 211.828 6.32955C212.165 5.64773 212.635 5.11553 213.237 4.73295C213.843 4.35038 214.552 4.15909 215.362 4.15909C215.855 4.15909 216.332 4.24053 216.794 4.40341C217.256 4.56629 217.671 4.82197 218.038 5.17045C218.406 5.51894 218.696 5.97159 218.908 6.52841C219.12 7.08144 219.226 7.75379 219.226 8.54545V9.14773H212.288V7.875H217.561C217.561 7.42803 217.47 7.0322 217.288 6.6875C217.107 6.33902 216.851 6.06439 216.521 5.86364C216.196 5.66288 215.813 5.5625 215.374 5.5625C214.896 5.5625 214.48 5.67992 214.124 5.91477C213.771 6.14583 213.499 6.44886 213.305 6.82386C213.116 7.19508 213.021 7.59848 213.021 8.03409V9.02841C213.021 9.61174 213.124 10.108 213.328 10.517C213.536 10.9261 213.826 11.2386 214.197 11.4545C214.569 11.6667 215.002 11.7727 215.499 11.7727C215.821 11.7727 216.114 11.7273 216.379 11.6364C216.644 11.5417 216.874 11.4015 217.067 11.2159C217.26 11.0303 217.408 10.8011 217.51 10.5284L219.118 10.8182C218.989 11.2917 218.758 11.7064 218.425 12.0625C218.095 12.4148 217.68 12.6894 217.18 12.8864C216.684 13.0795 216.118 13.1761 215.482 13.1761ZM222.81 7.81818V13H221.111V4.27273H222.741V5.69318H222.849C223.05 5.23106 223.365 4.85985 223.793 4.57955C224.224 4.29924 224.768 4.15909 225.423 4.15909C226.018 4.15909 226.539 4.28409 226.986 4.53409C227.433 4.7803 227.779 5.14773 228.026 5.63636C228.272 6.125 228.395 6.72917 228.395 7.44886V13H226.696V7.65341C226.696 7.02083 226.531 6.52652 226.202 6.17045C225.872 5.81061 225.42 5.63068 224.844 5.63068C224.45 5.63068 224.099 5.71591 223.793 5.88636C223.49 6.05682 223.249 6.30682 223.071 6.63636C222.897 6.96212 222.81 7.35606 222.81 7.81818ZM237.213 6.40341L235.673 6.67614C235.609 6.47917 235.507 6.29167 235.366 6.11364C235.23 5.93561 235.045 5.78977 234.81 5.67614C234.575 5.5625 234.281 5.50568 233.929 5.50568C233.448 5.50568 233.046 5.61364 232.724 5.82955C232.402 6.04167 232.241 6.31629 232.241 6.65341C232.241 6.94508 232.349 7.17992 232.565 7.35795C232.781 7.53598 233.13 7.68182 233.611 7.79545L234.997 8.11364C235.8 8.29924 236.399 8.58523 236.793 8.97159C237.187 9.35795 237.384 9.85985 237.384 10.4773C237.384 11 237.232 11.4659 236.929 11.875C236.63 12.2803 236.211 12.5985 235.673 12.8295C235.139 13.0606 234.52 13.1761 233.815 13.1761C232.838 13.1761 232.041 12.9678 231.423 12.5511C230.806 12.1307 230.427 11.5341 230.287 10.7614L231.929 10.5114C232.031 10.9394 232.241 11.2633 232.56 11.483C232.878 11.6989 233.293 11.8068 233.804 11.8068C234.361 11.8068 234.806 11.6913 235.139 11.4602C235.473 11.2254 235.639 10.9394 235.639 10.6023C235.639 10.3295 235.537 10.1004 235.332 9.91477C235.132 9.72917 234.823 9.58902 234.406 9.49432L232.929 9.17045C232.115 8.98485 231.512 8.68939 231.122 8.28409C230.736 7.87879 230.543 7.36553 230.543 6.74432C230.543 6.22917 230.687 5.77841 230.974 5.39205C231.262 5.00568 231.66 4.70455 232.168 4.48864C232.675 4.26894 233.257 4.15909 233.912 4.15909C234.855 4.15909 235.598 4.36364 236.139 4.77273C236.681 5.17803 237.039 5.72159 237.213 6.40341ZM239.251 13V4.27273H240.95V13H239.251ZM240.109 2.92614C239.814 2.92614 239.56 2.82765 239.348 2.63068C239.14 2.42992 239.036 2.19129 239.036 1.91477C239.036 1.63447 239.14 1.39583 239.348 1.19886C239.56 0.998106 239.814 0.897727 240.109 0.897727C240.405 0.897727 240.657 0.998106 240.865 1.19886C241.077 1.39583 241.183 1.63447 241.183 1.91477C241.183 2.19129 241.077 2.42992 240.865 2.63068C240.657 2.82765 240.405 2.92614 240.109 2.92614ZM250.702 4.27273L247.537 13H245.719L242.548 4.27273H244.372L246.582 10.9886H246.673L248.878 4.27273H250.702ZM255.763 13.1761C254.903 13.1761 254.162 12.9924 253.541 12.625C252.924 12.2538 252.446 11.733 252.109 11.0625C251.776 10.3883 251.609 9.59848 251.609 8.69318C251.609 7.79924 251.776 7.01136 252.109 6.32955C252.446 5.64773 252.916 5.11553 253.518 4.73295C254.125 4.35038 254.833 4.15909 255.643 4.15909C256.136 4.15909 256.613 4.24053 257.075 4.40341C257.537 4.56629 257.952 4.82197 258.32 5.17045C258.687 5.51894 258.977 5.97159 259.189 6.52841C259.401 7.08144 259.507 7.75379 259.507 8.54545V9.14773H252.57V7.875H257.842C257.842 7.42803 257.751 7.0322 257.57 6.6875C257.388 6.33902 257.132 6.06439 256.803 5.86364C256.477 5.66288 256.094 5.5625 255.655 5.5625C255.178 5.5625 254.761 5.67992 254.405 5.91477C254.053 6.14583 253.78 6.44886 253.587 6.82386C253.397 7.19508 253.303 7.59848 253.303 8.03409V9.02841C253.303 9.61174 253.405 10.108 253.609 10.517C253.818 10.9261 254.107 11.2386 254.479 11.4545C254.85 11.6667 255.284 11.7727 255.78 11.7727C256.102 11.7727 256.395 11.7273 256.661 11.6364C256.926 11.5417 257.155 11.4015 257.348 11.2159C257.541 11.0303 257.689 10.8011 257.791 10.5284L259.399 10.8182C259.27 11.2917 259.039 11.7064 258.706 12.0625C258.376 12.4148 257.962 12.6894 257.462 12.8864C256.965 13.0795 256.399 13.1761 255.763 13.1761ZM2.29545 25.3636L5.53409 34.8409H5.66477L8.90341 25.3636H10.8011L6.61364 37H4.58523L0.397727 25.3636H2.29545ZM12.4815 37V25.3636H16.6293C17.5308 25.3636 18.2789 25.5189 18.8736 25.8295C19.4721 26.1402 19.919 26.5701 20.2145 27.1193C20.5099 27.6648 20.6577 28.2955 20.6577 29.0114C20.6577 29.7235 20.508 30.3504 20.2088 30.892C19.9134 31.4299 19.4664 31.8485 18.8679 32.1477C18.2732 32.447 17.5251 32.5966 16.6236 32.5966H13.4815V31.0852H16.4645C17.0327 31.0852 17.4948 31.0038 17.8509 30.8409C18.2107 30.678 18.474 30.4413 18.6406 30.1307C18.8073 29.8201 18.8906 29.447 18.8906 29.0114C18.8906 28.572 18.8054 28.1913 18.6349 27.8693C18.4683 27.5473 18.205 27.3011 17.8452 27.1307C17.4891 26.9564 17.0213 26.8693 16.4418 26.8693H14.2372V37H12.4815ZM18.2259 31.75L21.1009 37H19.1009L16.2827 31.75H18.2259ZM27.0284 37V25.3636H28.7841V35.4886H34.0568V37H27.0284ZM39.5994 37.1761C38.7813 37.1761 38.0672 36.9886 37.4574 36.6136C36.8475 36.2386 36.3741 35.714 36.0369 35.0398C35.6998 34.3655 35.5312 33.5777 35.5312 32.6761C35.5312 31.7708 35.6998 30.9792 36.0369 30.3011C36.3741 29.6231 36.8475 29.0966 37.4574 28.7216C38.0672 28.3466 38.7813 28.1591 39.5994 28.1591C40.4176 28.1591 41.1316 28.3466 41.7415 28.7216C42.3513 29.0966 42.8248 29.6231 43.1619 30.3011C43.4991 30.9792 43.6676 31.7708 43.6676 32.6761C43.6676 33.5777 43.4991 34.3655 43.1619 35.0398C42.8248 35.714 42.3513 36.2386 41.7415 36.6136C41.1316 36.9886 40.4176 37.1761 39.5994 37.1761ZM39.6051 35.75C40.1354 35.75 40.5748 35.6098 40.9233 35.3295C41.2718 35.0492 41.5294 34.6761 41.696 34.2102C41.8665 33.7443 41.9517 33.2311 41.9517 32.6705C41.9517 32.1136 41.8665 31.6023 41.696 31.1364C41.5294 30.6667 41.2718 30.2898 40.9233 30.0057C40.5748 29.7216 40.1354 29.5795 39.6051 29.5795C39.071 29.5795 38.6278 29.7216 38.2756 30.0057C37.9271 30.2898 37.6676 30.6667 37.4972 31.1364C37.3305 31.6023 37.2472 32.1136 37.2472 32.6705C37.2472 33.2311 37.3305 33.7443 37.4972 34.2102C37.6676 34.6761 37.9271 35.0492 38.2756 35.3295C38.6278 35.6098 39.071 35.75 39.6051 35.75ZM49.2401 37.1761C48.3954 37.1761 47.6681 36.9848 47.0582 36.6023C46.4522 36.2159 45.9863 35.6837 45.6605 35.0057C45.3348 34.3277 45.1719 33.5511 45.1719 32.6761C45.1719 31.7898 45.3385 31.0076 45.6719 30.3295C46.0052 29.6477 46.4749 29.1155 47.081 28.733C47.687 28.3504 48.401 28.1591 49.223 28.1591C49.8859 28.1591 50.4768 28.2822 50.9957 28.5284C51.5147 28.7708 51.9332 29.1117 52.2514 29.5511C52.5734 29.9905 52.7647 30.5038 52.8253 31.0909H51.1719C51.081 30.6818 50.8726 30.3295 50.5469 30.0341C50.2249 29.7386 49.7931 29.5909 49.2514 29.5909C48.7779 29.5909 48.3632 29.7159 48.0071 29.9659C47.6548 30.2121 47.3802 30.5644 47.1832 31.0227C46.9863 31.4773 46.8878 32.0152 46.8878 32.6364C46.8878 33.2727 46.9844 33.822 47.1776 34.2841C47.3707 34.7462 47.6435 35.1042 47.9957 35.358C48.3518 35.6117 48.7704 35.7386 49.2514 35.7386C49.5734 35.7386 49.8651 35.6799 50.1264 35.5625C50.3916 35.4413 50.6132 35.2689 50.7912 35.0455C50.973 34.822 51.0999 34.553 51.1719 34.2386H52.8253C52.7647 34.803 52.581 35.3068 52.2741 35.75C51.9673 36.1932 51.5563 36.5417 51.0412 36.7955C50.5298 37.0492 49.9295 37.1761 49.2401 37.1761ZM58.3182 37.1761C57.5 37.1761 56.786 36.9886 56.1761 36.6136C55.5663 36.2386 55.0928 35.714 54.7557 35.0398C54.4186 34.3655 54.25 33.5777 54.25 32.6761C54.25 31.7708 54.4186 30.9792 54.7557 30.3011C55.0928 29.6231 55.5663 29.0966 56.1761 28.7216C56.786 28.3466 57.5 28.1591 58.3182 28.1591C59.1364 28.1591 59.8504 28.3466 60.4602 28.7216C61.0701 29.0966 61.5436 29.6231 61.8807 30.3011C62.2178 30.9792 62.3864 31.7708 62.3864 32.6761C62.3864 33.5777 62.2178 34.3655 61.8807 35.0398C61.5436 35.714 61.0701 36.2386 60.4602 36.6136C59.8504 36.9886 59.1364 37.1761 58.3182 37.1761ZM58.3239 35.75C58.8542 35.75 59.2936 35.6098 59.642 35.3295C59.9905 35.0492 60.2481 34.6761 60.4148 34.2102C60.5852 33.7443 60.6705 33.2311 60.6705 32.6705C60.6705 32.1136 60.5852 31.6023 60.4148 31.1364C60.2481 30.6667 59.9905 30.2898 59.642 30.0057C59.2936 29.7216 58.8542 29.5795 58.3239 29.5795C57.7898 29.5795 57.3466 29.7216 56.9943 30.0057C56.6458 30.2898 56.3864 30.6667 56.2159 31.1364C56.0492 31.6023 55.9659 32.1136 55.9659 32.6705C55.9659 33.2311 56.0492 33.7443 56.2159 34.2102C56.3864 34.6761 56.6458 35.0492 56.9943 35.3295C57.3466 35.6098 57.7898 35.75 58.3239 35.75ZM64.2827 37V28.2727H65.9134V29.6932H66.0213C66.2031 29.2121 66.5005 28.8371 66.9134 28.5682C67.3262 28.2955 67.8205 28.1591 68.3963 28.1591C68.9796 28.1591 69.4683 28.2955 69.8622 28.5682C70.2599 28.8409 70.5535 29.2159 70.7429 29.6932H70.8338C71.0421 29.2273 71.3736 28.8561 71.8281 28.5795C72.2827 28.2992 72.8243 28.1591 73.4531 28.1591C74.2448 28.1591 74.8906 28.4072 75.3906 28.9034C75.8944 29.3996 76.1463 30.1477 76.1463 31.1477V37H74.4474V31.3068C74.4474 30.7159 74.2865 30.2879 73.9645 30.0227C73.6425 29.7576 73.258 29.625 72.8111 29.625C72.258 29.625 71.8281 29.7955 71.5213 30.1364C71.2145 30.4735 71.0611 30.9072 71.0611 31.4375V37H69.3679V31.1989C69.3679 30.7254 69.2202 30.3447 68.9247 30.0568C68.6293 29.7689 68.2448 29.625 67.7713 29.625C67.4493 29.625 67.152 29.7102 66.8793 29.8807C66.6103 30.0473 66.3925 30.2803 66.2259 30.5795C66.063 30.8788 65.9815 31.2254 65.9815 31.6193V37H64.2827ZM82.0994 37.1761C81.2813 37.1761 80.5672 36.9886 79.9574 36.6136C79.3475 36.2386 78.8741 35.714 78.5369 35.0398C78.1998 34.3655 78.0312 33.5777 78.0312 32.6761C78.0312 31.7708 78.1998 30.9792 78.5369 30.3011C78.8741 29.6231 79.3475 29.0966 79.9574 28.7216C80.5672 28.3466 81.2813 28.1591 82.0994 28.1591C82.9176 28.1591 83.6316 28.3466 84.2415 28.7216C84.8513 29.0966 85.3248 29.6231 85.6619 30.3011C85.9991 30.9792 86.1676 31.7708 86.1676 32.6761C86.1676 33.5777 85.9991 34.3655 85.6619 35.0398C85.3248 35.714 84.8513 36.2386 84.2415 36.6136C83.6316 36.9886 82.9176 37.1761 82.0994 37.1761ZM82.1051 35.75C82.6354 35.75 83.0748 35.6098 83.4233 35.3295C83.7718 35.0492 84.0294 34.6761 84.196 34.2102C84.3665 33.7443 84.4517 33.2311 84.4517 32.6705C84.4517 32.1136 84.3665 31.6023 84.196 31.1364C84.0294 30.6667 83.7718 30.2898 83.4233 30.0057C83.0748 29.7216 82.6354 29.5795 82.1051 29.5795C81.571 29.5795 81.1278 29.7216 80.7756 30.0057C80.4271 30.2898 80.1676 30.6667 79.9972 31.1364C79.8305 31.6023 79.7472 32.1136 79.7472 32.6705C79.7472 33.2311 79.8305 33.7443 79.9972 34.2102C80.1676 34.6761 80.4271 35.0492 80.7756 35.3295C81.1278 35.6098 81.571 35.75 82.1051 35.75ZM92.1378 28.2727V29.6364H87.3707V28.2727H92.1378ZM88.6491 26.1818H90.348V34.4375C90.348 34.767 90.3973 35.0152 90.4957 35.1818C90.5942 35.3447 90.7211 35.4564 90.8764 35.517C91.0355 35.5739 91.2079 35.6023 91.3935 35.6023C91.5298 35.6023 91.6491 35.5928 91.7514 35.5739C91.8537 35.5549 91.9332 35.5398 91.9901 35.5284L92.2969 36.9318C92.1984 36.9697 92.0582 37.0076 91.8764 37.0455C91.6946 37.0871 91.4673 37.1098 91.1946 37.1136C90.7476 37.1212 90.331 37.0417 89.9446 36.875C89.5582 36.7083 89.2457 36.4508 89.0071 36.1023C88.7685 35.7538 88.6491 35.3163 88.6491 34.7898V26.1818ZM94.017 37V28.2727H95.7159V37H94.017ZM94.875 26.9261C94.5795 26.9261 94.3258 26.8277 94.1136 26.6307C93.9053 26.4299 93.8011 26.1913 93.8011 25.9148C93.8011 25.6345 93.9053 25.3958 94.1136 25.1989C94.3258 24.9981 94.5795 24.8977 94.875 24.8977C95.1705 24.8977 95.4223 24.9981 95.6307 25.1989C95.8428 25.3958 95.9489 25.6345 95.9489 25.9148C95.9489 26.1913 95.8428 26.4299 95.6307 26.6307C95.4223 26.8277 95.1705 26.9261 94.875 26.9261ZM101.678 37.1761C100.859 37.1761 100.145 36.9886 99.5355 36.6136C98.9257 36.2386 98.4522 35.714 98.1151 35.0398C97.7779 34.3655 97.6094 33.5777 97.6094 32.6761C97.6094 31.7708 97.7779 30.9792 98.1151 30.3011C98.4522 29.6231 98.9257 29.0966 99.5355 28.7216C100.145 28.3466 100.859 28.1591 101.678 28.1591C102.496 28.1591 103.21 28.3466 103.82 28.7216C104.429 29.0966 104.903 29.6231 105.24 30.3011C105.577 30.9792 105.746 31.7708 105.746 32.6761C105.746 33.5777 105.577 34.3655 105.24 35.0398C104.903 35.714 104.429 36.2386 103.82 36.6136C103.21 36.9886 102.496 37.1761 101.678 37.1761ZM101.683 35.75C102.214 35.75 102.653 35.6098 103.001 35.3295C103.35 35.0492 103.607 34.6761 103.774 34.2102C103.945 33.7443 104.03 33.2311 104.03 32.6705C104.03 32.1136 103.945 31.6023 103.774 31.1364C103.607 30.6667 103.35 30.2898 103.001 30.0057C102.653 29.7216 102.214 29.5795 101.683 29.5795C101.149 29.5795 100.706 29.7216 100.354 30.0057C100.005 30.2898 99.7457 30.6667 99.5753 31.1364C99.4086 31.6023 99.3253 32.1136 99.3253 32.6705C99.3253 33.2311 99.4086 33.7443 99.5753 34.2102C99.7457 34.6761 100.005 35.0492 100.354 35.3295C100.706 35.6098 101.149 35.75 101.683 35.75ZM109.341 31.8182V37H107.642V28.2727H109.273V29.6932H109.381C109.581 29.2311 109.896 28.8598 110.324 28.5795C110.756 28.2992 111.299 28.1591 111.955 28.1591C112.549 28.1591 113.07 28.2841 113.517 28.5341C113.964 28.7803 114.311 29.1477 114.557 29.6364C114.803 30.125 114.926 30.7292 114.926 31.4489V37H113.227V31.6534C113.227 31.0208 113.063 30.5265 112.733 30.1705C112.403 29.8106 111.951 29.6307 111.375 29.6307C110.981 29.6307 110.631 29.7159 110.324 29.8864C110.021 30.0568 109.78 30.3068 109.602 30.6364C109.428 30.9621 109.341 31.3561 109.341 31.8182ZM127.979 30.4034L126.439 30.6761C126.375 30.4792 126.272 30.2917 126.132 30.1136C125.996 29.9356 125.81 29.7898 125.575 29.6761C125.34 29.5625 125.047 29.5057 124.695 29.5057C124.214 29.5057 123.812 29.6136 123.49 29.8295C123.168 30.0417 123.007 30.3163 123.007 30.6534C123.007 30.9451 123.115 31.1799 123.331 31.358C123.547 31.536 123.895 31.6818 124.376 31.7955L125.763 32.1136C126.566 32.2992 127.164 32.5852 127.558 32.9716C127.952 33.358 128.149 33.8598 128.149 34.4773C128.149 35 127.998 35.4659 127.695 35.875C127.395 36.2803 126.977 36.5985 126.439 36.8295C125.905 37.0606 125.286 37.1761 124.581 37.1761C123.604 37.1761 122.806 36.9678 122.189 36.5511C121.571 36.1307 121.193 35.5341 121.053 34.7614L122.695 34.5114C122.797 34.9394 123.007 35.2633 123.325 35.483C123.643 35.6989 124.058 35.8068 124.57 35.8068C125.126 35.8068 125.571 35.6913 125.905 35.4602C126.238 35.2254 126.405 34.9394 126.405 34.6023C126.405 34.3295 126.303 34.1004 126.098 33.9148C125.897 33.7292 125.589 33.589 125.172 33.4943L123.695 33.1705C122.88 32.9848 122.278 32.6894 121.888 32.2841C121.501 31.8788 121.308 31.3655 121.308 30.7443C121.308 30.2292 121.452 29.7784 121.74 29.392C122.028 29.0057 122.426 28.7045 122.933 28.4886C123.441 28.2689 124.022 28.1591 124.678 28.1591C125.621 28.1591 126.363 28.3636 126.905 28.7727C127.446 29.178 127.804 29.7216 127.979 30.4034ZM131.091 40.2727C130.837 40.2727 130.606 40.2519 130.398 40.2102C130.189 40.1723 130.034 40.1307 129.932 40.0852L130.341 38.6932C130.652 38.7765 130.928 38.8125 131.17 38.8011C131.413 38.7898 131.627 38.6989 131.812 38.5284C132.002 38.358 132.169 38.0795 132.312 37.6932L132.523 37.1136L129.33 28.2727H131.148L133.358 35.0455H133.449L135.659 28.2727H137.483L133.886 38.1648C133.72 38.6193 133.508 39.0038 133.25 39.3182C132.992 39.6364 132.686 39.875 132.33 40.0341C131.973 40.1932 131.561 40.2727 131.091 40.2727ZM145.619 30.4034L144.08 30.6761C144.015 30.4792 143.913 30.2917 143.773 30.1136C143.636 29.9356 143.451 29.7898 143.216 29.6761C142.981 29.5625 142.688 29.5057 142.335 29.5057C141.854 29.5057 141.453 29.6136 141.131 29.8295C140.809 30.0417 140.648 30.3163 140.648 30.6534C140.648 30.9451 140.756 31.1799 140.972 31.358C141.188 31.536 141.536 31.6818 142.017 31.7955L143.403 32.1136C144.206 32.2992 144.805 32.5852 145.199 32.9716C145.593 33.358 145.79 33.8598 145.79 34.4773C145.79 35 145.638 35.4659 145.335 35.875C145.036 36.2803 144.617 36.5985 144.08 36.8295C143.545 37.0606 142.926 37.1761 142.222 37.1761C141.244 37.1761 140.447 36.9678 139.83 36.5511C139.212 36.1307 138.833 35.5341 138.693 34.7614L140.335 34.5114C140.438 34.9394 140.648 35.2633 140.966 35.483C141.284 35.6989 141.699 35.8068 142.21 35.8068C142.767 35.8068 143.212 35.6913 143.545 35.4602C143.879 35.2254 144.045 34.9394 144.045 34.6023C144.045 34.3295 143.943 34.1004 143.739 33.9148C143.538 33.7292 143.229 33.589 142.812 33.4943L141.335 33.1705C140.521 32.9848 139.919 32.6894 139.528 32.2841C139.142 31.8788 138.949 31.3655 138.949 30.7443C138.949 30.2292 139.093 29.7784 139.381 29.392C139.669 29.0057 140.066 28.7045 140.574 28.4886C141.081 28.2689 141.663 28.1591 142.318 28.1591C143.261 28.1591 144.004 28.3636 144.545 28.7727C145.087 29.178 145.445 29.7216 145.619 30.4034ZM151.732 28.2727V29.6364H146.964V28.2727H151.732ZM148.243 26.1818H149.942V34.4375C149.942 34.767 149.991 35.0152 150.089 35.1818C150.188 35.3447 150.315 35.4564 150.47 35.517C150.629 35.5739 150.802 35.6023 150.987 35.6023C151.124 35.6023 151.243 35.5928 151.345 35.5739C151.447 35.5549 151.527 35.5398 151.584 35.5284L151.891 36.9318C151.792 36.9697 151.652 37.0076 151.47 37.0455C151.288 37.0871 151.061 37.1098 150.788 37.1136C150.341 37.1212 149.925 37.0417 149.538 36.875C149.152 36.7083 148.839 36.4508 148.601 36.1023C148.362 35.7538 148.243 35.3163 148.243 34.7898V26.1818ZM157.278 37.1761C156.419 37.1761 155.678 36.9924 155.057 36.625C154.439 36.2538 153.962 35.733 153.625 35.0625C153.292 34.3883 153.125 33.5985 153.125 32.6932C153.125 31.7992 153.292 31.0114 153.625 30.3295C153.962 29.6477 154.432 29.1155 155.034 28.733C155.64 28.3504 156.348 28.1591 157.159 28.1591C157.652 28.1591 158.129 28.2405 158.591 28.4034C159.053 28.5663 159.468 28.822 159.835 29.1705C160.203 29.5189 160.492 29.9716 160.705 30.5284C160.917 31.0814 161.023 31.7538 161.023 32.5455V33.1477H154.085V31.875H159.358C159.358 31.428 159.267 31.0322 159.085 30.6875C158.903 30.339 158.648 30.0644 158.318 29.8636C157.992 29.6629 157.61 29.5625 157.17 29.5625C156.693 29.5625 156.277 29.6799 155.92 29.9148C155.568 30.1458 155.295 30.4489 155.102 30.8239C154.913 31.1951 154.818 31.5985 154.818 32.0341V33.0284C154.818 33.6117 154.92 34.108 155.125 34.517C155.333 34.9261 155.623 35.2386 155.994 35.4545C156.366 35.6667 156.799 35.7727 157.295 35.7727C157.617 35.7727 157.911 35.7273 158.176 35.6364C158.441 35.5417 158.67 35.4015 158.864 35.2159C159.057 35.0303 159.205 34.8011 159.307 34.5284L160.915 34.8182C160.786 35.2917 160.555 35.7064 160.222 36.0625C159.892 36.4148 159.477 36.6894 158.977 36.8864C158.481 37.0795 157.915 37.1761 157.278 37.1761ZM162.908 37V28.2727H164.538V29.6932H164.646C164.828 29.2121 165.125 28.8371 165.538 28.5682C165.951 28.2955 166.446 28.1591 167.021 28.1591C167.605 28.1591 168.093 28.2955 168.487 28.5682C168.885 28.8409 169.179 29.2159 169.368 29.6932H169.459C169.667 29.2273 169.999 28.8561 170.453 28.5795C170.908 28.2992 171.449 28.1591 172.078 28.1591C172.87 28.1591 173.516 28.4072 174.016 28.9034C174.519 29.3996 174.771 30.1477 174.771 31.1477V37H173.072V31.3068C173.072 30.7159 172.911 30.2879 172.589 30.0227C172.268 29.7576 171.883 29.625 171.436 29.625C170.883 29.625 170.453 29.7955 170.146 30.1364C169.839 30.4735 169.686 30.9072 169.686 31.4375V37H167.993V31.1989C167.993 30.7254 167.845 30.3447 167.55 30.0568C167.254 29.7689 166.87 29.625 166.396 29.625C166.074 29.625 165.777 29.7102 165.504 29.8807C165.235 30.0473 165.018 30.2803 164.851 30.5795C164.688 30.8788 164.607 31.2254 164.607 31.6193V37H162.908ZM179.259 35.4091L179.173 36.0284C179.116 36.483 179.02 36.9564 178.884 37.4489C178.751 37.9451 178.613 38.4053 178.469 38.8295C178.329 39.2538 178.213 39.5909 178.122 39.8409H176.918C176.967 39.6061 177.035 39.2879 177.122 38.8864C177.209 38.4886 177.295 38.0436 177.378 37.5511C177.461 37.0587 177.524 36.5568 177.565 36.0455L177.622 35.4091H179.259ZM188.244 37.1932C187.691 37.1932 187.191 37.0909 186.744 36.8864C186.297 36.678 185.943 36.3769 185.682 35.983C185.424 35.589 185.295 35.1061 185.295 34.5341C185.295 34.0417 185.39 33.6364 185.58 33.3182C185.769 33 186.025 32.7481 186.347 32.5625C186.669 32.3769 187.028 32.2367 187.426 32.142C187.824 32.0473 188.229 31.9754 188.642 31.9261C189.165 31.8655 189.589 31.8163 189.915 31.7784C190.241 31.7367 190.477 31.6705 190.625 31.5795C190.773 31.4886 190.847 31.3409 190.847 31.1364V31.0966C190.847 30.6004 190.706 30.2159 190.426 29.9432C190.15 29.6705 189.737 29.5341 189.188 29.5341C188.616 29.5341 188.165 29.661 187.835 29.9148C187.509 30.1648 187.284 30.4432 187.159 30.75L185.562 30.3864C185.752 29.8561 186.028 29.428 186.392 29.1023C186.759 28.7727 187.182 28.5341 187.659 28.3864C188.136 28.2348 188.638 28.1591 189.165 28.1591C189.513 28.1591 189.883 28.2008 190.273 28.2841C190.667 28.3636 191.034 28.5114 191.375 28.7273C191.72 28.9432 192.002 29.2519 192.222 29.6534C192.441 30.0511 192.551 30.5682 192.551 31.2045V37H190.892V35.8068H190.824C190.714 36.0265 190.549 36.2424 190.33 36.4545C190.11 36.6667 189.828 36.8428 189.483 36.983C189.138 37.1231 188.725 37.1932 188.244 37.1932ZM188.614 35.8295C189.083 35.8295 189.485 35.7367 189.818 35.5511C190.155 35.3655 190.411 35.1231 190.585 34.8239C190.763 34.5208 190.852 34.197 190.852 33.8523V32.7273C190.792 32.7879 190.674 32.8447 190.5 32.8977C190.33 32.947 190.134 32.9905 189.915 33.0284C189.695 33.0625 189.481 33.0947 189.273 33.125C189.064 33.1515 188.89 33.1742 188.75 33.1932C188.42 33.2348 188.119 33.3049 187.847 33.4034C187.578 33.5019 187.362 33.6439 187.199 33.8295C187.04 34.0114 186.96 34.2538 186.96 34.5568C186.96 34.9773 187.116 35.2955 187.426 35.5114C187.737 35.7235 188.133 35.8295 188.614 35.8295ZM196.513 31.8182V37H194.814V28.2727H196.445V29.6932H196.553C196.753 29.2311 197.068 28.8598 197.496 28.5795C197.928 28.2992 198.471 28.1591 199.126 28.1591C199.721 28.1591 200.242 28.2841 200.689 28.5341C201.136 28.7803 201.482 29.1477 201.729 29.6364C201.975 30.125 202.098 30.7292 202.098 31.4489V37H200.399V31.6534C200.399 31.0208 200.234 30.5265 199.905 30.1705C199.575 29.8106 199.123 29.6307 198.547 29.6307C198.153 29.6307 197.803 29.7159 197.496 29.8864C197.193 30.0568 196.952 30.3068 196.774 30.6364C196.6 30.9621 196.513 31.3561 196.513 31.8182ZM207.643 37.1705C206.939 37.1705 206.31 36.9905 205.757 36.6307C205.208 36.267 204.776 35.75 204.462 35.0795C204.151 34.4053 203.996 33.5966 203.996 32.6534C203.996 31.7102 204.153 30.9034 204.467 30.233C204.786 29.5625 205.221 29.0492 205.774 28.6932C206.327 28.3371 206.954 28.1591 207.655 28.1591C208.196 28.1591 208.632 28.25 208.962 28.4318C209.295 28.6098 209.553 28.8182 209.734 29.0568C209.92 29.2955 210.064 29.5057 210.166 29.6875H210.268V25.3636H211.967V37H210.308V35.642H210.166C210.064 35.8277 209.916 36.0398 209.723 36.2784C209.534 36.517 209.272 36.7254 208.939 36.9034C208.606 37.0814 208.174 37.1705 207.643 37.1705ZM208.018 35.7216C208.507 35.7216 208.92 35.5928 209.257 35.3352C209.598 35.0739 209.856 34.7121 210.03 34.25C210.208 33.7879 210.297 33.25 210.297 32.6364C210.297 32.0303 210.21 31.5 210.036 31.0455C209.861 30.5909 209.606 30.2367 209.268 29.983C208.931 29.7292 208.515 29.6023 208.018 29.6023C207.507 29.6023 207.081 29.7348 206.74 30C206.399 30.2652 206.142 30.6269 205.967 31.0852C205.797 31.5436 205.712 32.0606 205.712 32.6364C205.712 33.2197 205.799 33.7443 205.973 34.2102C206.147 34.6761 206.405 35.0455 206.746 35.3182C207.09 35.5871 207.515 35.7216 208.018 35.7216ZM224.155 33.3807V28.2727H225.859V37H224.189V35.4886H224.098C223.897 35.9545 223.575 36.3428 223.132 36.6534C222.693 36.9602 222.145 37.1136 221.49 37.1136C220.929 37.1136 220.433 36.9905 220.001 36.7443C219.573 36.4943 219.236 36.125 218.99 35.6364C218.748 35.1477 218.626 34.5436 218.626 33.8239V28.2727H220.325V33.6193C220.325 34.214 220.49 34.6875 220.82 35.0398C221.149 35.392 221.577 35.5682 222.104 35.5682C222.422 35.5682 222.738 35.4886 223.053 35.3295C223.371 35.1705 223.634 34.9299 223.842 34.608C224.054 34.286 224.159 33.8769 224.155 33.3807ZM229.841 31.8182V37H228.142V28.2727H229.773V29.6932H229.881C230.081 29.2311 230.396 28.8598 230.824 28.5795C231.256 28.2992 231.799 28.1591 232.455 28.1591C233.049 28.1591 233.57 28.2841 234.017 28.5341C234.464 28.7803 234.811 29.1477 235.057 29.6364C235.303 30.125 235.426 30.7292 235.426 31.4489V37H233.727V31.6534C233.727 31.0208 233.563 30.5265 233.233 30.1705C232.903 29.8106 232.451 29.6307 231.875 29.6307C231.481 29.6307 231.131 29.7159 230.824 29.8864C230.521 30.0568 230.28 30.3068 230.102 30.6364C229.928 30.9621 229.841 31.3561 229.841 31.8182ZM239.403 25.3636V37H237.705V25.3636H239.403ZM245.365 37.1761C244.547 37.1761 243.833 36.9886 243.223 36.6136C242.613 36.2386 242.14 35.714 241.803 35.0398C241.465 34.3655 241.297 33.5777 241.297 32.6761C241.297 31.7708 241.465 30.9792 241.803 30.3011C242.14 29.6231 242.613 29.0966 243.223 28.7216C243.833 28.3466 244.547 28.1591 245.365 28.1591C246.183 28.1591 246.897 28.3466 247.507 28.7216C248.117 29.0966 248.59 29.6231 248.928 30.3011C249.265 30.9792 249.433 31.7708 249.433 32.6761C249.433 33.5777 249.265 34.3655 248.928 35.0398C248.59 35.714 248.117 36.2386 247.507 36.6136C246.897 36.9886 246.183 37.1761 245.365 37.1761ZM245.371 35.75C245.901 35.75 246.34 35.6098 246.689 35.3295C247.037 35.0492 247.295 34.6761 247.462 34.2102C247.632 33.7443 247.717 33.2311 247.717 32.6705C247.717 32.1136 247.632 31.6023 247.462 31.1364C247.295 30.6667 247.037 30.2898 246.689 30.0057C246.34 29.7216 245.901 29.5795 245.371 29.5795C244.837 29.5795 244.393 29.7216 244.041 30.0057C243.693 30.2898 243.433 30.6667 243.263 31.1364C243.096 31.6023 243.013 32.1136 243.013 32.6705C243.013 33.2311 243.096 33.7443 243.263 34.2102C243.433 34.6761 243.693 35.0492 244.041 35.3295C244.393 35.6098 244.837 35.75 245.371 35.75ZM255.006 37.1761C254.161 37.1761 253.434 36.9848 252.824 36.6023C252.218 36.2159 251.752 35.6837 251.426 35.0057C251.1 34.3277 250.938 33.5511 250.938 32.6761C250.938 31.7898 251.104 31.0076 251.438 30.3295C251.771 29.6477 252.241 29.1155 252.847 28.733C253.453 28.3504 254.167 28.1591 254.989 28.1591C255.652 28.1591 256.242 28.2822 256.761 28.5284C257.28 28.7708 257.699 29.1117 258.017 29.5511C258.339 29.9905 258.53 30.5038 258.591 31.0909H256.938C256.847 30.6818 256.638 30.3295 256.312 30.0341C255.991 29.7386 255.559 29.5909 255.017 29.5909C254.544 29.5909 254.129 29.7159 253.773 29.9659C253.42 30.2121 253.146 30.5644 252.949 31.0227C252.752 31.4773 252.653 32.0152 252.653 32.6364C252.653 33.2727 252.75 33.822 252.943 34.2841C253.136 34.7462 253.409 35.1042 253.761 35.358C254.117 35.6117 254.536 35.7386 255.017 35.7386C255.339 35.7386 255.631 35.6799 255.892 35.5625C256.157 35.4413 256.379 35.2689 256.557 35.0455C256.739 34.822 256.866 34.553 256.938 34.2386H258.591C258.53 34.803 258.347 35.3068 258.04 35.75C257.733 36.1932 257.322 36.5417 256.807 36.7955C256.295 37.0492 255.695 37.1761 255.006 37.1761ZM261.97 34.0398L261.959 31.9659H262.254L265.732 28.2727H267.766L263.8 32.4773H263.533L261.97 34.0398ZM260.408 37V25.3636H262.107V37H260.408ZM265.919 37L262.794 32.8523L263.964 31.6648L268.004 37H265.919ZM1.14205 61V52.2727H2.84091V61H1.14205ZM2 50.9261C1.70455 50.9261 1.45076 50.8277 1.23864 50.6307C1.0303 50.4299 0.926136 50.1913 0.926136 49.9148C0.926136 49.6345 1.0303 49.3958 1.23864 49.1989C1.45076 48.9981 1.70455 48.8977 2 48.8977C2.29545 48.8977 2.54735 48.9981 2.75568 49.1989C2.9678 49.3958 3.07386 49.6345 3.07386 49.9148C3.07386 50.1913 2.9678 50.4299 2.75568 50.6307C2.54735 50.8277 2.29545 50.9261 2 50.9261ZM6.82528 55.8182V61H5.12642V52.2727H6.7571V53.6932H6.86506C7.06581 53.2311 7.38021 52.8598 7.80824 52.5795C8.24006 52.2992 8.78362 52.1591 9.43892 52.1591C10.0336 52.1591 10.5545 52.2841 11.0014 52.5341C11.4484 52.7803 11.795 53.1477 12.0412 53.6364C12.2874 54.125 12.4105 54.7292 12.4105 55.4489V61H10.7116V55.6534C10.7116 55.0208 10.5469 54.5265 10.2173 54.1705C9.88778 53.8106 9.43513 53.6307 8.85938 53.6307C8.46544 53.6307 8.11506 53.7159 7.80824 53.8864C7.50521 54.0568 7.26468 54.3068 7.08665 54.6364C6.91241 54.9621 6.82528 55.3561 6.82528 55.8182ZM18.8423 52.2727V53.6364H13.9105V52.2727H18.8423ZM15.2628 61V51.2614C15.2628 50.7159 15.3821 50.2633 15.6207 49.9034C15.8594 49.5398 16.1757 49.2689 16.5696 49.0909C16.9635 48.9091 17.3916 48.8182 17.8537 48.8182C18.1946 48.8182 18.4863 48.8466 18.7287 48.9034C18.9711 48.9564 19.151 49.0057 19.2685 49.0511L18.8707 50.4261C18.7912 50.4034 18.6889 50.3769 18.5639 50.3466C18.4389 50.3125 18.2874 50.2955 18.1094 50.2955C17.6965 50.2955 17.401 50.3977 17.223 50.6023C17.0488 50.8068 16.9616 51.1023 16.9616 51.4886V61H15.2628ZM20.5952 61V52.2727H22.294V61H20.5952ZM21.4531 50.9261C21.1577 50.9261 20.9039 50.8277 20.6918 50.6307C20.4834 50.4299 20.3793 50.1913 20.3793 49.9148C20.3793 49.6345 20.4834 49.3958 20.6918 49.1989C20.9039 48.9981 21.1577 48.8977 21.4531 48.8977C21.7486 48.8977 22.0005 48.9981 22.2088 49.1989C22.4209 49.3958 22.527 49.6345 22.527 49.9148C22.527 50.1913 22.4209 50.4299 22.2088 50.6307C22.0005 50.8277 21.7486 50.9261 21.4531 50.9261ZM26.2784 55.8182V61H24.5795V52.2727H26.2102V53.6932H26.3182C26.5189 53.2311 26.8333 52.8598 27.2614 52.5795C27.6932 52.2992 28.2367 52.1591 28.892 52.1591C29.4867 52.1591 30.0076 52.2841 30.4545 52.5341C30.9015 52.7803 31.2481 53.1477 31.4943 53.6364C31.7405 54.125 31.8636 54.7292 31.8636 55.4489V61H30.1648V55.6534C30.1648 55.0208 30 54.5265 29.6705 54.1705C29.3409 53.8106 28.8883 53.6307 28.3125 53.6307C27.9186 53.6307 27.5682 53.7159 27.2614 53.8864C26.9583 54.0568 26.7178 54.3068 26.5398 54.6364C26.3655 54.9621 26.2784 55.3561 26.2784 55.8182ZM34.142 61V52.2727H35.8409V61H34.142ZM35 50.9261C34.7045 50.9261 34.4508 50.8277 34.2386 50.6307C34.0303 50.4299 33.9261 50.1913 33.9261 49.9148C33.9261 49.6345 34.0303 49.3958 34.2386 49.1989C34.4508 48.9981 34.7045 48.8977 35 48.8977C35.2955 48.8977 35.5473 48.9981 35.7557 49.1989C35.9678 49.3958 36.0739 49.6345 36.0739 49.9148C36.0739 50.1913 35.9678 50.4299 35.7557 50.6307C35.5473 50.8277 35.2955 50.9261 35 50.9261ZM42.2003 52.2727V53.6364H37.4332V52.2727H42.2003ZM38.7116 50.1818H40.4105V58.4375C40.4105 58.767 40.4598 59.0152 40.5582 59.1818C40.6567 59.3447 40.7836 59.4564 40.9389 59.517C41.098 59.5739 41.2704 59.6023 41.456 59.6023C41.5923 59.6023 41.7116 59.5928 41.8139 59.5739C41.9162 59.5549 41.9957 59.5398 42.0526 59.5284L42.3594 60.9318C42.2609 60.9697 42.1207 61.0076 41.9389 61.0455C41.7571 61.0871 41.5298 61.1098 41.2571 61.1136C40.8101 61.1212 40.3935 61.0417 40.0071 60.875C39.6207 60.7083 39.3082 60.4508 39.0696 60.1023C38.831 59.7538 38.7116 59.3163 38.7116 58.7898V50.1818ZM47.7472 61.1761C46.8873 61.1761 46.1468 60.9924 45.5256 60.625C44.9081 60.2538 44.4309 59.733 44.0938 59.0625C43.7604 58.3883 43.5938 57.5985 43.5938 56.6932C43.5938 55.7992 43.7604 55.0114 44.0938 54.3295C44.4309 53.6477 44.9006 53.1155 45.5028 52.733C46.1089 52.3504 46.8172 52.1591 47.6278 52.1591C48.1203 52.1591 48.5975 52.2405 49.0597 52.4034C49.5218 52.5663 49.9366 52.822 50.304 53.1705C50.6714 53.5189 50.9612 53.9716 51.1733 54.5284C51.3854 55.0814 51.4915 55.7538 51.4915 56.5455V57.1477H44.554V55.875H49.8267C49.8267 55.428 49.7358 55.0322 49.554 54.6875C49.3722 54.339 49.1165 54.0644 48.7869 53.8636C48.4612 53.6629 48.0786 53.5625 47.6392 53.5625C47.1619 53.5625 46.7453 53.6799 46.3892 53.9148C46.0369 54.1458 45.7642 54.4489 45.571 54.8239C45.3816 55.1951 45.2869 55.5985 45.2869 56.0341V57.0284C45.2869 57.6117 45.3892 58.108 45.5938 58.517C45.8021 58.9261 46.0919 59.2386 46.4631 59.4545C46.8343 59.6667 47.268 59.7727 47.7642 59.7727C48.0862 59.7727 48.3797 59.7273 48.6449 59.6364C48.91 59.5417 49.1392 59.4015 49.3324 59.2159C49.5256 59.0303 49.6733 58.8011 49.7756 58.5284L51.3835 58.8182C51.2547 59.2917 51.0237 59.7064 50.6903 60.0625C50.3608 60.4148 49.946 60.6894 49.446 60.8864C48.9498 61.0795 48.3835 61.1761 47.7472 61.1761ZM57.6108 61V52.2727H59.2415V53.6932H59.3494C59.5313 53.2121 59.8286 52.8371 60.2415 52.5682C60.6544 52.2955 61.1487 52.1591 61.7244 52.1591C62.3078 52.1591 62.7964 52.2955 63.1903 52.5682C63.5881 52.8409 63.8816 53.2159 64.071 53.6932H64.1619C64.3703 53.2273 64.7017 52.8561 65.1562 52.5795C65.6108 52.2992 66.1525 52.1591 66.7812 52.1591C67.5729 52.1591 68.2188 52.4072 68.7188 52.9034C69.2225 53.3996 69.4744 54.1477 69.4744 55.1477V61H67.7756V55.3068C67.7756 54.7159 67.6146 54.2879 67.2926 54.0227C66.9706 53.7576 66.5862 53.625 66.1392 53.625C65.5862 53.625 65.1562 53.7955 64.8494 54.1364C64.5426 54.4735 64.3892 54.9072 64.3892 55.4375V61H62.696V55.1989C62.696 54.7254 62.5483 54.3447 62.2528 54.0568C61.9574 53.7689 61.5729 53.625 61.0994 53.625C60.7775 53.625 60.4801 53.7102 60.2074 53.8807C59.9384 54.0473 59.7206 54.2803 59.554 54.5795C59.3911 54.8788 59.3097 55.2254 59.3097 55.6193V61H57.6108ZM75.4276 61.1761C74.6094 61.1761 73.8954 60.9886 73.2855 60.6136C72.6757 60.2386 72.2022 59.714 71.8651 59.0398C71.5279 58.3655 71.3594 57.5777 71.3594 56.6761C71.3594 55.7708 71.5279 54.9792 71.8651 54.3011C72.2022 53.6231 72.6757 53.0966 73.2855 52.7216C73.8954 52.3466 74.6094 52.1591 75.4276 52.1591C76.2457 52.1591 76.9598 52.3466 77.5696 52.7216C78.1795 53.0966 78.6529 53.6231 78.9901 54.3011C79.3272 54.9792 79.4957 55.7708 79.4957 56.6761C79.4957 57.5777 79.3272 58.3655 78.9901 59.0398C78.6529 59.714 78.1795 60.2386 77.5696 60.6136C76.9598 60.9886 76.2457 61.1761 75.4276 61.1761ZM75.4332 59.75C75.9635 59.75 76.4029 59.6098 76.7514 59.3295C77.0999 59.0492 77.3575 58.6761 77.5241 58.2102C77.6946 57.7443 77.7798 57.2311 77.7798 56.6705C77.7798 56.1136 77.6946 55.6023 77.5241 55.1364C77.3575 54.6667 77.0999 54.2898 76.7514 54.0057C76.4029 53.7216 75.9635 53.5795 75.4332 53.5795C74.8991 53.5795 74.456 53.7216 74.1037 54.0057C73.7552 54.2898 73.4957 54.6667 73.3253 55.1364C73.1586 55.6023 73.0753 56.1136 73.0753 56.6705C73.0753 57.2311 73.1586 57.7443 73.3253 58.2102C73.4957 58.6761 73.7552 59.0492 74.1037 59.3295C74.456 59.6098 74.8991 59.75 75.4332 59.75ZM85.4659 52.2727V53.6364H80.6989V52.2727H85.4659ZM81.9773 50.1818H83.6761V58.4375C83.6761 58.767 83.7254 59.0152 83.8239 59.1818C83.9223 59.3447 84.0492 59.4564 84.2045 59.517C84.3636 59.5739 84.536 59.6023 84.7216 59.6023C84.858 59.6023 84.9773 59.5928 85.0795 59.5739C85.1818 59.5549 85.2614 59.5398 85.3182 59.5284L85.625 60.9318C85.5265 60.9697 85.3864 61.0076 85.2045 61.0455C85.0227 61.0871 84.7955 61.1098 84.5227 61.1136C84.0758 61.1212 83.6591 61.0417 83.2727 60.875C82.8864 60.7083 82.5739 60.4508 82.3352 60.1023C82.0966 59.7538 81.9773 59.3163 81.9773 58.7898V50.1818ZM87.3452 61V52.2727H89.044V61H87.3452ZM88.2031 50.9261C87.9077 50.9261 87.6539 50.8277 87.4418 50.6307C87.2334 50.4299 87.1293 50.1913 87.1293 49.9148C87.1293 49.6345 87.2334 49.3958 87.4418 49.1989C87.6539 48.9981 87.9077 48.8977 88.2031 48.8977C88.4986 48.8977 88.7505 48.9981 88.9588 49.1989C89.1709 49.3958 89.277 49.6345 89.277 49.9148C89.277 50.1913 89.1709 50.4299 88.9588 50.6307C88.7505 50.8277 88.4986 50.9261 88.2031 50.9261ZM95.0057 61.1761C94.1875 61.1761 93.4735 60.9886 92.8636 60.6136C92.2538 60.2386 91.7803 59.714 91.4432 59.0398C91.1061 58.3655 90.9375 57.5777 90.9375 56.6761C90.9375 55.7708 91.1061 54.9792 91.4432 54.3011C91.7803 53.6231 92.2538 53.0966 92.8636 52.7216C93.4735 52.3466 94.1875 52.1591 95.0057 52.1591C95.8239 52.1591 96.5379 52.3466 97.1477 52.7216C97.7576 53.0966 98.2311 53.6231 98.5682 54.3011C98.9053 54.9792 99.0739 55.7708 99.0739 56.6761C99.0739 57.5777 98.9053 58.3655 98.5682 59.0398C98.2311 59.714 97.7576 60.2386 97.1477 60.6136C96.5379 60.9886 95.8239 61.1761 95.0057 61.1761ZM95.0114 59.75C95.5417 59.75 95.9811 59.6098 96.3295 59.3295C96.678 59.0492 96.9356 58.6761 97.1023 58.2102C97.2727 57.7443 97.358 57.2311 97.358 56.6705C97.358 56.1136 97.2727 55.6023 97.1023 55.1364C96.9356 54.6667 96.678 54.2898 96.3295 54.0057C95.9811 53.7216 95.5417 53.5795 95.0114 53.5795C94.4773 53.5795 94.0341 53.7216 93.6818 54.0057C93.3333 54.2898 93.0739 54.6667 92.9034 55.1364C92.7367 55.6023 92.6534 56.1136 92.6534 56.6705C92.6534 57.2311 92.7367 57.7443 92.9034 58.2102C93.0739 58.6761 93.3333 59.0492 93.6818 59.3295C94.0341 59.6098 94.4773 59.75 95.0114 59.75ZM102.669 55.8182V61H100.97V52.2727H102.601V53.6932H102.709C102.91 53.2311 103.224 52.8598 103.652 52.5795C104.084 52.2992 104.627 52.1591 105.283 52.1591C105.877 52.1591 106.398 52.2841 106.845 52.5341C107.292 52.7803 107.639 53.1477 107.885 53.6364C108.131 54.125 108.254 54.7292 108.254 55.4489V61H106.555V55.6534C106.555 55.0208 106.391 54.5265 106.061 54.1705C105.732 53.8106 105.279 53.6307 104.703 53.6307C104.309 53.6307 103.959 53.7159 103.652 53.8864C103.349 54.0568 103.108 54.3068 102.93 54.6364C102.756 54.9621 102.669 55.3561 102.669 55.8182ZM114.767 61V52.2727H116.466V61H114.767ZM115.625 50.9261C115.33 50.9261 115.076 50.8277 114.864 50.6307C114.655 50.4299 114.551 50.1913 114.551 49.9148C114.551 49.6345 114.655 49.3958 114.864 49.1989C115.076 48.9981 115.33 48.8977 115.625 48.8977C115.92 48.8977 116.172 48.9981 116.381 49.1989C116.593 49.3958 116.699 49.6345 116.699 49.9148C116.699 50.1913 116.593 50.4299 116.381 50.6307C116.172 50.8277 115.92 50.9261 115.625 50.9261ZM120.45 55.8182V61H118.751V52.2727H120.382V53.6932H120.49C120.691 53.2311 121.005 52.8598 121.433 52.5795C121.865 52.2992 122.409 52.1591 123.064 52.1591C123.659 52.1591 124.179 52.2841 124.626 52.5341C125.073 52.7803 125.42 53.1477 125.666 53.6364C125.912 54.125 126.036 54.7292 126.036 55.4489V61H124.337V55.6534C124.337 55.0208 124.172 54.5265 123.842 54.1705C123.513 53.8106 123.06 53.6307 122.484 53.6307C122.09 53.6307 121.74 53.7159 121.433 53.8864C121.13 54.0568 120.89 54.3068 120.712 54.6364C120.537 54.9621 120.45 55.3561 120.45 55.8182ZM135.088 61.1932C134.535 61.1932 134.035 61.0909 133.588 60.8864C133.141 60.678 132.787 60.3769 132.526 59.983C132.268 59.589 132.139 59.1061 132.139 58.5341C132.139 58.0417 132.234 57.6364 132.423 57.3182C132.613 57 132.868 56.7481 133.19 56.5625C133.512 56.3769 133.872 56.2367 134.27 56.142C134.668 56.0473 135.073 55.9754 135.486 55.9261C136.009 55.8655 136.433 55.8163 136.759 55.7784C137.084 55.7367 137.321 55.6705 137.469 55.5795C137.616 55.4886 137.69 55.3409 137.69 55.1364V55.0966C137.69 54.6004 137.55 54.2159 137.27 53.9432C136.993 53.6705 136.58 53.5341 136.031 53.5341C135.459 53.5341 135.009 53.661 134.679 53.9148C134.353 54.1648 134.128 54.4432 134.003 54.75L132.406 54.3864C132.596 53.8561 132.872 53.428 133.236 53.1023C133.603 52.7727 134.026 52.5341 134.503 52.3864C134.98 52.2348 135.482 52.1591 136.009 52.1591C136.357 52.1591 136.726 52.2008 137.116 52.2841C137.51 52.3636 137.878 52.5114 138.219 52.7273C138.563 52.9432 138.846 53.2519 139.065 53.6534C139.285 54.0511 139.395 54.5682 139.395 55.2045V61H137.736V59.8068H137.668C137.558 60.0265 137.393 60.2424 137.173 60.4545C136.954 60.6667 136.671 60.8428 136.327 60.983C135.982 61.1231 135.569 61.1932 135.088 61.1932ZM135.457 59.8295C135.927 59.8295 136.329 59.7367 136.662 59.5511C136.999 59.3655 137.255 59.1231 137.429 58.8239C137.607 58.5208 137.696 58.197 137.696 57.8523V56.7273C137.635 56.7879 137.518 56.8447 137.344 56.8977C137.173 56.947 136.978 56.9905 136.759 57.0284C136.539 57.0625 136.325 57.0947 136.116 57.125C135.908 57.1515 135.734 57.1742 135.594 57.1932C135.264 57.2348 134.963 57.3049 134.69 57.4034C134.421 57.5019 134.205 57.6439 134.043 57.8295C133.884 58.0114 133.804 58.2538 133.804 58.5568C133.804 58.9773 133.959 59.2955 134.27 59.5114C134.58 59.7235 134.976 59.8295 135.457 59.8295ZM143.357 55.8182V61H141.658V52.2727H143.288V53.6932H143.396C143.597 53.2311 143.911 52.8598 144.339 52.5795C144.771 52.2992 145.315 52.1591 145.97 52.1591C146.565 52.1591 147.086 52.2841 147.533 52.5341C147.98 52.7803 148.326 53.1477 148.572 53.6364C148.819 54.125 148.942 54.7292 148.942 55.4489V61H147.243V55.6534C147.243 55.0208 147.078 54.5265 146.749 54.1705C146.419 53.8106 145.966 53.6307 145.391 53.6307C144.997 53.6307 144.646 53.7159 144.339 53.8864C144.036 54.0568 143.796 54.3068 143.618 54.6364C143.444 54.9621 143.357 55.3561 143.357 55.8182ZM151.982 64.2727C151.728 64.2727 151.497 64.2519 151.288 64.2102C151.08 64.1723 150.925 64.1307 150.822 64.0852L151.232 62.6932C151.542 62.7765 151.819 62.8125 152.061 62.8011C152.304 62.7898 152.518 62.6989 152.703 62.5284C152.893 62.358 153.059 62.0795 153.203 61.6932L153.413 61.1136L150.22 52.2727H152.038L154.249 59.0455H154.339L156.55 52.2727H158.374L154.777 62.1648C154.61 62.6193 154.398 63.0038 154.141 63.3182C153.883 63.6364 153.576 63.875 153.22 64.0341C152.864 64.1932 152.451 64.2727 151.982 64.2727ZM167.864 64.4545C167.17 64.4545 166.574 64.3636 166.074 64.1818C165.578 64 165.172 63.7595 164.858 63.4602C164.544 63.161 164.309 62.8333 164.153 62.4773L165.614 61.875C165.716 62.0417 165.852 62.2178 166.023 62.4034C166.197 62.5928 166.432 62.7538 166.727 62.8864C167.027 63.0189 167.411 63.0852 167.881 63.0852C168.525 63.0852 169.057 62.928 169.477 62.6136C169.898 62.303 170.108 61.8068 170.108 61.125V59.4091H170C169.898 59.5947 169.75 59.8011 169.557 60.0284C169.367 60.2557 169.106 60.4527 168.773 60.6193C168.439 60.786 168.006 60.8693 167.472 60.8693C166.782 60.8693 166.161 60.7083 165.608 60.3864C165.059 60.0606 164.623 59.5814 164.301 58.9489C163.983 58.3125 163.824 57.5303 163.824 56.6023C163.824 55.6742 163.981 54.8788 164.295 54.2159C164.614 53.553 165.049 53.0455 165.602 52.6932C166.155 52.3371 166.782 52.1591 167.483 52.1591C168.025 52.1591 168.462 52.25 168.795 52.4318C169.129 52.6098 169.388 52.8182 169.574 53.0568C169.763 53.2955 169.909 53.5057 170.011 53.6875H170.136V52.2727H171.801V61.1932C171.801 61.9432 171.627 62.5587 171.278 63.0398C170.93 63.5208 170.458 63.8769 169.864 64.108C169.273 64.339 168.606 64.4545 167.864 64.4545ZM167.847 59.4602C168.335 59.4602 168.748 59.3466 169.085 59.1193C169.426 58.8883 169.684 58.5587 169.858 58.1307C170.036 57.6989 170.125 57.1818 170.125 56.5795C170.125 55.9924 170.038 55.4754 169.864 55.0284C169.689 54.5814 169.434 54.233 169.097 53.983C168.759 53.7292 168.343 53.6023 167.847 53.6023C167.335 53.6023 166.909 53.7348 166.568 54C166.227 54.2614 165.97 54.6174 165.795 55.0682C165.625 55.5189 165.54 56.0227 165.54 56.5795C165.54 57.1515 165.627 57.6534 165.801 58.0852C165.975 58.517 166.233 58.8542 166.574 59.0966C166.919 59.339 167.343 59.4602 167.847 59.4602ZM176.619 61.1932C176.066 61.1932 175.566 61.0909 175.119 60.8864C174.672 60.678 174.318 60.3769 174.057 59.983C173.799 59.589 173.67 59.1061 173.67 58.5341C173.67 58.0417 173.765 57.6364 173.955 57.3182C174.144 57 174.4 56.7481 174.722 56.5625C175.044 56.3769 175.403 56.2367 175.801 56.142C176.199 56.0473 176.604 55.9754 177.017 55.9261C177.54 55.8655 177.964 55.8163 178.29 55.7784C178.616 55.7367 178.852 55.6705 179 55.5795C179.148 55.4886 179.222 55.3409 179.222 55.1364V55.0966C179.222 54.6004 179.081 54.2159 178.801 53.9432C178.525 53.6705 178.112 53.5341 177.562 53.5341C176.991 53.5341 176.54 53.661 176.21 53.9148C175.884 54.1648 175.659 54.4432 175.534 54.75L173.938 54.3864C174.127 53.8561 174.403 53.428 174.767 53.1023C175.134 52.7727 175.557 52.5341 176.034 52.3864C176.511 52.2348 177.013 52.1591 177.54 52.1591C177.888 52.1591 178.258 52.2008 178.648 52.2841C179.042 52.3636 179.409 52.5114 179.75 52.7273C180.095 52.9432 180.377 53.2519 180.597 53.6534C180.816 54.0511 180.926 54.5682 180.926 55.2045V61H179.267V59.8068H179.199C179.089 60.0265 178.924 60.2424 178.705 60.4545C178.485 60.6667 178.203 60.8428 177.858 60.983C177.513 61.1231 177.1 61.1932 176.619 61.1932ZM176.989 59.8295C177.458 59.8295 177.86 59.7367 178.193 59.5511C178.53 59.3655 178.786 59.1231 178.96 58.8239C179.138 58.5208 179.227 58.197 179.227 57.8523V56.7273C179.167 56.7879 179.049 56.8447 178.875 56.8977C178.705 56.947 178.509 56.9905 178.29 57.0284C178.07 57.0625 177.856 57.0947 177.648 57.125C177.439 57.1515 177.265 57.1742 177.125 57.1932C176.795 57.2348 176.494 57.3049 176.222 57.4034C175.953 57.5019 175.737 57.6439 175.574 57.8295C175.415 58.0114 175.335 58.2538 175.335 58.5568C175.335 58.9773 175.491 59.2955 175.801 59.5114C176.112 59.7235 176.508 59.8295 176.989 59.8295ZM183.189 61V52.2727H184.82V53.6932H184.928C185.109 53.2121 185.407 52.8371 185.82 52.5682C186.232 52.2955 186.727 52.1591 187.303 52.1591C187.886 52.1591 188.375 52.2955 188.768 52.5682C189.166 52.8409 189.46 53.2159 189.649 53.6932H189.74C189.948 53.2273 190.28 52.8561 190.734 52.5795C191.189 52.2992 191.731 52.1591 192.359 52.1591C193.151 52.1591 193.797 52.4072 194.297 52.9034C194.801 53.3996 195.053 54.1477 195.053 55.1477V61H193.354V55.3068C193.354 54.7159 193.193 54.2879 192.871 54.0227C192.549 53.7576 192.164 53.625 191.717 53.625C191.164 53.625 190.734 53.7955 190.428 54.1364C190.121 54.4735 189.967 54.9072 189.967 55.4375V61H188.274V55.1989C188.274 54.7254 188.126 54.3447 187.831 54.0568C187.536 53.7689 187.151 53.625 186.678 53.625C186.356 53.625 186.058 53.7102 185.786 53.8807C185.517 54.0473 185.299 54.2803 185.132 54.5795C184.969 54.8788 184.888 55.2254 184.888 55.6193V61H183.189ZM201.091 61.1761C200.231 61.1761 199.491 60.9924 198.869 60.625C198.252 60.2538 197.775 59.733 197.438 59.0625C197.104 58.3883 196.938 57.5985 196.938 56.6932C196.938 55.7992 197.104 55.0114 197.438 54.3295C197.775 53.6477 198.244 53.1155 198.847 52.733C199.453 52.3504 200.161 52.1591 200.972 52.1591C201.464 52.1591 201.941 52.2405 202.403 52.4034C202.866 52.5663 203.28 52.822 203.648 53.1705C204.015 53.5189 204.305 53.9716 204.517 54.5284C204.729 55.0814 204.835 55.7538 204.835 56.5455V57.1477H197.898V55.875H203.17C203.17 55.428 203.08 55.0322 202.898 54.6875C202.716 54.339 202.46 54.0644 202.131 53.8636C201.805 53.6629 201.422 53.5625 200.983 53.5625C200.506 53.5625 200.089 53.6799 199.733 53.9148C199.381 54.1458 199.108 54.4489 198.915 54.8239C198.725 55.1951 198.631 55.5985 198.631 56.0341V57.0284C198.631 57.6117 198.733 58.108 198.938 58.517C199.146 58.9261 199.436 59.2386 199.807 59.4545C200.178 59.6667 200.612 59.7727 201.108 59.7727C201.43 59.7727 201.723 59.7273 201.989 59.6364C202.254 59.5417 202.483 59.4015 202.676 59.2159C202.869 59.0303 203.017 58.8011 203.119 58.5284L204.727 58.8182C204.598 59.2917 204.367 59.7064 204.034 60.0625C203.705 60.4148 203.29 60.6894 202.79 60.8864C202.294 61.0795 201.727 61.1761 201.091 61.1761ZM213.26 54.4034L211.72 54.6761C211.656 54.4792 211.554 54.2917 211.413 54.1136C211.277 53.9356 211.091 53.7898 210.857 53.6761C210.622 53.5625 210.328 53.5057 209.976 53.5057C209.495 53.5057 209.093 53.6136 208.771 53.8295C208.449 54.0417 208.288 54.3163 208.288 54.6534C208.288 54.9451 208.396 55.1799 208.612 55.358C208.828 55.536 209.177 55.6818 209.658 55.7955L211.044 56.1136C211.847 56.2992 212.446 56.5852 212.839 56.9716C213.233 57.358 213.43 57.8598 213.43 58.4773C213.43 59 213.279 59.4659 212.976 59.875C212.677 60.2803 212.258 60.5985 211.72 60.8295C211.186 61.0606 210.567 61.1761 209.862 61.1761C208.885 61.1761 208.088 60.9678 207.47 60.5511C206.853 60.1307 206.474 59.5341 206.334 58.7614L207.976 58.5114C208.078 58.9394 208.288 59.2633 208.607 59.483C208.925 59.6989 209.339 59.8068 209.851 59.8068C210.408 59.8068 210.853 59.6913 211.186 59.4602C211.519 59.2254 211.686 58.9394 211.686 58.6023C211.686 58.3295 211.584 58.1004 211.379 57.9148C211.179 57.7292 210.87 57.589 210.453 57.4943L208.976 57.1705C208.161 56.9848 207.559 56.6894 207.169 56.2841C206.783 55.8788 206.589 55.3655 206.589 54.7443C206.589 54.2292 206.733 53.7784 207.021 53.392C207.309 53.0057 207.707 52.7045 208.214 52.4886C208.722 52.2689 209.304 52.1591 209.959 52.1591C210.902 52.1591 211.644 52.3636 212.186 52.7727C212.728 53.178 213.086 53.7216 213.26 54.4034ZM223.209 61.1761C222.391 61.1761 221.677 60.9886 221.067 60.6136C220.457 60.2386 219.983 59.714 219.646 59.0398C219.309 58.3655 219.141 57.5777 219.141 56.6761C219.141 55.7708 219.309 54.9792 219.646 54.3011C219.983 53.6231 220.457 53.0966 221.067 52.7216C221.677 52.3466 222.391 52.1591 223.209 52.1591C224.027 52.1591 224.741 52.3466 225.351 52.7216C225.961 53.0966 226.434 53.6231 226.771 54.3011C227.108 54.9792 227.277 55.7708 227.277 56.6761C227.277 57.5777 227.108 58.3655 226.771 59.0398C226.434 59.714 225.961 60.2386 225.351 60.6136C224.741 60.9886 224.027 61.1761 223.209 61.1761ZM223.214 59.75C223.745 59.75 224.184 59.6098 224.533 59.3295C224.881 59.0492 225.139 58.6761 225.305 58.2102C225.476 57.7443 225.561 57.2311 225.561 56.6705C225.561 56.1136 225.476 55.6023 225.305 55.1364C225.139 54.6667 224.881 54.2898 224.533 54.0057C224.184 53.7216 223.745 53.5795 223.214 53.5795C222.68 53.5795 222.237 53.7216 221.885 54.0057C221.536 54.2898 221.277 54.6667 221.107 55.1364C220.94 55.6023 220.857 56.1136 220.857 56.6705C220.857 57.2311 220.94 57.7443 221.107 58.2102C221.277 58.6761 221.536 59.0492 221.885 59.3295C222.237 59.6098 222.68 59.75 223.214 59.75ZM230.872 55.8182V61H229.173V52.2727H230.804V53.6932H230.912C231.113 53.2311 231.427 52.8598 231.855 52.5795C232.287 52.2992 232.83 52.1591 233.486 52.1591C234.08 52.1591 234.601 52.2841 235.048 52.5341C235.495 52.7803 235.842 53.1477 236.088 53.6364C236.334 54.125 236.457 54.7292 236.457 55.4489V61H234.759V55.6534C234.759 55.0208 234.594 54.5265 234.264 54.1705C233.935 53.8106 233.482 53.6307 232.906 53.6307C232.512 53.6307 232.162 53.7159 231.855 53.8864C231.552 54.0568 231.312 54.3068 231.134 54.6364C230.959 54.9621 230.872 55.3561 230.872 55.8182ZM245.51 61.1932C244.957 61.1932 244.457 61.0909 244.01 60.8864C243.563 60.678 243.209 60.3769 242.947 59.983C242.69 59.589 242.561 59.1061 242.561 58.5341C242.561 58.0417 242.656 57.6364 242.845 57.3182C243.035 57 243.29 56.7481 243.612 56.5625C243.934 56.3769 244.294 56.2367 244.692 56.142C245.089 56.0473 245.495 55.9754 245.908 55.9261C246.43 55.8655 246.855 55.8163 247.18 55.7784C247.506 55.7367 247.743 55.6705 247.891 55.5795C248.038 55.4886 248.112 55.3409 248.112 55.1364V55.0966C248.112 54.6004 247.972 54.2159 247.692 53.9432C247.415 53.6705 247.002 53.5341 246.453 53.5341C245.881 53.5341 245.43 53.661 245.101 53.9148C244.775 54.1648 244.55 54.4432 244.425 54.75L242.828 54.3864C243.018 53.8561 243.294 53.428 243.658 53.1023C244.025 52.7727 244.447 52.5341 244.925 52.3864C245.402 52.2348 245.904 52.1591 246.43 52.1591C246.779 52.1591 247.148 52.2008 247.538 52.2841C247.932 52.3636 248.3 52.5114 248.641 52.7273C248.985 52.9432 249.268 53.2519 249.487 53.6534C249.707 54.0511 249.817 54.5682 249.817 55.2045V61H248.158V59.8068H248.089C247.98 60.0265 247.815 60.2424 247.595 60.4545C247.375 60.6667 247.093 60.8428 246.749 60.983C246.404 61.1231 245.991 61.1932 245.51 61.1932ZM245.879 59.8295C246.349 59.8295 246.75 59.7367 247.084 59.5511C247.421 59.3655 247.677 59.1231 247.851 58.8239C248.029 58.5208 248.118 58.197 248.118 57.8523V56.7273C248.057 56.7879 247.94 56.8447 247.766 56.8977C247.595 56.947 247.4 56.9905 247.18 57.0284C246.961 57.0625 246.747 57.0947 246.538 57.125C246.33 57.1515 246.156 57.1742 246.016 57.1932C245.686 57.2348 245.385 57.3049 245.112 57.4034C244.843 57.5019 244.627 57.6439 244.464 57.8295C244.305 58.0114 244.226 58.2538 244.226 58.5568C244.226 58.9773 244.381 59.2955 244.692 59.5114C245.002 59.7235 245.398 59.8295 245.879 59.8295ZM253.778 55.8182V61H252.08V52.2727H253.71V53.6932H253.818C254.019 53.2311 254.333 52.8598 254.761 52.5795C255.193 52.2992 255.737 52.1591 256.392 52.1591C256.987 52.1591 257.508 52.2841 257.955 52.5341C258.402 52.7803 258.748 53.1477 258.994 53.6364C259.241 54.125 259.364 54.7292 259.364 55.4489V61H257.665V55.6534C257.665 55.0208 257.5 54.5265 257.17 54.1705C256.841 53.8106 256.388 53.6307 255.812 53.6307C255.419 53.6307 255.068 53.7159 254.761 53.8864C254.458 54.0568 254.218 54.3068 254.04 54.6364C253.866 54.9621 253.778 55.3561 253.778 55.8182ZM262.403 64.2727C262.15 64.2727 261.919 64.2519 261.71 64.2102C261.502 64.1723 261.347 64.1307 261.244 64.0852L261.653 62.6932C261.964 62.7765 262.241 62.8125 262.483 62.8011C262.725 62.7898 262.939 62.6989 263.125 62.5284C263.314 62.358 263.481 62.0795 263.625 61.6932L263.835 61.1136L260.642 52.2727H262.46L264.67 59.0455H264.761L266.972 52.2727H268.795L265.199 62.1648C265.032 62.6193 264.82 63.0038 264.562 63.3182C264.305 63.6364 263.998 63.875 263.642 64.0341C263.286 64.1932 262.873 64.2727 262.403 64.2727ZM1.14205 88.2727V76.2727H2.80114V77.6875H2.94318C3.04167 77.5057 3.18371 77.2955 3.36932 77.0568C3.55492 76.8182 3.8125 76.6098 4.14205 76.4318C4.47159 76.25 4.9072 76.1591 5.44886 76.1591C6.15341 76.1591 6.7822 76.3371 7.33523 76.6932C7.88826 77.0492 8.32197 77.5625 8.63636 78.233C8.95455 78.9034 9.11364 79.7102 9.11364 80.6534C9.11364 81.5966 8.95644 82.4053 8.64205 83.0795C8.32765 83.75 7.89583 84.267 7.34659 84.6307C6.79735 84.9905 6.17045 85.1705 5.46591 85.1705C4.93561 85.1705 4.50189 85.0814 4.16477 84.9034C3.83144 84.7254 3.57008 84.517 3.38068 84.2784C3.19129 84.0398 3.04545 83.8277 2.94318 83.642H2.84091V88.2727H1.14205ZM2.80682 80.6364C2.80682 81.25 2.89583 81.7879 3.07386 82.25C3.25189 82.7121 3.50947 83.0739 3.84659 83.3352C4.18371 83.5928 4.59659 83.7216 5.08523 83.7216C5.5928 83.7216 6.01705 83.5871 6.35795 83.3182C6.69886 83.0455 6.95644 82.6761 7.13068 82.2102C7.30871 81.7443 7.39773 81.2197 7.39773 80.6364C7.39773 80.0606 7.31061 79.5436 7.13636 79.0852C6.96591 78.6269 6.70833 78.2652 6.36364 78C6.02273 77.7348 5.59659 77.6023 5.08523 77.6023C4.5928 77.6023 4.17614 77.7292 3.83523 77.983C3.49811 78.2367 3.24242 78.5909 3.06818 79.0455C2.89394 79.5 2.80682 80.0303 2.80682 80.6364ZM12.7159 73.3636V85H11.017V73.3636H12.7159ZM17.5412 85.1932C16.9882 85.1932 16.4882 85.0909 16.0412 84.8864C15.5942 84.678 15.2401 84.3769 14.9787 83.983C14.7211 83.589 14.5923 83.1061 14.5923 82.5341C14.5923 82.0417 14.687 81.6364 14.8764 81.3182C15.0658 81 15.3215 80.7481 15.6435 80.5625C15.9654 80.3769 16.3253 80.2367 16.723 80.142C17.1207 80.0473 17.526 79.9754 17.9389 79.9261C18.4616 79.8655 18.8859 79.8163 19.2116 79.7784C19.5374 79.7367 19.7741 79.6705 19.9219 79.5795C20.0696 79.4886 20.1435 79.3409 20.1435 79.1364V79.0966C20.1435 78.6004 20.0033 78.2159 19.723 77.9432C19.4465 77.6705 19.0336 77.5341 18.4844 77.5341C17.9124 77.5341 17.4616 77.661 17.1321 77.9148C16.8063 78.1648 16.581 78.4432 16.456 78.75L14.8594 78.3864C15.0488 77.8561 15.3253 77.428 15.6889 77.1023C16.0563 76.7727 16.4787 76.5341 16.956 76.3864C17.4332 76.2348 17.9351 76.1591 18.4616 76.1591C18.8101 76.1591 19.1795 76.2008 19.5696 76.2841C19.9635 76.3636 20.331 76.5114 20.6719 76.7273C21.0166 76.9432 21.2988 77.2519 21.5185 77.6534C21.7382 78.0511 21.848 78.5682 21.848 79.2045V85H20.1889V83.8068H20.1207C20.0109 84.0265 19.8461 84.2424 19.6264 84.4545C19.4067 84.6667 19.1245 84.8428 18.7798 84.983C18.4351 85.1231 18.0223 85.1932 17.5412 85.1932ZM17.9105 83.8295C18.3802 83.8295 18.7817 83.7367 19.1151 83.5511C19.4522 83.3655 19.7079 83.1231 19.8821 82.8239C20.0601 82.5208 20.1491 82.197 20.1491 81.8523V80.7273C20.0885 80.7879 19.9711 80.8447 19.7969 80.8977C19.6264 80.947 19.4313 80.9905 19.2116 81.0284C18.992 81.0625 18.7779 81.0947 18.5696 81.125C18.3613 81.1515 18.187 81.1742 18.0469 81.1932C17.7173 81.2348 17.4162 81.3049 17.1435 81.4034C16.8745 81.5019 16.6586 81.6439 16.4957 81.8295C16.3366 82.0114 16.2571 82.2538 16.2571 82.5568C16.2571 82.9773 16.4124 83.2955 16.723 83.5114C17.0336 83.7235 17.4295 83.8295 17.9105 83.8295ZM28.1847 76.2727V77.6364H23.4176V76.2727H28.1847ZM24.696 74.1818H26.3949V82.4375C26.3949 82.767 26.4441 83.0152 26.5426 83.1818C26.6411 83.3447 26.768 83.4564 26.9233 83.517C27.0824 83.5739 27.2547 83.6023 27.4403 83.6023C27.5767 83.6023 27.696 83.5928 27.7983 83.5739C27.9006 83.5549 27.9801 83.5398 28.0369 83.5284L28.3438 84.9318C28.2453 84.9697 28.1051 85.0076 27.9233 85.0455C27.7415 85.0871 27.5142 85.1098 27.2415 85.1136C26.7945 85.1212 26.3778 85.0417 25.9915 84.875C25.6051 84.7083 25.2926 84.4508 25.054 84.1023C24.8153 83.7538 24.696 83.3163 24.696 82.7898V74.1818ZM34.2173 76.2727V77.6364H29.2855V76.2727H34.2173ZM30.6378 85V75.2614C30.6378 74.7159 30.7571 74.2633 30.9957 73.9034C31.2344 73.5398 31.5507 73.2689 31.9446 73.0909C32.3385 72.9091 32.7666 72.8182 33.2287 72.8182C33.5696 72.8182 33.8613 72.8466 34.1037 72.9034C34.3461 72.9564 34.526 73.0057 34.6435 73.0511L34.2457 74.4261C34.1662 74.4034 34.0639 74.3769 33.9389 74.3466C33.8139 74.3125 33.6624 74.2955 33.4844 74.2955C33.0715 74.2955 32.776 74.3977 32.598 74.6023C32.4238 74.8068 32.3366 75.1023 32.3366 75.4886V85H30.6378ZM39.3026 85.1761C38.4844 85.1761 37.7704 84.9886 37.1605 84.6136C36.5507 84.2386 36.0772 83.714 35.7401 83.0398C35.4029 82.3655 35.2344 81.5777 35.2344 80.6761C35.2344 79.7708 35.4029 78.9792 35.7401 78.3011C36.0772 77.6231 36.5507 77.0966 37.1605 76.7216C37.7704 76.3466 38.4844 76.1591 39.3026 76.1591C40.1207 76.1591 40.8348 76.3466 41.4446 76.7216C42.0545 77.0966 42.5279 77.6231 42.8651 78.3011C43.2022 78.9792 43.3707 79.7708 43.3707 80.6761C43.3707 81.5777 43.2022 82.3655 42.8651 83.0398C42.5279 83.714 42.0545 84.2386 41.4446 84.6136C40.8348 84.9886 40.1207 85.1761 39.3026 85.1761ZM39.3082 83.75C39.8385 83.75 40.2779 83.6098 40.6264 83.3295C40.9749 83.0492 41.2325 82.6761 41.3991 82.2102C41.5696 81.7443 41.6548 81.2311 41.6548 80.6705C41.6548 80.1136 41.5696 79.6023 41.3991 79.1364C41.2325 78.6667 40.9749 78.2898 40.6264 78.0057C40.2779 77.7216 39.8385 77.5795 39.3082 77.5795C38.7741 77.5795 38.331 77.7216 37.9787 78.0057C37.6302 78.2898 37.3707 78.6667 37.2003 79.1364C37.0336 79.6023 36.9503 80.1136 36.9503 80.6705C36.9503 81.2311 37.0336 81.7443 37.2003 82.2102C37.3707 82.6761 37.6302 83.0492 37.9787 83.3295C38.331 83.6098 38.7741 83.75 39.3082 83.75ZM45.267 85V76.2727H46.9091V77.6591H47C47.1591 77.1894 47.4394 76.8201 47.8409 76.5511C48.2462 76.2784 48.7045 76.142 49.2159 76.142C49.322 76.142 49.447 76.1458 49.5909 76.1534C49.7386 76.161 49.8542 76.1705 49.9375 76.1818V77.8068C49.8693 77.7879 49.7481 77.767 49.5739 77.7443C49.3996 77.7178 49.2254 77.7045 49.0511 77.7045C48.6496 77.7045 48.2917 77.7898 47.9773 77.9602C47.6667 78.1269 47.4205 78.3598 47.2386 78.6591C47.0568 78.9545 46.9659 79.2917 46.9659 79.6705V85H45.267ZM51.4077 85V76.2727H53.0384V77.6932H53.1463C53.3281 77.2121 53.6255 76.8371 54.0384 76.5682C54.4512 76.2955 54.9455 76.1591 55.5213 76.1591C56.1046 76.1591 56.5933 76.2955 56.9872 76.5682C57.3849 76.8409 57.6785 77.2159 57.8679 77.6932H57.9588C58.1671 77.2273 58.4986 76.8561 58.9531 76.5795C59.4077 76.2992 59.9493 76.1591 60.5781 76.1591C61.3698 76.1591 62.0156 76.4072 62.5156 76.9034C63.0194 77.3996 63.2713 78.1477 63.2713 79.1477V85H61.5724V79.3068C61.5724 78.7159 61.4115 78.2879 61.0895 78.0227C60.7675 77.7576 60.383 77.625 59.9361 77.625C59.383 77.625 58.9531 77.7955 58.6463 78.1364C58.3395 78.4735 58.1861 78.9072 58.1861 79.4375V85H56.4929V79.1989C56.4929 78.7254 56.3452 78.3447 56.0497 78.0568C55.7543 77.7689 55.3698 77.625 54.8963 77.625C54.5743 77.625 54.277 77.7102 54.0043 77.8807C53.7353 78.0473 53.5175 78.2803 53.3509 78.5795C53.188 78.8788 53.1065 79.2254 53.1065 79.6193V85H51.4077ZM72.0881 78.4034L70.5483 78.6761C70.4839 78.4792 70.3816 78.2917 70.2415 78.1136C70.1051 77.9356 69.9195 77.7898 69.6847 77.6761C69.4498 77.5625 69.1563 77.5057 68.804 77.5057C68.3229 77.5057 67.9214 77.6136 67.5994 77.8295C67.2775 78.0417 67.1165 78.3163 67.1165 78.6534C67.1165 78.9451 67.2244 79.1799 67.4403 79.358C67.6563 79.536 68.0047 79.6818 68.4858 79.7955L69.8722 80.1136C70.6752 80.2992 71.2737 80.5852 71.6676 80.9716C72.0616 81.358 72.2585 81.8598 72.2585 82.4773C72.2585 83 72.107 83.4659 71.804 83.875C71.5047 84.2803 71.0862 84.5985 70.5483 84.8295C70.0142 85.0606 69.3949 85.1761 68.6903 85.1761C67.7131 85.1761 66.9157 84.9678 66.2983 84.5511C65.6809 84.1307 65.3021 83.5341 65.1619 82.7614L66.804 82.5114C66.9063 82.9394 67.1165 83.2633 67.4347 83.483C67.7528 83.6989 68.1676 83.8068 68.679 83.8068C69.2358 83.8068 69.6809 83.6913 70.0142 83.4602C70.3475 83.2254 70.5142 82.9394 70.5142 82.6023C70.5142 82.3295 70.4119 82.1004 70.2074 81.9148C70.0066 81.7292 69.6979 81.589 69.2812 81.4943L67.804 81.1705C66.9896 80.9848 66.3873 80.6894 65.9972 80.2841C65.6108 79.8788 65.4176 79.3655 65.4176 78.7443C65.4176 78.2292 65.5616 77.7784 65.8494 77.392C66.1373 77.0057 66.535 76.7045 67.0426 76.4886C67.5502 76.2689 68.1316 76.1591 68.7869 76.1591C69.7301 76.1591 70.4725 76.3636 71.0142 76.7727C71.5559 77.178 71.9138 77.7216 72.0881 78.4034ZM76.2685 73.3636L76.1207 81.6534H74.5469L74.3991 73.3636H76.2685ZM75.3366 85.108C75.0223 85.108 74.7533 84.9981 74.5298 84.7784C74.3063 84.5549 74.1965 84.286 74.2003 83.9716C74.1965 83.661 74.3063 83.3958 74.5298 83.1761C74.7533 82.9527 75.0223 82.8409 75.3366 82.8409C75.6435 82.8409 75.9086 82.9527 76.1321 83.1761C76.3556 83.3958 76.4692 83.661 76.473 83.9716C76.4692 84.1799 76.4143 84.3712 76.3082 84.5455C76.206 84.7159 76.0696 84.8523 75.8991 84.9545C75.7287 85.0568 75.5412 85.108 75.3366 85.108Z" fill="#929292"/>
</svg>
