<svg width="57" height="58" viewBox="0 0 57 58" fill="none" xmlns="http://www.w3.org/2000/svg">
<g clip-path="url(#clip0_1_2)" filter="url(#filter0_d_1_2)">
<g filter="url(#filter1_d_1_2)">
<path d="M28.6743 49C41.6587 49 52.1846 38.2548 52.1846 25C52.1846 11.7452 41.6587 1 28.6743 1C15.69 1 5.16406 11.7452 5.16406 25C5.16406 38.2548 15.69 49 28.6743 49Z" fill="#05C2DF"/>
<path d="M28.6743 49C41.6587 49 52.1846 38.2548 52.1846 25C52.1846 11.7452 41.6587 1 28.6743 1C15.69 1 5.16406 11.7452 5.16406 25C5.16406 38.2548 15.69 49 28.6743 49Z" stroke="white" stroke-miterlimit="10"/>
</g>
<path d="M36.198 28.8398L28.6747 20.2002L21.1514 28.8398" fill="#05C2DF"/>
<path d="M36.198 28.8398L28.6747 20.2002L21.1514 28.8398" stroke="#FEFEFE" stroke-width="0.5"/>
</g>
<defs>
<filter id="filter0_d_1_2" x="0" y="0" width="57" height="58" filterUnits="userSpaceOnUse" color-interpolation-filters="sRGB">
<feFlood flood-opacity="0" result="BackgroundImageFix"/>
<feColorMatrix in="SourceAlpha" type="matrix" values="0 0 0 0 0 0 0 0 0 0 0 0 0 0 0 0 0 0 127 0" result="hardAlpha"/>
<feOffset dy="4"/>
<feGaussianBlur stdDeviation="2"/>
<feComposite in2="hardAlpha" operator="out"/>
<feColorMatrix type="matrix" values="0 0 0 0 0 0 0 0 0 0 0 0 0 0 0 0 0 0 0.25 0"/>
<feBlend mode="normal" in2="BackgroundImageFix" result="effect1_dropShadow_1_2"/>
<feBlend mode="normal" in="SourceGraphic" in2="effect1_dropShadow_1_2" result="shape"/>
</filter>
<filter id="filter1_d_1_2" x="0.664062" y="0.5" width="56.0205" height="57" filterUnits="userSpaceOnUse" color-interpolation-filters="sRGB">
<feFlood flood-opacity="0" result="BackgroundImageFix"/>
<feColorMatrix in="SourceAlpha" type="matrix" values="0 0 0 0 0 0 0 0 0 0 0 0 0 0 0 0 0 0 127 0" result="hardAlpha"/>
<feOffset dy="4"/>
<feGaussianBlur stdDeviation="2"/>
<feComposite in2="hardAlpha" operator="out"/>
<feColorMatrix type="matrix" values="0 0 0 0 0 0 0 0 0 0 0 0 0 0 0 0 0 0 0.25 0"/>
<feBlend mode="normal" in2="BackgroundImageFix" result="effect1_dropShadow_1_2"/>
<feBlend mode="normal" in="SourceGraphic" in2="effect1_dropShadow_1_2" result="shape"/>
</filter>
<clipPath id="clip0_1_2">
<rect width="49" height="50" fill="white" transform="translate(4)"/>
</clipPath>
</defs>
</svg>
