<svg width="447" height="276" viewBox="0 0 447 276" fill="none" xmlns="http://www.w3.org/2000/svg">
<path d="M1.23295 14V3.81818H2.46591V8.35227H7.89489V3.81818H9.12784V14H7.89489V9.44602H2.46591V14H1.23295ZM13.6843 14.179C13.2004 14.179 12.7612 14.0878 12.3668 13.9055C11.9724 13.7199 11.6592 13.4531 11.4272 13.1051C11.1952 12.7538 11.0792 12.3295 11.0792 11.8324C11.0792 11.3949 11.1654 11.0402 11.3377 10.7685C11.5101 10.4934 11.7404 10.2779 12.0288 10.1222C12.3171 9.96638 12.6353 9.85038 12.9833 9.77415C13.3346 9.6946 13.6876 9.63163 14.0423 9.58523C14.5063 9.52557 14.8825 9.48082 15.1708 9.45099C15.4625 9.41785 15.6746 9.36316 15.8072 9.28693C15.9431 9.2107 16.011 9.07812 16.011 8.8892V8.84943C16.011 8.3589 15.8768 7.97775 15.6083 7.70597C15.3432 7.43419 14.9405 7.2983 14.4002 7.2983C13.8401 7.2983 13.4009 7.42093 13.0827 7.66619C12.7646 7.91146 12.5408 8.1733 12.4116 8.4517L11.2979 8.05398C11.4968 7.58996 11.762 7.22869 12.0934 6.97017C12.4281 6.70833 12.7927 6.52604 13.1871 6.4233C13.5849 6.31723 13.976 6.2642 14.3604 6.2642C14.6057 6.2642 14.8874 6.29403 15.2056 6.35369C15.5271 6.41004 15.837 6.5277 16.1353 6.70668C16.4369 6.88565 16.6871 7.15578 16.886 7.51705C17.0849 7.87831 17.1843 8.36222 17.1843 8.96875V14H16.011V12.9659H15.9513C15.8718 13.1316 15.7392 13.3089 15.5536 13.4979C15.368 13.6868 15.1211 13.8475 14.8129 13.9801C14.5046 14.1127 14.1284 14.179 13.6843 14.179ZM13.8633 13.125C14.3273 13.125 14.7184 13.0339 15.0366 12.8516C15.3581 12.6693 15.6 12.4339 15.7624 12.1456C15.9281 11.8572 16.011 11.554 16.011 11.2358V10.1619C15.9613 10.2216 15.8519 10.2763 15.6829 10.326C15.5172 10.3724 15.3249 10.4138 15.1062 10.4503C14.8907 10.4834 14.6803 10.5133 14.4748 10.5398C14.2726 10.563 14.1085 10.5829 13.9826 10.5994C13.6777 10.6392 13.3926 10.7038 13.1275 10.7933C12.8656 10.8795 12.6535 11.0104 12.4911 11.1861C12.332 11.3584 12.2525 11.5937 12.2525 11.892C12.2525 12.2997 12.4033 12.608 12.7049 12.8168C13.0098 13.0223 13.396 13.125 13.8633 13.125ZM25.2967 6.36364L22.4728 14H21.2797L18.4558 6.36364H19.7285L21.8365 12.4489H21.916L24.024 6.36364H25.2967ZM29.7736 14.1591C29.0378 14.1591 28.4031 13.9967 27.8695 13.6719C27.3392 13.3438 26.9299 12.8864 26.6415 12.2997C26.3565 11.7098 26.214 11.0237 26.214 10.2415C26.214 9.45928 26.3565 8.76989 26.6415 8.1733C26.9299 7.57339 27.3309 7.10606 27.8446 6.77131C28.3617 6.43324 28.9649 6.2642 29.6543 6.2642C30.052 6.2642 30.4448 6.33049 30.8326 6.46307C31.2203 6.59564 31.5733 6.81108 31.8915 7.10938C32.2097 7.40436 32.4632 7.79545 32.6522 8.28267C32.8411 8.76989 32.9355 9.36979 32.9355 10.0824V10.5795H27.0492V9.56534H31.7424C31.7424 9.13447 31.6562 8.75 31.4838 8.41193C31.3148 8.07386 31.0729 7.80705 30.758 7.61151C30.4464 7.41596 30.0785 7.31818 29.6543 7.31818C29.187 7.31818 28.7826 7.43419 28.4412 7.66619C28.1032 7.89489 27.843 8.19318 27.6607 8.56108C27.4784 8.92898 27.3873 9.32339 27.3873 9.74432V10.4205C27.3873 10.9972 27.4867 11.486 27.6855 11.8871C27.8877 12.2848 28.1678 12.5881 28.5257 12.7969C28.8837 13.0024 29.2997 13.1051 29.7736 13.1051C30.0819 13.1051 30.3603 13.062 30.6088 12.9759C30.8607 12.8864 31.0778 12.7538 31.2601 12.5781C31.4424 12.3991 31.5833 12.1771 31.6827 11.9119L32.8162 12.2301C32.6969 12.6146 32.4964 12.9527 32.2147 13.2443C31.9329 13.5327 31.5849 13.758 31.1706 13.9205C30.7563 14.0795 30.2907 14.1591 29.7736 14.1591ZM40.905 14.179C40.4211 14.179 39.9819 14.0878 39.5875 13.9055C39.1931 13.7199 38.8799 13.4531 38.6479 13.1051C38.4159 12.7538 38.2999 12.3295 38.2999 11.8324C38.2999 11.3949 38.3861 11.0402 38.5584 10.7685C38.7308 10.4934 38.9611 10.2779 39.2495 10.1222C39.5378 9.96638 39.856 9.85038 40.204 9.77415C40.5553 9.6946 40.9083 9.63163 41.263 9.58523C41.727 9.52557 42.1032 9.48082 42.3915 9.45099C42.6832 9.41785 42.8953 9.36316 43.0279 9.28693C43.1638 9.2107 43.2317 9.07812 43.2317 8.8892V8.84943C43.2317 8.3589 43.0975 7.97775 42.829 7.70597C42.5639 7.43419 42.1612 7.2983 41.6209 7.2983C41.0608 7.2983 40.6216 7.42093 40.3034 7.66619C39.9853 7.91146 39.7615 8.1733 39.6323 8.4517L38.5186 8.05398C38.7175 7.58996 38.9827 7.22869 39.3141 6.97017C39.6489 6.70833 40.0134 6.52604 40.4078 6.4233C40.8056 6.31723 41.1967 6.2642 41.5811 6.2642C41.8264 6.2642 42.1081 6.29403 42.4263 6.35369C42.7478 6.41004 43.0577 6.5277 43.356 6.70668C43.6576 6.88565 43.9078 7.15578 44.1067 7.51705C44.3056 7.87831 44.405 8.36222 44.405 8.96875V14H43.2317V12.9659H43.1721C43.0925 13.1316 42.9599 13.3089 42.7743 13.4979C42.5887 13.6868 42.3418 13.8475 42.0336 13.9801C41.7253 14.1127 41.3491 14.179 40.905 14.179ZM41.084 13.125C41.548 13.125 41.9391 13.0339 42.2573 12.8516C42.5788 12.6693 42.8207 12.4339 42.9831 12.1456C43.1489 11.8572 43.2317 11.554 43.2317 11.2358V10.1619C43.182 10.2216 43.0726 10.2763 42.9036 10.326C42.7379 10.3724 42.5456 10.4138 42.3269 10.4503C42.1114 10.4834 41.901 10.5133 41.6955 10.5398C41.4933 10.563 41.3292 10.5829 41.2033 10.5994C40.8984 10.6392 40.6133 10.7038 40.3482 10.7933C40.0864 10.8795 39.8742 11.0104 39.7118 11.1861C39.5527 11.3584 39.4732 11.5937 39.4732 11.892C39.4732 12.2997 39.624 12.608 39.9256 12.8168C40.2305 13.0223 40.6167 13.125 41.084 13.125ZM47.7198 9.40625V14H46.5465V6.36364H47.68V7.55682H47.7795C47.9585 7.16903 48.2302 6.85748 48.5948 6.62216C48.9594 6.38352 49.43 6.2642 50.0067 6.2642C50.5238 6.2642 50.9762 6.37027 51.364 6.58239C51.7518 6.79119 52.0534 7.10938 52.2688 7.53693C52.4843 7.96117 52.592 8.49811 52.592 9.14773V14H51.4187V9.22727C51.4187 8.62737 51.2629 8.16004 50.9513 7.82528C50.6398 7.48722 50.2122 7.31818 49.6687 7.31818C49.2942 7.31818 48.9594 7.39938 48.6644 7.56179C48.3728 7.72419 48.1424 7.96117 47.9734 8.27273C47.8043 8.58428 47.7198 8.96212 47.7198 9.40625ZM55.2182 16.8636C55.0194 16.8636 54.842 16.8471 54.6863 16.8139C54.5305 16.7841 54.4228 16.7543 54.3631 16.7244L54.6614 15.6903C54.9464 15.7633 55.1983 15.7898 55.4171 15.7699C55.6358 15.75 55.8297 15.6522 55.9988 15.4766C56.1711 15.3042 56.3285 15.0241 56.4711 14.6364L56.6898 14.0398L53.8659 6.36364H55.1387L57.2466 12.4489H57.3262L59.4341 6.36364H60.7069L57.4654 15.1136C57.3195 15.508 57.1389 15.8345 56.9235 16.093C56.708 16.3549 56.4578 16.5488 56.1728 16.6747C55.891 16.8007 55.5729 16.8636 55.2182 16.8636ZM71.4032 16.8636V12.8267H71.3038C71.2176 12.9659 71.095 13.1416 70.9359 13.3537C70.7768 13.5625 70.5498 13.7498 70.2548 13.9155C69.9598 14.0779 69.5671 14.1591 69.0765 14.1591C68.4402 14.1591 67.8784 13.9983 67.3912 13.6768C66.9039 13.352 66.5228 12.8946 66.2477 12.3047C65.9726 11.7114 65.835 11.0104 65.835 10.2017C65.835 9.39962 65.9726 8.7036 66.2477 8.11364C66.5228 7.52367 66.9056 7.06794 67.3961 6.74645C67.8867 6.42495 68.4534 6.2642 69.0964 6.2642C69.5936 6.2642 69.9863 6.34706 70.2747 6.51278C70.5663 6.67519 70.7884 6.8608 70.9409 7.0696C71.0967 7.27509 71.2176 7.44413 71.3038 7.5767H71.443V6.36364H72.5765V16.8636H71.4032ZM69.2356 13.1051C69.7063 13.1051 70.104 12.9825 70.4288 12.7372C70.7536 12.4886 71.0005 12.1456 71.1696 11.7081C71.3386 11.2673 71.4231 10.7585 71.4231 10.1818C71.4231 9.61174 71.3403 9.11293 71.1745 8.68537C71.0088 8.2545 70.7636 7.91974 70.4387 7.68111C70.1139 7.43916 69.7129 7.31818 69.2356 7.31818C68.7385 7.31818 68.3242 7.44579 67.9927 7.70099C67.6646 7.95289 67.4177 8.29593 67.252 8.73011C67.0895 9.16098 67.0083 9.64489 67.0083 10.1818C67.0083 10.7254 67.0912 11.2192 67.2569 11.6634C67.426 12.1042 67.6745 12.4555 68.0027 12.7173C68.3341 12.9759 68.7451 13.1051 69.2356 13.1051ZM79.5368 10.8778V6.36364H80.71V14H79.5368V12.7074H79.4572C79.2782 13.0952 78.9998 13.425 78.622 13.6967C78.2441 13.9652 77.7669 14.0994 77.1902 14.0994C76.7129 14.0994 76.2886 13.995 75.9174 13.7862C75.5462 13.5741 75.2546 13.2559 75.0424 12.8317C74.8303 12.4041 74.7243 11.8655 74.7243 11.2159V6.36364H75.8975V11.1364C75.8975 11.6932 76.0533 12.1373 76.3649 12.4688C76.6797 12.8002 77.0808 12.9659 77.568 12.9659C77.8597 12.9659 78.1563 12.8913 78.4579 12.7422C78.7628 12.593 79.0181 12.3643 79.2235 12.0561C79.4324 11.7479 79.5368 11.3551 79.5368 10.8778ZM86.0607 14.1591C85.3249 14.1591 84.6902 13.9967 84.1566 13.6719C83.6263 13.3438 83.217 12.8864 82.9286 12.2997C82.6436 11.7098 82.5011 11.0237 82.5011 10.2415C82.5011 9.45928 82.6436 8.76989 82.9286 8.1733C83.217 7.57339 83.618 7.10606 84.1317 6.77131C84.6488 6.43324 85.252 6.2642 85.9414 6.2642C86.3391 6.2642 86.7319 6.33049 87.1197 6.46307C87.5075 6.59564 87.8604 6.81108 88.1786 7.10938C88.4968 7.40436 88.7504 7.79545 88.9393 8.28267C89.1282 8.76989 89.2227 9.36979 89.2227 10.0824V10.5795H83.3363V9.56534H88.0295C88.0295 9.13447 87.9433 8.75 87.771 8.41193C87.6019 8.07386 87.36 7.80705 87.0451 7.61151C86.7335 7.41596 86.3656 7.31818 85.9414 7.31818C85.4741 7.31818 85.0697 7.43419 84.7283 7.66619C84.3903 7.89489 84.1301 8.19318 83.9478 8.56108C83.7655 8.92898 83.6744 9.32339 83.6744 9.74432V10.4205C83.6744 10.9972 83.7738 11.486 83.9727 11.8871C84.1748 12.2848 84.4549 12.5881 84.8129 12.7969C85.1708 13.0024 85.5868 13.1051 86.0607 13.1051C86.369 13.1051 86.6474 13.062 86.896 12.9759C87.1478 12.8864 87.3649 12.7538 87.5472 12.5781C87.7295 12.3991 87.8704 12.1771 87.9698 11.9119L89.1033 12.2301C88.984 12.6146 88.7835 12.9527 88.5018 13.2443C88.2201 13.5327 87.872 13.758 87.4577 13.9205C87.0434 14.0795 86.5778 14.1591 86.0607 14.1591ZM96.4165 8.07386L95.3626 8.37216C95.2963 8.1965 95.1985 8.0258 95.0692 7.86009C94.9433 7.69105 94.771 7.55185 94.5522 7.44247C94.3335 7.3331 94.0534 7.27841 93.712 7.27841C93.2447 7.27841 92.8552 7.38613 92.5437 7.60156C92.2354 7.81368 92.0813 8.08381 92.0813 8.41193C92.0813 8.7036 92.1874 8.93395 92.3995 9.10298C92.6116 9.27202 92.9431 9.41288 93.3938 9.52557L94.5273 9.80398C95.2101 9.9697 95.7189 10.2232 96.0536 10.5646C96.3884 10.9027 96.5558 11.3385 96.5558 11.8722C96.5558 12.3097 96.4298 12.7008 96.1779 13.0455C95.9293 13.3902 95.5813 13.6619 95.1339 13.8608C94.6864 14.0597 94.1661 14.1591 93.5728 14.1591C92.7939 14.1591 92.1493 13.9901 91.6388 13.652C91.1284 13.3139 90.8053 12.8201 90.6694 12.1705L91.783 11.892C91.8891 12.303 92.0896 12.6113 92.3846 12.8168C92.6829 13.0223 93.0723 13.125 93.5529 13.125C94.0998 13.125 94.534 13.009 94.8555 12.777C95.1803 12.5417 95.3427 12.2599 95.3427 11.9318C95.3427 11.6667 95.2499 11.4446 95.0643 11.2656C94.8787 11.0833 94.5936 10.9474 94.2092 10.858L92.9364 10.5597C92.2371 10.3939 91.7234 10.1371 91.3952 9.78906C91.0704 9.43774 90.908 8.99858 90.908 8.47159C90.908 8.04072 91.029 7.65956 91.271 7.32812C91.5162 6.99669 91.8493 6.73651 92.2702 6.54758C92.6945 6.35866 93.1751 6.2642 93.712 6.2642C94.4677 6.2642 95.061 6.42992 95.4918 6.76136C95.926 7.0928 96.2343 7.5303 96.4165 8.07386ZM101.643 6.36364V7.35795H97.6855V6.36364H101.643ZM98.839 4.53409H100.012V11.8125C100.012 12.1439 100.06 12.3925 100.156 12.5582C100.256 12.7206 100.382 12.83 100.534 12.8864C100.69 12.9394 100.854 12.9659 101.026 12.9659C101.156 12.9659 101.262 12.9593 101.345 12.946C101.427 12.9295 101.494 12.9162 101.544 12.9062L101.782 13.9602C101.703 13.9901 101.592 14.0199 101.449 14.0497C101.307 14.0829 101.126 14.0994 100.907 14.0994C100.576 14.0994 100.251 14.0282 99.9327 13.8857C99.6178 13.7431 99.356 13.526 99.1472 13.2344C98.9417 12.9427 98.839 12.5748 98.839 12.1307V4.53409ZM103.408 14V6.36364H104.581V14H103.408ZM104.004 5.09091C103.776 5.09091 103.579 5.01302 103.413 4.85724C103.25 4.70147 103.169 4.5142 103.169 4.29545C103.169 4.0767 103.25 3.88944 103.413 3.73366C103.579 3.57789 103.776 3.5 104.004 3.5C104.233 3.5 104.429 3.57789 104.591 3.73366C104.757 3.88944 104.84 4.0767 104.84 4.29545C104.84 4.5142 104.757 4.70147 104.591 4.85724C104.429 5.01302 104.233 5.09091 104.004 5.09091ZM109.832 14.1591C109.143 14.1591 108.538 13.995 108.018 13.6669C107.501 13.3388 107.096 12.8797 106.805 12.2898C106.516 11.6998 106.372 11.0104 106.372 10.2216C106.372 9.42614 106.516 8.73177 106.805 8.13849C107.096 7.54522 107.501 7.08452 108.018 6.75639C108.538 6.42827 109.143 6.2642 109.832 6.2642C110.522 6.2642 111.125 6.42827 111.642 6.75639C112.162 7.08452 112.567 7.54522 112.855 8.13849C113.147 8.73177 113.293 9.42614 113.293 10.2216C113.293 11.0104 113.147 11.6998 112.855 12.2898C112.567 12.8797 112.162 13.3388 111.642 13.6669C111.125 13.995 110.522 14.1591 109.832 14.1591ZM109.832 13.1051C110.356 13.1051 110.787 12.9709 111.125 12.7024C111.463 12.4339 111.713 12.081 111.876 11.6435C112.038 11.206 112.119 10.732 112.119 10.2216C112.119 9.71117 112.038 9.23556 111.876 8.79474C111.713 8.35393 111.463 7.99763 111.125 7.72585C110.787 7.45407 110.356 7.31818 109.832 7.31818C109.309 7.31818 108.878 7.45407 108.54 7.72585C108.202 7.99763 107.951 8.35393 107.789 8.79474C107.627 9.23556 107.545 9.71117 107.545 10.2216C107.545 10.732 107.627 11.206 107.789 11.6435C107.951 12.081 108.202 12.4339 108.54 12.7024C108.878 12.9709 109.309 13.1051 109.832 13.1051ZM116.257 9.40625V14H115.084V6.36364H116.217V7.55682H116.317C116.496 7.16903 116.767 6.85748 117.132 6.62216C117.497 6.38352 117.967 6.2642 118.544 6.2642C119.061 6.2642 119.513 6.37027 119.901 6.58239C120.289 6.79119 120.59 7.10938 120.806 7.53693C121.021 7.96117 121.129 8.49811 121.129 9.14773V14H119.956V9.22727C119.956 8.62737 119.8 8.16004 119.488 7.82528C119.177 7.48722 118.749 7.31818 118.206 7.31818C117.831 7.31818 117.497 7.39938 117.202 7.56179C116.91 7.72419 116.68 7.96117 116.51 8.27273C116.341 8.58428 116.257 8.96212 116.257 9.40625ZM128.682 8.07386L127.628 8.37216C127.562 8.1965 127.464 8.0258 127.335 7.86009C127.209 7.69105 127.037 7.55185 126.818 7.44247C126.599 7.3331 126.319 7.27841 125.978 7.27841C125.51 7.27841 125.121 7.38613 124.809 7.60156C124.501 7.81368 124.347 8.08381 124.347 8.41193C124.347 8.7036 124.453 8.93395 124.665 9.10298C124.877 9.27202 125.209 9.41288 125.659 9.52557L126.793 9.80398C127.476 9.9697 127.984 10.2232 128.319 10.5646C128.654 10.9027 128.821 11.3385 128.821 11.8722C128.821 12.3097 128.695 12.7008 128.444 13.0455C128.195 13.3902 127.847 13.6619 127.4 13.8608C126.952 14.0597 126.432 14.1591 125.838 14.1591C125.06 14.1591 124.415 13.9901 123.904 13.652C123.394 13.3139 123.071 12.8201 122.935 12.1705L124.049 11.892C124.155 12.303 124.355 12.6113 124.65 12.8168C124.949 13.0223 125.338 13.125 125.819 13.125C126.365 13.125 126.8 13.009 127.121 12.777C127.446 12.5417 127.608 12.2599 127.608 11.9318C127.608 11.6667 127.516 11.4446 127.33 11.2656C127.144 11.0833 126.859 10.9474 126.475 10.858L125.202 10.5597C124.503 10.3939 123.989 10.1371 123.661 9.78906C123.336 9.43774 123.174 8.99858 123.174 8.47159C123.174 8.04072 123.295 7.65956 123.537 7.32812C123.782 6.99669 124.115 6.73651 124.536 6.54758C124.96 6.35866 125.441 6.2642 125.978 6.2642C126.733 6.2642 127.327 6.42992 127.757 6.76136C128.192 7.0928 128.5 7.5303 128.682 8.07386ZM132.119 11.1364V11.0767C132.125 10.4437 132.192 9.93987 132.318 9.56534C132.444 9.19081 132.623 8.88755 132.855 8.65554C133.087 8.42353 133.365 8.20975 133.69 8.0142C133.885 7.89489 134.061 7.75402 134.217 7.59162C134.373 7.4259 134.495 7.23532 134.585 7.01989C134.677 6.80445 134.724 6.56581 134.724 6.30398C134.724 5.97917 134.648 5.69744 134.495 5.45881C134.343 5.22017 134.139 5.03622 133.884 4.90696C133.628 4.7777 133.345 4.71307 133.034 4.71307C132.762 4.71307 132.5 4.76941 132.248 4.8821C131.996 4.99479 131.786 5.17211 131.617 5.41406C131.448 5.65601 131.35 5.97254 131.323 6.36364H130.07C130.097 5.80019 130.243 5.31794 130.508 4.9169C130.776 4.51586 131.129 4.20928 131.567 3.99716C132.008 3.78504 132.497 3.67898 133.034 3.67898C133.617 3.67898 134.124 3.79498 134.555 4.02699C134.989 4.259 135.324 4.57718 135.559 4.98153C135.798 5.38589 135.917 5.84659 135.917 6.36364C135.917 6.72822 135.861 7.058 135.748 7.35298C135.639 7.64796 135.48 7.91146 135.271 8.14347C135.065 8.37547 134.817 8.58097 134.525 8.75994C134.233 8.94223 134 9.13447 133.824 9.33665C133.648 9.53551 133.521 9.77249 133.441 10.0476C133.362 10.3227 133.319 10.6657 133.312 11.0767V11.1364H132.119ZM132.755 14.0795C132.51 14.0795 132.299 13.9917 132.124 13.8161C131.948 13.6404 131.86 13.4299 131.86 13.1847C131.86 12.9394 131.948 12.7289 132.124 12.5533C132.299 12.3776 132.51 12.2898 132.755 12.2898C133 12.2898 133.211 12.3776 133.387 12.5533C133.562 12.7289 133.65 12.9394 133.65 13.1847C133.65 13.3471 133.609 13.4962 133.526 13.6321C133.446 13.768 133.338 13.8774 133.203 13.9602C133.07 14.0398 132.921 14.0795 132.755 14.0795Z" fill="#05C2DF"/>
<path d="M11.2273 112.182C11.2273 113.409 11.0057 114.47 10.5625 115.364C10.1193 116.258 9.51136 116.947 8.73864 117.432C7.96591 117.917 7.08333 118.159 6.09091 118.159C5.09849 118.159 4.21591 117.917 3.44318 117.432C2.67045 116.947 2.0625 116.258 1.61932 115.364C1.17614 114.47 0.954545 113.409 0.954545 112.182C0.954545 110.955 1.17614 109.894 1.61932 109C2.0625 108.106 2.67045 107.417 3.44318 106.932C4.21591 106.447 5.09849 106.205 6.09091 106.205C7.08333 106.205 7.96591 106.447 8.73864 106.932C9.51136 107.417 10.1193 108.106 10.5625 109C11.0057 109.894 11.2273 110.955 11.2273 112.182ZM9.86364 112.182C9.86364 111.174 9.69508 110.324 9.35795 109.631C9.02462 108.938 8.57197 108.413 8 108.057C7.43182 107.701 6.79545 107.523 6.09091 107.523C5.38636 107.523 4.74811 107.701 4.17614 108.057C3.60795 108.413 3.1553 108.938 2.81818 109.631C2.48485 110.324 2.31818 111.174 2.31818 112.182C2.31818 113.189 2.48485 114.04 2.81818 114.733C3.1553 115.426 3.60795 115.951 4.17614 116.307C4.74811 116.663 5.38636 116.841 6.09091 116.841C6.79545 116.841 7.43182 116.663 8 116.307C8.57197 115.951 9.02462 115.426 9.35795 114.733C9.69508 114.04 9.86364 113.189 9.86364 112.182ZM18.9148 114.432V109.273H20.2557V118H18.9148V116.523H18.8239C18.6193 116.966 18.3011 117.343 17.8693 117.653C17.4375 117.96 16.892 118.114 16.233 118.114C15.6875 118.114 15.2027 117.994 14.7784 117.756C14.3542 117.513 14.0208 117.15 13.7784 116.665C13.536 116.176 13.4148 115.561 13.4148 114.818V109.273H14.7557V114.727C14.7557 115.364 14.9337 115.871 15.2898 116.25C15.6496 116.629 16.108 116.818 16.6648 116.818C16.9981 116.818 17.3371 116.733 17.6818 116.562C18.0303 116.392 18.322 116.131 18.5568 115.778C18.7955 115.426 18.9148 114.977 18.9148 114.432ZM22.7116 118V109.273H24.0071V110.591H24.098C24.2571 110.159 24.545 109.809 24.9616 109.54C25.3783 109.271 25.848 109.136 26.3707 109.136C26.4692 109.136 26.5923 109.138 26.7401 109.142C26.8878 109.146 26.9995 109.152 27.0753 109.159V110.523C27.0298 110.511 26.9257 110.494 26.7628 110.472C26.6037 110.445 26.4351 110.432 26.2571 110.432C25.8329 110.432 25.4541 110.521 25.1207 110.699C24.7912 110.873 24.5298 111.116 24.3366 111.426C24.1473 111.733 24.0526 112.083 24.0526 112.477V118H22.7116ZM33.1648 118V109.273H34.4602V110.636H34.5739C34.7557 110.17 35.0492 109.809 35.4545 109.551C35.8598 109.29 36.3466 109.159 36.9148 109.159C37.4905 109.159 37.9697 109.29 38.3523 109.551C38.7386 109.809 39.0398 110.17 39.2557 110.636H39.3466C39.5701 110.186 39.9053 109.828 40.3523 109.562C40.7992 109.294 41.3352 109.159 41.9602 109.159C42.7405 109.159 43.3788 109.403 43.875 109.892C44.3712 110.377 44.6193 111.133 44.6193 112.159V118H43.2784V112.159C43.2784 111.515 43.1023 111.055 42.75 110.778C42.3977 110.502 41.983 110.364 41.5057 110.364C40.892 110.364 40.4167 110.549 40.0795 110.92C39.7424 111.288 39.5739 111.754 39.5739 112.318V118H38.2102V112.023C38.2102 111.527 38.0492 111.127 37.7273 110.824C37.4053 110.517 36.9905 110.364 36.483 110.364C36.1345 110.364 35.8087 110.456 35.5057 110.642C35.2064 110.828 34.964 111.085 34.7784 111.415C34.5966 111.741 34.5057 112.117 34.5057 112.545V118H33.1648ZM49.6392 118.205C49.0862 118.205 48.5843 118.1 48.1335 117.892C47.6828 117.68 47.3248 117.375 47.0597 116.977C46.7945 116.576 46.6619 116.091 46.6619 115.523C46.6619 115.023 46.7604 114.617 46.9574 114.307C47.1544 113.992 47.4176 113.746 47.7472 113.568C48.0767 113.39 48.4403 113.258 48.8381 113.17C49.2396 113.08 49.643 113.008 50.0483 112.955C50.5786 112.886 51.0085 112.835 51.3381 112.801C51.6714 112.763 51.9138 112.701 52.0653 112.614C52.2206 112.527 52.2983 112.375 52.2983 112.159V112.114C52.2983 111.553 52.1449 111.117 51.8381 110.807C51.535 110.496 51.0748 110.341 50.4574 110.341C49.8172 110.341 49.3153 110.481 48.9517 110.761C48.5881 111.042 48.3324 111.341 48.1847 111.659L46.9119 111.205C47.1392 110.674 47.4422 110.261 47.821 109.966C48.2036 109.667 48.6203 109.458 49.071 109.341C49.5256 109.22 49.9725 109.159 50.4119 109.159C50.6922 109.159 51.0142 109.193 51.3778 109.261C51.7453 109.326 52.0994 109.46 52.4403 109.665C52.785 109.869 53.071 110.178 53.2983 110.591C53.5256 111.004 53.6392 111.557 53.6392 112.25V118H52.2983V116.818H52.2301C52.1392 117.008 51.9877 117.21 51.7756 117.426C51.5634 117.642 51.2813 117.826 50.929 117.977C50.5767 118.129 50.1468 118.205 49.6392 118.205ZM49.8438 117C50.3741 117 50.821 116.896 51.1847 116.688C51.5521 116.479 51.8286 116.21 52.0142 115.881C52.2036 115.551 52.2983 115.205 52.2983 114.841V113.614C52.2415 113.682 52.1165 113.744 51.9233 113.801C51.7339 113.854 51.5142 113.902 51.2642 113.943C51.018 113.981 50.7775 114.015 50.5426 114.045C50.3116 114.072 50.1241 114.095 49.9801 114.114C49.6316 114.159 49.3059 114.233 49.0028 114.335C48.7036 114.434 48.4612 114.583 48.2756 114.784C48.0938 114.981 48.0028 115.25 48.0028 115.591C48.0028 116.057 48.1752 116.409 48.5199 116.648C48.8684 116.883 49.3097 117 49.8438 117ZM57.4276 112.75V118H56.0866V109.273H57.3821V110.636H57.4957C57.7003 110.193 58.0109 109.837 58.4276 109.568C58.8442 109.295 59.3821 109.159 60.0412 109.159C60.6321 109.159 61.1491 109.28 61.5923 109.523C62.0355 109.761 62.3802 110.125 62.6264 110.614C62.8726 111.098 62.9957 111.712 62.9957 112.455V118H61.6548V112.545C61.6548 111.86 61.4768 111.326 61.1207 110.943C60.7647 110.557 60.276 110.364 59.6548 110.364C59.2268 110.364 58.8442 110.456 58.5071 110.642C58.1738 110.828 57.9105 111.098 57.7173 111.455C57.5241 111.811 57.4276 112.242 57.4276 112.75ZM68.0142 118.205C67.4612 118.205 66.9593 118.1 66.5085 117.892C66.0578 117.68 65.6998 117.375 65.4347 116.977C65.1695 116.576 65.0369 116.091 65.0369 115.523C65.0369 115.023 65.1354 114.617 65.3324 114.307C65.5294 113.992 65.7926 113.746 66.1222 113.568C66.4517 113.39 66.8153 113.258 67.2131 113.17C67.6146 113.08 68.018 113.008 68.4233 112.955C68.9536 112.886 69.3835 112.835 69.7131 112.801C70.0464 112.763 70.2888 112.701 70.4403 112.614C70.5956 112.527 70.6733 112.375 70.6733 112.159V112.114C70.6733 111.553 70.5199 111.117 70.2131 110.807C69.91 110.496 69.4498 110.341 68.8324 110.341C68.1922 110.341 67.6903 110.481 67.3267 110.761C66.9631 111.042 66.7074 111.341 66.5597 111.659L65.2869 111.205C65.5142 110.674 65.8172 110.261 66.196 109.966C66.5786 109.667 66.9953 109.458 67.446 109.341C67.9006 109.22 68.3475 109.159 68.7869 109.159C69.0672 109.159 69.3892 109.193 69.7528 109.261C70.1203 109.326 70.4744 109.46 70.8153 109.665C71.16 109.869 71.446 110.178 71.6733 110.591C71.9006 111.004 72.0142 111.557 72.0142 112.25V118H70.6733V116.818H70.6051C70.5142 117.008 70.3627 117.21 70.1506 117.426C69.9384 117.642 69.6563 117.826 69.304 117.977C68.9517 118.129 68.5218 118.205 68.0142 118.205ZM68.2188 117C68.7491 117 69.196 116.896 69.5597 116.688C69.9271 116.479 70.2036 116.21 70.3892 115.881C70.5786 115.551 70.6733 115.205 70.6733 114.841V113.614C70.6165 113.682 70.4915 113.744 70.2983 113.801C70.1089 113.854 69.8892 113.902 69.6392 113.943C69.393 113.981 69.1525 114.015 68.9176 114.045C68.6866 114.072 68.4991 114.095 68.3551 114.114C68.0066 114.159 67.6809 114.233 67.3778 114.335C67.0786 114.434 66.8362 114.583 66.6506 114.784C66.4688 114.981 66.3778 115.25 66.3778 115.591C66.3778 116.057 66.5502 116.409 66.8949 116.648C67.2434 116.883 67.6847 117 68.2188 117ZM77.9844 121.455C77.3366 121.455 76.7798 121.371 76.3139 121.205C75.848 121.042 75.4598 120.826 75.1491 120.557C74.8423 120.292 74.598 120.008 74.4162 119.705L75.4844 118.955C75.6056 119.114 75.759 119.295 75.9446 119.5C76.1302 119.708 76.384 119.888 76.706 120.04C77.0317 120.195 77.4579 120.273 77.9844 120.273C78.6889 120.273 79.2704 120.102 79.7287 119.761C80.187 119.42 80.4162 118.886 80.4162 118.159V116.386H80.3026C80.2041 116.545 80.0639 116.742 79.8821 116.977C79.7041 117.208 79.4465 117.415 79.1094 117.597C78.776 117.775 78.3253 117.864 77.7571 117.864C77.0526 117.864 76.42 117.697 75.8594 117.364C75.3026 117.03 74.8613 116.545 74.5355 115.909C74.2135 115.273 74.0526 114.5 74.0526 113.591C74.0526 112.697 74.2098 111.919 74.5241 111.256C74.8385 110.589 75.276 110.074 75.8366 109.71C76.3973 109.343 77.045 109.159 77.7798 109.159C78.348 109.159 78.7988 109.254 79.1321 109.443C79.4692 109.629 79.7268 109.841 79.9048 110.08C80.0866 110.314 80.2268 110.508 80.3253 110.659H80.4616V109.273H81.7571V118.25C81.7571 119 81.5866 119.61 81.2457 120.08C80.9086 120.553 80.4541 120.9 79.8821 121.119C79.3139 121.343 78.6813 121.455 77.9844 121.455ZM77.9389 116.659C78.4768 116.659 78.9313 116.536 79.3026 116.29C79.6738 116.044 79.956 115.689 80.1491 115.227C80.3423 114.765 80.4389 114.212 80.4389 113.568C80.4389 112.939 80.3442 112.384 80.1548 111.903C79.9654 111.422 79.6851 111.045 79.3139 110.773C78.9427 110.5 78.4844 110.364 77.9389 110.364C77.3707 110.364 76.8973 110.508 76.5185 110.795C76.1435 111.083 75.8613 111.47 75.6719 111.955C75.4863 112.439 75.3935 112.977 75.3935 113.568C75.3935 114.174 75.4882 114.71 75.6776 115.176C75.8707 115.638 76.1548 116.002 76.5298 116.267C76.9086 116.528 77.3783 116.659 77.9389 116.659ZM87.8707 118.182C87.0298 118.182 86.3045 117.996 85.6946 117.625C85.0885 117.25 84.6207 116.727 84.2912 116.057C83.9654 115.383 83.8026 114.598 83.8026 113.705C83.8026 112.811 83.9654 112.023 84.2912 111.341C84.6207 110.655 85.0791 110.121 85.6662 109.739C86.2571 109.352 86.9465 109.159 87.7344 109.159C88.1889 109.159 88.6378 109.235 89.081 109.386C89.5241 109.538 89.9276 109.784 90.2912 110.125C90.6548 110.462 90.9446 110.909 91.1605 111.466C91.3764 112.023 91.4844 112.708 91.4844 113.523V114.091H84.7571V112.932H90.1207C90.1207 112.439 90.0223 112 89.8253 111.614C89.6321 111.227 89.3556 110.922 88.9957 110.699C88.6397 110.475 88.2192 110.364 87.7344 110.364C87.2003 110.364 86.7382 110.496 86.348 110.761C85.9616 111.023 85.6643 111.364 85.456 111.784C85.2476 112.205 85.1435 112.655 85.1435 113.136V113.909C85.1435 114.568 85.2571 115.127 85.4844 115.585C85.7154 116.04 86.0355 116.386 86.4446 116.625C86.8537 116.86 87.3291 116.977 87.8707 116.977C88.223 116.977 88.5412 116.928 88.8253 116.83C89.1132 116.727 89.3613 116.576 89.5696 116.375C89.7779 116.17 89.9389 115.917 90.0526 115.614L91.348 115.977C91.2116 116.417 90.9825 116.803 90.6605 117.136C90.3385 117.466 89.9408 117.723 89.4673 117.909C88.9938 118.091 88.4616 118.182 87.8707 118.182ZM93.5241 118V109.273H94.8196V110.591H94.9105C95.0696 110.159 95.3575 109.809 95.7741 109.54C96.1908 109.271 96.6605 109.136 97.1832 109.136C97.2817 109.136 97.4048 109.138 97.5526 109.142C97.7003 109.146 97.812 109.152 97.8878 109.159V110.523C97.8423 110.511 97.7382 110.494 97.5753 110.472C97.4162 110.445 97.2476 110.432 97.0696 110.432C96.6454 110.432 96.2666 110.521 95.9332 110.699C95.6037 110.873 95.3423 111.116 95.1491 111.426C94.9598 111.733 94.8651 112.083 94.8651 112.477V118H93.5241ZM105.955 118L103.295 109.273H104.705L106.591 115.955H106.682L108.545 109.273H109.977L111.818 115.932H111.909L113.795 109.273H115.205L112.545 118H111.227L109.318 111.295H109.182L107.273 118H105.955ZM116.977 118V109.273H118.318V118H116.977ZM117.659 107.818C117.398 107.818 117.172 107.729 116.983 107.551C116.797 107.373 116.705 107.159 116.705 106.909C116.705 106.659 116.797 106.445 116.983 106.267C117.172 106.089 117.398 106 117.659 106C117.92 106 118.144 106.089 118.33 106.267C118.519 106.445 118.614 106.659 118.614 106.909C118.614 107.159 118.519 107.373 118.33 107.551C118.144 107.729 117.92 107.818 117.659 107.818ZM122.115 106.364V118H120.774V106.364H122.115ZM125.912 106.364V118H124.571V106.364H125.912ZM132.868 118V109.273H134.163V110.591H134.254C134.413 110.159 134.701 109.809 135.118 109.54C135.535 109.271 136.004 109.136 136.527 109.136C136.625 109.136 136.749 109.138 136.896 109.142C137.044 109.146 137.156 109.152 137.232 109.159V110.523C137.186 110.511 137.082 110.494 136.919 110.472C136.76 110.445 136.591 110.432 136.413 110.432C135.989 110.432 135.61 110.521 135.277 110.699C134.947 110.873 134.686 111.116 134.493 111.426C134.304 111.733 134.209 112.083 134.209 112.477V118H132.868ZM142.214 118.182C141.374 118.182 140.648 117.996 140.038 117.625C139.432 117.25 138.964 116.727 138.635 116.057C138.309 115.383 138.146 114.598 138.146 113.705C138.146 112.811 138.309 112.023 138.635 111.341C138.964 110.655 139.423 110.121 140.01 109.739C140.601 109.352 141.29 109.159 142.078 109.159C142.533 109.159 142.982 109.235 143.425 109.386C143.868 109.538 144.271 109.784 144.635 110.125C144.999 110.462 145.288 110.909 145.504 111.466C145.72 112.023 145.828 112.708 145.828 113.523V114.091H139.101V112.932H144.464C144.464 112.439 144.366 112 144.169 111.614C143.976 111.227 143.699 110.922 143.339 110.699C142.983 110.475 142.563 110.364 142.078 110.364C141.544 110.364 141.082 110.496 140.692 110.761C140.305 111.023 140.008 111.364 139.8 111.784C139.591 112.205 139.487 112.655 139.487 113.136V113.909C139.487 114.568 139.601 115.127 139.828 115.585C140.059 116.04 140.379 116.386 140.788 116.625C141.197 116.86 141.673 116.977 142.214 116.977C142.567 116.977 142.885 116.928 143.169 116.83C143.457 116.727 143.705 116.576 143.913 116.375C144.122 116.17 144.283 115.917 144.396 115.614L145.692 115.977C145.555 116.417 145.326 116.803 145.004 117.136C144.682 117.466 144.285 117.723 143.811 117.909C143.338 118.091 142.805 118.182 142.214 118.182ZM147.868 121.273V109.273H149.163V110.659H149.322C149.421 110.508 149.557 110.314 149.732 110.08C149.91 109.841 150.163 109.629 150.493 109.443C150.826 109.254 151.277 109.159 151.845 109.159C152.58 109.159 153.228 109.343 153.788 109.71C154.349 110.078 154.786 110.598 155.101 111.273C155.415 111.947 155.572 112.742 155.572 113.659C155.572 114.583 155.415 115.384 155.101 116.062C154.786 116.737 154.351 117.259 153.794 117.631C153.237 117.998 152.595 118.182 151.868 118.182C151.307 118.182 150.858 118.089 150.521 117.903C150.184 117.714 149.925 117.5 149.743 117.261C149.561 117.019 149.421 116.818 149.322 116.659H149.209V121.273H147.868ZM149.186 113.636C149.186 114.295 149.283 114.877 149.476 115.381C149.669 115.881 149.951 116.273 150.322 116.557C150.694 116.837 151.148 116.977 151.686 116.977C152.247 116.977 152.714 116.83 153.089 116.534C153.468 116.235 153.752 115.833 153.942 115.33C154.135 114.822 154.232 114.258 154.232 113.636C154.232 113.023 154.137 112.47 153.947 111.977C153.762 111.481 153.48 111.089 153.101 110.801C152.726 110.509 152.254 110.364 151.686 110.364C151.141 110.364 150.682 110.502 150.311 110.778C149.94 111.051 149.66 111.434 149.47 111.926C149.281 112.415 149.186 112.985 149.186 113.636ZM158.959 106.364V118H157.618V106.364H158.959ZM162.278 121.273C162.051 121.273 161.848 121.254 161.67 121.216C161.492 121.182 161.369 121.148 161.301 121.114L161.642 119.932C161.968 120.015 162.256 120.045 162.506 120.023C162.756 120 162.977 119.888 163.17 119.688C163.367 119.491 163.547 119.17 163.71 118.727L163.96 118.045L160.733 109.273H162.188L164.597 116.227H164.688L167.097 109.273H168.551L164.847 119.273C164.68 119.723 164.473 120.097 164.227 120.392C163.981 120.691 163.695 120.913 163.369 121.057C163.047 121.201 162.684 121.273 162.278 121.273ZM175.685 121.273C175.457 121.273 175.255 121.254 175.077 121.216C174.899 121.182 174.776 121.148 174.707 121.114L175.048 119.932C175.374 120.015 175.662 120.045 175.912 120.023C176.162 120 176.384 119.888 176.577 119.688C176.774 119.491 176.954 119.17 177.116 118.727L177.366 118.045L174.139 109.273H175.594L178.003 116.227H178.094L180.503 109.273H181.957L178.253 119.273C178.086 119.723 177.88 120.097 177.634 120.392C177.387 120.691 177.101 120.913 176.776 121.057C176.454 121.201 176.09 121.273 175.685 121.273ZM186.96 118.182C186.172 118.182 185.481 117.994 184.886 117.619C184.295 117.244 183.833 116.72 183.5 116.045C183.17 115.371 183.006 114.583 183.006 113.682C183.006 112.773 183.17 111.979 183.5 111.301C183.833 110.623 184.295 110.097 184.886 109.722C185.481 109.347 186.172 109.159 186.96 109.159C187.748 109.159 188.438 109.347 189.028 109.722C189.623 110.097 190.085 110.623 190.415 111.301C190.748 111.979 190.915 112.773 190.915 113.682C190.915 114.583 190.748 115.371 190.415 116.045C190.085 116.72 189.623 117.244 189.028 117.619C188.438 117.994 187.748 118.182 186.96 118.182ZM186.96 116.977C187.559 116.977 188.051 116.824 188.438 116.517C188.824 116.21 189.11 115.807 189.295 115.307C189.481 114.807 189.574 114.265 189.574 113.682C189.574 113.098 189.481 112.555 189.295 112.051C189.11 111.547 188.824 111.14 188.438 110.83C188.051 110.519 187.559 110.364 186.96 110.364C186.362 110.364 185.869 110.519 185.483 110.83C185.097 111.14 184.811 111.547 184.625 112.051C184.439 112.555 184.347 113.098 184.347 113.682C184.347 114.265 184.439 114.807 184.625 115.307C184.811 115.807 185.097 116.21 185.483 116.517C185.869 116.824 186.362 116.977 186.96 116.977ZM198.462 114.432V109.273H199.803V118H198.462V116.523H198.371C198.166 116.966 197.848 117.343 197.416 117.653C196.984 117.96 196.439 118.114 195.78 118.114C195.234 118.114 194.75 117.994 194.325 117.756C193.901 117.513 193.568 117.15 193.325 116.665C193.083 116.176 192.962 115.561 192.962 114.818V109.273H194.303V114.727C194.303 115.364 194.481 115.871 194.837 116.25C195.196 116.629 195.655 116.818 196.212 116.818C196.545 116.818 196.884 116.733 197.229 116.562C197.577 116.392 197.869 116.131 198.104 115.778C198.342 115.426 198.462 114.977 198.462 114.432ZM208.736 118L206.077 109.273H207.486L209.372 115.955H209.463L211.327 109.273H212.759L214.599 115.932H214.69L216.577 109.273H217.986L215.327 118H214.009L212.099 111.295H211.963L210.054 118H208.736ZM219.759 118V109.273H221.099V118H219.759ZM220.44 107.818C220.179 107.818 219.954 107.729 219.764 107.551C219.579 107.373 219.486 107.159 219.486 106.909C219.486 106.659 219.579 106.445 219.764 106.267C219.954 106.089 220.179 106 220.44 106C220.702 106 220.925 106.089 221.111 106.267C221.3 106.445 221.395 106.659 221.395 106.909C221.395 107.159 221.3 107.373 221.111 107.551C220.925 107.729 220.702 107.818 220.44 107.818ZM227.351 109.273V110.409H222.828V109.273H227.351ZM224.146 107.182H225.487V115.5C225.487 115.879 225.542 116.163 225.652 116.352C225.766 116.538 225.91 116.663 226.084 116.727C226.262 116.788 226.449 116.818 226.646 116.818C226.794 116.818 226.915 116.811 227.01 116.795C227.105 116.777 227.18 116.761 227.237 116.75L227.51 117.955C227.419 117.989 227.292 118.023 227.129 118.057C226.966 118.095 226.76 118.114 226.51 118.114C226.131 118.114 225.76 118.032 225.396 117.869C225.036 117.706 224.737 117.458 224.499 117.125C224.264 116.792 224.146 116.371 224.146 115.864V107.182ZM230.896 112.75V118H229.555V106.364H230.896V110.636H231.01C231.214 110.186 231.521 109.828 231.93 109.562C232.343 109.294 232.893 109.159 233.578 109.159C234.173 109.159 234.694 109.278 235.141 109.517C235.588 109.752 235.934 110.114 236.18 110.602C236.43 111.087 236.555 111.705 236.555 112.455V118H235.214V112.545C235.214 111.852 235.035 111.316 234.675 110.938C234.319 110.555 233.824 110.364 233.192 110.364C232.752 110.364 232.358 110.456 232.01 110.642C231.665 110.828 231.393 111.098 231.192 111.455C230.995 111.811 230.896 112.242 230.896 112.75ZM239.009 118V109.273H240.349V118H239.009ZM239.69 107.818C239.429 107.818 239.204 107.729 239.014 107.551C238.829 107.373 238.736 107.159 238.736 106.909C238.736 106.659 238.829 106.445 239.014 106.267C239.204 106.089 239.429 106 239.69 106C239.952 106 240.175 106.089 240.361 106.267C240.55 106.445 240.645 106.659 240.645 106.909C240.645 107.159 240.55 107.373 240.361 107.551C240.175 107.729 239.952 107.818 239.69 107.818ZM244.146 112.75V118H242.805V109.273H244.101V110.636H244.214C244.419 110.193 244.73 109.837 245.146 109.568C245.563 109.295 246.101 109.159 246.76 109.159C247.351 109.159 247.868 109.28 248.311 109.523C248.754 109.761 249.099 110.125 249.345 110.614C249.591 111.098 249.714 111.712 249.714 112.455V118H248.374V112.545C248.374 111.86 248.196 111.326 247.839 110.943C247.483 110.557 246.995 110.364 246.374 110.364C245.946 110.364 245.563 110.456 245.226 110.642C244.893 110.828 244.629 111.098 244.436 111.455C244.243 111.811 244.146 112.242 244.146 112.75ZM260.733 106.364V118H259.324V107.841H259.256L256.415 109.727V108.295L259.324 106.364H260.733ZM267.716 118.159C267.049 118.159 266.449 118.027 265.915 117.761C265.381 117.496 264.953 117.133 264.631 116.67C264.309 116.208 264.133 115.682 264.102 115.091H265.466C265.519 115.617 265.758 116.053 266.182 116.398C266.61 116.739 267.121 116.909 267.716 116.909C268.193 116.909 268.617 116.797 268.989 116.574C269.364 116.35 269.657 116.044 269.869 115.653C270.085 115.259 270.193 114.814 270.193 114.318C270.193 113.811 270.081 113.358 269.858 112.96C269.638 112.559 269.335 112.242 268.949 112.011C268.563 111.78 268.121 111.663 267.625 111.659C267.269 111.655 266.903 111.71 266.528 111.824C266.153 111.934 265.845 112.076 265.602 112.25L264.284 112.091L264.989 106.364H271.034V107.614H266.17L265.761 111.045H265.83C266.068 110.856 266.367 110.699 266.727 110.574C267.087 110.449 267.462 110.386 267.852 110.386C268.564 110.386 269.199 110.557 269.756 110.898C270.316 111.235 270.756 111.697 271.074 112.284C271.396 112.871 271.557 113.542 271.557 114.295C271.557 115.038 271.39 115.701 271.057 116.284C270.727 116.864 270.273 117.322 269.693 117.659C269.114 117.992 268.455 118.159 267.716 118.159ZM278.337 118V109.273H279.632V110.636H279.746C279.928 110.17 280.221 109.809 280.626 109.551C281.032 109.29 281.518 109.159 282.087 109.159C282.662 109.159 283.142 109.29 283.524 109.551C283.911 109.809 284.212 110.17 284.428 110.636H284.518C284.742 110.186 285.077 109.828 285.524 109.562C285.971 109.294 286.507 109.159 287.132 109.159C287.912 109.159 288.551 109.403 289.047 109.892C289.543 110.377 289.791 111.133 289.791 112.159V118H288.45V112.159C288.45 111.515 288.274 111.055 287.922 110.778C287.57 110.502 287.155 110.364 286.678 110.364C286.064 110.364 285.589 110.549 285.251 110.92C284.914 111.288 284.746 111.754 284.746 112.318V118H283.382V112.023C283.382 111.527 283.221 111.127 282.899 110.824C282.577 110.517 282.162 110.364 281.655 110.364C281.306 110.364 280.981 110.456 280.678 110.642C280.378 110.828 280.136 111.085 279.95 111.415C279.768 111.741 279.678 112.117 279.678 112.545V118H278.337ZM292.243 118V109.273H293.584V118H292.243ZM292.925 107.818C292.663 107.818 292.438 107.729 292.249 107.551C292.063 107.373 291.97 107.159 291.97 106.909C291.97 106.659 292.063 106.445 292.249 106.267C292.438 106.089 292.663 106 292.925 106C293.186 106 293.41 106.089 293.595 106.267C293.785 106.445 293.879 106.659 293.879 106.909C293.879 107.159 293.785 107.373 293.595 107.551C293.41 107.729 293.186 107.818 292.925 107.818ZM297.381 112.75V118H296.04V109.273H297.335V110.636H297.449C297.653 110.193 297.964 109.837 298.381 109.568C298.797 109.295 299.335 109.159 299.994 109.159C300.585 109.159 301.102 109.28 301.545 109.523C301.989 109.761 302.333 110.125 302.58 110.614C302.826 111.098 302.949 111.712 302.949 112.455V118H301.608V112.545C301.608 111.86 301.43 111.326 301.074 110.943C300.718 110.557 300.229 110.364 299.608 110.364C299.18 110.364 298.797 110.456 298.46 110.642C298.127 110.828 297.864 111.098 297.67 111.455C297.477 111.811 297.381 112.242 297.381 112.75ZM310.899 114.432V109.273H312.24V118H310.899V116.523H310.808C310.604 116.966 310.286 117.343 309.854 117.653C309.422 117.96 308.876 118.114 308.217 118.114C307.672 118.114 307.187 117.994 306.763 117.756C306.339 117.513 306.005 117.15 305.763 116.665C305.52 116.176 305.399 115.561 305.399 114.818V109.273H306.74V114.727C306.74 115.364 306.918 115.871 307.274 116.25C307.634 116.629 308.092 116.818 308.649 116.818C308.982 116.818 309.321 116.733 309.666 116.562C310.015 116.392 310.306 116.131 310.541 115.778C310.78 115.426 310.899 114.977 310.899 114.432ZM318.491 109.273V110.409H313.969V109.273H318.491ZM315.287 107.182H316.628V115.5C316.628 115.879 316.683 116.163 316.793 116.352C316.906 116.538 317.05 116.663 317.224 116.727C317.402 116.788 317.59 116.818 317.787 116.818C317.935 116.818 318.056 116.811 318.151 116.795C318.245 116.777 318.321 116.761 318.378 116.75L318.651 117.955C318.56 117.989 318.433 118.023 318.27 118.057C318.107 118.095 317.901 118.114 317.651 118.114C317.272 118.114 316.901 118.032 316.537 117.869C316.177 117.706 315.878 117.458 315.639 117.125C315.404 116.792 315.287 116.371 315.287 115.864V107.182ZM324.074 118.182C323.233 118.182 322.508 117.996 321.898 117.625C321.292 117.25 320.824 116.727 320.494 116.057C320.169 115.383 320.006 114.598 320.006 113.705C320.006 112.811 320.169 112.023 320.494 111.341C320.824 110.655 321.282 110.121 321.869 109.739C322.46 109.352 323.15 109.159 323.938 109.159C324.392 109.159 324.841 109.235 325.284 109.386C325.727 109.538 326.131 109.784 326.494 110.125C326.858 110.462 327.148 110.909 327.364 111.466C327.58 112.023 327.688 112.708 327.688 113.523V114.091H320.96V112.932H326.324C326.324 112.439 326.225 112 326.028 111.614C325.835 111.227 325.559 110.922 325.199 110.699C324.843 110.475 324.422 110.364 323.938 110.364C323.403 110.364 322.941 110.496 322.551 110.761C322.165 111.023 321.867 111.364 321.659 111.784C321.451 112.205 321.347 112.655 321.347 113.136V113.909C321.347 114.568 321.46 115.127 321.688 115.585C321.919 116.04 322.239 116.386 322.648 116.625C323.057 116.86 323.532 116.977 324.074 116.977C324.426 116.977 324.744 116.928 325.028 116.83C325.316 116.727 325.564 116.576 325.773 116.375C325.981 116.17 326.142 115.917 326.256 115.614L327.551 115.977C327.415 116.417 327.186 116.803 326.864 117.136C326.542 117.466 326.144 117.723 325.67 117.909C325.197 118.091 324.665 118.182 324.074 118.182ZM335.909 111.227L334.705 111.568C334.629 111.367 334.517 111.172 334.369 110.983C334.225 110.79 334.028 110.631 333.778 110.506C333.528 110.381 333.208 110.318 332.818 110.318C332.284 110.318 331.839 110.441 331.483 110.688C331.131 110.93 330.955 111.239 330.955 111.614C330.955 111.947 331.076 112.21 331.318 112.403C331.561 112.597 331.939 112.758 332.455 112.886L333.75 113.205C334.53 113.394 335.112 113.684 335.494 114.074C335.877 114.46 336.068 114.958 336.068 115.568C336.068 116.068 335.924 116.515 335.636 116.909C335.352 117.303 334.955 117.614 334.443 117.841C333.932 118.068 333.337 118.182 332.659 118.182C331.769 118.182 331.032 117.989 330.449 117.602C329.866 117.216 329.496 116.652 329.341 115.909L330.614 115.591C330.735 116.061 330.964 116.413 331.301 116.648C331.642 116.883 332.087 117 332.636 117C333.261 117 333.758 116.867 334.125 116.602C334.496 116.333 334.682 116.011 334.682 115.636C334.682 115.333 334.576 115.08 334.364 114.875C334.152 114.667 333.826 114.511 333.386 114.409L331.932 114.068C331.133 113.879 330.545 113.585 330.17 113.188C329.799 112.786 329.614 112.284 329.614 111.682C329.614 111.189 329.752 110.754 330.028 110.375C330.309 109.996 330.689 109.699 331.17 109.483C331.655 109.267 332.205 109.159 332.818 109.159C333.682 109.159 334.36 109.348 334.852 109.727C335.348 110.106 335.701 110.606 335.909 111.227Z" fill="#929292"/>
<path d="M18.6903 47.4602C18.5795 47.0085 18.4048 46.6122 18.1662 46.2713C17.9276 45.9219 17.6293 45.6278 17.2713 45.3892C16.9219 45.142 16.5128 44.9588 16.044 44.8395C15.5838 44.7116 15.0767 44.6477 14.5227 44.6477C13.3295 44.6477 12.3111 44.9332 11.4673 45.5043C10.6321 46.0753 9.9929 46.8977 9.54972 47.9716C9.11506 49.0455 8.89773 50.3409 8.89773 51.858C8.89773 53.392 9.10653 54.7045 9.52415 55.7955C9.94176 56.8864 10.5639 57.7216 11.3906 58.3011C12.2173 58.8807 13.2443 59.1705 14.4716 59.1705C15.554 59.1705 16.4531 59.0128 17.169 58.6974C17.8935 58.3821 18.4347 57.9347 18.7926 57.3551C19.1506 56.7756 19.3295 56.0937 19.3295 55.3097L20.5568 55.4375H14.5739V50.375H26.1818V54.0057C26.1818 56.392 25.6747 58.4332 24.6605 60.1293C23.6548 61.8168 22.2656 63.1122 20.4929 64.0156C18.7287 64.9105 16.7045 65.358 14.4205 65.358C11.8722 65.358 9.63494 64.8168 7.70881 63.7344C5.78267 62.652 4.27841 61.1094 3.19602 59.1065C2.12216 57.1037 1.58523 54.7216 1.58523 51.9602C1.58523 49.7955 1.91335 47.8778 2.5696 46.2074C3.23438 44.5369 4.15483 43.1264 5.33097 41.9759C6.5071 40.8168 7.86648 39.9432 9.40909 39.3551C10.9517 38.7585 12.6051 38.4602 14.3693 38.4602C15.9205 38.4602 17.3608 38.6818 18.6903 39.125C20.0284 39.5597 21.2088 40.1818 22.2315 40.9915C23.2628 41.7926 24.0938 42.7429 24.7244 43.8423C25.3551 44.9418 25.7386 46.1477 25.875 47.4602H18.6903ZM29.4961 65V38.8182H48.3654V44.5455H36.604V49.0455H47.3938V54.7727H36.604V59.2727H48.3143V65H29.4961ZM51.1747 44.5455V38.8182H73.9304V44.5455H66.0554V65H59.0497V44.5455H51.1747ZM90.8853 38.8182V65H83.7773V38.8182H90.8853ZM116.907 38.8182V65H110.975L101.515 51.2443H101.362V65H94.2539V38.8182H100.288L109.595 52.5227H109.799V38.8182H116.907Z" fill="white"/>
<path d="M127.493 41.6307V38.8182H147.129V41.6307H138.896V65H135.725V41.6307H127.493ZM173.023 51.9091C173.023 54.6705 172.525 57.0568 171.527 59.0682C170.53 61.0795 169.162 62.6307 167.424 63.7216C165.685 64.8125 163.699 65.358 161.466 65.358C159.233 65.358 157.248 64.8125 155.509 63.7216C153.77 62.6307 152.402 61.0795 151.405 59.0682C150.408 57.0568 149.909 54.6705 149.909 51.9091C149.909 49.1477 150.408 46.7614 151.405 44.75C152.402 42.7386 153.77 41.1875 155.509 40.0966C157.248 39.0057 159.233 38.4602 161.466 38.4602C163.699 38.4602 165.685 39.0057 167.424 40.0966C169.162 41.1875 170.53 42.7386 171.527 44.75C172.525 46.7614 173.023 49.1477 173.023 51.9091ZM169.955 51.9091C169.955 49.642 169.576 47.7287 168.817 46.169C168.067 44.6094 167.049 43.429 165.762 42.6278C164.483 41.8267 163.051 41.4261 161.466 41.4261C159.881 41.4261 158.445 41.8267 157.158 42.6278C155.88 43.429 154.861 44.6094 154.103 46.169C153.353 47.7287 152.978 49.642 152.978 51.9091C152.978 54.1761 153.353 56.0895 154.103 57.6491C154.861 59.2088 155.88 60.3892 157.158 61.1903C158.445 61.9915 159.881 62.392 161.466 62.392C163.051 62.392 164.483 61.9915 165.762 61.1903C167.049 60.3892 168.067 59.2088 168.817 57.6491C169.576 56.0895 169.955 54.1761 169.955 51.9091ZM195.536 38.8182H198.706V56.1534C198.706 57.9432 198.284 59.5412 197.441 60.9474C196.605 62.3452 195.425 63.4489 193.9 64.2585C192.374 65.0597 190.584 65.4602 188.53 65.4602C186.476 65.4602 184.686 65.0597 183.161 64.2585C181.635 63.4489 180.451 62.3452 179.607 60.9474C178.772 59.5412 178.354 57.9432 178.354 56.1534V38.8182H181.525V55.8977C181.525 57.1761 181.806 58.3139 182.368 59.3111C182.931 60.2997 183.732 61.0795 184.772 61.6506C185.82 62.2131 187.073 62.4943 188.53 62.4943C189.988 62.4943 191.24 62.2131 192.289 61.6506C193.337 61.0795 194.138 60.2997 194.692 59.3111C195.255 58.3139 195.536 57.1761 195.536 55.8977V38.8182ZM226.106 47H222.935C222.748 46.0881 222.42 45.2869 221.951 44.5966C221.491 43.9062 220.928 43.3267 220.263 42.858C219.607 42.3807 218.879 42.0227 218.077 41.7841C217.276 41.5455 216.441 41.4261 215.572 41.4261C213.987 41.4261 212.55 41.8267 211.263 42.6278C209.985 43.429 208.967 44.6094 208.208 46.169C207.458 47.7287 207.083 49.642 207.083 51.9091C207.083 54.1761 207.458 56.0895 208.208 57.6491C208.967 59.2088 209.985 60.3892 211.263 61.1903C212.55 61.9915 213.987 62.392 215.572 62.392C216.441 62.392 217.276 62.2727 218.077 62.0341C218.879 61.7955 219.607 61.4418 220.263 60.973C220.928 60.4957 221.491 59.9119 221.951 59.2216C222.42 58.5227 222.748 57.7216 222.935 56.8182H226.106C225.867 58.1562 225.433 59.3537 224.802 60.4105C224.171 61.4673 223.387 62.3665 222.45 63.108C221.512 63.8409 220.46 64.3991 219.292 64.7827C218.133 65.1662 216.893 65.358 215.572 65.358C213.339 65.358 211.353 64.8125 209.614 63.7216C207.876 62.6307 206.508 61.0795 205.511 59.0682C204.513 57.0568 204.015 54.6705 204.015 51.9091C204.015 49.1477 204.513 46.7614 205.511 44.75C206.508 42.7386 207.876 41.1875 209.614 40.0966C211.353 39.0057 213.339 38.4602 215.572 38.4602C216.893 38.4602 218.133 38.652 219.292 39.0355C220.46 39.419 221.512 39.9815 222.45 40.723C223.387 41.456 224.171 42.3509 224.802 43.4077C225.433 44.456 225.867 45.6534 226.106 47ZM231.229 65V38.8182H234.4V50.4773H248.36V38.8182H251.53V65H248.36V53.2898H234.4V65H231.229Z" fill="#05C2DF"/>
<path d="M4.63636 212.955V205.455H5.90909V212.955H4.63636ZM1.52273 209.841V208.568H9.02273V209.841H1.52273ZM15.4787 215.159C14.6984 215.159 14.009 215.021 13.4105 214.744C12.8158 214.464 12.3518 214.08 12.0185 213.591C11.6851 213.098 11.5204 212.538 11.5241 211.909C11.5204 211.417 11.617 210.962 11.8139 210.545C12.0109 210.125 12.2798 209.775 12.6207 209.494C12.9654 209.21 13.3499 209.03 13.7741 208.955V208.886C13.2173 208.742 12.7741 208.43 12.4446 207.949C12.1151 207.464 11.9522 206.913 11.956 206.295C11.9522 205.705 12.1018 205.176 12.4048 204.71C12.7079 204.244 13.1245 203.877 13.6548 203.608C14.1889 203.339 14.7969 203.205 15.4787 203.205C16.1529 203.205 16.7552 203.339 17.2855 203.608C17.8158 203.877 18.2325 204.244 18.5355 204.71C18.8423 205.176 18.9976 205.705 19.0014 206.295C18.9976 206.913 18.8291 207.464 18.4957 207.949C18.1662 208.43 17.7287 208.742 17.1832 208.886V208.955C17.6037 209.03 17.9825 209.21 18.3196 209.494C18.6567 209.775 18.9257 210.125 19.1264 210.545C19.3272 210.962 19.4295 211.417 19.4332 211.909C19.4295 212.538 19.259 213.098 18.9219 213.591C18.5885 214.08 18.1245 214.464 17.5298 214.744C16.9389 215.021 16.2552 215.159 15.4787 215.159ZM15.4787 213.909C16.0052 213.909 16.4598 213.824 16.8423 213.653C17.2249 213.483 17.5204 213.242 17.7287 212.932C17.937 212.621 18.0431 212.258 18.0469 211.841C18.0431 211.402 17.9295 211.013 17.706 210.676C17.4825 210.339 17.1776 210.074 16.7912 209.881C16.4086 209.687 15.9711 209.591 15.4787 209.591C14.9825 209.591 14.5393 209.687 14.1491 209.881C13.7628 210.074 13.4579 210.339 13.2344 210.676C13.0147 211.013 12.9067 211.402 12.9105 211.841C12.9067 212.258 13.0071 212.621 13.2116 212.932C13.42 213.242 13.7173 213.483 14.1037 213.653C14.4901 213.824 14.9484 213.909 15.4787 213.909ZM15.4787 208.386C15.8954 208.386 16.2647 208.303 16.5866 208.136C16.9124 207.97 17.1681 207.737 17.3537 207.438C17.5393 207.138 17.634 206.788 17.6378 206.386C17.634 205.992 17.5412 205.65 17.3594 205.358C17.1776 205.062 16.9257 204.835 16.6037 204.676C16.2817 204.513 15.9067 204.432 15.4787 204.432C15.0431 204.432 14.6624 204.513 14.3366 204.676C14.0109 204.835 13.759 205.062 13.581 205.358C13.4029 205.65 13.3158 205.992 13.3196 206.386C13.3158 206.788 13.4048 207.138 13.5866 207.438C13.7723 207.737 14.0279 207.97 14.3537 208.136C14.6795 208.303 15.0545 208.386 15.4787 208.386ZM25.4744 215.159C24.9972 215.152 24.5199 215.061 24.0426 214.886C23.5653 214.712 23.1297 214.419 22.7358 214.006C22.3419 213.589 22.0256 213.027 21.7869 212.318C21.5483 211.606 21.429 210.712 21.429 209.636C21.429 208.606 21.5256 207.693 21.7188 206.898C21.9119 206.098 22.1922 205.426 22.5597 204.881C22.9271 204.331 23.3703 203.915 23.8892 203.631C24.4119 203.347 25.0009 203.205 25.6562 203.205C26.3078 203.205 26.8873 203.335 27.3949 203.597C27.9063 203.854 28.3229 204.214 28.6449 204.676C28.9669 205.138 29.1752 205.67 29.2699 206.273H27.8835C27.7547 205.75 27.5047 205.316 27.1335 204.972C26.7623 204.627 26.2699 204.455 25.6562 204.455C24.7547 204.455 24.0445 204.847 23.5256 205.631C23.0104 206.415 22.7509 207.515 22.7472 208.932H22.8381C23.0502 208.61 23.3021 208.335 23.5938 208.108C23.8892 207.877 24.215 207.699 24.571 207.574C24.9271 207.449 25.304 207.386 25.7017 207.386C26.3684 207.386 26.9782 207.553 27.5312 207.886C28.0843 208.216 28.5275 208.672 28.8608 209.256C29.1941 209.835 29.3608 210.5 29.3608 211.25C29.3608 211.97 29.1998 212.629 28.8778 213.227C28.5559 213.822 28.1032 214.295 27.5199 214.648C26.9403 214.996 26.2585 215.167 25.4744 215.159ZM25.4744 213.909C25.9517 213.909 26.3797 213.79 26.7585 213.551C27.1411 213.312 27.4422 212.992 27.6619 212.591C27.8854 212.189 27.9972 211.742 27.9972 211.25C27.9972 210.769 27.8892 210.331 27.6733 209.938C27.4612 209.54 27.1676 209.223 26.7926 208.989C26.4214 208.754 25.9972 208.636 25.5199 208.636C25.16 208.636 24.8248 208.708 24.5142 208.852C24.2036 208.992 23.9309 209.186 23.696 209.432C23.465 209.678 23.2831 209.96 23.1506 210.278C23.018 210.593 22.9517 210.924 22.9517 211.273C22.9517 211.735 23.0597 212.167 23.2756 212.568C23.4953 212.97 23.7945 213.294 24.1733 213.54C24.5559 213.786 24.9896 213.909 25.4744 213.909ZM36.6179 208.557V209.807H31.527V208.557H36.6179ZM42.75 215.159C41.8939 215.159 41.1648 214.926 40.5625 214.46C39.9602 213.991 39.5 213.311 39.1818 212.42C38.8636 211.527 38.7045 210.447 38.7045 209.182C38.7045 207.924 38.8636 206.85 39.1818 205.96C39.5038 205.066 39.9659 204.384 40.5682 203.915C41.1742 203.441 41.9015 203.205 42.75 203.205C43.5985 203.205 44.3239 203.441 44.9261 203.915C45.5322 204.384 45.9943 205.066 46.3125 205.96C46.6345 206.85 46.7955 207.924 46.7955 209.182C46.7955 210.447 46.6364 211.527 46.3182 212.42C46 213.311 45.5398 213.991 44.9375 214.46C44.3352 214.926 43.6061 215.159 42.75 215.159ZM42.75 213.909C43.5985 213.909 44.2576 213.5 44.7273 212.682C45.197 211.864 45.4318 210.697 45.4318 209.182C45.4318 208.174 45.3239 207.316 45.108 206.608C44.8958 205.9 44.589 205.36 44.1875 204.989C43.7898 204.617 43.3106 204.432 42.75 204.432C41.9091 204.432 41.2519 204.847 40.7784 205.676C40.3049 206.502 40.0682 207.67 40.0682 209.182C40.0682 210.189 40.1742 211.045 40.3864 211.75C40.5985 212.455 40.9034 212.991 41.3011 213.358C41.7027 213.725 42.1856 213.909 42.75 213.909ZM52.5909 215.159C51.9242 215.159 51.3239 215.027 50.7898 214.761C50.2557 214.496 49.8277 214.133 49.5057 213.67C49.1837 213.208 49.0076 212.682 48.9773 212.091H50.3409C50.3939 212.617 50.6326 213.053 51.0568 213.398C51.4848 213.739 51.9962 213.909 52.5909 213.909C53.0682 213.909 53.4924 213.797 53.8636 213.574C54.2386 213.35 54.5322 213.044 54.7443 212.653C54.9602 212.259 55.0682 211.814 55.0682 211.318C55.0682 210.811 54.9564 210.358 54.733 209.96C54.5133 209.559 54.2102 209.242 53.8239 209.011C53.4375 208.78 52.9962 208.663 52.5 208.659C52.1439 208.655 51.7784 208.71 51.4034 208.824C51.0284 208.934 50.7197 209.076 50.4773 209.25L49.1591 209.091L49.8636 203.364H55.9091V204.614H51.0455L50.6364 208.045H50.7045C50.9432 207.856 51.2424 207.699 51.6023 207.574C51.9621 207.449 52.3371 207.386 52.7273 207.386C53.4394 207.386 54.0739 207.557 54.6307 207.898C55.1913 208.235 55.6307 208.697 55.9489 209.284C56.2708 209.871 56.4318 210.542 56.4318 211.295C56.4318 212.038 56.2652 212.701 55.9318 213.284C55.6023 213.864 55.1477 214.322 54.5682 214.659C53.9886 214.992 53.3295 215.159 52.5909 215.159ZM59.0526 215L64.2571 204.705V204.614H58.2571V203.364H65.7116V204.682L60.5298 215H59.0526ZM71.9205 203.364V215H70.5114V204.841H70.4432L67.6023 206.727V205.295L70.5114 203.364H71.9205ZM80.2898 208.557V209.807H75.1989V208.557H80.2898ZM86.3537 215.159C85.5734 215.159 84.884 215.021 84.2855 214.744C83.6908 214.464 83.2268 214.08 82.8935 213.591C82.5601 213.098 82.3954 212.538 82.3991 211.909C82.3954 211.417 82.492 210.962 82.6889 210.545C82.8859 210.125 83.1548 209.775 83.4957 209.494C83.8404 209.21 84.2249 209.03 84.6491 208.955V208.886C84.0923 208.742 83.6491 208.43 83.3196 207.949C82.9901 207.464 82.8272 206.913 82.831 206.295C82.8272 205.705 82.9768 205.176 83.2798 204.71C83.5829 204.244 83.9995 203.877 84.5298 203.608C85.0639 203.339 85.6719 203.205 86.3537 203.205C87.0279 203.205 87.6302 203.339 88.1605 203.608C88.6908 203.877 89.1075 204.244 89.4105 204.71C89.7173 205.176 89.8726 205.705 89.8764 206.295C89.8726 206.913 89.7041 207.464 89.3707 207.949C89.0412 208.43 88.6037 208.742 88.0582 208.886V208.955C88.4787 209.03 88.8575 209.21 89.1946 209.494C89.5317 209.775 89.8007 210.125 90.0014 210.545C90.2022 210.962 90.3045 211.417 90.3082 211.909C90.3045 212.538 90.134 213.098 89.7969 213.591C89.4635 214.08 88.9995 214.464 88.4048 214.744C87.8139 215.021 87.1302 215.159 86.3537 215.159ZM86.3537 213.909C86.8802 213.909 87.3348 213.824 87.7173 213.653C88.0999 213.483 88.3954 213.242 88.6037 212.932C88.812 212.621 88.9181 212.258 88.9219 211.841C88.9181 211.402 88.8045 211.013 88.581 210.676C88.3575 210.339 88.0526 210.074 87.6662 209.881C87.2836 209.687 86.8461 209.591 86.3537 209.591C85.8575 209.591 85.4143 209.687 85.0241 209.881C84.6378 210.074 84.3329 210.339 84.1094 210.676C83.8897 211.013 83.7817 211.402 83.7855 211.841C83.7817 212.258 83.8821 212.621 84.0866 212.932C84.295 213.242 84.5923 213.483 84.9787 213.653C85.3651 213.824 85.8234 213.909 86.3537 213.909ZM86.3537 208.386C86.7704 208.386 87.1397 208.303 87.4616 208.136C87.7874 207.97 88.0431 207.737 88.2287 207.438C88.4143 207.138 88.509 206.788 88.5128 206.386C88.509 205.992 88.4162 205.65 88.2344 205.358C88.0526 205.062 87.8007 204.835 87.4787 204.676C87.1567 204.513 86.7817 204.432 86.3537 204.432C85.9181 204.432 85.5374 204.513 85.2116 204.676C84.8859 204.835 84.634 205.062 84.456 205.358C84.2779 205.65 84.1908 205.992 84.1946 206.386C84.1908 206.788 84.2798 207.138 84.4616 207.438C84.6473 207.737 84.9029 207.97 85.2287 208.136C85.5545 208.303 85.9295 208.386 86.3537 208.386ZM96.3494 215.159C95.8722 215.152 95.3949 215.061 94.9176 214.886C94.4403 214.712 94.0047 214.419 93.6108 214.006C93.2169 213.589 92.9006 213.027 92.6619 212.318C92.4233 211.606 92.304 210.712 92.304 209.636C92.304 208.606 92.4006 207.693 92.5938 206.898C92.7869 206.098 93.0672 205.426 93.4347 204.881C93.8021 204.331 94.2453 203.915 94.7642 203.631C95.2869 203.347 95.8759 203.205 96.5312 203.205C97.1828 203.205 97.7623 203.335 98.2699 203.597C98.7813 203.854 99.1979 204.214 99.5199 204.676C99.8419 205.138 100.05 205.67 100.145 206.273H98.7585C98.6297 205.75 98.3797 205.316 98.0085 204.972C97.6373 204.627 97.1449 204.455 96.5312 204.455C95.6297 204.455 94.9195 204.847 94.4006 205.631C93.8854 206.415 93.6259 207.515 93.6222 208.932H93.7131C93.9252 208.61 94.1771 208.335 94.4688 208.108C94.7642 207.877 95.09 207.699 95.446 207.574C95.8021 207.449 96.179 207.386 96.5767 207.386C97.2434 207.386 97.8532 207.553 98.4062 207.886C98.9593 208.216 99.4025 208.672 99.7358 209.256C100.069 209.835 100.236 210.5 100.236 211.25C100.236 211.97 100.075 212.629 99.7528 213.227C99.4309 213.822 98.9782 214.295 98.3949 214.648C97.8153 214.996 97.1335 215.167 96.3494 215.159ZM96.3494 213.909C96.8267 213.909 97.2547 213.79 97.6335 213.551C98.0161 213.312 98.3172 212.992 98.5369 212.591C98.7604 212.189 98.8722 211.742 98.8722 211.25C98.8722 210.769 98.7642 210.331 98.5483 209.938C98.3362 209.54 98.0426 209.223 97.6676 208.989C97.2964 208.754 96.8722 208.636 96.3949 208.636C96.035 208.636 95.6998 208.708 95.3892 208.852C95.0786 208.992 94.8059 209.186 94.571 209.432C94.34 209.678 94.1581 209.96 94.0256 210.278C93.893 210.593 93.8267 210.924 93.8267 211.273C93.8267 211.735 93.9347 212.167 94.1506 212.568C94.3703 212.97 94.6695 213.294 95.0483 213.54C95.4309 213.786 95.8646 213.909 96.3494 213.909ZM106.561 203.364V215H105.152V204.841H105.084L102.243 206.727V205.295L105.152 203.364H106.561ZM113.703 215.159C112.847 215.159 112.118 214.926 111.516 214.46C110.913 213.991 110.453 213.311 110.135 212.42C109.817 211.527 109.658 210.447 109.658 209.182C109.658 207.924 109.817 206.85 110.135 205.96C110.457 205.066 110.919 204.384 111.521 203.915C112.127 203.441 112.855 203.205 113.703 203.205C114.552 203.205 115.277 203.441 115.879 203.915C116.485 204.384 116.947 205.066 117.266 205.96C117.588 206.85 117.749 207.924 117.749 209.182C117.749 210.447 117.589 211.527 117.271 212.42C116.953 213.311 116.493 213.991 115.891 214.46C115.288 214.926 114.559 215.159 113.703 215.159ZM113.703 213.909C114.552 213.909 115.211 213.5 115.68 212.682C116.15 211.864 116.385 210.697 116.385 209.182C116.385 208.174 116.277 207.316 116.061 206.608C115.849 205.9 115.542 205.36 115.141 204.989C114.743 204.617 114.264 204.432 113.703 204.432C112.862 204.432 112.205 204.847 111.732 205.676C111.258 206.502 111.021 207.67 111.021 209.182C111.021 210.189 111.127 211.045 111.339 211.75C111.552 212.455 111.857 212.991 112.254 213.358C112.656 213.725 113.139 213.909 113.703 213.909ZM123.544 215.159C122.877 215.159 122.277 215.027 121.743 214.761C121.209 214.496 120.781 214.133 120.459 213.67C120.137 213.208 119.961 212.682 119.93 212.091H121.294C121.347 212.617 121.586 213.053 122.01 213.398C122.438 213.739 122.949 213.909 123.544 213.909C124.021 213.909 124.446 213.797 124.817 213.574C125.192 213.35 125.485 213.044 125.697 212.653C125.913 212.259 126.021 211.814 126.021 211.318C126.021 210.811 125.91 210.358 125.686 209.96C125.466 209.559 125.163 209.242 124.777 209.011C124.391 208.78 123.949 208.663 123.453 208.659C123.097 208.655 122.732 208.71 122.357 208.824C121.982 208.934 121.673 209.076 121.43 209.25L120.112 209.091L120.817 203.364H126.862V204.614H121.999L121.589 208.045H121.658C121.896 207.856 122.196 207.699 122.555 207.574C122.915 207.449 123.29 207.386 123.68 207.386C124.393 207.386 125.027 207.557 125.584 207.898C126.144 208.235 126.584 208.697 126.902 209.284C127.224 209.871 127.385 210.542 127.385 211.295C127.385 212.038 127.218 212.701 126.885 213.284C126.555 213.864 126.101 214.322 125.521 214.659C124.942 214.992 124.283 215.159 123.544 215.159ZM133.574 215.159C132.824 215.159 132.155 215.03 131.568 214.773C130.985 214.515 130.521 214.157 130.176 213.699C129.835 213.237 129.65 212.701 129.619 212.091H131.051C131.081 212.466 131.21 212.79 131.438 213.062C131.665 213.331 131.962 213.54 132.33 213.688C132.697 213.835 133.104 213.909 133.551 213.909C134.051 213.909 134.494 213.822 134.881 213.648C135.267 213.473 135.57 213.231 135.79 212.92C136.009 212.61 136.119 212.25 136.119 211.841C136.119 211.413 136.013 211.036 135.801 210.71C135.589 210.381 135.278 210.123 134.869 209.938C134.46 209.752 133.96 209.659 133.369 209.659H132.438V208.409H133.369C133.831 208.409 134.237 208.326 134.585 208.159C134.938 207.992 135.212 207.758 135.409 207.455C135.61 207.152 135.71 206.795 135.71 206.386C135.71 205.992 135.623 205.65 135.449 205.358C135.275 205.066 135.028 204.839 134.71 204.676C134.396 204.513 134.025 204.432 133.597 204.432C133.195 204.432 132.816 204.506 132.46 204.653C132.108 204.797 131.82 205.008 131.597 205.284C131.373 205.557 131.252 205.886 131.233 206.273H129.869C129.892 205.663 130.076 205.129 130.42 204.67C130.765 204.208 131.216 203.848 131.773 203.591C132.333 203.333 132.949 203.205 133.619 203.205C134.339 203.205 134.956 203.35 135.472 203.642C135.987 203.93 136.383 204.311 136.659 204.784C136.936 205.258 137.074 205.769 137.074 206.318C137.074 206.973 136.902 207.532 136.557 207.994C136.216 208.456 135.752 208.777 135.165 208.955V209.045C135.9 209.167 136.473 209.479 136.886 209.983C137.299 210.483 137.506 211.102 137.506 211.841C137.506 212.473 137.333 213.042 136.989 213.545C136.648 214.045 136.182 214.439 135.591 214.727C135 215.015 134.328 215.159 133.574 215.159ZM140.193 215L145.398 204.705V204.614H139.398V203.364H146.852V204.682L141.67 215H140.193ZM152.636 215.159C151.886 215.159 151.218 215.03 150.631 214.773C150.047 214.515 149.583 214.157 149.239 213.699C148.898 213.237 148.712 212.701 148.682 212.091H150.114C150.144 212.466 150.273 212.79 150.5 213.062C150.727 213.331 151.025 213.54 151.392 213.688C151.759 213.835 152.167 213.909 152.614 213.909C153.114 213.909 153.557 213.822 153.943 213.648C154.33 213.473 154.633 213.231 154.852 212.92C155.072 212.61 155.182 212.25 155.182 211.841C155.182 211.413 155.076 211.036 154.864 210.71C154.652 210.381 154.341 210.123 153.932 209.938C153.523 209.752 153.023 209.659 152.432 209.659H151.5V208.409H152.432C152.894 208.409 153.299 208.326 153.648 208.159C154 207.992 154.275 207.758 154.472 207.455C154.672 207.152 154.773 206.795 154.773 206.386C154.773 205.992 154.686 205.65 154.511 205.358C154.337 205.066 154.091 204.839 153.773 204.676C153.458 204.513 153.087 204.432 152.659 204.432C152.258 204.432 151.879 204.506 151.523 204.653C151.17 204.797 150.883 205.008 150.659 205.284C150.436 205.557 150.314 205.886 150.295 206.273H148.932C148.955 205.663 149.138 205.129 149.483 204.67C149.828 204.208 150.278 203.848 150.835 203.591C151.396 203.333 152.011 203.205 152.682 203.205C153.402 203.205 154.019 203.35 154.534 203.642C155.049 203.93 155.445 204.311 155.722 204.784C155.998 205.258 156.136 205.769 156.136 206.318C156.136 206.973 155.964 207.532 155.619 207.994C155.278 208.456 154.814 208.777 154.227 208.955V209.045C154.962 209.167 155.536 209.479 155.949 209.983C156.362 210.483 156.568 211.102 156.568 211.841C156.568 212.473 156.396 213.042 156.051 213.545C155.71 214.045 155.244 214.439 154.653 214.727C154.063 215.015 153.39 215.159 152.636 215.159Z" fill="#929292"/>
<path d="M6.75 248.455C6.10227 248.455 5.54545 248.371 5.07955 248.205C4.61364 248.042 4.22538 247.826 3.91477 247.557C3.60795 247.292 3.36364 247.008 3.18182 246.705L4.25 245.955C4.37121 246.114 4.52462 246.295 4.71023 246.5C4.89583 246.708 5.14962 246.888 5.47159 247.04C5.79735 247.195 6.22348 247.273 6.75 247.273C7.45455 247.273 8.03599 247.102 8.49432 246.761C8.95265 246.42 9.18182 245.886 9.18182 245.159V243.386H9.06818C8.9697 243.545 8.82955 243.742 8.64773 243.977C8.4697 244.208 8.21212 244.415 7.875 244.597C7.54167 244.775 7.09091 244.864 6.52273 244.864C5.81818 244.864 5.18561 244.697 4.625 244.364C4.06818 244.03 3.62689 243.545 3.30114 242.909C2.97917 242.273 2.81818 241.5 2.81818 240.591C2.81818 239.697 2.97538 238.919 3.28977 238.256C3.60417 237.589 4.04167 237.074 4.60227 236.71C5.16288 236.343 5.81061 236.159 6.54545 236.159C7.11364 236.159 7.56439 236.254 7.89773 236.443C8.23485 236.629 8.49242 236.841 8.67045 237.08C8.85227 237.314 8.99242 237.508 9.09091 237.659H9.22727V236.273H10.5227V245.25C10.5227 246 10.3523 246.61 10.0114 247.08C9.67424 247.553 9.2197 247.9 8.64773 248.119C8.07955 248.343 7.44697 248.455 6.75 248.455ZM6.70455 243.659C7.24242 243.659 7.69697 243.536 8.06818 243.29C8.43939 243.044 8.72159 242.689 8.91477 242.227C9.10795 241.765 9.20455 241.212 9.20455 240.568C9.20455 239.939 9.10985 239.384 8.92045 238.903C8.73106 238.422 8.45076 238.045 8.07955 237.773C7.70833 237.5 7.25 237.364 6.70455 237.364C6.13636 237.364 5.66288 237.508 5.28409 237.795C4.90909 238.083 4.62689 238.47 4.4375 238.955C4.25189 239.439 4.15909 239.977 4.15909 240.568C4.15909 241.174 4.25379 241.71 4.44318 242.176C4.63636 242.638 4.92045 243.002 5.29545 243.267C5.67424 243.528 6.14394 243.659 6.70455 243.659ZM14.3182 233.364V245H12.9773V233.364H14.3182ZM20.3196 245.182C19.5317 245.182 18.8404 244.994 18.2457 244.619C17.6548 244.244 17.1927 243.72 16.8594 243.045C16.5298 242.371 16.3651 241.583 16.3651 240.682C16.3651 239.773 16.5298 238.979 16.8594 238.301C17.1927 237.623 17.6548 237.097 18.2457 236.722C18.8404 236.347 19.5317 236.159 20.3196 236.159C21.1075 236.159 21.7969 236.347 22.3878 236.722C22.9825 237.097 23.4446 237.623 23.7741 238.301C24.1075 238.979 24.2741 239.773 24.2741 240.682C24.2741 241.583 24.1075 242.371 23.7741 243.045C23.4446 243.72 22.9825 244.244 22.3878 244.619C21.7969 244.994 21.1075 245.182 20.3196 245.182ZM20.3196 243.977C20.9181 243.977 21.4105 243.824 21.7969 243.517C22.1832 243.21 22.4692 242.807 22.6548 242.307C22.8404 241.807 22.9332 241.265 22.9332 240.682C22.9332 240.098 22.8404 239.555 22.6548 239.051C22.4692 238.547 22.1832 238.14 21.7969 237.83C21.4105 237.519 20.9181 237.364 20.3196 237.364C19.7211 237.364 19.2287 237.519 18.8423 237.83C18.456 238.14 18.17 238.547 17.9844 239.051C17.7988 239.555 17.706 240.098 17.706 240.682C17.706 241.265 17.7988 241.807 17.9844 242.307C18.17 242.807 18.456 243.21 18.8423 243.517C19.2287 243.824 19.7211 243.977 20.3196 243.977ZM26.5028 245V233.364H27.8438V237.659H27.9574C28.0559 237.508 28.1922 237.314 28.3665 237.08C28.5445 236.841 28.7983 236.629 29.1278 236.443C29.4612 236.254 29.9119 236.159 30.4801 236.159C31.215 236.159 31.8627 236.343 32.4233 236.71C32.9839 237.078 33.4214 237.598 33.7358 238.273C34.0502 238.947 34.2074 239.742 34.2074 240.659C34.2074 241.583 34.0502 242.384 33.7358 243.062C33.4214 243.737 32.9858 244.259 32.429 244.631C31.8722 244.998 31.2301 245.182 30.5028 245.182C29.9422 245.182 29.4934 245.089 29.1562 244.903C28.8191 244.714 28.5597 244.5 28.3778 244.261C28.196 244.019 28.0559 243.818 27.9574 243.659H27.7983V245H26.5028ZM27.821 240.636C27.821 241.295 27.9176 241.877 28.1108 242.381C28.304 242.881 28.5862 243.273 28.9574 243.557C29.3286 243.837 29.7831 243.977 30.321 243.977C30.8816 243.977 31.3494 243.83 31.7244 243.534C32.1032 243.235 32.3873 242.833 32.5767 242.33C32.7699 241.822 32.8665 241.258 32.8665 240.636C32.8665 240.023 32.7718 239.47 32.5824 238.977C32.3968 238.481 32.1146 238.089 31.7358 237.801C31.3608 237.509 30.8892 237.364 30.321 237.364C29.7756 237.364 29.3172 237.502 28.946 237.778C28.5748 238.051 28.2945 238.434 28.1051 238.926C27.9157 239.415 27.821 239.985 27.821 240.636ZM38.8267 245.205C38.2737 245.205 37.7718 245.1 37.321 244.892C36.8703 244.68 36.5123 244.375 36.2472 243.977C35.982 243.576 35.8494 243.091 35.8494 242.523C35.8494 242.023 35.9479 241.617 36.1449 241.307C36.3419 240.992 36.6051 240.746 36.9347 240.568C37.2642 240.39 37.6278 240.258 38.0256 240.17C38.4271 240.08 38.8305 240.008 39.2358 239.955C39.7661 239.886 40.196 239.835 40.5256 239.801C40.8589 239.763 41.1013 239.701 41.2528 239.614C41.4081 239.527 41.4858 239.375 41.4858 239.159V239.114C41.4858 238.553 41.3324 238.117 41.0256 237.807C40.7225 237.496 40.2623 237.341 39.6449 237.341C39.0047 237.341 38.5028 237.481 38.1392 237.761C37.7756 238.042 37.5199 238.341 37.3722 238.659L36.0994 238.205C36.3267 237.674 36.6297 237.261 37.0085 236.966C37.3911 236.667 37.8078 236.458 38.2585 236.341C38.7131 236.22 39.16 236.159 39.5994 236.159C39.8797 236.159 40.2017 236.193 40.5653 236.261C40.9328 236.326 41.2869 236.46 41.6278 236.665C41.9725 236.869 42.2585 237.178 42.4858 237.591C42.7131 238.004 42.8267 238.557 42.8267 239.25V245H41.4858V243.818H41.4176C41.3267 244.008 41.1752 244.21 40.9631 244.426C40.7509 244.642 40.4688 244.826 40.1165 244.977C39.7642 245.129 39.3343 245.205 38.8267 245.205ZM39.0312 244C39.5616 244 40.0085 243.896 40.3722 243.688C40.7396 243.479 41.0161 243.21 41.2017 242.881C41.3911 242.551 41.4858 242.205 41.4858 241.841V240.614C41.429 240.682 41.304 240.744 41.1108 240.801C40.9214 240.854 40.7017 240.902 40.4517 240.943C40.2055 240.981 39.965 241.015 39.7301 241.045C39.4991 241.072 39.3116 241.095 39.1676 241.114C38.8191 241.159 38.4934 241.233 38.1903 241.335C37.8911 241.434 37.6487 241.583 37.4631 241.784C37.2813 241.981 37.1903 242.25 37.1903 242.591C37.1903 243.057 37.3627 243.409 37.7074 243.648C38.0559 243.883 38.4972 244 39.0312 244ZM46.6151 233.364V245H45.2741V233.364H46.6151ZM55.7756 248.068C54.6165 248.068 53.5919 247.909 52.7017 247.591C51.8116 247.277 51.0634 246.813 50.4574 246.199C49.8513 245.585 49.393 244.833 49.0824 243.943C48.7718 243.053 48.6165 242.034 48.6165 240.886C48.6165 239.777 48.7737 238.784 49.0881 237.909C49.4063 237.034 49.8665 236.292 50.4688 235.682C51.0748 235.068 51.8097 234.6 52.6733 234.278C53.5407 233.956 54.5218 233.795 55.6165 233.795C56.6809 233.795 57.6127 233.97 58.4119 234.318C59.215 234.663 59.8854 235.131 60.4233 235.722C60.965 236.309 61.3703 236.97 61.6392 237.705C61.9119 238.439 62.0483 239.197 62.0483 239.977C62.0483 240.527 62.0218 241.083 61.9688 241.648C61.9157 242.212 61.804 242.731 61.6335 243.205C61.4631 243.674 61.1998 244.053 60.8438 244.341C60.4915 244.629 60.0142 244.773 59.4119 244.773C59.1468 244.773 58.8551 244.731 58.5369 244.648C58.2188 244.564 57.9366 244.426 57.6903 244.233C57.4441 244.04 57.2983 243.78 57.2528 243.455H57.1847C57.0938 243.674 56.9536 243.883 56.7642 244.08C56.5786 244.277 56.3343 244.434 56.0312 244.551C55.732 244.669 55.3665 244.72 54.9347 244.705C54.4422 244.686 54.0085 244.576 53.6335 244.375C53.2585 244.17 52.9441 243.894 52.6903 243.545C52.4403 243.193 52.2509 242.786 52.1222 242.324C51.9972 241.858 51.9347 241.356 51.9347 240.818C51.9347 240.307 52.0104 239.839 52.1619 239.415C52.3134 238.991 52.5237 238.619 52.7926 238.301C53.0653 237.983 53.3835 237.729 53.7472 237.54C54.1146 237.347 54.5104 237.227 54.9347 237.182C55.3134 237.144 55.6581 237.161 55.9688 237.233C56.2794 237.301 56.535 237.405 56.7358 237.545C56.9366 237.682 57.0634 237.833 57.1165 238H57.1847V237.364H58.3892V242.5C58.3892 242.818 58.4782 243.098 58.6562 243.341C58.8343 243.583 59.0938 243.705 59.4347 243.705C59.821 243.705 60.1165 243.572 60.321 243.307C60.5294 243.042 60.6714 242.633 60.7472 242.08C60.8267 241.527 60.8665 240.818 60.8665 239.955C60.8665 239.447 60.7964 238.947 60.6562 238.455C60.5199 237.958 60.3116 237.494 60.0312 237.062C59.7547 236.631 59.4044 236.25 58.9801 235.92C58.5559 235.591 58.0578 235.333 57.4858 235.148C56.9176 234.958 56.2718 234.864 55.5483 234.864C54.6581 234.864 53.8608 235.002 53.1562 235.278C52.4555 235.551 51.8589 235.951 51.3665 236.477C50.8778 237 50.5047 237.636 50.2472 238.386C49.9934 239.133 49.8665 239.981 49.8665 240.932C49.8665 241.898 49.9934 242.756 50.2472 243.506C50.5047 244.256 50.8835 244.888 51.3835 245.403C51.8873 245.919 52.5104 246.309 53.2528 246.574C53.9953 246.843 54.8513 246.977 55.821 246.977C56.2377 246.977 56.6487 246.938 57.054 246.858C57.4593 246.778 57.8172 246.691 58.1278 246.597C58.4384 246.502 58.6619 246.432 58.7983 246.386L59.1165 247.432C58.8816 247.53 58.5748 247.629 58.196 247.727C57.821 247.826 57.4195 247.907 56.9915 247.972C56.5672 248.036 56.1619 248.068 55.7756 248.068ZM55.1165 243.545C55.6241 243.545 56.035 243.443 56.3494 243.239C56.6638 243.034 56.893 242.725 57.0369 242.312C57.1809 241.9 57.2528 241.379 57.2528 240.75C57.2528 240.114 57.1733 239.617 57.0142 239.261C56.8551 238.905 56.6203 238.655 56.3097 238.511C55.9991 238.367 55.6165 238.295 55.1619 238.295C54.7301 238.295 54.3608 238.409 54.054 238.636C53.7509 238.86 53.518 239.159 53.3551 239.534C53.196 239.905 53.1165 240.311 53.1165 240.75C53.1165 241.235 53.1809 241.691 53.3097 242.119C53.4384 242.544 53.6487 242.888 53.9403 243.153C54.232 243.415 54.6241 243.545 55.1165 243.545ZM65.3054 241.818L65.2827 240.159H65.5554L69.3736 236.273H71.0327L66.9645 240.386H66.8509L65.3054 241.818ZM64.0554 245V233.364H65.3963V245H64.0554ZM69.6009 245L66.1918 240.682L67.1463 239.75L71.3054 245H69.6009ZM75.3267 245.205C74.7737 245.205 74.2718 245.1 73.821 244.892C73.3703 244.68 73.0123 244.375 72.7472 243.977C72.482 243.576 72.3494 243.091 72.3494 242.523C72.3494 242.023 72.4479 241.617 72.6449 241.307C72.8419 240.992 73.1051 240.746 73.4347 240.568C73.7642 240.39 74.1278 240.258 74.5256 240.17C74.9271 240.08 75.3305 240.008 75.7358 239.955C76.2661 239.886 76.696 239.835 77.0256 239.801C77.3589 239.763 77.6013 239.701 77.7528 239.614C77.9081 239.527 77.9858 239.375 77.9858 239.159V239.114C77.9858 238.553 77.8324 238.117 77.5256 237.807C77.2225 237.496 76.7623 237.341 76.1449 237.341C75.5047 237.341 75.0028 237.481 74.6392 237.761C74.2756 238.042 74.0199 238.341 73.8722 238.659L72.5994 238.205C72.8267 237.674 73.1297 237.261 73.5085 236.966C73.8911 236.667 74.3078 236.458 74.7585 236.341C75.2131 236.22 75.66 236.159 76.0994 236.159C76.3797 236.159 76.7017 236.193 77.0653 236.261C77.4328 236.326 77.7869 236.46 78.1278 236.665C78.4725 236.869 78.7585 237.178 78.9858 237.591C79.2131 238.004 79.3267 238.557 79.3267 239.25V245H77.9858V243.818H77.9176C77.8267 244.008 77.6752 244.21 77.4631 244.426C77.2509 244.642 76.9688 244.826 76.6165 244.977C76.2642 245.129 75.8343 245.205 75.3267 245.205ZM75.5312 244C76.0616 244 76.5085 243.896 76.8722 243.688C77.2396 243.479 77.5161 243.21 77.7017 242.881C77.8911 242.551 77.9858 242.205 77.9858 241.841V240.614C77.929 240.682 77.804 240.744 77.6108 240.801C77.4214 240.854 77.2017 240.902 76.9517 240.943C76.7055 240.981 76.465 241.015 76.2301 241.045C75.9991 241.072 75.8116 241.095 75.6676 241.114C75.3191 241.159 74.9934 241.233 74.6903 241.335C74.3911 241.434 74.1487 241.583 73.9631 241.784C73.7813 241.981 73.6903 242.25 73.6903 242.591C73.6903 243.057 73.8627 243.409 74.2074 243.648C74.5559 243.883 74.9972 244 75.5312 244ZM85.5696 236.273V237.409H81.0469V236.273H85.5696ZM82.3651 234.182H83.706V242.5C83.706 242.879 83.7609 243.163 83.8707 243.352C83.9844 243.538 84.1283 243.663 84.3026 243.727C84.4806 243.788 84.6681 243.818 84.8651 243.818C85.0128 243.818 85.134 243.811 85.2287 243.795C85.3234 243.777 85.3991 243.761 85.456 243.75L85.7287 244.955C85.6378 244.989 85.5109 245.023 85.348 245.057C85.1851 245.095 84.9787 245.114 84.7287 245.114C84.3499 245.114 83.9787 245.032 83.6151 244.869C83.2552 244.706 82.956 244.458 82.7173 244.125C82.4825 243.792 82.3651 243.371 82.3651 242.864V234.182ZM94.723 236.273L91.4957 245H90.1321L86.9048 236.273H88.3594L90.7685 243.227H90.8594L93.2685 236.273H94.723ZM96.4929 245V236.273H97.7884V237.591H97.8793C98.0384 237.159 98.3262 236.809 98.7429 236.54C99.1596 236.271 99.6293 236.136 100.152 236.136C100.25 236.136 100.374 236.138 100.521 236.142C100.669 236.146 100.781 236.152 100.857 236.159V237.523C100.811 237.511 100.707 237.494 100.544 237.472C100.385 237.445 100.216 237.432 100.038 237.432C99.6141 237.432 99.2353 237.521 98.902 237.699C98.5724 237.873 98.3111 238.116 98.1179 238.426C97.9285 238.733 97.8338 239.083 97.8338 239.477V245H96.4929ZM102.423 245.091C102.143 245.091 101.902 244.991 101.702 244.79C101.501 244.589 101.401 244.348 101.401 244.068C101.401 243.788 101.501 243.547 101.702 243.347C101.902 243.146 102.143 243.045 102.423 243.045C102.704 243.045 102.944 243.146 103.145 243.347C103.346 243.547 103.446 243.788 103.446 244.068C103.446 244.254 103.399 244.424 103.304 244.58C103.213 244.735 103.09 244.86 102.935 244.955C102.783 245.045 102.613 245.091 102.423 245.091ZM109.398 245.182C108.58 245.182 107.875 244.989 107.284 244.602C106.693 244.216 106.239 243.684 105.92 243.006C105.602 242.328 105.443 241.553 105.443 240.682C105.443 239.795 105.606 239.013 105.932 238.335C106.261 237.653 106.72 237.121 107.307 236.739C107.898 236.352 108.587 236.159 109.375 236.159C109.989 236.159 110.542 236.273 111.034 236.5C111.527 236.727 111.93 237.045 112.244 237.455C112.559 237.864 112.754 238.341 112.83 238.886H111.489C111.386 238.489 111.159 238.136 110.807 237.83C110.458 237.519 109.989 237.364 109.398 237.364C108.875 237.364 108.417 237.5 108.023 237.773C107.633 238.042 107.328 238.422 107.108 238.915C106.892 239.403 106.784 239.977 106.784 240.636C106.784 241.311 106.89 241.898 107.102 242.398C107.318 242.898 107.621 243.286 108.011 243.562C108.405 243.839 108.867 243.977 109.398 243.977C109.746 243.977 110.062 243.917 110.347 243.795C110.631 243.674 110.871 243.5 111.068 243.273C111.265 243.045 111.405 242.773 111.489 242.455H112.83C112.754 242.97 112.566 243.434 112.267 243.847C111.972 244.256 111.58 244.581 111.091 244.824C110.606 245.062 110.042 245.182 109.398 245.182ZM118.335 245.182C117.547 245.182 116.856 244.994 116.261 244.619C115.67 244.244 115.208 243.72 114.875 243.045C114.545 242.371 114.381 241.583 114.381 240.682C114.381 239.773 114.545 238.979 114.875 238.301C115.208 237.623 115.67 237.097 116.261 236.722C116.856 236.347 117.547 236.159 118.335 236.159C119.123 236.159 119.813 236.347 120.403 236.722C120.998 237.097 121.46 237.623 121.79 238.301C122.123 238.979 122.29 239.773 122.29 240.682C122.29 241.583 122.123 242.371 121.79 243.045C121.46 243.72 120.998 244.244 120.403 244.619C119.813 244.994 119.123 245.182 118.335 245.182ZM118.335 243.977C118.934 243.977 119.426 243.824 119.812 243.517C120.199 243.21 120.485 242.807 120.67 242.307C120.856 241.807 120.949 241.265 120.949 240.682C120.949 240.098 120.856 239.555 120.67 239.051C120.485 238.547 120.199 238.14 119.812 237.83C119.426 237.519 118.934 237.364 118.335 237.364C117.737 237.364 117.244 237.519 116.858 237.83C116.472 238.14 116.186 238.547 116 239.051C115.814 239.555 115.722 240.098 115.722 240.682C115.722 241.265 115.814 241.807 116 242.307C116.186 242.807 116.472 243.21 116.858 243.517C117.244 243.824 117.737 243.977 118.335 243.977ZM124.337 245V236.273H125.632V237.636H125.746C125.928 237.17 126.221 236.809 126.626 236.551C127.032 236.29 127.518 236.159 128.087 236.159C128.662 236.159 129.142 236.29 129.524 236.551C129.911 236.809 130.212 237.17 130.428 237.636H130.518C130.742 237.186 131.077 236.828 131.524 236.562C131.971 236.294 132.507 236.159 133.132 236.159C133.912 236.159 134.551 236.403 135.047 236.892C135.543 237.377 135.791 238.133 135.791 239.159V245H134.45V239.159C134.45 238.515 134.274 238.055 133.922 237.778C133.57 237.502 133.155 237.364 132.678 237.364C132.064 237.364 131.589 237.549 131.251 237.92C130.914 238.288 130.746 238.754 130.746 239.318V245H129.382V239.023C129.382 238.527 129.221 238.127 128.899 237.824C128.577 237.517 128.162 237.364 127.655 237.364C127.306 237.364 126.981 237.456 126.678 237.642C126.378 237.828 126.136 238.085 125.95 238.415C125.768 238.741 125.678 239.117 125.678 239.545V245H124.337Z" fill="#929292"/>
<path d="M4.77273 272.182C3.98485 272.182 3.29356 271.994 2.69886 271.619C2.10795 271.244 1.64583 270.72 1.3125 270.045C0.982955 269.371 0.818182 268.583 0.818182 267.682C0.818182 266.773 0.982955 265.979 1.3125 265.301C1.64583 264.623 2.10795 264.097 2.69886 263.722C3.29356 263.347 3.98485 263.159 4.77273 263.159C5.56061 263.159 6.25 263.347 6.84091 263.722C7.43561 264.097 7.89773 264.623 8.22727 265.301C8.56061 265.979 8.72727 266.773 8.72727 267.682C8.72727 268.583 8.56061 269.371 8.22727 270.045C7.89773 270.72 7.43561 271.244 6.84091 271.619C6.25 271.994 5.56061 272.182 4.77273 272.182ZM4.77273 270.977C5.37121 270.977 5.86364 270.824 6.25 270.517C6.63636 270.21 6.92235 269.807 7.10795 269.307C7.29356 268.807 7.38636 268.265 7.38636 267.682C7.38636 267.098 7.29356 266.555 7.10795 266.051C6.92235 265.547 6.63636 265.14 6.25 264.83C5.86364 264.519 5.37121 264.364 4.77273 264.364C4.17424 264.364 3.68182 264.519 3.29545 264.83C2.90909 265.14 2.62311 265.547 2.4375 266.051C2.25189 266.555 2.15909 267.098 2.15909 267.682C2.15909 268.265 2.25189 268.807 2.4375 269.307C2.62311 269.807 2.90909 270.21 3.29545 270.517C3.68182 270.824 4.17424 270.977 4.77273 270.977ZM17.598 263.273L14.3707 272H13.0071L9.77983 263.273H11.2344L13.6435 270.227H13.7344L16.1435 263.273H17.598ZM22.7145 272.182C21.8736 272.182 21.1482 271.996 20.5384 271.625C19.9323 271.25 19.4645 270.727 19.1349 270.057C18.8092 269.383 18.6463 268.598 18.6463 267.705C18.6463 266.811 18.8092 266.023 19.1349 265.341C19.4645 264.655 19.9228 264.121 20.5099 263.739C21.1009 263.352 21.7902 263.159 22.5781 263.159C23.0327 263.159 23.4815 263.235 23.9247 263.386C24.3679 263.538 24.7713 263.784 25.1349 264.125C25.4986 264.462 25.7884 264.909 26.0043 265.466C26.2202 266.023 26.3281 266.708 26.3281 267.523V268.091H19.6009V266.932H24.9645C24.9645 266.439 24.866 266 24.669 265.614C24.4759 265.227 24.1993 264.922 23.8395 264.699C23.4834 264.475 23.063 264.364 22.5781 264.364C22.044 264.364 21.5819 264.496 21.1918 264.761C20.8054 265.023 20.508 265.364 20.2997 265.784C20.0914 266.205 19.9872 266.655 19.9872 267.136V267.909C19.9872 268.568 20.1009 269.127 20.3281 269.585C20.5592 270.04 20.8793 270.386 21.2884 270.625C21.6974 270.86 22.1728 270.977 22.7145 270.977C23.0668 270.977 23.3849 270.928 23.669 270.83C23.9569 270.727 24.205 270.576 24.4134 270.375C24.6217 270.17 24.7827 269.917 24.8963 269.614L26.1918 269.977C26.0554 270.417 25.8262 270.803 25.5043 271.136C25.1823 271.466 24.7846 271.723 24.3111 271.909C23.8376 272.091 23.3054 272.182 22.7145 272.182ZM28.3679 272V263.273H29.6634V264.591H29.7543C29.9134 264.159 30.2012 263.809 30.6179 263.54C31.0346 263.271 31.5043 263.136 32.027 263.136C32.1255 263.136 32.2486 263.138 32.3963 263.142C32.544 263.146 32.6558 263.152 32.7315 263.159V264.523C32.6861 264.511 32.5819 264.494 32.419 264.472C32.2599 264.445 32.0914 264.432 31.9134 264.432C31.4891 264.432 31.1103 264.521 30.777 264.699C30.4474 264.873 30.1861 265.116 29.9929 265.426C29.8035 265.733 29.7088 266.083 29.7088 266.477V272H28.3679ZM40.5028 265.227L39.2983 265.568C39.2225 265.367 39.1108 265.172 38.9631 264.983C38.8191 264.79 38.6222 264.631 38.3722 264.506C38.1222 264.381 37.8021 264.318 37.4119 264.318C36.8778 264.318 36.4328 264.441 36.0767 264.688C35.7244 264.93 35.5483 265.239 35.5483 265.614C35.5483 265.947 35.6695 266.21 35.9119 266.403C36.1544 266.597 36.5331 266.758 37.0483 266.886L38.3438 267.205C39.1241 267.394 39.7055 267.684 40.0881 268.074C40.4706 268.46 40.6619 268.958 40.6619 269.568C40.6619 270.068 40.518 270.515 40.2301 270.909C39.946 271.303 39.5483 271.614 39.0369 271.841C38.5256 272.068 37.9309 272.182 37.2528 272.182C36.3627 272.182 35.6259 271.989 35.0426 271.602C34.4593 271.216 34.09 270.652 33.9347 269.909L35.2074 269.591C35.3286 270.061 35.5578 270.413 35.8949 270.648C36.2358 270.883 36.6809 271 37.2301 271C37.8551 271 38.3513 270.867 38.7188 270.602C39.09 270.333 39.2756 270.011 39.2756 269.636C39.2756 269.333 39.1695 269.08 38.9574 268.875C38.7453 268.667 38.4195 268.511 37.9801 268.409L36.5256 268.068C35.7263 267.879 35.1392 267.585 34.7642 267.188C34.393 266.786 34.2074 266.284 34.2074 265.682C34.2074 265.189 34.3456 264.754 34.6222 264.375C34.9025 263.996 35.2831 263.699 35.7642 263.483C36.2491 263.267 36.7983 263.159 37.4119 263.159C38.2756 263.159 38.9536 263.348 39.446 263.727C39.9422 264.106 40.2945 264.606 40.5028 265.227ZM46.3395 272.182C45.4986 272.182 44.7732 271.996 44.1634 271.625C43.5573 271.25 43.0895 270.727 42.7599 270.057C42.4342 269.383 42.2713 268.598 42.2713 267.705C42.2713 266.811 42.4342 266.023 42.7599 265.341C43.0895 264.655 43.5478 264.121 44.1349 263.739C44.7259 263.352 45.4152 263.159 46.2031 263.159C46.6577 263.159 47.1065 263.235 47.5497 263.386C47.9929 263.538 48.3963 263.784 48.7599 264.125C49.1236 264.462 49.4134 264.909 49.6293 265.466C49.8452 266.023 49.9531 266.708 49.9531 267.523V268.091H43.2259V266.932H48.5895C48.5895 266.439 48.491 266 48.294 265.614C48.1009 265.227 47.8243 264.922 47.4645 264.699C47.1084 264.475 46.688 264.364 46.2031 264.364C45.669 264.364 45.2069 264.496 44.8168 264.761C44.4304 265.023 44.133 265.364 43.9247 265.784C43.7164 266.205 43.6122 266.655 43.6122 267.136V267.909C43.6122 268.568 43.7259 269.127 43.9531 269.585C44.1842 270.04 44.5043 270.386 44.9134 270.625C45.3224 270.86 45.7978 270.977 46.3395 270.977C46.6918 270.977 47.0099 270.928 47.294 270.83C47.5819 270.727 47.83 270.576 48.0384 270.375C48.2467 270.17 48.4077 269.917 48.5213 269.614L49.8168 269.977C49.6804 270.417 49.4512 270.803 49.1293 271.136C48.8073 271.466 48.4096 271.723 47.9361 271.909C47.4626 272.091 46.9304 272.182 46.3395 272.182ZM54.5611 272.205C54.008 272.205 53.5062 272.1 53.0554 271.892C52.6046 271.68 52.2467 271.375 51.9815 270.977C51.7164 270.576 51.5838 270.091 51.5838 269.523C51.5838 269.023 51.6823 268.617 51.8793 268.307C52.0762 267.992 52.3395 267.746 52.669 267.568C52.9986 267.39 53.3622 267.258 53.7599 267.17C54.1615 267.08 54.5649 267.008 54.9702 266.955C55.5005 266.886 55.9304 266.835 56.2599 266.801C56.5933 266.763 56.8357 266.701 56.9872 266.614C57.1425 266.527 57.2202 266.375 57.2202 266.159V266.114C57.2202 265.553 57.0668 265.117 56.7599 264.807C56.4569 264.496 55.9967 264.341 55.3793 264.341C54.7391 264.341 54.2372 264.481 53.8736 264.761C53.5099 265.042 53.2543 265.341 53.1065 265.659L51.8338 265.205C52.0611 264.674 52.3641 264.261 52.7429 263.966C53.1255 263.667 53.5421 263.458 53.9929 263.341C54.4474 263.22 54.8944 263.159 55.3338 263.159C55.6141 263.159 55.9361 263.193 56.2997 263.261C56.6671 263.326 57.0213 263.46 57.3622 263.665C57.7069 263.869 57.9929 264.178 58.2202 264.591C58.4474 265.004 58.5611 265.557 58.5611 266.25V272H57.2202V270.818H57.152C57.0611 271.008 56.9096 271.21 56.6974 271.426C56.4853 271.642 56.2031 271.826 55.8509 271.977C55.4986 272.129 55.0687 272.205 54.5611 272.205ZM54.7656 271C55.2959 271 55.7429 270.896 56.1065 270.688C56.474 270.479 56.7505 270.21 56.9361 269.881C57.1255 269.551 57.2202 269.205 57.2202 268.841V267.614C57.1634 267.682 57.0384 267.744 56.8452 267.801C56.6558 267.854 56.4361 267.902 56.1861 267.943C55.9399 267.981 55.6993 268.015 55.4645 268.045C55.2334 268.072 55.0459 268.095 54.902 268.114C54.5535 268.159 54.2277 268.233 53.9247 268.335C53.6255 268.434 53.383 268.583 53.1974 268.784C53.0156 268.981 52.9247 269.25 52.9247 269.591C52.9247 270.057 53.0971 270.409 53.4418 270.648C53.7902 270.883 54.2315 271 54.7656 271ZM67.1903 265.227L65.9858 265.568C65.91 265.367 65.7983 265.172 65.6506 264.983C65.5066 264.79 65.3097 264.631 65.0597 264.506C64.8097 264.381 64.4896 264.318 64.0994 264.318C63.5653 264.318 63.1203 264.441 62.7642 264.688C62.4119 264.93 62.2358 265.239 62.2358 265.614C62.2358 265.947 62.357 266.21 62.5994 266.403C62.8419 266.597 63.2206 266.758 63.7358 266.886L65.0312 267.205C65.8116 267.394 66.393 267.684 66.7756 268.074C67.1581 268.46 67.3494 268.958 67.3494 269.568C67.3494 270.068 67.2055 270.515 66.9176 270.909C66.6335 271.303 66.2358 271.614 65.7244 271.841C65.2131 272.068 64.6184 272.182 63.9403 272.182C63.0502 272.182 62.3134 271.989 61.7301 271.602C61.1468 271.216 60.7775 270.652 60.6222 269.909L61.8949 269.591C62.0161 270.061 62.2453 270.413 62.5824 270.648C62.9233 270.883 63.3684 271 63.9176 271C64.5426 271 65.0388 270.867 65.4062 270.602C65.7775 270.333 65.9631 270.011 65.9631 269.636C65.9631 269.333 65.857 269.08 65.6449 268.875C65.4328 268.667 65.107 268.511 64.6676 268.409L63.2131 268.068C62.4138 267.879 61.8267 267.585 61.4517 267.188C61.0805 266.786 60.8949 266.284 60.8949 265.682C60.8949 265.189 61.0331 264.754 61.3097 264.375C61.59 263.996 61.9706 263.699 62.4517 263.483C62.9366 263.267 63.4858 263.159 64.0994 263.159C64.9631 263.159 65.6411 263.348 66.1335 263.727C66.6297 264.106 66.982 264.606 67.1903 265.227ZM76.0724 275.068C74.9134 275.068 73.8887 274.909 72.9986 274.591C72.1084 274.277 71.3603 273.813 70.7543 273.199C70.1482 272.585 69.6899 271.833 69.3793 270.943C69.0687 270.053 68.9134 269.034 68.9134 267.886C68.9134 266.777 69.0705 265.784 69.3849 264.909C69.7031 264.034 70.1634 263.292 70.7656 262.682C71.3717 262.068 72.1065 261.6 72.9702 261.278C73.8376 260.956 74.8187 260.795 75.9134 260.795C76.9777 260.795 77.9096 260.97 78.7088 261.318C79.5118 261.663 80.1823 262.131 80.7202 262.722C81.2618 263.309 81.6671 263.97 81.9361 264.705C82.2088 265.439 82.3452 266.197 82.3452 266.977C82.3452 267.527 82.3187 268.083 82.2656 268.648C82.2126 269.212 82.1009 269.731 81.9304 270.205C81.7599 270.674 81.4967 271.053 81.1406 271.341C80.7884 271.629 80.3111 271.773 79.7088 271.773C79.4437 271.773 79.152 271.731 78.8338 271.648C78.5156 271.564 78.2334 271.426 77.9872 271.233C77.741 271.04 77.5952 270.78 77.5497 270.455H77.4815C77.3906 270.674 77.2505 270.883 77.0611 271.08C76.8755 271.277 76.6312 271.434 76.3281 271.551C76.0289 271.669 75.6634 271.72 75.2315 271.705C74.7391 271.686 74.3054 271.576 73.9304 271.375C73.5554 271.17 73.241 270.894 72.9872 270.545C72.7372 270.193 72.5478 269.786 72.419 269.324C72.294 268.858 72.2315 268.356 72.2315 267.818C72.2315 267.307 72.3073 266.839 72.4588 266.415C72.6103 265.991 72.8205 265.619 73.0895 265.301C73.3622 264.983 73.6804 264.729 74.044 264.54C74.4115 264.347 74.8073 264.227 75.2315 264.182C75.6103 264.144 75.955 264.161 76.2656 264.233C76.5762 264.301 76.8319 264.405 77.0327 264.545C77.2334 264.682 77.3603 264.833 77.4134 265H77.4815V264.364H78.6861V269.5C78.6861 269.818 78.7751 270.098 78.9531 270.341C79.1312 270.583 79.3906 270.705 79.7315 270.705C80.1179 270.705 80.4134 270.572 80.6179 270.307C80.8262 270.042 80.9683 269.633 81.044 269.08C81.1236 268.527 81.1634 267.818 81.1634 266.955C81.1634 266.447 81.0933 265.947 80.9531 265.455C80.8168 264.958 80.6084 264.494 80.3281 264.062C80.0516 263.631 79.7012 263.25 79.277 262.92C78.8527 262.591 78.3546 262.333 77.7827 262.148C77.2145 261.958 76.5687 261.864 75.8452 261.864C74.955 261.864 74.1577 262.002 73.4531 262.278C72.7524 262.551 72.1558 262.951 71.6634 263.477C71.1747 264 70.8016 264.636 70.544 265.386C70.2902 266.133 70.1634 266.981 70.1634 267.932C70.1634 268.898 70.2902 269.756 70.544 270.506C70.8016 271.256 71.1804 271.888 71.6804 272.403C72.1842 272.919 72.8073 273.309 73.5497 273.574C74.2921 273.843 75.1482 273.977 76.1179 273.977C76.5346 273.977 76.9455 273.938 77.3509 273.858C77.7562 273.778 78.1141 273.691 78.4247 273.597C78.7353 273.502 78.9588 273.432 79.0952 273.386L79.4134 274.432C79.1785 274.53 78.8717 274.629 78.4929 274.727C78.1179 274.826 77.7164 274.907 77.2884 274.972C76.8641 275.036 76.4588 275.068 76.0724 275.068ZM75.4134 270.545C75.9209 270.545 76.3319 270.443 76.6463 270.239C76.9607 270.034 77.1899 269.725 77.3338 269.312C77.4777 268.9 77.5497 268.379 77.5497 267.75C77.5497 267.114 77.4702 266.617 77.3111 266.261C77.152 265.905 76.9171 265.655 76.6065 265.511C76.2959 265.367 75.9134 265.295 75.4588 265.295C75.027 265.295 74.6577 265.409 74.3509 265.636C74.0478 265.86 73.8149 266.159 73.652 266.534C73.4929 266.905 73.4134 267.311 73.4134 267.75C73.4134 268.235 73.4777 268.691 73.6065 269.119C73.7353 269.544 73.9455 269.888 74.2372 270.153C74.5289 270.415 74.9209 270.545 75.4134 270.545ZM85.6023 268.818L85.5795 267.159H85.8523L89.6705 263.273H91.3295L87.2614 267.386H87.1477L85.6023 268.818ZM84.3523 272V260.364H85.6932V272H84.3523ZM89.8977 272L86.4886 267.682L87.4432 266.75L91.6023 272H89.8977ZM95.6236 272.205C95.0705 272.205 94.5687 272.1 94.1179 271.892C93.6671 271.68 93.3092 271.375 93.044 270.977C92.7789 270.576 92.6463 270.091 92.6463 269.523C92.6463 269.023 92.7448 268.617 92.9418 268.307C93.1387 267.992 93.402 267.746 93.7315 267.568C94.0611 267.39 94.4247 267.258 94.8224 267.17C95.224 267.08 95.6274 267.008 96.0327 266.955C96.563 266.886 96.9929 266.835 97.3224 266.801C97.6558 266.763 97.8982 266.701 98.0497 266.614C98.205 266.527 98.2827 266.375 98.2827 266.159V266.114C98.2827 265.553 98.1293 265.117 97.8224 264.807C97.5194 264.496 97.0592 264.341 96.4418 264.341C95.8016 264.341 95.2997 264.481 94.9361 264.761C94.5724 265.042 94.3168 265.341 94.169 265.659L92.8963 265.205C93.1236 264.674 93.4266 264.261 93.8054 263.966C94.188 263.667 94.6046 263.458 95.0554 263.341C95.5099 263.22 95.9569 263.159 96.3963 263.159C96.6766 263.159 96.9986 263.193 97.3622 263.261C97.7296 263.326 98.0838 263.46 98.4247 263.665C98.7694 263.869 99.0554 264.178 99.2827 264.591C99.5099 265.004 99.6236 265.557 99.6236 266.25V272H98.2827V270.818H98.2145C98.1236 271.008 97.9721 271.21 97.7599 271.426C97.5478 271.642 97.2656 271.826 96.9134 271.977C96.5611 272.129 96.1312 272.205 95.6236 272.205ZM95.8281 271C96.3584 271 96.8054 270.896 97.169 270.688C97.5365 270.479 97.813 270.21 97.9986 269.881C98.188 269.551 98.2827 269.205 98.2827 268.841V267.614C98.2259 267.682 98.1009 267.744 97.9077 267.801C97.7183 267.854 97.4986 267.902 97.2486 267.943C97.0024 267.981 96.7618 268.015 96.527 268.045C96.2959 268.072 96.1084 268.095 95.9645 268.114C95.616 268.159 95.2902 268.233 94.9872 268.335C94.688 268.434 94.4455 268.583 94.2599 268.784C94.0781 268.981 93.9872 269.25 93.9872 269.591C93.9872 270.057 94.1596 270.409 94.5043 270.648C94.8527 270.883 95.294 271 95.8281 271ZM105.866 263.273V264.409H101.344V263.273H105.866ZM102.662 261.182H104.003V269.5C104.003 269.879 104.058 270.163 104.168 270.352C104.281 270.538 104.425 270.663 104.599 270.727C104.777 270.788 104.965 270.818 105.162 270.818C105.31 270.818 105.431 270.811 105.526 270.795C105.62 270.777 105.696 270.761 105.753 270.75L106.026 271.955C105.935 271.989 105.808 272.023 105.645 272.057C105.482 272.095 105.276 272.114 105.026 272.114C104.647 272.114 104.276 272.032 103.912 271.869C103.552 271.706 103.253 271.458 103.014 271.125C102.779 270.792 102.662 270.371 102.662 269.864V261.182ZM115.02 263.273L111.793 272H110.429L107.202 263.273H108.656L111.065 270.227H111.156L113.565 263.273H115.02ZM116.79 272V263.273H118.085V264.591H118.176C118.335 264.159 118.623 263.809 119.04 263.54C119.456 263.271 119.926 263.136 120.449 263.136C120.547 263.136 120.67 263.138 120.818 263.142C120.966 263.146 121.078 263.152 121.153 263.159V264.523C121.108 264.511 121.004 264.494 120.841 264.472C120.682 264.445 120.513 264.432 120.335 264.432C119.911 264.432 119.532 264.521 119.199 264.699C118.869 264.873 118.608 265.116 118.415 265.426C118.225 265.733 118.131 266.083 118.131 266.477V272H116.79ZM122.72 272.091C122.44 272.091 122.199 271.991 121.999 271.79C121.798 271.589 121.697 271.348 121.697 271.068C121.697 270.788 121.798 270.547 121.999 270.347C122.199 270.146 122.44 270.045 122.72 270.045C123 270.045 123.241 270.146 123.442 270.347C123.643 270.547 123.743 270.788 123.743 271.068C123.743 271.254 123.696 271.424 123.601 271.58C123.51 271.735 123.387 271.86 123.232 271.955C123.08 272.045 122.91 272.091 122.72 272.091ZM129.695 272.182C128.876 272.182 128.172 271.989 127.581 271.602C126.99 271.216 126.536 270.684 126.217 270.006C125.899 269.328 125.74 268.553 125.74 267.682C125.74 266.795 125.903 266.013 126.229 265.335C126.558 264.653 127.017 264.121 127.604 263.739C128.195 263.352 128.884 263.159 129.672 263.159C130.286 263.159 130.839 263.273 131.331 263.5C131.823 263.727 132.227 264.045 132.541 264.455C132.856 264.864 133.051 265.341 133.126 265.886H131.786C131.683 265.489 131.456 265.136 131.104 264.83C130.755 264.519 130.286 264.364 129.695 264.364C129.172 264.364 128.714 264.5 128.32 264.773C127.929 265.042 127.625 265.422 127.405 265.915C127.189 266.403 127.081 266.977 127.081 267.636C127.081 268.311 127.187 268.898 127.399 269.398C127.615 269.898 127.918 270.286 128.308 270.562C128.702 270.839 129.164 270.977 129.695 270.977C130.043 270.977 130.359 270.917 130.643 270.795C130.928 270.674 131.168 270.5 131.365 270.273C131.562 270.045 131.702 269.773 131.786 269.455H133.126C133.051 269.97 132.863 270.434 132.564 270.847C132.268 271.256 131.876 271.581 131.388 271.824C130.903 272.062 130.339 272.182 129.695 272.182ZM138.632 272.182C137.844 272.182 137.153 271.994 136.558 271.619C135.967 271.244 135.505 270.72 135.172 270.045C134.842 269.371 134.678 268.583 134.678 267.682C134.678 266.773 134.842 265.979 135.172 265.301C135.505 264.623 135.967 264.097 136.558 263.722C137.153 263.347 137.844 263.159 138.632 263.159C139.42 263.159 140.109 263.347 140.7 263.722C141.295 264.097 141.757 264.623 142.087 265.301C142.42 265.979 142.587 266.773 142.587 267.682C142.587 268.583 142.42 269.371 142.087 270.045C141.757 270.72 141.295 271.244 140.7 271.619C140.109 271.994 139.42 272.182 138.632 272.182ZM138.632 270.977C139.231 270.977 139.723 270.824 140.109 270.517C140.496 270.21 140.782 269.807 140.967 269.307C141.153 268.807 141.246 268.265 141.246 267.682C141.246 267.098 141.153 266.555 140.967 266.051C140.782 265.547 140.496 265.14 140.109 264.83C139.723 264.519 139.231 264.364 138.632 264.364C138.034 264.364 137.541 264.519 137.155 264.83C136.768 265.14 136.482 265.547 136.297 266.051C136.111 266.555 136.018 267.098 136.018 267.682C136.018 268.265 136.111 268.807 136.297 269.307C136.482 269.807 136.768 270.21 137.155 270.517C137.541 270.824 138.034 270.977 138.632 270.977ZM144.634 272V263.273H145.929V264.636H146.043C146.224 264.17 146.518 263.809 146.923 263.551C147.329 263.29 147.815 263.159 148.384 263.159C148.959 263.159 149.438 263.29 149.821 263.551C150.207 263.809 150.509 264.17 150.724 264.636H150.815C151.039 264.186 151.374 263.828 151.821 263.562C152.268 263.294 152.804 263.159 153.429 263.159C154.209 263.159 154.848 263.403 155.344 263.892C155.84 264.377 156.088 265.133 156.088 266.159V272H154.747V266.159C154.747 265.515 154.571 265.055 154.219 264.778C153.866 264.502 153.452 264.364 152.974 264.364C152.361 264.364 151.885 264.549 151.548 264.92C151.211 265.288 151.043 265.754 151.043 266.318V272H149.679V266.023C149.679 265.527 149.518 265.127 149.196 264.824C148.874 264.517 148.459 264.364 147.952 264.364C147.603 264.364 147.277 264.456 146.974 264.642C146.675 264.828 146.433 265.085 146.247 265.415C146.065 265.741 145.974 266.117 145.974 266.545V272H144.634Z" fill="#929292"/>
</svg>
