<svg width="483" height="195" viewBox="0 0 483 195" fill="none" xmlns="http://www.w3.org/2000/svg">
<path d="M4.7017 11.2273V7.09091H21.1364V11.2273H15.4489V26H10.3892V11.2273H4.7017ZM23.0684 26V7.09091H28.2019V14.4773H34.9973V7.09091H40.1309V26H34.9973V18.6136H28.2019V26H23.0684ZM42.5684 26V7.09091H56.1962V11.2273H47.7019V14.4773H55.4945V18.6136H47.7019V21.8636H56.1593V26H42.5684ZM80.2827 7.09091V26H75.9986L69.1662 16.0653H69.0554V26H63.9219V7.09091H68.2798L75.0014 16.9886H75.1491V7.09091H80.2827ZM82.7109 26V7.09091H96.3388V11.2273H87.8445V14.4773H95.6371V18.6136H87.8445V21.8636H96.3018V26H82.7109ZM103.686 26L98.1092 7.09091H103.834L106.419 18.7244H106.567L109.632 7.09091H114.138L117.203 18.7614H117.351L119.936 7.09091H125.66L120.084 26H115.172L111.959 15.4375H111.811L108.598 26H103.686ZM142.695 13C142.646 12.3845 142.415 11.9044 142.003 11.5597C141.596 11.215 140.978 11.0426 140.147 11.0426C139.617 11.0426 139.184 11.1072 138.845 11.2365C138.513 11.3596 138.266 11.5289 138.106 11.7443C137.946 11.9598 137.863 12.206 137.857 12.483C137.845 12.7107 137.885 12.9169 137.977 13.1016C138.076 13.2801 138.229 13.4432 138.439 13.5909C138.648 13.7325 138.916 13.8617 139.242 13.9787C139.568 14.0956 139.956 14.2003 140.405 14.2926L141.956 14.625C143.003 14.8466 143.898 15.139 144.643 15.5021C145.388 15.8653 145.997 16.2931 146.471 16.7855C146.945 17.2718 147.293 17.8196 147.515 18.429C147.742 19.0384 147.859 19.7031 147.866 20.4233C147.859 21.6667 147.549 22.7192 146.933 23.581C146.318 24.4427 145.437 25.0982 144.292 25.5476C143.154 25.9969 141.784 26.2216 140.184 26.2216C138.54 26.2216 137.106 25.9785 135.881 25.4922C134.662 25.0059 133.715 24.258 133.037 23.2486C132.367 22.233 132.028 20.9342 132.022 19.3523H136.897C136.928 19.9309 137.072 20.4171 137.331 20.8111C137.589 21.205 137.952 21.5036 138.42 21.7067C138.894 21.9098 139.457 22.0114 140.11 22.0114C140.658 22.0114 141.116 21.9437 141.486 21.8082C141.855 21.6728 142.135 21.4851 142.326 21.245C142.517 21.005 142.615 20.7311 142.621 20.4233C142.615 20.134 142.52 19.8816 142.335 19.6662C142.157 19.4446 141.861 19.2476 141.449 19.0753C141.036 18.8968 140.479 18.7306 139.778 18.5767L137.894 18.1705C136.22 17.8073 134.899 17.201 133.933 16.3516C132.973 15.496 132.496 14.3295 132.502 12.8523C132.496 11.652 132.816 10.6025 133.462 9.70384C134.115 8.79901 135.016 8.09422 136.167 7.58949C137.325 7.08475 138.651 6.83239 140.147 6.83239C141.673 6.83239 142.994 7.08783 144.108 7.59872C145.222 8.10961 146.081 8.82978 146.684 9.75923C147.293 10.6825 147.601 11.7628 147.607 13H142.695ZM149.301 11.2273V7.09091H165.736V11.2273H160.048V26H154.989V11.2273H149.301ZM170.193 26H164.653L170.895 7.09091H177.912L184.153 26H178.614L174.477 12.2983H174.33L170.193 26ZM169.159 18.5398H179.574V22.3807H169.159V18.5398ZM185.975 26V7.09091H194.137C195.54 7.09091 196.768 7.34635 197.82 7.85724C198.873 8.36813 199.692 9.10369 200.276 10.0639C200.861 11.0241 201.154 12.1752 201.154 13.517C201.154 14.8712 200.852 16.013 200.249 16.9425C199.652 17.8719 198.811 18.5736 197.728 19.0476C196.651 19.5215 195.392 19.7585 193.952 19.7585H189.077V15.7699H192.918C193.521 15.7699 194.035 15.696 194.46 15.5483C194.891 15.3944 195.22 15.1513 195.448 14.8189C195.682 14.4865 195.798 14.0526 195.798 13.517C195.798 12.9754 195.682 12.5353 195.448 12.1967C195.22 11.852 194.891 11.5997 194.46 11.4396C194.035 11.2734 193.521 11.1903 192.918 11.1903H191.108V26H185.975ZM197.054 17.321L201.781 26H196.205L191.588 17.321H197.054ZM202.825 11.2273V7.09091H219.259V11.2273H213.572V26H208.512V11.2273H202.825ZM244.689 16.5455C244.689 18.6506 244.28 20.4264 243.461 21.8729C242.643 23.3132 241.538 24.4058 240.147 25.1506C238.756 25.8892 237.204 26.2585 235.493 26.2585C233.77 26.2585 232.212 25.8861 230.821 25.1413C229.436 24.3904 228.335 23.2947 227.516 21.8544C226.703 20.4079 226.297 18.6383 226.297 16.5455C226.297 14.4403 226.703 12.6676 227.516 11.2273C228.335 9.78078 229.436 8.68821 230.821 7.94957C232.212 7.20478 233.77 6.83239 235.493 6.83239C237.204 6.83239 238.756 7.20478 240.147 7.94957C241.538 8.68821 242.643 9.78078 243.461 11.2273C244.28 12.6676 244.689 14.4403 244.689 16.5455ZM239.408 16.5455C239.408 15.4129 239.257 14.4588 238.956 13.6832C238.66 12.9015 238.22 12.3106 237.635 11.9105C237.057 11.5043 236.343 11.3011 235.493 11.3011C234.644 11.3011 233.927 11.5043 233.342 11.9105C232.763 12.3106 232.323 12.9015 232.022 13.6832C231.726 14.4588 231.578 15.4129 231.578 16.5455C231.578 17.678 231.726 18.6352 232.022 19.4169C232.323 20.1925 232.763 20.7834 233.342 21.1896C233.927 21.5897 234.644 21.7898 235.493 21.7898C236.343 21.7898 237.057 21.5897 237.635 21.1896C238.22 20.7834 238.66 20.1925 238.956 19.4169C239.257 18.6352 239.408 17.678 239.408 16.5455ZM247.064 26V7.09091H260.36V11.2273H252.198V14.4773H259.547V18.6136H252.198V26H247.064Z" fill="white"/>
<path d="M7.06534 41.0909L12.679 57.0085H12.9006L18.5142 41.0909H20.9148L13.9716 60H11.608L4.66477 41.0909H7.06534ZM23.8601 60V41.0909H30.2493C31.7266 41.0909 32.9392 41.3433 33.8871 41.848C34.835 42.3466 35.5367 43.0329 35.9922 43.907C36.4477 44.781 36.6754 45.7751 36.6754 46.8892C36.6754 48.0033 36.4477 48.9912 35.9922 49.853C35.5367 50.7147 34.8381 51.3918 33.8963 51.8842C32.9545 52.3705 31.7512 52.6136 30.2862 52.6136H25.1158V50.5455H30.2124C31.2218 50.5455 32.0343 50.3977 32.6499 50.1023C33.2715 49.8068 33.7209 49.3883 33.9979 48.8466C34.281 48.2988 34.4226 47.6463 34.4226 46.8892C34.4226 46.1321 34.281 45.4704 33.9979 44.9041C33.7147 44.3378 33.2623 43.9008 32.6406 43.593C32.0189 43.2791 31.1972 43.1222 30.1754 43.1222H26.1499V60H23.8601ZM32.7607 51.5057L37.4141 60H34.755L30.1754 51.5057H32.7607ZM47.8034 60V41.0909H50.0932V57.9688H58.883V60H47.8034ZM77.6467 50.5455C77.6467 52.5398 77.2866 54.2633 76.5664 55.7159C75.8462 57.1686 74.8583 58.2888 73.6026 59.0767C72.3469 59.8646 70.9128 60.2585 69.3001 60.2585C67.6874 60.2585 66.2532 59.8646 64.9975 59.0767C63.7418 58.2888 62.7539 57.1686 62.0337 55.7159C61.3136 54.2633 60.9535 52.5398 60.9535 50.5455C60.9535 48.5511 61.3136 46.8277 62.0337 45.375C62.7539 43.9223 63.7418 42.8021 64.9975 42.0142C66.2532 41.2263 67.6874 40.8324 69.3001 40.8324C70.9128 40.8324 72.3469 41.2263 73.6026 42.0142C74.8583 42.8021 75.8462 43.9223 76.5664 45.375C77.2866 46.8277 77.6467 48.5511 77.6467 50.5455ZM75.4308 50.5455C75.4308 48.9081 75.1568 47.5263 74.609 46.3999C74.0674 45.2734 73.3318 44.4209 72.4023 43.8423C71.479 43.2637 70.445 42.9744 69.3001 42.9744C68.1552 42.9744 67.118 43.2637 66.1886 43.8423C65.2653 44.4209 64.5297 45.2734 63.9819 46.3999C63.4402 47.5263 63.1694 48.9081 63.1694 50.5455C63.1694 52.1828 63.4402 53.5646 63.9819 54.6911C64.5297 55.8175 65.2653 56.67 66.1886 57.2486C67.118 57.8272 68.1552 58.1165 69.3001 58.1165C70.445 58.1165 71.479 57.8272 72.4023 57.2486C73.3318 56.67 74.0674 55.8175 74.609 54.6911C75.1568 53.5646 75.4308 52.1828 75.4308 50.5455ZM96.7127 47H94.4229C94.2875 46.3414 94.0505 45.7628 93.712 45.2642C93.3796 44.7656 92.9734 44.3471 92.4933 44.0085C92.0193 43.6638 91.493 43.4053 90.9144 43.233C90.3358 43.0606 89.7326 42.9744 89.1048 42.9744C87.9599 42.9744 86.9227 43.2637 85.9933 43.8423C85.07 44.4209 84.3344 45.2734 83.7866 46.3999C83.2449 47.5263 82.9741 48.9081 82.9741 50.5455C82.9741 52.1828 83.2449 53.5646 83.7866 54.6911C84.3344 55.8175 85.07 56.67 85.9933 57.2486C86.9227 57.8272 87.9599 58.1165 89.1048 58.1165C89.7326 58.1165 90.3358 58.0303 90.9144 57.858C91.493 57.6856 92.0193 57.4302 92.4933 57.0916C92.9734 56.7469 93.3796 56.3253 93.712 55.8267C94.0505 55.322 94.2875 54.7434 94.4229 54.0909H96.7127C96.5404 55.0573 96.2264 55.9221 95.771 56.6854C95.3155 57.4486 94.7492 58.098 94.0721 58.6335C93.395 59.1629 92.6348 59.5661 91.7915 59.843C90.9544 60.12 90.0588 60.2585 89.1048 60.2585C87.4921 60.2585 86.0579 59.8646 84.8022 59.0767C83.5465 58.2888 82.5586 57.1686 81.8384 55.7159C81.1183 54.2633 80.7582 52.5398 80.7582 50.5455C80.7582 48.5511 81.1183 46.8277 81.8384 45.375C82.5586 43.9223 83.5465 42.8021 84.8022 42.0142C86.0579 41.2263 87.4921 40.8324 89.1048 40.8324C90.0588 40.8324 90.9544 40.9709 91.7915 41.2479C92.6348 41.5249 93.395 41.9311 94.0721 42.4666C94.7492 42.996 95.3155 43.6423 95.771 44.4055C96.2264 45.1626 96.5404 46.0275 96.7127 47ZM116.367 50.5455C116.367 52.5398 116.007 54.2633 115.287 55.7159C114.567 57.1686 113.579 58.2888 112.323 59.0767C111.068 59.8646 109.633 60.2585 108.021 60.2585C106.408 60.2585 104.974 59.8646 103.718 59.0767C102.463 58.2888 101.475 57.1686 100.754 55.7159C100.034 54.2633 99.6742 52.5398 99.6742 50.5455C99.6742 48.5511 100.034 46.8277 100.754 45.375C101.475 43.9223 102.463 42.8021 103.718 42.0142C104.974 41.2263 106.408 40.8324 108.021 40.8324C109.633 40.8324 111.068 41.2263 112.323 42.0142C113.579 42.8021 114.567 43.9223 115.287 45.375C116.007 46.8277 116.367 48.5511 116.367 50.5455ZM114.151 50.5455C114.151 48.9081 113.878 47.5263 113.33 46.3999C112.788 45.2734 112.052 44.4209 111.123 43.8423C110.2 43.2637 109.166 42.9744 108.021 42.9744C106.876 42.9744 105.839 43.2637 104.909 43.8423C103.986 44.4209 103.25 45.2734 102.703 46.3999C102.161 47.5263 101.89 48.9081 101.89 50.5455C101.89 52.1828 102.161 53.5646 102.703 54.6911C103.25 55.8175 103.986 56.67 104.909 57.2486C105.839 57.8272 106.876 58.1165 108.021 58.1165C109.166 58.1165 110.2 57.8272 111.123 57.2486C112.052 56.67 112.788 55.8175 113.33 54.6911C113.878 53.5646 114.151 52.1828 114.151 50.5455ZM120.218 41.0909H122.95L129.377 56.7869H129.598L136.024 41.0909H138.757V60H136.615V45.6335H136.431L130.521 60H128.453L122.544 45.6335H122.36V60H120.218V41.0909ZM159.303 50.5455C159.303 52.5398 158.943 54.2633 158.223 55.7159C157.502 57.1686 156.515 58.2888 155.259 59.0767C154.003 59.8646 152.569 60.2585 150.956 60.2585C149.344 60.2585 147.909 59.8646 146.654 59.0767C145.398 58.2888 144.41 57.1686 143.69 55.7159C142.97 54.2633 142.61 52.5398 142.61 50.5455C142.61 48.5511 142.97 46.8277 143.69 45.375C144.41 43.9223 145.398 42.8021 146.654 42.0142C147.909 41.2263 149.344 40.8324 150.956 40.8324C152.569 40.8324 154.003 41.2263 155.259 42.0142C156.515 42.8021 157.502 43.9223 158.223 45.375C158.943 46.8277 159.303 48.5511 159.303 50.5455ZM157.087 50.5455C157.087 48.9081 156.813 47.5263 156.265 46.3999C155.724 45.2734 154.988 44.4209 154.059 43.8423C153.135 43.2637 152.101 42.9744 150.956 42.9744C149.811 42.9744 148.774 43.2637 147.845 43.8423C146.922 44.4209 146.186 45.2734 145.638 46.3999C145.096 47.5263 144.826 48.9081 144.826 50.5455C144.826 52.1828 145.096 53.5646 145.638 54.6911C146.186 55.8175 146.922 56.67 147.845 57.2486C148.774 57.8272 149.811 58.1165 150.956 58.1165C152.101 58.1165 153.135 57.8272 154.059 57.2486C154.988 56.67 155.724 55.8175 156.265 54.6911C156.813 53.5646 157.087 52.1828 157.087 50.5455ZM161.332 43.1222V41.0909H175.514V43.1222H169.568V60H167.278V43.1222H161.332ZM181.337 41.0909V60H179.048V41.0909H181.337ZM201.883 50.5455C201.883 52.5398 201.523 54.2633 200.803 55.7159C200.083 57.1686 199.095 58.2888 197.839 59.0767C196.583 59.8646 195.149 60.2585 193.536 60.2585C191.924 60.2585 190.49 59.8646 189.234 59.0767C187.978 58.2888 186.99 57.1686 186.27 55.7159C185.55 54.2633 185.19 52.5398 185.19 50.5455C185.19 48.5511 185.55 46.8277 186.27 45.375C186.99 43.9223 187.978 42.8021 189.234 42.0142C190.49 41.2263 191.924 40.8324 193.536 40.8324C195.149 40.8324 196.583 41.2263 197.839 42.0142C199.095 42.8021 200.083 43.9223 200.803 45.375C201.523 46.8277 201.883 48.5511 201.883 50.5455ZM199.667 50.5455C199.667 48.9081 199.393 47.5263 198.845 46.3999C198.304 45.2734 197.568 44.4209 196.639 43.8423C195.715 43.2637 194.681 42.9744 193.536 42.9744C192.392 42.9744 191.354 43.2637 190.425 43.8423C189.502 44.4209 188.766 45.2734 188.218 46.3999C187.677 47.5263 187.406 48.9081 187.406 50.5455C187.406 52.1828 187.677 53.5646 188.218 54.6911C188.766 55.8175 189.502 56.67 190.425 57.2486C191.354 57.8272 192.392 58.1165 193.536 58.1165C194.681 58.1165 195.715 57.8272 196.639 57.2486C197.568 56.67 198.304 55.8175 198.845 54.6911C199.393 53.5646 199.667 52.1828 199.667 50.5455ZM220.727 41.0909V60H218.512L208.208 45.1534H208.023V60H205.733V41.0909H207.949L218.29 55.9744H218.475V41.0909H220.727Z" fill="#05C2DF"/>
<path d="M9.04545 103H5.27841V91.3636H9.16477C10.3049 91.3636 11.2841 91.5966 12.1023 92.0625C12.9205 92.5246 13.5473 93.1894 13.983 94.0568C14.4223 94.9205 14.642 95.9564 14.642 97.1648C14.642 98.3769 14.4205 99.4186 13.9773 100.29C13.5379 101.161 12.9015 101.831 12.0682 102.301C11.2348 102.767 10.2273 103 9.04545 103ZM7.03409 101.466H8.94886C9.83523 101.466 10.572 101.299 11.1591 100.966C11.7462 100.629 12.1856 100.142 12.4773 99.5057C12.7689 98.8655 12.9148 98.0852 12.9148 97.1648C12.9148 96.2519 12.7689 95.4773 12.4773 94.8409C12.1894 94.2045 11.7595 93.7216 11.1875 93.392C10.6155 93.0625 9.9053 92.8977 9.05682 92.8977H7.03409V101.466ZM16.6889 103V94.2727H18.3878V103H16.6889ZM17.5469 92.9261C17.2514 92.9261 16.9976 92.8277 16.7855 92.6307C16.5772 92.4299 16.473 92.1913 16.473 91.9148C16.473 91.6345 16.5772 91.3958 16.7855 91.1989C16.9976 90.9981 17.2514 90.8977 17.5469 90.8977C17.8423 90.8977 18.0942 90.9981 18.3026 91.1989C18.5147 91.3958 18.6207 91.6345 18.6207 91.9148C18.6207 92.1913 18.5147 92.4299 18.3026 92.6307C18.0942 92.8277 17.8423 92.9261 17.5469 92.9261ZM27.2131 96.4034L25.6733 96.6761C25.6089 96.4792 25.5066 96.2917 25.3665 96.1136C25.2301 95.9356 25.0445 95.7898 24.8097 95.6761C24.5748 95.5625 24.2813 95.5057 23.929 95.5057C23.4479 95.5057 23.0464 95.6136 22.7244 95.8295C22.4025 96.0417 22.2415 96.3163 22.2415 96.6534C22.2415 96.9451 22.3494 97.1799 22.5653 97.358C22.7813 97.536 23.1297 97.6818 23.6108 97.7955L24.9972 98.1136C25.8002 98.2992 26.3987 98.5852 26.7926 98.9716C27.1866 99.358 27.3835 99.8598 27.3835 100.477C27.3835 101 27.232 101.466 26.929 101.875C26.6297 102.28 26.2112 102.598 25.6733 102.83C25.1392 103.061 24.5199 103.176 23.8153 103.176C22.8381 103.176 22.0407 102.968 21.4233 102.551C20.8059 102.131 20.4271 101.534 20.2869 100.761L21.929 100.511C22.0313 100.939 22.2415 101.263 22.5597 101.483C22.8778 101.699 23.2926 101.807 23.804 101.807C24.3608 101.807 24.8059 101.691 25.1392 101.46C25.4725 101.225 25.6392 100.939 25.6392 100.602C25.6392 100.33 25.5369 100.1 25.3324 99.9148C25.1316 99.7292 24.8229 99.589 24.4062 99.4943L22.929 99.1705C22.1146 98.9848 21.5123 98.6894 21.1222 98.2841C20.7358 97.8788 20.5426 97.3655 20.5426 96.7443C20.5426 96.2292 20.6866 95.7784 20.9744 95.392C21.2623 95.0057 21.66 94.7045 22.1676 94.4886C22.6752 94.2689 23.2566 94.1591 23.9119 94.1591C24.8551 94.1591 25.5975 94.3636 26.1392 94.7727C26.6809 95.178 27.0388 95.7216 27.2131 96.4034ZM32.9276 103.176C32.0829 103.176 31.3556 102.985 30.7457 102.602C30.1397 102.216 29.6738 101.684 29.348 101.006C29.0223 100.328 28.8594 99.5511 28.8594 98.6761C28.8594 97.7898 29.026 97.0076 29.3594 96.3295C29.6927 95.6477 30.1624 95.1155 30.7685 94.733C31.3745 94.3504 32.0885 94.1591 32.9105 94.1591C33.5734 94.1591 34.1643 94.2822 34.6832 94.5284C35.2022 94.7708 35.6207 95.1117 35.9389 95.5511C36.2609 95.9905 36.4522 96.5038 36.5128 97.0909H34.8594C34.7685 96.6818 34.5601 96.3295 34.2344 96.0341C33.9124 95.7386 33.4806 95.5909 32.9389 95.5909C32.4654 95.5909 32.0507 95.7159 31.6946 95.9659C31.3423 96.2121 31.0677 96.5644 30.8707 97.0227C30.6738 97.4773 30.5753 98.0152 30.5753 98.6364C30.5753 99.2727 30.6719 99.822 30.8651 100.284C31.0582 100.746 31.331 101.104 31.6832 101.358C32.0393 101.612 32.4579 101.739 32.9389 101.739C33.2609 101.739 33.5526 101.68 33.8139 101.562C34.0791 101.441 34.3007 101.269 34.4787 101.045C34.6605 100.822 34.7874 100.553 34.8594 100.239H36.5128C36.4522 100.803 36.2685 101.307 35.9616 101.75C35.6548 102.193 35.2438 102.542 34.7287 102.795C34.2173 103.049 33.617 103.176 32.9276 103.176ZM42.0057 103.176C41.1875 103.176 40.4735 102.989 39.8636 102.614C39.2538 102.239 38.7803 101.714 38.4432 101.04C38.1061 100.366 37.9375 99.5777 37.9375 98.6761C37.9375 97.7708 38.1061 96.9792 38.4432 96.3011C38.7803 95.6231 39.2538 95.0966 39.8636 94.7216C40.4735 94.3466 41.1875 94.1591 42.0057 94.1591C42.8239 94.1591 43.5379 94.3466 44.1477 94.7216C44.7576 95.0966 45.2311 95.6231 45.5682 96.3011C45.9053 96.9792 46.0739 97.7708 46.0739 98.6761C46.0739 99.5777 45.9053 100.366 45.5682 101.04C45.2311 101.714 44.7576 102.239 44.1477 102.614C43.5379 102.989 42.8239 103.176 42.0057 103.176ZM42.0114 101.75C42.5417 101.75 42.9811 101.61 43.3295 101.33C43.678 101.049 43.9356 100.676 44.1023 100.21C44.2727 99.7443 44.358 99.2311 44.358 98.6705C44.358 98.1136 44.2727 97.6023 44.1023 97.1364C43.9356 96.6667 43.678 96.2898 43.3295 96.0057C42.9811 95.7216 42.5417 95.5795 42.0114 95.5795C41.4773 95.5795 41.0341 95.7216 40.6818 96.0057C40.3333 96.2898 40.0739 96.6667 39.9034 97.1364C39.7367 97.6023 39.6534 98.1136 39.6534 98.6705C39.6534 99.2311 39.7367 99.7443 39.9034 100.21C40.0739 100.676 40.3333 101.049 40.6818 101.33C41.0341 101.61 41.4773 101.75 42.0114 101.75ZM55.1392 94.2727L51.9744 103H50.1562L46.9858 94.2727H48.8097L51.0199 100.989H51.1108L53.3153 94.2727H55.1392ZM60.2003 103.176C59.3404 103.176 58.5999 102.992 57.9787 102.625C57.3613 102.254 56.884 101.733 56.5469 101.062C56.2135 100.388 56.0469 99.5985 56.0469 98.6932C56.0469 97.7992 56.2135 97.0114 56.5469 96.3295C56.884 95.6477 57.3537 95.1155 57.956 94.733C58.562 94.3504 59.2704 94.1591 60.081 94.1591C60.5734 94.1591 61.0507 94.2405 61.5128 94.4034C61.9749 94.5663 62.3897 94.822 62.7571 95.1705C63.1245 95.5189 63.4143 95.9716 63.6264 96.5284C63.8385 97.0814 63.9446 97.7538 63.9446 98.5455V99.1477H57.0071V97.875H62.2798C62.2798 97.428 62.1889 97.0322 62.0071 96.6875C61.8253 96.339 61.5696 96.0644 61.2401 95.8636C60.9143 95.6629 60.5317 95.5625 60.0923 95.5625C59.6151 95.5625 59.1984 95.6799 58.8423 95.9148C58.4901 96.1458 58.2173 96.4489 58.0241 96.8239C57.8348 97.1951 57.7401 97.5985 57.7401 98.0341V99.0284C57.7401 99.6117 57.8423 100.108 58.0469 100.517C58.2552 100.926 58.545 101.239 58.9162 101.455C59.2874 101.667 59.7211 101.773 60.2173 101.773C60.5393 101.773 60.8329 101.727 61.098 101.636C61.3632 101.542 61.5923 101.402 61.7855 101.216C61.9787 101.03 62.1264 100.801 62.2287 100.528L63.8366 100.818C63.7079 101.292 63.4768 101.706 63.1435 102.062C62.8139 102.415 62.3991 102.689 61.8991 102.886C61.4029 103.08 60.8366 103.176 60.2003 103.176ZM65.8295 103V94.2727H67.4716V95.6591H67.5625C67.7216 95.1894 68.0019 94.8201 68.4034 94.5511C68.8087 94.2784 69.267 94.142 69.7784 94.142C69.8845 94.142 70.0095 94.1458 70.1534 94.1534C70.3011 94.161 70.4167 94.1705 70.5 94.1818V95.8068C70.4318 95.7879 70.3106 95.767 70.1364 95.7443C69.9621 95.7178 69.7879 95.7045 69.6136 95.7045C69.2121 95.7045 68.8542 95.7898 68.5398 95.9602C68.2292 96.1269 67.983 96.3598 67.8011 96.6591C67.6193 96.9545 67.5284 97.2917 67.5284 97.6705V103H65.8295ZM80.2784 94.2727V95.6364H75.5114V94.2727H80.2784ZM76.7898 92.1818H78.4886V100.438C78.4886 100.767 78.5379 101.015 78.6364 101.182C78.7348 101.345 78.8617 101.456 79.017 101.517C79.1761 101.574 79.3485 101.602 79.5341 101.602C79.6705 101.602 79.7898 101.593 79.892 101.574C79.9943 101.555 80.0739 101.54 80.1307 101.528L80.4375 102.932C80.339 102.97 80.1989 103.008 80.017 103.045C79.8352 103.087 79.608 103.11 79.3352 103.114C78.8883 103.121 78.4716 103.042 78.0852 102.875C77.6989 102.708 77.3864 102.451 77.1477 102.102C76.9091 101.754 76.7898 101.316 76.7898 100.79V92.1818ZM84.044 97.8182V103H82.3452V91.3636H84.0213V95.6932H84.1293C84.3338 95.2235 84.6463 94.8504 85.0668 94.5739C85.4872 94.2973 86.0365 94.1591 86.7145 94.1591C87.313 94.1591 87.8357 94.2822 88.2827 94.5284C88.7334 94.7746 89.0819 95.142 89.3281 95.6307C89.5781 96.1155 89.7031 96.7216 89.7031 97.4489V103H88.0043V97.6534C88.0043 97.0133 87.8395 96.517 87.5099 96.1648C87.1804 95.8087 86.7221 95.6307 86.1349 95.6307C85.7334 95.6307 85.3736 95.7159 85.0554 95.8864C84.741 96.0568 84.4929 96.3068 84.3111 96.6364C84.133 96.9621 84.044 97.3561 84.044 97.8182ZM95.7315 103.176C94.8717 103.176 94.1312 102.992 93.5099 102.625C92.8925 102.254 92.4152 101.733 92.0781 101.062C91.7448 100.388 91.5781 99.5985 91.5781 98.6932C91.5781 97.7992 91.7448 97.0114 92.0781 96.3295C92.4152 95.6477 92.8849 95.1155 93.4872 94.733C94.0933 94.3504 94.8016 94.1591 95.6122 94.1591C96.1046 94.1591 96.5819 94.2405 97.044 94.4034C97.5062 94.5663 97.9209 94.822 98.2884 95.1705C98.6558 95.5189 98.9455 95.9716 99.1577 96.5284C99.3698 97.0814 99.4759 97.7538 99.4759 98.5455V99.1477H92.5384V97.875H97.8111C97.8111 97.428 97.7202 97.0322 97.5384 96.6875C97.3565 96.339 97.1009 96.0644 96.7713 95.8636C96.4455 95.6629 96.063 95.5625 95.6236 95.5625C95.1463 95.5625 94.7296 95.6799 94.3736 95.9148C94.0213 96.1458 93.7486 96.4489 93.5554 96.8239C93.366 97.1951 93.2713 97.5985 93.2713 98.0341V99.0284C93.2713 99.6117 93.3736 100.108 93.5781 100.517C93.7865 100.926 94.0762 101.239 94.4474 101.455C94.8187 101.667 95.2524 101.773 95.7486 101.773C96.0705 101.773 96.3641 101.727 96.6293 101.636C96.8944 101.542 97.1236 101.402 97.3168 101.216C97.5099 101.03 97.6577 100.801 97.7599 100.528L99.3679 100.818C99.2391 101.292 99.008 101.706 98.6747 102.062C98.3452 102.415 97.9304 102.689 97.4304 102.886C96.9342 103.08 96.3679 103.176 95.7315 103.176ZM105.595 103V94.2727H107.226V95.6932H107.334C107.516 95.2121 107.813 94.8371 108.226 94.5682C108.639 94.2955 109.133 94.1591 109.709 94.1591C110.292 94.1591 110.781 94.2955 111.175 94.5682C111.572 94.8409 111.866 95.2159 112.055 95.6932H112.146C112.355 95.2273 112.686 94.8561 113.141 94.5795C113.595 94.2992 114.137 94.1591 114.766 94.1591C115.557 94.1591 116.203 94.4072 116.703 94.9034C117.207 95.3996 117.459 96.1477 117.459 97.1477V103H115.76V97.3068C115.76 96.7159 115.599 96.2879 115.277 96.0227C114.955 95.7576 114.571 95.625 114.124 95.625C113.571 95.625 113.141 95.7955 112.834 96.1364C112.527 96.4735 112.374 96.9072 112.374 97.4375V103H110.68V97.1989C110.68 96.7254 110.533 96.3447 110.237 96.0568C109.942 95.7689 109.557 95.625 109.084 95.625C108.762 95.625 108.464 95.7102 108.192 95.8807C107.923 96.0473 107.705 96.2803 107.538 96.5795C107.375 96.8788 107.294 97.2254 107.294 97.6193V103H105.595ZM123.412 103.176C122.594 103.176 121.88 102.989 121.27 102.614C120.66 102.239 120.187 101.714 119.849 101.04C119.512 100.366 119.344 99.5777 119.344 98.6761C119.344 97.7708 119.512 96.9792 119.849 96.3011C120.187 95.6231 120.66 95.0966 121.27 94.7216C121.88 94.3466 122.594 94.1591 123.412 94.1591C124.23 94.1591 124.944 94.3466 125.554 94.7216C126.164 95.0966 126.637 95.6231 126.974 96.3011C127.312 96.9792 127.48 97.7708 127.48 98.6761C127.48 99.5777 127.312 100.366 126.974 101.04C126.637 101.714 126.164 102.239 125.554 102.614C124.944 102.989 124.23 103.176 123.412 103.176ZM123.418 101.75C123.948 101.75 124.387 101.61 124.736 101.33C125.084 101.049 125.342 100.676 125.509 100.21C125.679 99.7443 125.764 99.2311 125.764 98.6705C125.764 98.1136 125.679 97.6023 125.509 97.1364C125.342 96.6667 125.084 96.2898 124.736 96.0057C124.387 95.7216 123.948 95.5795 123.418 95.5795C122.884 95.5795 122.44 95.7216 122.088 96.0057C121.74 96.2898 121.48 96.6667 121.31 97.1364C121.143 97.6023 121.06 98.1136 121.06 98.6705C121.06 99.2311 121.143 99.7443 121.31 100.21C121.48 100.676 121.74 101.049 122.088 101.33C122.44 101.61 122.884 101.75 123.418 101.75ZM135.916 96.4034L134.376 96.6761C134.312 96.4792 134.21 96.2917 134.07 96.1136C133.933 95.9356 133.748 95.7898 133.513 95.6761C133.278 95.5625 132.984 95.5057 132.632 95.5057C132.151 95.5057 131.75 95.6136 131.428 95.8295C131.106 96.0417 130.945 96.3163 130.945 96.6534C130.945 96.9451 131.053 97.1799 131.268 97.358C131.484 97.536 131.833 97.6818 132.314 97.7955L133.7 98.1136C134.503 98.2992 135.102 98.5852 135.496 98.9716C135.89 99.358 136.087 99.8598 136.087 100.477C136.087 101 135.935 101.466 135.632 101.875C135.333 102.28 134.914 102.598 134.376 102.83C133.842 103.061 133.223 103.176 132.518 103.176C131.541 103.176 130.744 102.968 130.126 102.551C129.509 102.131 129.13 101.534 128.99 100.761L130.632 100.511C130.734 100.939 130.945 101.263 131.263 101.483C131.581 101.699 131.996 101.807 132.507 101.807C133.064 101.807 133.509 101.691 133.842 101.46C134.176 101.225 134.342 100.939 134.342 100.602C134.342 100.33 134.24 100.1 134.036 99.9148C133.835 99.7292 133.526 99.589 133.109 99.4943L131.632 99.1705C130.818 98.9848 130.215 98.6894 129.825 98.2841C129.439 97.8788 129.246 97.3655 129.246 96.7443C129.246 96.2292 129.39 95.7784 129.678 95.392C129.965 95.0057 130.363 94.7045 130.871 94.4886C131.378 94.2689 131.96 94.1591 132.615 94.1591C133.558 94.1591 134.301 94.3636 134.842 94.7727C135.384 95.178 135.742 95.7216 135.916 96.4034ZM142.028 94.2727V95.6364H137.261V94.2727H142.028ZM138.54 92.1818H140.239V100.438C140.239 100.767 140.288 101.015 140.386 101.182C140.485 101.345 140.612 101.456 140.767 101.517C140.926 101.574 141.098 101.602 141.284 101.602C141.42 101.602 141.54 101.593 141.642 101.574C141.744 101.555 141.824 101.54 141.881 101.528L142.188 102.932C142.089 102.97 141.949 103.008 141.767 103.045C141.585 103.087 141.358 103.11 141.085 103.114C140.638 103.121 140.222 103.042 139.835 102.875C139.449 102.708 139.136 102.451 138.898 102.102C138.659 101.754 138.54 101.316 138.54 100.79V92.1818ZM151.818 103.176C150.973 103.176 150.246 102.985 149.636 102.602C149.03 102.216 148.564 101.684 148.239 101.006C147.913 100.328 147.75 99.5511 147.75 98.6761C147.75 97.7898 147.917 97.0076 148.25 96.3295C148.583 95.6477 149.053 95.1155 149.659 94.733C150.265 94.3504 150.979 94.1591 151.801 94.1591C152.464 94.1591 153.055 94.2822 153.574 94.5284C154.093 94.7708 154.511 95.1117 154.83 95.5511C155.152 95.9905 155.343 96.5038 155.403 97.0909H153.75C153.659 96.6818 153.451 96.3295 153.125 96.0341C152.803 95.7386 152.371 95.5909 151.83 95.5909C151.356 95.5909 150.941 95.7159 150.585 95.9659C150.233 96.2121 149.958 96.5644 149.761 97.0227C149.564 97.4773 149.466 98.0152 149.466 98.6364C149.466 99.2727 149.563 99.822 149.756 100.284C149.949 100.746 150.222 101.104 150.574 101.358C150.93 101.612 151.348 101.739 151.83 101.739C152.152 101.739 152.443 101.68 152.705 101.562C152.97 101.441 153.191 101.269 153.369 101.045C153.551 100.822 153.678 100.553 153.75 100.239H155.403C155.343 100.803 155.159 101.307 154.852 101.75C154.545 102.193 154.134 102.542 153.619 102.795C153.108 103.049 152.508 103.176 151.818 103.176ZM160.896 103.176C160.078 103.176 159.364 102.989 158.754 102.614C158.144 102.239 157.671 101.714 157.334 101.04C156.997 100.366 156.828 99.5777 156.828 98.6761C156.828 97.7708 156.997 96.9792 157.334 96.3011C157.671 95.6231 158.144 95.0966 158.754 94.7216C159.364 94.3466 160.078 94.1591 160.896 94.1591C161.714 94.1591 162.429 94.3466 163.038 94.7216C163.648 95.0966 164.122 95.6231 164.459 96.3011C164.796 96.9792 164.964 97.7708 164.964 98.6761C164.964 99.5777 164.796 100.366 164.459 101.04C164.122 101.714 163.648 102.239 163.038 102.614C162.429 102.989 161.714 103.176 160.896 103.176ZM160.902 101.75C161.432 101.75 161.872 101.61 162.22 101.33C162.569 101.049 162.826 100.676 162.993 100.21C163.163 99.7443 163.249 99.2311 163.249 98.6705C163.249 98.1136 163.163 97.6023 162.993 97.1364C162.826 96.6667 162.569 96.2898 162.22 96.0057C161.872 95.7216 161.432 95.5795 160.902 95.5795C160.368 95.5795 159.925 95.7216 159.572 96.0057C159.224 96.2898 158.964 96.6667 158.794 97.1364C158.627 97.6023 158.544 98.1136 158.544 98.6705C158.544 99.2311 158.627 99.7443 158.794 100.21C158.964 100.676 159.224 101.049 159.572 101.33C159.925 101.61 160.368 101.75 160.902 101.75ZM166.861 103V94.2727H168.491V95.6932H168.599C168.781 95.2121 169.079 94.8371 169.491 94.5682C169.904 94.2955 170.399 94.1591 170.974 94.1591C171.558 94.1591 172.046 94.2955 172.44 94.5682C172.838 94.8409 173.132 95.2159 173.321 95.6932H173.412C173.62 95.2273 173.952 94.8561 174.406 94.5795C174.861 94.2992 175.402 94.1591 176.031 94.1591C176.823 94.1591 177.469 94.4072 177.969 94.9034C178.473 95.3996 178.724 96.1477 178.724 97.1477V103H177.026V97.3068C177.026 96.7159 176.865 96.2879 176.543 96.0227C176.221 95.7576 175.836 95.625 175.389 95.625C174.836 95.625 174.406 95.7955 174.099 96.1364C173.793 96.4735 173.639 96.9072 173.639 97.4375V103H171.946V97.1989C171.946 96.7254 171.798 96.3447 171.503 96.0568C171.207 95.7689 170.823 95.625 170.349 95.625C170.027 95.625 169.73 95.7102 169.457 95.8807C169.188 96.0473 168.971 96.2803 168.804 96.5795C168.641 96.8788 168.56 97.2254 168.56 97.6193V103H166.861ZM181.001 106.273V94.2727H182.661V95.6875H182.803C182.901 95.5057 183.043 95.2955 183.229 95.0568C183.414 94.8182 183.672 94.6098 184.001 94.4318C184.331 94.25 184.767 94.1591 185.308 94.1591C186.013 94.1591 186.642 94.3371 187.195 94.6932C187.748 95.0492 188.181 95.5625 188.496 96.233C188.814 96.9034 188.973 97.7102 188.973 98.6534C188.973 99.5966 188.816 100.405 188.501 101.08C188.187 101.75 187.755 102.267 187.206 102.631C186.657 102.991 186.03 103.17 185.325 103.17C184.795 103.17 184.361 103.081 184.024 102.903C183.691 102.725 183.429 102.517 183.24 102.278C183.051 102.04 182.905 101.828 182.803 101.642H182.7V106.273H181.001ZM182.666 98.6364C182.666 99.25 182.755 99.7879 182.933 100.25C183.111 100.712 183.369 101.074 183.706 101.335C184.043 101.593 184.456 101.722 184.945 101.722C185.452 101.722 185.876 101.587 186.217 101.318C186.558 101.045 186.816 100.676 186.99 100.21C187.168 99.7443 187.257 99.2197 187.257 98.6364C187.257 98.0606 187.17 97.5436 186.996 97.0852C186.825 96.6269 186.568 96.2652 186.223 96C185.882 95.7348 185.456 95.6023 184.945 95.6023C184.452 95.6023 184.036 95.7292 183.695 95.983C183.357 96.2367 183.102 96.5909 182.928 97.0455C182.753 97.5 182.666 98.0303 182.666 98.6364ZM190.876 103V94.2727H192.518V95.6591H192.609C192.768 95.1894 193.049 94.8201 193.45 94.5511C193.856 94.2784 194.314 94.142 194.825 94.142C194.931 94.142 195.056 94.1458 195.2 94.1534C195.348 94.161 195.464 94.1705 195.547 94.1818V95.8068C195.479 95.7879 195.357 95.767 195.183 95.7443C195.009 95.7178 194.835 95.7045 194.661 95.7045C194.259 95.7045 193.901 95.7898 193.587 95.9602C193.276 96.1269 193.03 96.3598 192.848 96.6591C192.666 96.9545 192.575 97.2917 192.575 97.6705V103H190.876ZM200.466 103.176C199.606 103.176 198.866 102.992 198.244 102.625C197.627 102.254 197.15 101.733 196.812 101.062C196.479 100.388 196.312 99.5985 196.312 98.6932C196.312 97.7992 196.479 97.0114 196.812 96.3295C197.15 95.6477 197.619 95.1155 198.222 94.733C198.828 94.3504 199.536 94.1591 200.347 94.1591C200.839 94.1591 201.316 94.2405 201.778 94.4034C202.241 94.5663 202.655 94.822 203.023 95.1705C203.39 95.5189 203.68 95.9716 203.892 96.5284C204.104 97.0814 204.21 97.7538 204.21 98.5455V99.1477H197.273V97.875H202.545C202.545 97.428 202.455 97.0322 202.273 96.6875C202.091 96.339 201.835 96.0644 201.506 95.8636C201.18 95.6629 200.797 95.5625 200.358 95.5625C199.881 95.5625 199.464 95.6799 199.108 95.9148C198.756 96.1458 198.483 96.4489 198.29 96.8239C198.1 97.1951 198.006 97.5985 198.006 98.0341V99.0284C198.006 99.6117 198.108 100.108 198.312 100.517C198.521 100.926 198.811 101.239 199.182 101.455C199.553 101.667 199.987 101.773 200.483 101.773C200.805 101.773 201.098 101.727 201.364 101.636C201.629 101.542 201.858 101.402 202.051 101.216C202.244 101.03 202.392 100.801 202.494 100.528L204.102 100.818C203.973 101.292 203.742 101.706 203.409 102.062C203.08 102.415 202.665 102.689 202.165 102.886C201.669 103.08 201.102 103.176 200.466 103.176ZM207.794 97.8182V103H206.095V91.3636H207.771V95.6932H207.879C208.084 95.2235 208.396 94.8504 208.817 94.5739C209.237 94.2973 209.786 94.1591 210.464 94.1591C211.063 94.1591 211.586 94.2822 212.033 94.5284C212.483 94.7746 212.832 95.142 213.078 95.6307C213.328 96.1155 213.453 96.7216 213.453 97.4489V103H211.754V97.6534C211.754 97.0133 211.589 96.517 211.26 96.1648C210.93 95.8087 210.472 95.6307 209.885 95.6307C209.483 95.6307 209.124 95.7159 208.805 95.8864C208.491 96.0568 208.243 96.3068 208.061 96.6364C207.883 96.9621 207.794 97.3561 207.794 97.8182ZM219.482 103.176C218.622 103.176 217.881 102.992 217.26 102.625C216.643 102.254 216.165 101.733 215.828 101.062C215.495 100.388 215.328 99.5985 215.328 98.6932C215.328 97.7992 215.495 97.0114 215.828 96.3295C216.165 95.6477 216.635 95.1155 217.237 94.733C217.843 94.3504 218.552 94.1591 219.362 94.1591C219.855 94.1591 220.332 94.2405 220.794 94.4034C221.256 94.5663 221.671 94.822 222.038 95.1705C222.406 95.5189 222.696 95.9716 222.908 96.5284C223.12 97.0814 223.226 97.7538 223.226 98.5455V99.1477H216.288V97.875H221.561C221.561 97.428 221.47 97.0322 221.288 96.6875C221.107 96.339 220.851 96.0644 220.521 95.8636C220.196 95.6629 219.813 95.5625 219.374 95.5625C218.896 95.5625 218.48 95.6799 218.124 95.9148C217.771 96.1458 217.499 96.4489 217.305 96.8239C217.116 97.1951 217.021 97.5985 217.021 98.0341V99.0284C217.021 99.6117 217.124 100.108 217.328 100.517C217.536 100.926 217.826 101.239 218.197 101.455C218.569 101.667 219.002 101.773 219.499 101.773C219.821 101.773 220.114 101.727 220.379 101.636C220.644 101.542 220.874 101.402 221.067 101.216C221.26 101.03 221.408 100.801 221.51 100.528L223.118 100.818C222.989 101.292 222.758 101.706 222.425 102.062C222.095 102.415 221.68 102.689 221.18 102.886C220.684 103.08 220.118 103.176 219.482 103.176ZM226.81 97.8182V103H225.111V94.2727H226.741V95.6932H226.849C227.05 95.2311 227.365 94.8598 227.793 94.5795C228.224 94.2992 228.768 94.1591 229.423 94.1591C230.018 94.1591 230.539 94.2841 230.986 94.5341C231.433 94.7803 231.779 95.1477 232.026 95.6364C232.272 96.125 232.395 96.7292 232.395 97.4489V103H230.696V97.6534C230.696 97.0208 230.531 96.5265 230.202 96.1705C229.872 95.8106 229.42 95.6307 228.844 95.6307C228.45 95.6307 228.099 95.7159 227.793 95.8864C227.49 96.0568 227.249 96.3068 227.071 96.6364C226.897 96.9621 226.81 97.3561 226.81 97.8182ZM241.213 96.4034L239.673 96.6761C239.609 96.4792 239.507 96.2917 239.366 96.1136C239.23 95.9356 239.045 95.7898 238.81 95.6761C238.575 95.5625 238.281 95.5057 237.929 95.5057C237.448 95.5057 237.046 95.6136 236.724 95.8295C236.402 96.0417 236.241 96.3163 236.241 96.6534C236.241 96.9451 236.349 97.1799 236.565 97.358C236.781 97.536 237.13 97.6818 237.611 97.7955L238.997 98.1136C239.8 98.2992 240.399 98.5852 240.793 98.9716C241.187 99.358 241.384 99.8598 241.384 100.477C241.384 101 241.232 101.466 240.929 101.875C240.63 102.28 240.211 102.598 239.673 102.83C239.139 103.061 238.52 103.176 237.815 103.176C236.838 103.176 236.041 102.968 235.423 102.551C234.806 102.131 234.427 101.534 234.287 100.761L235.929 100.511C236.031 100.939 236.241 101.263 236.56 101.483C236.878 101.699 237.293 101.807 237.804 101.807C238.361 101.807 238.806 101.691 239.139 101.46C239.473 101.225 239.639 100.939 239.639 100.602C239.639 100.33 239.537 100.1 239.332 99.9148C239.132 99.7292 238.823 99.589 238.406 99.4943L236.929 99.1705C236.115 98.9848 235.512 98.6894 235.122 98.2841C234.736 97.8788 234.543 97.3655 234.543 96.7443C234.543 96.2292 234.687 95.7784 234.974 95.392C235.262 95.0057 235.66 94.7045 236.168 94.4886C236.675 94.2689 237.257 94.1591 237.912 94.1591C238.855 94.1591 239.598 94.3636 240.139 94.7727C240.681 95.178 241.039 95.7216 241.213 96.4034ZM243.251 103V94.2727H244.95V103H243.251ZM244.109 92.9261C243.814 92.9261 243.56 92.8277 243.348 92.6307C243.14 92.4299 243.036 92.1913 243.036 91.9148C243.036 91.6345 243.14 91.3958 243.348 91.1989C243.56 90.9981 243.814 90.8977 244.109 90.8977C244.405 90.8977 244.657 90.9981 244.865 91.1989C245.077 91.3958 245.183 91.6345 245.183 91.9148C245.183 92.1913 245.077 92.4299 244.865 92.6307C244.657 92.8277 244.405 92.9261 244.109 92.9261ZM254.702 94.2727L251.537 103H249.719L246.548 94.2727H248.372L250.582 100.989H250.673L252.878 94.2727H254.702ZM259.763 103.176C258.903 103.176 258.162 102.992 257.541 102.625C256.924 102.254 256.446 101.733 256.109 101.062C255.776 100.388 255.609 99.5985 255.609 98.6932C255.609 97.7992 255.776 97.0114 256.109 96.3295C256.446 95.6477 256.916 95.1155 257.518 94.733C258.125 94.3504 258.833 94.1591 259.643 94.1591C260.136 94.1591 260.613 94.2405 261.075 94.4034C261.537 94.5663 261.952 94.822 262.32 95.1705C262.687 95.5189 262.977 95.9716 263.189 96.5284C263.401 97.0814 263.507 97.7538 263.507 98.5455V99.1477H256.57V97.875H261.842C261.842 97.428 261.751 97.0322 261.57 96.6875C261.388 96.339 261.132 96.0644 260.803 95.8636C260.477 95.6629 260.094 95.5625 259.655 95.5625C259.178 95.5625 258.761 95.6799 258.405 95.9148C258.053 96.1458 257.78 96.4489 257.587 96.8239C257.397 97.1951 257.303 97.5985 257.303 98.0341V99.0284C257.303 99.6117 257.405 100.108 257.609 100.517C257.818 100.926 258.107 101.239 258.479 101.455C258.85 101.667 259.284 101.773 259.78 101.773C260.102 101.773 260.395 101.727 260.661 101.636C260.926 101.542 261.155 101.402 261.348 101.216C261.541 101.03 261.689 100.801 261.791 100.528L263.399 100.818C263.27 101.292 263.039 101.706 262.706 102.062C262.376 102.415 261.962 102.689 261.462 102.886C260.965 103.08 260.399 103.176 259.763 103.176ZM270.78 91.3636L274.018 100.841H274.149L277.388 91.3636H279.286L275.098 103H273.07L268.882 91.3636H270.78ZM280.966 103V91.3636H285.114C286.015 91.3636 286.763 91.5189 287.358 91.8295C287.956 92.1402 288.403 92.5701 288.699 93.1193C288.994 93.6648 289.142 94.2955 289.142 95.0114C289.142 95.7235 288.992 96.3504 288.693 96.892C288.398 97.4299 287.951 97.8485 287.352 98.1477C286.758 98.447 286.009 98.5966 285.108 98.5966H281.966V97.0852H284.949C285.517 97.0852 285.979 97.0038 286.335 96.8409C286.695 96.678 286.958 96.4413 287.125 96.1307C287.292 95.8201 287.375 95.447 287.375 95.0114C287.375 94.572 287.29 94.1913 287.119 93.8693C286.953 93.5473 286.689 93.3011 286.33 93.1307C285.973 92.9564 285.506 92.8693 284.926 92.8693H282.722V103H280.966ZM286.71 97.75L289.585 103H287.585L284.767 97.75H286.71ZM5.27841 127V115.364H7.03409V125.489H12.3068V127H5.27841ZM17.8494 127.176C17.0313 127.176 16.3172 126.989 15.7074 126.614C15.0975 126.239 14.6241 125.714 14.2869 125.04C13.9498 124.366 13.7812 123.578 13.7812 122.676C13.7812 121.771 13.9498 120.979 14.2869 120.301C14.6241 119.623 15.0975 119.097 15.7074 118.722C16.3172 118.347 17.0313 118.159 17.8494 118.159C18.6676 118.159 19.3816 118.347 19.9915 118.722C20.6013 119.097 21.0748 119.623 21.4119 120.301C21.7491 120.979 21.9176 121.771 21.9176 122.676C21.9176 123.578 21.7491 124.366 21.4119 125.04C21.0748 125.714 20.6013 126.239 19.9915 126.614C19.3816 126.989 18.6676 127.176 17.8494 127.176ZM17.8551 125.75C18.3854 125.75 18.8248 125.61 19.1733 125.33C19.5218 125.049 19.7794 124.676 19.946 124.21C20.1165 123.744 20.2017 123.231 20.2017 122.67C20.2017 122.114 20.1165 121.602 19.946 121.136C19.7794 120.667 19.5218 120.29 19.1733 120.006C18.8248 119.722 18.3854 119.58 17.8551 119.58C17.321 119.58 16.8778 119.722 16.5256 120.006C16.1771 120.29 15.9176 120.667 15.7472 121.136C15.5805 121.602 15.4972 122.114 15.4972 122.67C15.4972 123.231 15.5805 123.744 15.7472 124.21C15.9176 124.676 16.1771 125.049 16.5256 125.33C16.8778 125.61 17.321 125.75 17.8551 125.75ZM27.4901 127.176C26.6454 127.176 25.9181 126.985 25.3082 126.602C24.7022 126.216 24.2363 125.684 23.9105 125.006C23.5848 124.328 23.4219 123.551 23.4219 122.676C23.4219 121.79 23.5885 121.008 23.9219 120.33C24.2552 119.648 24.7249 119.116 25.331 118.733C25.937 118.35 26.651 118.159 27.473 118.159C28.1359 118.159 28.7268 118.282 29.2457 118.528C29.7647 118.771 30.1832 119.112 30.5014 119.551C30.8234 119.991 31.0147 120.504 31.0753 121.091H29.4219C29.331 120.682 29.1226 120.33 28.7969 120.034C28.4749 119.739 28.0431 119.591 27.5014 119.591C27.0279 119.591 26.6132 119.716 26.2571 119.966C25.9048 120.212 25.6302 120.564 25.4332 121.023C25.2363 121.477 25.1378 122.015 25.1378 122.636C25.1378 123.273 25.2344 123.822 25.4276 124.284C25.6207 124.746 25.8935 125.104 26.2457 125.358C26.6018 125.612 27.0204 125.739 27.5014 125.739C27.8234 125.739 28.1151 125.68 28.3764 125.562C28.6416 125.441 28.8632 125.269 29.0412 125.045C29.223 124.822 29.3499 124.553 29.4219 124.239H31.0753C31.0147 124.803 30.831 125.307 30.5241 125.75C30.2173 126.193 29.8063 126.542 29.2912 126.795C28.7798 127.049 28.1795 127.176 27.4901 127.176ZM36.5682 127.176C35.75 127.176 35.036 126.989 34.4261 126.614C33.8163 126.239 33.3428 125.714 33.0057 125.04C32.6686 124.366 32.5 123.578 32.5 122.676C32.5 121.771 32.6686 120.979 33.0057 120.301C33.3428 119.623 33.8163 119.097 34.4261 118.722C35.036 118.347 35.75 118.159 36.5682 118.159C37.3864 118.159 38.1004 118.347 38.7102 118.722C39.3201 119.097 39.7936 119.623 40.1307 120.301C40.4678 120.979 40.6364 121.771 40.6364 122.676C40.6364 123.578 40.4678 124.366 40.1307 125.04C39.7936 125.714 39.3201 126.239 38.7102 126.614C38.1004 126.989 37.3864 127.176 36.5682 127.176ZM36.5739 125.75C37.1042 125.75 37.5436 125.61 37.892 125.33C38.2405 125.049 38.4981 124.676 38.6648 124.21C38.8352 123.744 38.9205 123.231 38.9205 122.67C38.9205 122.114 38.8352 121.602 38.6648 121.136C38.4981 120.667 38.2405 120.29 37.892 120.006C37.5436 119.722 37.1042 119.58 36.5739 119.58C36.0398 119.58 35.5966 119.722 35.2443 120.006C34.8958 120.29 34.6364 120.667 34.4659 121.136C34.2992 121.602 34.2159 122.114 34.2159 122.67C34.2159 123.231 34.2992 123.744 34.4659 124.21C34.6364 124.676 34.8958 125.049 35.2443 125.33C35.5966 125.61 36.0398 125.75 36.5739 125.75ZM42.5327 127V118.273H44.1634V119.693H44.2713C44.4531 119.212 44.7505 118.837 45.1634 118.568C45.5762 118.295 46.0705 118.159 46.6463 118.159C47.2296 118.159 47.7183 118.295 48.1122 118.568C48.5099 118.841 48.8035 119.216 48.9929 119.693H49.0838C49.2921 119.227 49.6236 118.856 50.0781 118.58C50.5327 118.299 51.0743 118.159 51.7031 118.159C52.4948 118.159 53.1406 118.407 53.6406 118.903C54.1444 119.4 54.3963 120.148 54.3963 121.148V127H52.6974V121.307C52.6974 120.716 52.5365 120.288 52.2145 120.023C51.8925 119.758 51.508 119.625 51.0611 119.625C50.508 119.625 50.0781 119.795 49.7713 120.136C49.4645 120.473 49.3111 120.907 49.3111 121.438V127H47.6179V121.199C47.6179 120.725 47.4702 120.345 47.1747 120.057C46.8793 119.769 46.4948 119.625 46.0213 119.625C45.6993 119.625 45.402 119.71 45.1293 119.881C44.8603 120.047 44.6425 120.28 44.4759 120.58C44.313 120.879 44.2315 121.225 44.2315 121.619V127H42.5327ZM60.3494 127.176C59.5313 127.176 58.8172 126.989 58.2074 126.614C57.5975 126.239 57.1241 125.714 56.7869 125.04C56.4498 124.366 56.2812 123.578 56.2812 122.676C56.2812 121.771 56.4498 120.979 56.7869 120.301C57.1241 119.623 57.5975 119.097 58.2074 118.722C58.8172 118.347 59.5313 118.159 60.3494 118.159C61.1676 118.159 61.8816 118.347 62.4915 118.722C63.1013 119.097 63.5748 119.623 63.9119 120.301C64.2491 120.979 64.4176 121.771 64.4176 122.676C64.4176 123.578 64.2491 124.366 63.9119 125.04C63.5748 125.714 63.1013 126.239 62.4915 126.614C61.8816 126.989 61.1676 127.176 60.3494 127.176ZM60.3551 125.75C60.8854 125.75 61.3248 125.61 61.6733 125.33C62.0218 125.049 62.2794 124.676 62.446 124.21C62.6165 123.744 62.7017 123.231 62.7017 122.67C62.7017 122.114 62.6165 121.602 62.446 121.136C62.2794 120.667 62.0218 120.29 61.6733 120.006C61.3248 119.722 60.8854 119.58 60.3551 119.58C59.821 119.58 59.3778 119.722 59.0256 120.006C58.6771 120.29 58.4176 120.667 58.2472 121.136C58.0805 121.602 57.9972 122.114 57.9972 122.67C57.9972 123.231 58.0805 123.744 58.2472 124.21C58.4176 124.676 58.6771 125.049 59.0256 125.33C59.3778 125.61 59.821 125.75 60.3551 125.75ZM70.3878 118.273V119.636H65.6207V118.273H70.3878ZM66.8991 116.182H68.598V124.438C68.598 124.767 68.6473 125.015 68.7457 125.182C68.8442 125.345 68.9711 125.456 69.1264 125.517C69.2855 125.574 69.4579 125.602 69.6435 125.602C69.7798 125.602 69.8991 125.593 70.0014 125.574C70.1037 125.555 70.1832 125.54 70.2401 125.528L70.5469 126.932C70.4484 126.97 70.3082 127.008 70.1264 127.045C69.9446 127.087 69.7173 127.11 69.4446 127.114C68.9976 127.121 68.581 127.042 68.1946 126.875C67.8082 126.708 67.4957 126.451 67.2571 126.102C67.0185 125.754 66.8991 125.316 66.8991 124.79V116.182ZM72.267 127V118.273H73.9659V127H72.267ZM73.125 116.926C72.8295 116.926 72.5758 116.828 72.3636 116.631C72.1553 116.43 72.0511 116.191 72.0511 115.915C72.0511 115.634 72.1553 115.396 72.3636 115.199C72.5758 114.998 72.8295 114.898 73.125 114.898C73.4205 114.898 73.6723 114.998 73.8807 115.199C74.0928 115.396 74.1989 115.634 74.1989 115.915C74.1989 116.191 74.0928 116.43 73.8807 116.631C73.6723 116.828 73.4205 116.926 73.125 116.926ZM79.9276 127.176C79.1094 127.176 78.3954 126.989 77.7855 126.614C77.1757 126.239 76.7022 125.714 76.3651 125.04C76.0279 124.366 75.8594 123.578 75.8594 122.676C75.8594 121.771 76.0279 120.979 76.3651 120.301C76.7022 119.623 77.1757 119.097 77.7855 118.722C78.3954 118.347 79.1094 118.159 79.9276 118.159C80.7457 118.159 81.4598 118.347 82.0696 118.722C82.6795 119.097 83.1529 119.623 83.4901 120.301C83.8272 120.979 83.9957 121.771 83.9957 122.676C83.9957 123.578 83.8272 124.366 83.4901 125.04C83.1529 125.714 82.6795 126.239 82.0696 126.614C81.4598 126.989 80.7457 127.176 79.9276 127.176ZM79.9332 125.75C80.4635 125.75 80.9029 125.61 81.2514 125.33C81.5999 125.049 81.8575 124.676 82.0241 124.21C82.1946 123.744 82.2798 123.231 82.2798 122.67C82.2798 122.114 82.1946 121.602 82.0241 121.136C81.8575 120.667 81.5999 120.29 81.2514 120.006C80.9029 119.722 80.4635 119.58 79.9332 119.58C79.3991 119.58 78.956 119.722 78.6037 120.006C78.2552 120.29 77.9957 120.667 77.8253 121.136C77.6586 121.602 77.5753 122.114 77.5753 122.67C77.5753 123.231 77.6586 123.744 77.8253 124.21C77.9957 124.676 78.2552 125.049 78.6037 125.33C78.956 125.61 79.3991 125.75 79.9332 125.75ZM87.5909 121.818V127H85.892V118.273H87.5227V119.693H87.6307C87.8314 119.231 88.1458 118.86 88.5739 118.58C89.0057 118.299 89.5492 118.159 90.2045 118.159C90.7992 118.159 91.3201 118.284 91.767 118.534C92.214 118.78 92.5606 119.148 92.8068 119.636C93.053 120.125 93.1761 120.729 93.1761 121.449V127H91.4773V121.653C91.4773 121.021 91.3125 120.527 90.983 120.17C90.6534 119.811 90.2008 119.631 89.625 119.631C89.2311 119.631 88.8807 119.716 88.5739 119.886C88.2708 120.057 88.0303 120.307 87.8523 120.636C87.678 120.962 87.5909 121.356 87.5909 121.818ZM106.229 120.403L104.689 120.676C104.625 120.479 104.522 120.292 104.382 120.114C104.246 119.936 104.06 119.79 103.825 119.676C103.59 119.562 103.297 119.506 102.945 119.506C102.464 119.506 102.062 119.614 101.74 119.83C101.418 120.042 101.257 120.316 101.257 120.653C101.257 120.945 101.365 121.18 101.581 121.358C101.797 121.536 102.145 121.682 102.626 121.795L104.013 122.114C104.816 122.299 105.414 122.585 105.808 122.972C106.202 123.358 106.399 123.86 106.399 124.477C106.399 125 106.248 125.466 105.945 125.875C105.645 126.28 105.227 126.598 104.689 126.83C104.155 127.061 103.536 127.176 102.831 127.176C101.854 127.176 101.056 126.968 100.439 126.551C99.8215 126.131 99.4427 125.534 99.3026 124.761L100.945 124.511C101.047 124.939 101.257 125.263 101.575 125.483C101.893 125.699 102.308 125.807 102.82 125.807C103.376 125.807 103.821 125.691 104.155 125.46C104.488 125.225 104.655 124.939 104.655 124.602C104.655 124.33 104.553 124.1 104.348 123.915C104.147 123.729 103.839 123.589 103.422 123.494L101.945 123.17C101.13 122.985 100.528 122.689 100.138 122.284C99.7514 121.879 99.5582 121.366 99.5582 120.744C99.5582 120.229 99.7022 119.778 99.9901 119.392C100.278 119.006 100.676 118.705 101.183 118.489C101.691 118.269 102.272 118.159 102.928 118.159C103.871 118.159 104.613 118.364 105.155 118.773C105.696 119.178 106.054 119.722 106.229 120.403ZM109.341 130.273C109.087 130.273 108.856 130.252 108.648 130.21C108.439 130.172 108.284 130.131 108.182 130.085L108.591 128.693C108.902 128.777 109.178 128.813 109.42 128.801C109.663 128.79 109.877 128.699 110.062 128.528C110.252 128.358 110.419 128.08 110.562 127.693L110.773 127.114L107.58 118.273H109.398L111.608 125.045H111.699L113.909 118.273H115.733L112.136 128.165C111.97 128.619 111.758 129.004 111.5 129.318C111.242 129.636 110.936 129.875 110.58 130.034C110.223 130.193 109.811 130.273 109.341 130.273ZM123.869 120.403L122.33 120.676C122.265 120.479 122.163 120.292 122.023 120.114C121.886 119.936 121.701 119.79 121.466 119.676C121.231 119.562 120.938 119.506 120.585 119.506C120.104 119.506 119.703 119.614 119.381 119.83C119.059 120.042 118.898 120.316 118.898 120.653C118.898 120.945 119.006 121.18 119.222 121.358C119.438 121.536 119.786 121.682 120.267 121.795L121.653 122.114C122.456 122.299 123.055 122.585 123.449 122.972C123.843 123.358 124.04 123.86 124.04 124.477C124.04 125 123.888 125.466 123.585 125.875C123.286 126.28 122.867 126.598 122.33 126.83C121.795 127.061 121.176 127.176 120.472 127.176C119.494 127.176 118.697 126.968 118.08 126.551C117.462 126.131 117.083 125.534 116.943 124.761L118.585 124.511C118.688 124.939 118.898 125.263 119.216 125.483C119.534 125.699 119.949 125.807 120.46 125.807C121.017 125.807 121.462 125.691 121.795 125.46C122.129 125.225 122.295 124.939 122.295 124.602C122.295 124.33 122.193 124.1 121.989 123.915C121.788 123.729 121.479 123.589 121.062 123.494L119.585 123.17C118.771 122.985 118.169 122.689 117.778 122.284C117.392 121.879 117.199 121.366 117.199 120.744C117.199 120.229 117.343 119.778 117.631 119.392C117.919 119.006 118.316 118.705 118.824 118.489C119.331 118.269 119.913 118.159 120.568 118.159C121.511 118.159 122.254 118.364 122.795 118.773C123.337 119.178 123.695 119.722 123.869 120.403ZM129.982 118.273V119.636H125.214V118.273H129.982ZM126.493 116.182H128.192V124.438C128.192 124.767 128.241 125.015 128.339 125.182C128.438 125.345 128.565 125.456 128.72 125.517C128.879 125.574 129.052 125.602 129.237 125.602C129.374 125.602 129.493 125.593 129.595 125.574C129.697 125.555 129.777 125.54 129.834 125.528L130.141 126.932C130.042 126.97 129.902 127.008 129.72 127.045C129.538 127.087 129.311 127.11 129.038 127.114C128.591 127.121 128.175 127.042 127.788 126.875C127.402 126.708 127.089 126.451 126.851 126.102C126.612 125.754 126.493 125.316 126.493 124.79V116.182ZM135.528 127.176C134.669 127.176 133.928 126.992 133.307 126.625C132.689 126.254 132.212 125.733 131.875 125.062C131.542 124.388 131.375 123.598 131.375 122.693C131.375 121.799 131.542 121.011 131.875 120.33C132.212 119.648 132.682 119.116 133.284 118.733C133.89 118.35 134.598 118.159 135.409 118.159C135.902 118.159 136.379 118.241 136.841 118.403C137.303 118.566 137.718 118.822 138.085 119.17C138.453 119.519 138.742 119.972 138.955 120.528C139.167 121.081 139.273 121.754 139.273 122.545V123.148H132.335V121.875H137.608C137.608 121.428 137.517 121.032 137.335 120.688C137.153 120.339 136.898 120.064 136.568 119.864C136.242 119.663 135.86 119.562 135.42 119.562C134.943 119.562 134.527 119.68 134.17 119.915C133.818 120.146 133.545 120.449 133.352 120.824C133.163 121.195 133.068 121.598 133.068 122.034V123.028C133.068 123.612 133.17 124.108 133.375 124.517C133.583 124.926 133.873 125.239 134.244 125.455C134.616 125.667 135.049 125.773 135.545 125.773C135.867 125.773 136.161 125.727 136.426 125.636C136.691 125.542 136.92 125.402 137.114 125.216C137.307 125.03 137.455 124.801 137.557 124.528L139.165 124.818C139.036 125.292 138.805 125.706 138.472 126.062C138.142 126.415 137.727 126.689 137.227 126.886C136.731 127.08 136.165 127.176 135.528 127.176ZM141.158 127V118.273H142.788V119.693H142.896C143.078 119.212 143.375 118.837 143.788 118.568C144.201 118.295 144.696 118.159 145.271 118.159C145.855 118.159 146.343 118.295 146.737 118.568C147.135 118.841 147.429 119.216 147.618 119.693H147.709C147.917 119.227 148.249 118.856 148.703 118.58C149.158 118.299 149.699 118.159 150.328 118.159C151.12 118.159 151.766 118.407 152.266 118.903C152.769 119.4 153.021 120.148 153.021 121.148V127H151.322V121.307C151.322 120.716 151.161 120.288 150.839 120.023C150.518 119.758 150.133 119.625 149.686 119.625C149.133 119.625 148.703 119.795 148.396 120.136C148.089 120.473 147.936 120.907 147.936 121.438V127H146.243V121.199C146.243 120.725 146.095 120.345 145.8 120.057C145.504 119.769 145.12 119.625 144.646 119.625C144.324 119.625 144.027 119.71 143.754 119.881C143.485 120.047 143.268 120.28 143.101 120.58C142.938 120.879 142.857 121.225 142.857 121.619V127H141.158ZM157.509 125.409L157.423 126.028C157.366 126.483 157.27 126.956 157.134 127.449C157.001 127.945 156.863 128.405 156.719 128.83C156.579 129.254 156.463 129.591 156.372 129.841H155.168C155.217 129.606 155.285 129.288 155.372 128.886C155.459 128.489 155.545 128.044 155.628 127.551C155.711 127.059 155.774 126.557 155.815 126.045L155.872 125.409H157.509ZM166.494 127.193C165.941 127.193 165.441 127.091 164.994 126.886C164.547 126.678 164.193 126.377 163.932 125.983C163.674 125.589 163.545 125.106 163.545 124.534C163.545 124.042 163.64 123.636 163.83 123.318C164.019 123 164.275 122.748 164.597 122.562C164.919 122.377 165.278 122.237 165.676 122.142C166.074 122.047 166.479 121.975 166.892 121.926C167.415 121.866 167.839 121.816 168.165 121.778C168.491 121.737 168.727 121.67 168.875 121.58C169.023 121.489 169.097 121.341 169.097 121.136V121.097C169.097 120.6 168.956 120.216 168.676 119.943C168.4 119.67 167.987 119.534 167.438 119.534C166.866 119.534 166.415 119.661 166.085 119.915C165.759 120.165 165.534 120.443 165.409 120.75L163.812 120.386C164.002 119.856 164.278 119.428 164.642 119.102C165.009 118.773 165.432 118.534 165.909 118.386C166.386 118.235 166.888 118.159 167.415 118.159C167.763 118.159 168.133 118.201 168.523 118.284C168.917 118.364 169.284 118.511 169.625 118.727C169.97 118.943 170.252 119.252 170.472 119.653C170.691 120.051 170.801 120.568 170.801 121.205V127H169.142V125.807H169.074C168.964 126.027 168.799 126.242 168.58 126.455C168.36 126.667 168.078 126.843 167.733 126.983C167.388 127.123 166.975 127.193 166.494 127.193ZM166.864 125.83C167.333 125.83 167.735 125.737 168.068 125.551C168.405 125.366 168.661 125.123 168.835 124.824C169.013 124.521 169.102 124.197 169.102 123.852V122.727C169.042 122.788 168.924 122.845 168.75 122.898C168.58 122.947 168.384 122.991 168.165 123.028C167.945 123.062 167.731 123.095 167.523 123.125C167.314 123.152 167.14 123.174 167 123.193C166.67 123.235 166.369 123.305 166.097 123.403C165.828 123.502 165.612 123.644 165.449 123.83C165.29 124.011 165.21 124.254 165.21 124.557C165.21 124.977 165.366 125.295 165.676 125.511C165.987 125.723 166.383 125.83 166.864 125.83ZM174.763 121.818V127H173.064V118.273H174.695V119.693H174.803C175.003 119.231 175.318 118.86 175.746 118.58C176.178 118.299 176.721 118.159 177.376 118.159C177.971 118.159 178.492 118.284 178.939 118.534C179.386 118.78 179.732 119.148 179.979 119.636C180.225 120.125 180.348 120.729 180.348 121.449V127H178.649V121.653C178.649 121.021 178.484 120.527 178.155 120.17C177.825 119.811 177.373 119.631 176.797 119.631C176.403 119.631 176.053 119.716 175.746 119.886C175.443 120.057 175.202 120.307 175.024 120.636C174.85 120.962 174.763 121.356 174.763 121.818ZM185.893 127.17C185.189 127.17 184.56 126.991 184.007 126.631C183.458 126.267 183.026 125.75 182.712 125.08C182.401 124.405 182.246 123.597 182.246 122.653C182.246 121.71 182.403 120.903 182.717 120.233C183.036 119.562 183.471 119.049 184.024 118.693C184.577 118.337 185.204 118.159 185.905 118.159C186.446 118.159 186.882 118.25 187.212 118.432C187.545 118.61 187.803 118.818 187.984 119.057C188.17 119.295 188.314 119.506 188.416 119.688H188.518V115.364H190.217V127H188.558V125.642H188.416C188.314 125.828 188.166 126.04 187.973 126.278C187.784 126.517 187.522 126.725 187.189 126.903C186.856 127.081 186.424 127.17 185.893 127.17ZM186.268 125.722C186.757 125.722 187.17 125.593 187.507 125.335C187.848 125.074 188.106 124.712 188.28 124.25C188.458 123.788 188.547 123.25 188.547 122.636C188.547 122.03 188.46 121.5 188.286 121.045C188.111 120.591 187.856 120.237 187.518 119.983C187.181 119.729 186.765 119.602 186.268 119.602C185.757 119.602 185.331 119.735 184.99 120C184.649 120.265 184.392 120.627 184.217 121.085C184.047 121.544 183.962 122.061 183.962 122.636C183.962 123.22 184.049 123.744 184.223 124.21C184.397 124.676 184.655 125.045 184.996 125.318C185.34 125.587 185.765 125.722 186.268 125.722ZM202.405 123.381V118.273H204.109V127H202.439V125.489H202.348C202.147 125.955 201.825 126.343 201.382 126.653C200.943 126.96 200.395 127.114 199.74 127.114C199.179 127.114 198.683 126.991 198.251 126.744C197.823 126.494 197.486 126.125 197.24 125.636C196.998 125.148 196.876 124.544 196.876 123.824V118.273H198.575V123.619C198.575 124.214 198.74 124.687 199.07 125.04C199.399 125.392 199.827 125.568 200.354 125.568C200.672 125.568 200.988 125.489 201.303 125.33C201.621 125.17 201.884 124.93 202.092 124.608C202.304 124.286 202.409 123.877 202.405 123.381ZM208.091 121.818V127H206.392V118.273H208.023V119.693H208.131C208.331 119.231 208.646 118.86 209.074 118.58C209.506 118.299 210.049 118.159 210.705 118.159C211.299 118.159 211.82 118.284 212.267 118.534C212.714 118.78 213.061 119.148 213.307 119.636C213.553 120.125 213.676 120.729 213.676 121.449V127H211.977V121.653C211.977 121.021 211.813 120.527 211.483 120.17C211.153 119.811 210.701 119.631 210.125 119.631C209.731 119.631 209.381 119.716 209.074 119.886C208.771 120.057 208.53 120.307 208.352 120.636C208.178 120.962 208.091 121.356 208.091 121.818ZM217.653 115.364V127H215.955V115.364H217.653ZM223.615 127.176C222.797 127.176 222.083 126.989 221.473 126.614C220.863 126.239 220.39 125.714 220.053 125.04C219.715 124.366 219.547 123.578 219.547 122.676C219.547 121.771 219.715 120.979 220.053 120.301C220.39 119.623 220.863 119.097 221.473 118.722C222.083 118.347 222.797 118.159 223.615 118.159C224.433 118.159 225.147 118.347 225.757 118.722C226.367 119.097 226.84 119.623 227.178 120.301C227.515 120.979 227.683 121.771 227.683 122.676C227.683 123.578 227.515 124.366 227.178 125.04C226.84 125.714 226.367 126.239 225.757 126.614C225.147 126.989 224.433 127.176 223.615 127.176ZM223.621 125.75C224.151 125.75 224.59 125.61 224.939 125.33C225.287 125.049 225.545 124.676 225.712 124.21C225.882 123.744 225.967 123.231 225.967 122.67C225.967 122.114 225.882 121.602 225.712 121.136C225.545 120.667 225.287 120.29 224.939 120.006C224.59 119.722 224.151 119.58 223.621 119.58C223.087 119.58 222.643 119.722 222.291 120.006C221.943 120.29 221.683 120.667 221.513 121.136C221.346 121.602 221.263 122.114 221.263 122.67C221.263 123.231 221.346 123.744 221.513 124.21C221.683 124.676 221.943 125.049 222.291 125.33C222.643 125.61 223.087 125.75 223.621 125.75ZM233.256 127.176C232.411 127.176 231.684 126.985 231.074 126.602C230.468 126.216 230.002 125.684 229.676 125.006C229.35 124.328 229.188 123.551 229.188 122.676C229.188 121.79 229.354 121.008 229.688 120.33C230.021 119.648 230.491 119.116 231.097 118.733C231.703 118.35 232.417 118.159 233.239 118.159C233.902 118.159 234.492 118.282 235.011 118.528C235.53 118.771 235.949 119.112 236.267 119.551C236.589 119.991 236.78 120.504 236.841 121.091H235.188C235.097 120.682 234.888 120.33 234.562 120.034C234.241 119.739 233.809 119.591 233.267 119.591C232.794 119.591 232.379 119.716 232.023 119.966C231.67 120.212 231.396 120.564 231.199 121.023C231.002 121.477 230.903 122.015 230.903 122.636C230.903 123.273 231 123.822 231.193 124.284C231.386 124.746 231.659 125.104 232.011 125.358C232.367 125.612 232.786 125.739 233.267 125.739C233.589 125.739 233.881 125.68 234.142 125.562C234.407 125.441 234.629 125.269 234.807 125.045C234.989 124.822 235.116 124.553 235.188 124.239H236.841C236.78 124.803 236.597 125.307 236.29 125.75C235.983 126.193 235.572 126.542 235.057 126.795C234.545 127.049 233.945 127.176 233.256 127.176ZM240.22 124.04L240.209 121.966H240.504L243.982 118.273H246.016L242.05 122.477H241.783L240.22 124.04ZM238.658 127V115.364H240.357V127H238.658ZM244.169 127L241.044 122.852L242.214 121.665L246.254 127H244.169ZM251.798 127V118.273H253.497V127H251.798ZM252.656 116.926C252.361 116.926 252.107 116.828 251.895 116.631C251.687 116.43 251.582 116.191 251.582 115.915C251.582 115.634 251.687 115.396 251.895 115.199C252.107 114.998 252.361 114.898 252.656 114.898C252.952 114.898 253.204 114.998 253.412 115.199C253.624 115.396 253.73 115.634 253.73 115.915C253.73 116.191 253.624 116.43 253.412 116.631C253.204 116.828 252.952 116.926 252.656 116.926ZM257.482 121.818V127H255.783V118.273H257.413V119.693H257.521C257.722 119.231 258.036 118.86 258.464 118.58C258.896 118.299 259.44 118.159 260.095 118.159C260.69 118.159 261.211 118.284 261.658 118.534C262.105 118.78 262.451 119.148 262.697 119.636C262.944 120.125 263.067 120.729 263.067 121.449V127H261.368V121.653C261.368 121.021 261.203 120.527 260.874 120.17C260.544 119.811 260.091 119.631 259.516 119.631C259.122 119.631 258.771 119.716 258.464 119.886C258.161 120.057 257.921 120.307 257.743 120.636C257.569 120.962 257.482 121.356 257.482 121.818ZM269.499 118.273V119.636H264.567V118.273H269.499ZM265.919 127V117.261C265.919 116.716 266.038 116.263 266.277 115.903C266.516 115.54 266.832 115.269 267.226 115.091C267.62 114.909 268.048 114.818 268.51 114.818C268.851 114.818 269.143 114.847 269.385 114.903C269.627 114.956 269.807 115.006 269.925 115.051L269.527 116.426C269.447 116.403 269.345 116.377 269.22 116.347C269.095 116.312 268.944 116.295 268.766 116.295C268.353 116.295 268.057 116.398 267.879 116.602C267.705 116.807 267.618 117.102 267.618 117.489V127H265.919ZM271.251 127V118.273H272.95V127H271.251ZM272.109 116.926C271.814 116.926 271.56 116.828 271.348 116.631C271.14 116.43 271.036 116.191 271.036 115.915C271.036 115.634 271.14 115.396 271.348 115.199C271.56 114.998 271.814 114.898 272.109 114.898C272.405 114.898 272.657 114.998 272.865 115.199C273.077 115.396 273.183 115.634 273.183 115.915C273.183 116.191 273.077 116.43 272.865 116.631C272.657 116.828 272.405 116.926 272.109 116.926ZM276.935 121.818V127H275.236V118.273H276.866V119.693H276.974C277.175 119.231 277.49 118.86 277.918 118.58C278.349 118.299 278.893 118.159 279.548 118.159C280.143 118.159 280.664 118.284 281.111 118.534C281.558 118.78 281.904 119.148 282.151 119.636C282.397 120.125 282.52 120.729 282.52 121.449V127H280.821V121.653C280.821 121.021 280.656 120.527 280.327 120.17C279.997 119.811 279.545 119.631 278.969 119.631C278.575 119.631 278.224 119.716 277.918 119.886C277.615 120.057 277.374 120.307 277.196 120.636C277.022 120.962 276.935 121.356 276.935 121.818ZM284.798 127V118.273H286.497V127H284.798ZM285.656 116.926C285.361 116.926 285.107 116.828 284.895 116.631C284.687 116.43 284.582 116.191 284.582 115.915C284.582 115.634 284.687 115.396 284.895 115.199C285.107 114.998 285.361 114.898 285.656 114.898C285.952 114.898 286.204 114.998 286.412 115.199C286.624 115.396 286.73 115.634 286.73 115.915C286.73 116.191 286.624 116.43 286.412 116.631C286.204 116.828 285.952 116.926 285.656 116.926ZM292.857 118.273V119.636H288.089V118.273H292.857ZM289.368 116.182H291.067V124.438C291.067 124.767 291.116 125.015 291.214 125.182C291.313 125.345 291.44 125.456 291.595 125.517C291.754 125.574 291.927 125.602 292.112 125.602C292.249 125.602 292.368 125.593 292.47 125.574C292.572 125.555 292.652 125.54 292.709 125.528L293.016 126.932C292.917 126.97 292.777 127.008 292.595 127.045C292.413 127.087 292.186 127.11 291.913 127.114C291.466 127.121 291.05 127.042 290.663 126.875C290.277 126.708 289.964 126.451 289.726 126.102C289.487 125.754 289.368 125.316 289.368 124.79V116.182ZM298.403 127.176C297.544 127.176 296.803 126.992 296.182 126.625C295.564 126.254 295.087 125.733 294.75 125.062C294.417 124.388 294.25 123.598 294.25 122.693C294.25 121.799 294.417 121.011 294.75 120.33C295.087 119.648 295.557 119.116 296.159 118.733C296.765 118.35 297.473 118.159 298.284 118.159C298.777 118.159 299.254 118.241 299.716 118.403C300.178 118.566 300.593 118.822 300.96 119.17C301.328 119.519 301.617 119.972 301.83 120.528C302.042 121.081 302.148 121.754 302.148 122.545V123.148H295.21V121.875H300.483C300.483 121.428 300.392 121.032 300.21 120.688C300.028 120.339 299.773 120.064 299.443 119.864C299.117 119.663 298.735 119.562 298.295 119.562C297.818 119.562 297.402 119.68 297.045 119.915C296.693 120.146 296.42 120.449 296.227 120.824C296.038 121.195 295.943 121.598 295.943 122.034V123.028C295.943 123.612 296.045 124.108 296.25 124.517C296.458 124.926 296.748 125.239 297.119 125.455C297.491 125.667 297.924 125.773 298.42 125.773C298.742 125.773 299.036 125.727 299.301 125.636C299.566 125.542 299.795 125.402 299.989 125.216C300.182 125.03 300.33 124.801 300.432 124.528L302.04 124.818C301.911 125.292 301.68 125.706 301.347 126.062C301.017 126.415 300.602 126.689 300.102 126.886C299.606 127.08 299.04 127.176 298.403 127.176ZM5.14205 151V142.273H6.77273V143.693H6.88068C7.0625 143.212 7.35985 142.837 7.77273 142.568C8.18561 142.295 8.67992 142.159 9.25568 142.159C9.83902 142.159 10.3277 142.295 10.7216 142.568C11.1193 142.841 11.4129 143.216 11.6023 143.693H11.6932C11.9015 143.227 12.233 142.856 12.6875 142.58C13.142 142.299 13.6837 142.159 14.3125 142.159C15.1042 142.159 15.75 142.407 16.25 142.903C16.7538 143.4 17.0057 144.148 17.0057 145.148V151H15.3068V145.307C15.3068 144.716 15.1458 144.288 14.8239 144.023C14.5019 143.758 14.1174 143.625 13.6705 143.625C13.1174 143.625 12.6875 143.795 12.3807 144.136C12.0739 144.473 11.9205 144.907 11.9205 145.438V151H10.2273V145.199C10.2273 144.725 10.0795 144.345 9.78409 144.057C9.48864 143.769 9.10417 143.625 8.63068 143.625C8.30871 143.625 8.01136 143.71 7.73864 143.881C7.4697 144.047 7.25189 144.28 7.08523 144.58C6.92235 144.879 6.84091 145.225 6.84091 145.619V151H5.14205ZM22.9588 151.176C22.1406 151.176 21.4266 150.989 20.8168 150.614C20.2069 150.239 19.7334 149.714 19.3963 149.04C19.0592 148.366 18.8906 147.578 18.8906 146.676C18.8906 145.771 19.0592 144.979 19.3963 144.301C19.7334 143.623 20.2069 143.097 20.8168 142.722C21.4266 142.347 22.1406 142.159 22.9588 142.159C23.777 142.159 24.491 142.347 25.1009 142.722C25.7107 143.097 26.1842 143.623 26.5213 144.301C26.8584 144.979 27.027 145.771 27.027 146.676C27.027 147.578 26.8584 148.366 26.5213 149.04C26.1842 149.714 25.7107 150.239 25.1009 150.614C24.491 150.989 23.777 151.176 22.9588 151.176ZM22.9645 149.75C23.4948 149.75 23.9342 149.61 24.2827 149.33C24.6312 149.049 24.8887 148.676 25.0554 148.21C25.2259 147.744 25.3111 147.231 25.3111 146.67C25.3111 146.114 25.2259 145.602 25.0554 145.136C24.8887 144.667 24.6312 144.29 24.2827 144.006C23.9342 143.722 23.4948 143.58 22.9645 143.58C22.4304 143.58 21.9872 143.722 21.6349 144.006C21.2865 144.29 21.027 144.667 20.8565 145.136C20.6899 145.602 20.6065 146.114 20.6065 146.67C20.6065 147.231 20.6899 147.744 20.8565 148.21C21.027 148.676 21.2865 149.049 21.6349 149.33C21.9872 149.61 22.4304 149.75 22.9645 149.75ZM32.9972 142.273V143.636H28.2301V142.273H32.9972ZM29.5085 140.182H31.2074V148.438C31.2074 148.767 31.2566 149.015 31.3551 149.182C31.4536 149.345 31.5805 149.456 31.7358 149.517C31.8949 149.574 32.0672 149.602 32.2528 149.602C32.3892 149.602 32.5085 149.593 32.6108 149.574C32.7131 149.555 32.7926 149.54 32.8494 149.528L33.1562 150.932C33.0578 150.97 32.9176 151.008 32.7358 151.045C32.554 151.087 32.3267 151.11 32.054 151.114C31.607 151.121 31.1903 151.042 30.804 150.875C30.4176 150.708 30.1051 150.451 29.8665 150.102C29.6278 149.754 29.5085 149.316 29.5085 148.79V140.182ZM34.8764 151V142.273H36.5753V151H34.8764ZM35.7344 140.926C35.4389 140.926 35.1851 140.828 34.973 140.631C34.7647 140.43 34.6605 140.191 34.6605 139.915C34.6605 139.634 34.7647 139.396 34.973 139.199C35.1851 138.998 35.4389 138.898 35.7344 138.898C36.0298 138.898 36.2817 138.998 36.4901 139.199C36.7022 139.396 36.8082 139.634 36.8082 139.915C36.8082 140.191 36.7022 140.43 36.4901 140.631C36.2817 140.828 36.0298 140.926 35.7344 140.926ZM42.5369 151.176C41.7188 151.176 41.0047 150.989 40.3949 150.614C39.785 150.239 39.3116 149.714 38.9744 149.04C38.6373 148.366 38.4688 147.578 38.4688 146.676C38.4688 145.771 38.6373 144.979 38.9744 144.301C39.3116 143.623 39.785 143.097 40.3949 142.722C41.0047 142.347 41.7188 142.159 42.5369 142.159C43.3551 142.159 44.0691 142.347 44.679 142.722C45.2888 143.097 45.7623 143.623 46.0994 144.301C46.4366 144.979 46.6051 145.771 46.6051 146.676C46.6051 147.578 46.4366 148.366 46.0994 149.04C45.7623 149.714 45.2888 150.239 44.679 150.614C44.0691 150.989 43.3551 151.176 42.5369 151.176ZM42.5426 149.75C43.0729 149.75 43.5123 149.61 43.8608 149.33C44.2093 149.049 44.4669 148.676 44.6335 148.21C44.804 147.744 44.8892 147.231 44.8892 146.67C44.8892 146.114 44.804 145.602 44.6335 145.136C44.4669 144.667 44.2093 144.29 43.8608 144.006C43.5123 143.722 43.0729 143.58 42.5426 143.58C42.0085 143.58 41.5653 143.722 41.2131 144.006C40.8646 144.29 40.6051 144.667 40.4347 145.136C40.268 145.602 40.1847 146.114 40.1847 146.67C40.1847 147.231 40.268 147.744 40.4347 148.21C40.6051 148.676 40.8646 149.049 41.2131 149.33C41.5653 149.61 42.0085 149.75 42.5426 149.75ZM50.2003 145.818V151H48.5014V142.273H50.1321V143.693H50.2401C50.4408 143.231 50.7552 142.86 51.1832 142.58C51.6151 142.299 52.1586 142.159 52.8139 142.159C53.4086 142.159 53.9295 142.284 54.3764 142.534C54.8234 142.78 55.17 143.148 55.4162 143.636C55.6624 144.125 55.7855 144.729 55.7855 145.449V151H54.0866V145.653C54.0866 145.021 53.9219 144.527 53.5923 144.17C53.2628 143.811 52.8101 143.631 52.2344 143.631C51.8404 143.631 51.4901 143.716 51.1832 143.886C50.8802 144.057 50.6397 144.307 50.4616 144.636C50.2874 144.962 50.2003 145.356 50.2003 145.818ZM62.2983 151V142.273H63.9972V151H62.2983ZM63.1562 140.926C62.8608 140.926 62.607 140.828 62.3949 140.631C62.1866 140.43 62.0824 140.191 62.0824 139.915C62.0824 139.634 62.1866 139.396 62.3949 139.199C62.607 138.998 62.8608 138.898 63.1562 138.898C63.4517 138.898 63.7036 138.998 63.9119 139.199C64.1241 139.396 64.2301 139.634 64.2301 139.915C64.2301 140.191 64.1241 140.43 63.9119 140.631C63.7036 140.828 63.4517 140.926 63.1562 140.926ZM67.9815 145.818V151H66.2827V142.273H67.9134V143.693H68.0213C68.2221 143.231 68.5365 142.86 68.9645 142.58C69.3963 142.299 69.9399 142.159 70.5952 142.159C71.1899 142.159 71.7107 142.284 72.1577 142.534C72.6046 142.78 72.9512 143.148 73.1974 143.636C73.4437 144.125 73.5668 144.729 73.5668 145.449V151H71.8679V145.653C71.8679 145.021 71.7031 144.527 71.3736 144.17C71.044 143.811 70.5914 143.631 70.0156 143.631C69.6217 143.631 69.2713 143.716 68.9645 143.886C68.6615 144.057 68.4209 144.307 68.2429 144.636C68.0687 144.962 67.9815 145.356 67.9815 145.818ZM82.6193 151.193C82.0663 151.193 81.5663 151.091 81.1193 150.886C80.6723 150.678 80.3182 150.377 80.0568 149.983C79.7992 149.589 79.6705 149.106 79.6705 148.534C79.6705 148.042 79.7652 147.636 79.9545 147.318C80.1439 147 80.3996 146.748 80.7216 146.562C81.0436 146.377 81.4034 146.237 81.8011 146.142C82.1989 146.047 82.6042 145.975 83.017 145.926C83.5398 145.866 83.964 145.816 84.2898 145.778C84.6155 145.737 84.8523 145.67 85 145.58C85.1477 145.489 85.2216 145.341 85.2216 145.136V145.097C85.2216 144.6 85.0814 144.216 84.8011 143.943C84.5246 143.67 84.1117 143.534 83.5625 143.534C82.9905 143.534 82.5398 143.661 82.2102 143.915C81.8845 144.165 81.6591 144.443 81.5341 144.75L79.9375 144.386C80.1269 143.856 80.4034 143.428 80.767 143.102C81.1345 142.773 81.5568 142.534 82.0341 142.386C82.5114 142.235 83.0133 142.159 83.5398 142.159C83.8883 142.159 84.2576 142.201 84.6477 142.284C85.0417 142.364 85.4091 142.511 85.75 142.727C86.0947 142.943 86.3769 143.252 86.5966 143.653C86.8163 144.051 86.9261 144.568 86.9261 145.205V151H85.267V149.807H85.1989C85.089 150.027 84.9242 150.242 84.7045 150.455C84.4848 150.667 84.2027 150.843 83.858 150.983C83.5133 151.123 83.1004 151.193 82.6193 151.193ZM82.9886 149.83C83.4583 149.83 83.8598 149.737 84.1932 149.551C84.5303 149.366 84.786 149.123 84.9602 148.824C85.1383 148.521 85.2273 148.197 85.2273 147.852V146.727C85.1667 146.788 85.0492 146.845 84.875 146.898C84.7045 146.947 84.5095 146.991 84.2898 147.028C84.0701 147.062 83.8561 147.095 83.6477 147.125C83.4394 147.152 83.2652 147.174 83.125 147.193C82.7955 147.235 82.4943 147.305 82.2216 147.403C81.9527 147.502 81.7367 147.644 81.5739 147.83C81.4148 148.011 81.3352 148.254 81.3352 148.557C81.3352 148.977 81.4905 149.295 81.8011 149.511C82.1117 149.723 82.5076 149.83 82.9886 149.83ZM90.8878 145.818V151H89.1889V142.273H90.8196V143.693H90.9276C91.1283 143.231 91.4427 142.86 91.8707 142.58C92.3026 142.299 92.8461 142.159 93.5014 142.159C94.0961 142.159 94.617 142.284 95.0639 142.534C95.5109 142.78 95.8575 143.148 96.1037 143.636C96.3499 144.125 96.473 144.729 96.473 145.449V151H94.7741V145.653C94.7741 145.021 94.6094 144.527 94.2798 144.17C93.9503 143.811 93.4976 143.631 92.9219 143.631C92.5279 143.631 92.1776 143.716 91.8707 143.886C91.5677 144.057 91.3272 144.307 91.1491 144.636C90.9749 144.962 90.8878 145.356 90.8878 145.818ZM99.5128 154.273C99.259 154.273 99.0279 154.252 98.8196 154.21C98.6113 154.172 98.456 154.131 98.3537 154.085L98.7628 152.693C99.0734 152.777 99.3499 152.813 99.5923 152.801C99.8348 152.79 100.049 152.699 100.234 152.528C100.424 152.358 100.59 152.08 100.734 151.693L100.945 151.114L97.7514 142.273H99.5696L101.78 149.045H101.871L104.081 142.273H105.905L102.308 152.165C102.142 152.619 101.929 153.004 101.672 153.318C101.414 153.636 101.107 153.875 100.751 154.034C100.395 154.193 99.9825 154.273 99.5128 154.273ZM115.395 154.455C114.702 154.455 114.105 154.364 113.605 154.182C113.109 154 112.704 153.759 112.389 153.46C112.075 153.161 111.84 152.833 111.685 152.477L113.145 151.875C113.247 152.042 113.384 152.218 113.554 152.403C113.728 152.593 113.963 152.754 114.259 152.886C114.558 153.019 114.942 153.085 115.412 153.085C116.056 153.085 116.588 152.928 117.009 152.614C117.429 152.303 117.639 151.807 117.639 151.125V149.409H117.531C117.429 149.595 117.281 149.801 117.088 150.028C116.899 150.256 116.637 150.453 116.304 150.619C115.971 150.786 115.537 150.869 115.003 150.869C114.313 150.869 113.692 150.708 113.139 150.386C112.59 150.061 112.154 149.581 111.832 148.949C111.514 148.312 111.355 147.53 111.355 146.602C111.355 145.674 111.512 144.879 111.827 144.216C112.145 143.553 112.58 143.045 113.134 142.693C113.687 142.337 114.313 142.159 115.014 142.159C115.556 142.159 115.993 142.25 116.327 142.432C116.66 142.61 116.92 142.818 117.105 143.057C117.295 143.295 117.44 143.506 117.543 143.688H117.668V142.273H119.332V151.193C119.332 151.943 119.158 152.559 118.81 153.04C118.461 153.521 117.99 153.877 117.395 154.108C116.804 154.339 116.137 154.455 115.395 154.455ZM115.378 149.46C115.866 149.46 116.279 149.347 116.616 149.119C116.957 148.888 117.215 148.559 117.389 148.131C117.567 147.699 117.656 147.182 117.656 146.58C117.656 145.992 117.569 145.475 117.395 145.028C117.221 144.581 116.965 144.233 116.628 143.983C116.291 143.729 115.874 143.602 115.378 143.602C114.866 143.602 114.44 143.735 114.099 144C113.759 144.261 113.501 144.617 113.327 145.068C113.156 145.519 113.071 146.023 113.071 146.58C113.071 147.152 113.158 147.653 113.332 148.085C113.507 148.517 113.764 148.854 114.105 149.097C114.45 149.339 114.874 149.46 115.378 149.46ZM124.151 151.193C123.598 151.193 123.098 151.091 122.651 150.886C122.204 150.678 121.849 150.377 121.588 149.983C121.33 149.589 121.202 149.106 121.202 148.534C121.202 148.042 121.296 147.636 121.486 147.318C121.675 147 121.931 146.748 122.253 146.562C122.575 146.377 122.935 146.237 123.332 146.142C123.73 146.047 124.135 145.975 124.548 145.926C125.071 145.866 125.495 145.816 125.821 145.778C126.147 145.737 126.384 145.67 126.531 145.58C126.679 145.489 126.753 145.341 126.753 145.136V145.097C126.753 144.6 126.613 144.216 126.332 143.943C126.056 143.67 125.643 143.534 125.094 143.534C124.522 143.534 124.071 143.661 123.741 143.915C123.416 144.165 123.19 144.443 123.065 144.75L121.469 144.386C121.658 143.856 121.935 143.428 122.298 143.102C122.666 142.773 123.088 142.534 123.565 142.386C124.043 142.235 124.545 142.159 125.071 142.159C125.42 142.159 125.789 142.201 126.179 142.284C126.573 142.364 126.94 142.511 127.281 142.727C127.626 142.943 127.908 143.252 128.128 143.653C128.348 144.051 128.457 144.568 128.457 145.205V151H126.798V149.807H126.73C126.62 150.027 126.455 150.242 126.236 150.455C126.016 150.667 125.734 150.843 125.389 150.983C125.045 151.123 124.632 151.193 124.151 151.193ZM124.52 149.83C124.99 149.83 125.391 149.737 125.724 149.551C126.062 149.366 126.317 149.123 126.491 148.824C126.67 148.521 126.759 148.197 126.759 147.852V146.727C126.698 146.788 126.58 146.845 126.406 146.898C126.236 146.947 126.041 146.991 125.821 147.028C125.601 147.062 125.387 147.095 125.179 147.125C124.971 147.152 124.796 147.174 124.656 147.193C124.327 147.235 124.026 147.305 123.753 147.403C123.484 147.502 123.268 147.644 123.105 147.83C122.946 148.011 122.866 148.254 122.866 148.557C122.866 148.977 123.022 149.295 123.332 149.511C123.643 149.723 124.039 149.83 124.52 149.83ZM130.72 151V142.273H132.351V143.693H132.459C132.641 143.212 132.938 142.837 133.351 142.568C133.764 142.295 134.258 142.159 134.834 142.159C135.417 142.159 135.906 142.295 136.3 142.568C136.697 142.841 136.991 143.216 137.18 143.693H137.271C137.48 143.227 137.811 142.856 138.266 142.58C138.72 142.299 139.262 142.159 139.891 142.159C140.682 142.159 141.328 142.407 141.828 142.903C142.332 143.4 142.584 144.148 142.584 145.148V151H140.885V145.307C140.885 144.716 140.724 144.288 140.402 144.023C140.08 143.758 139.696 143.625 139.249 143.625C138.696 143.625 138.266 143.795 137.959 144.136C137.652 144.473 137.499 144.907 137.499 145.438V151H135.805V145.199C135.805 144.725 135.658 144.345 135.362 144.057C135.067 143.769 134.682 143.625 134.209 143.625C133.887 143.625 133.589 143.71 133.317 143.881C133.048 144.047 132.83 144.28 132.663 144.58C132.5 144.879 132.419 145.225 132.419 145.619V151H130.72ZM148.622 151.176C147.762 151.176 147.022 150.992 146.401 150.625C145.783 150.254 145.306 149.733 144.969 149.062C144.635 148.388 144.469 147.598 144.469 146.693C144.469 145.799 144.635 145.011 144.969 144.33C145.306 143.648 145.776 143.116 146.378 142.733C146.984 142.35 147.692 142.159 148.503 142.159C148.995 142.159 149.473 142.241 149.935 142.403C150.397 142.566 150.812 142.822 151.179 143.17C151.546 143.519 151.836 143.972 152.048 144.528C152.26 145.081 152.366 145.754 152.366 146.545V147.148H145.429V145.875H150.702C150.702 145.428 150.611 145.032 150.429 144.688C150.247 144.339 149.991 144.064 149.662 143.864C149.336 143.663 148.954 143.562 148.514 143.562C148.037 143.562 147.62 143.68 147.264 143.915C146.912 144.146 146.639 144.449 146.446 144.824C146.257 145.195 146.162 145.598 146.162 146.034V147.028C146.162 147.612 146.264 148.108 146.469 148.517C146.677 148.926 146.967 149.239 147.338 149.455C147.709 149.667 148.143 149.773 148.639 149.773C148.961 149.773 149.255 149.727 149.52 149.636C149.785 149.542 150.014 149.402 150.207 149.216C150.401 149.03 150.548 148.801 150.651 148.528L152.259 148.818C152.13 149.292 151.899 149.706 151.565 150.062C151.236 150.415 150.821 150.689 150.321 150.886C149.825 151.08 149.259 151.176 148.622 151.176ZM160.791 144.403L159.251 144.676C159.187 144.479 159.085 144.292 158.945 144.114C158.808 143.936 158.623 143.79 158.388 143.676C158.153 143.562 157.859 143.506 157.507 143.506C157.026 143.506 156.625 143.614 156.303 143.83C155.981 144.042 155.82 144.316 155.82 144.653C155.82 144.945 155.928 145.18 156.143 145.358C156.359 145.536 156.708 145.682 157.189 145.795L158.575 146.114C159.378 146.299 159.977 146.585 160.371 146.972C160.765 147.358 160.962 147.86 160.962 148.477C160.962 149 160.81 149.466 160.507 149.875C160.208 150.28 159.789 150.598 159.251 150.83C158.717 151.061 158.098 151.176 157.393 151.176C156.416 151.176 155.619 150.968 155.001 150.551C154.384 150.131 154.005 149.534 153.865 148.761L155.507 148.511C155.609 148.939 155.82 149.263 156.138 149.483C156.456 149.699 156.871 149.807 157.382 149.807C157.939 149.807 158.384 149.691 158.717 149.46C159.051 149.225 159.217 148.939 159.217 148.602C159.217 148.33 159.115 148.1 158.911 147.915C158.71 147.729 158.401 147.589 157.984 147.494L156.507 147.17C155.693 146.985 155.09 146.689 154.7 146.284C154.314 145.879 154.121 145.366 154.121 144.744C154.121 144.229 154.265 143.778 154.553 143.392C154.84 143.006 155.238 142.705 155.746 142.489C156.253 142.269 156.835 142.159 157.49 142.159C158.433 142.159 159.176 142.364 159.717 142.773C160.259 143.178 160.617 143.722 160.791 144.403ZM170.74 151.176C169.922 151.176 169.208 150.989 168.598 150.614C167.988 150.239 167.515 149.714 167.178 149.04C166.84 148.366 166.672 147.578 166.672 146.676C166.672 145.771 166.84 144.979 167.178 144.301C167.515 143.623 167.988 143.097 168.598 142.722C169.208 142.347 169.922 142.159 170.74 142.159C171.558 142.159 172.272 142.347 172.882 142.722C173.492 143.097 173.965 143.623 174.303 144.301C174.64 144.979 174.808 145.771 174.808 146.676C174.808 147.578 174.64 148.366 174.303 149.04C173.965 149.714 173.492 150.239 172.882 150.614C172.272 150.989 171.558 151.176 170.74 151.176ZM170.746 149.75C171.276 149.75 171.715 149.61 172.064 149.33C172.412 149.049 172.67 148.676 172.837 148.21C173.007 147.744 173.092 147.231 173.092 146.67C173.092 146.114 173.007 145.602 172.837 145.136C172.67 144.667 172.412 144.29 172.064 144.006C171.715 143.722 171.276 143.58 170.746 143.58C170.212 143.58 169.768 143.722 169.416 144.006C169.068 144.29 168.808 144.667 168.638 145.136C168.471 145.602 168.388 146.114 168.388 146.67C168.388 147.231 168.471 147.744 168.638 148.21C168.808 148.676 169.068 149.049 169.416 149.33C169.768 149.61 170.212 149.75 170.746 149.75ZM178.403 145.818V151H176.705V142.273H178.335V143.693H178.443C178.644 143.231 178.958 142.86 179.386 142.58C179.818 142.299 180.362 142.159 181.017 142.159C181.612 142.159 182.133 142.284 182.58 142.534C183.027 142.78 183.373 143.148 183.619 143.636C183.866 144.125 183.989 144.729 183.989 145.449V151H182.29V145.653C182.29 145.021 182.125 144.527 181.795 144.17C181.466 143.811 181.013 143.631 180.438 143.631C180.044 143.631 179.693 143.716 179.386 143.886C179.083 144.057 178.843 144.307 178.665 144.636C178.491 144.962 178.403 145.356 178.403 145.818ZM193.041 151.193C192.488 151.193 191.988 151.091 191.541 150.886C191.094 150.678 190.74 150.377 190.479 149.983C190.221 149.589 190.092 149.106 190.092 148.534C190.092 148.042 190.187 147.636 190.376 147.318C190.566 147 190.821 146.748 191.143 146.562C191.465 146.377 191.825 146.237 192.223 146.142C192.621 146.047 193.026 145.975 193.439 145.926C193.962 145.866 194.386 145.816 194.712 145.778C195.037 145.737 195.274 145.67 195.422 145.58C195.57 145.489 195.643 145.341 195.643 145.136V145.097C195.643 144.6 195.503 144.216 195.223 143.943C194.946 143.67 194.534 143.534 193.984 143.534C193.412 143.534 192.962 143.661 192.632 143.915C192.306 144.165 192.081 144.443 191.956 144.75L190.359 144.386C190.549 143.856 190.825 143.428 191.189 143.102C191.556 142.773 191.979 142.534 192.456 142.386C192.933 142.235 193.435 142.159 193.962 142.159C194.31 142.159 194.679 142.201 195.07 142.284C195.464 142.364 195.831 142.511 196.172 142.727C196.517 142.943 196.799 143.252 197.018 143.653C197.238 144.051 197.348 144.568 197.348 145.205V151H195.689V149.807H195.621C195.511 150.027 195.346 150.242 195.126 150.455C194.907 150.667 194.625 150.843 194.28 150.983C193.935 151.123 193.522 151.193 193.041 151.193ZM193.411 149.83C193.88 149.83 194.282 149.737 194.615 149.551C194.952 149.366 195.208 149.123 195.382 148.824C195.56 148.521 195.649 148.197 195.649 147.852V146.727C195.589 146.788 195.471 146.845 195.297 146.898C195.126 146.947 194.931 146.991 194.712 147.028C194.492 147.062 194.278 147.095 194.07 147.125C193.861 147.152 193.687 147.174 193.547 147.193C193.217 147.235 192.916 147.305 192.643 147.403C192.375 147.502 192.159 147.644 191.996 147.83C191.837 148.011 191.757 148.254 191.757 148.557C191.757 148.977 191.912 149.295 192.223 149.511C192.534 149.723 192.929 149.83 193.411 149.83ZM201.31 145.818V151H199.611V142.273H201.241V143.693H201.349C201.55 143.231 201.865 142.86 202.293 142.58C202.724 142.299 203.268 142.159 203.923 142.159C204.518 142.159 205.039 142.284 205.486 142.534C205.933 142.78 206.279 143.148 206.526 143.636C206.772 144.125 206.895 144.729 206.895 145.449V151H205.196V145.653C205.196 145.021 205.031 144.527 204.702 144.17C204.372 143.811 203.92 143.631 203.344 143.631C202.95 143.631 202.599 143.716 202.293 143.886C201.99 144.057 201.749 144.307 201.571 144.636C201.397 144.962 201.31 145.356 201.31 145.818ZM209.935 154.273C209.681 154.273 209.45 154.252 209.241 154.21C209.033 154.172 208.878 154.131 208.776 154.085L209.185 152.693C209.495 152.777 209.772 152.813 210.014 152.801C210.257 152.79 210.471 152.699 210.656 152.528C210.846 152.358 211.012 152.08 211.156 151.693L211.366 151.114L208.173 142.273H209.991L212.202 149.045H212.293L214.503 142.273H216.327L212.73 152.165C212.563 152.619 212.351 153.004 212.094 153.318C211.836 153.636 211.529 153.875 211.173 154.034C210.817 154.193 210.404 154.273 209.935 154.273ZM222.158 154.273V142.273H223.817V143.688H223.959C224.057 143.506 224.199 143.295 224.385 143.057C224.571 142.818 224.828 142.61 225.158 142.432C225.487 142.25 225.923 142.159 226.464 142.159C227.169 142.159 227.798 142.337 228.351 142.693C228.904 143.049 229.338 143.562 229.652 144.233C229.97 144.903 230.129 145.71 230.129 146.653C230.129 147.597 229.972 148.405 229.658 149.08C229.343 149.75 228.911 150.267 228.362 150.631C227.813 150.991 227.186 151.17 226.482 151.17C225.951 151.17 225.518 151.081 225.18 150.903C224.847 150.725 224.586 150.517 224.396 150.278C224.207 150.04 224.061 149.828 223.959 149.642H223.857V154.273H222.158ZM223.822 146.636C223.822 147.25 223.911 147.788 224.089 148.25C224.268 148.712 224.525 149.074 224.862 149.335C225.199 149.593 225.612 149.722 226.101 149.722C226.608 149.722 227.033 149.587 227.374 149.318C227.714 149.045 227.972 148.676 228.146 148.21C228.324 147.744 228.413 147.22 228.413 146.636C228.413 146.061 228.326 145.544 228.152 145.085C227.982 144.627 227.724 144.265 227.379 144C227.038 143.735 226.612 143.602 226.101 143.602C225.608 143.602 225.192 143.729 224.851 143.983C224.514 144.237 224.258 144.591 224.084 145.045C223.91 145.5 223.822 146.03 223.822 146.636ZM233.732 139.364V151H232.033V139.364H233.732ZM238.557 151.193C238.004 151.193 237.504 151.091 237.057 150.886C236.61 150.678 236.256 150.377 235.994 149.983C235.737 149.589 235.608 149.106 235.608 148.534C235.608 148.042 235.703 147.636 235.892 147.318C236.081 147 236.337 146.748 236.659 146.562C236.981 146.377 237.341 146.237 237.739 146.142C238.136 146.047 238.542 145.975 238.955 145.926C239.477 145.866 239.902 145.816 240.227 145.778C240.553 145.737 240.79 145.67 240.938 145.58C241.085 145.489 241.159 145.341 241.159 145.136V145.097C241.159 144.6 241.019 144.216 240.739 143.943C240.462 143.67 240.049 143.534 239.5 143.534C238.928 143.534 238.477 143.661 238.148 143.915C237.822 144.165 237.597 144.443 237.472 144.75L235.875 144.386C236.064 143.856 236.341 143.428 236.705 143.102C237.072 142.773 237.494 142.534 237.972 142.386C238.449 142.235 238.951 142.159 239.477 142.159C239.826 142.159 240.195 142.201 240.585 142.284C240.979 142.364 241.347 142.511 241.688 142.727C242.032 142.943 242.314 143.252 242.534 143.653C242.754 144.051 242.864 144.568 242.864 145.205V151H241.205V149.807H241.136C241.027 150.027 240.862 150.242 240.642 150.455C240.422 150.667 240.14 150.843 239.795 150.983C239.451 151.123 239.038 151.193 238.557 151.193ZM238.926 149.83C239.396 149.83 239.797 149.737 240.131 149.551C240.468 149.366 240.723 149.123 240.898 148.824C241.076 148.521 241.165 148.197 241.165 147.852V146.727C241.104 146.788 240.987 146.845 240.812 146.898C240.642 146.947 240.447 146.991 240.227 147.028C240.008 147.062 239.794 147.095 239.585 147.125C239.377 147.152 239.203 147.174 239.062 147.193C238.733 147.235 238.432 147.305 238.159 147.403C237.89 147.502 237.674 147.644 237.511 147.83C237.352 148.011 237.273 148.254 237.273 148.557C237.273 148.977 237.428 149.295 237.739 149.511C238.049 149.723 238.445 149.83 238.926 149.83ZM249.2 142.273V143.636H244.433V142.273H249.2ZM245.712 140.182H247.411V148.438C247.411 148.767 247.46 149.015 247.558 149.182C247.657 149.345 247.784 149.456 247.939 149.517C248.098 149.574 248.27 149.602 248.456 149.602C248.592 149.602 248.712 149.593 248.814 149.574C248.916 149.555 248.996 149.54 249.053 149.528L249.359 150.932C249.261 150.97 249.121 151.008 248.939 151.045C248.757 151.087 248.53 151.11 248.257 151.114C247.81 151.121 247.393 151.042 247.007 150.875C246.621 150.708 246.308 150.451 246.07 150.102C245.831 149.754 245.712 149.316 245.712 148.79V140.182ZM255.233 142.273V143.636H250.301V142.273H255.233ZM251.653 151V141.261C251.653 140.716 251.773 140.263 252.011 139.903C252.25 139.54 252.566 139.269 252.96 139.091C253.354 138.909 253.782 138.818 254.244 138.818C254.585 138.818 254.877 138.847 255.119 138.903C255.362 138.956 255.542 139.006 255.659 139.051L255.261 140.426C255.182 140.403 255.08 140.377 254.955 140.347C254.83 140.312 254.678 140.295 254.5 140.295C254.087 140.295 253.792 140.398 253.614 140.602C253.439 140.807 253.352 141.102 253.352 141.489V151H251.653ZM260.318 151.176C259.5 151.176 258.786 150.989 258.176 150.614C257.566 150.239 257.093 149.714 256.756 149.04C256.419 148.366 256.25 147.578 256.25 146.676C256.25 145.771 256.419 144.979 256.756 144.301C257.093 143.623 257.566 143.097 258.176 142.722C258.786 142.347 259.5 142.159 260.318 142.159C261.136 142.159 261.85 142.347 262.46 142.722C263.07 143.097 263.544 143.623 263.881 144.301C264.218 144.979 264.386 145.771 264.386 146.676C264.386 147.578 264.218 148.366 263.881 149.04C263.544 149.714 263.07 150.239 262.46 150.614C261.85 150.989 261.136 151.176 260.318 151.176ZM260.324 149.75C260.854 149.75 261.294 149.61 261.642 149.33C261.991 149.049 262.248 148.676 262.415 148.21C262.585 147.744 262.67 147.231 262.67 146.67C262.67 146.114 262.585 145.602 262.415 145.136C262.248 144.667 261.991 144.29 261.642 144.006C261.294 143.722 260.854 143.58 260.324 143.58C259.79 143.58 259.347 143.722 258.994 144.006C258.646 144.29 258.386 144.667 258.216 145.136C258.049 145.602 257.966 146.114 257.966 146.67C257.966 147.231 258.049 147.744 258.216 148.21C258.386 148.676 258.646 149.049 258.994 149.33C259.347 149.61 259.79 149.75 260.324 149.75ZM266.283 151V142.273H267.925V143.659H268.016C268.175 143.189 268.455 142.82 268.857 142.551C269.262 142.278 269.72 142.142 270.232 142.142C270.338 142.142 270.463 142.146 270.607 142.153C270.754 142.161 270.87 142.17 270.953 142.182V143.807C270.885 143.788 270.764 143.767 270.589 143.744C270.415 143.718 270.241 143.705 270.067 143.705C269.665 143.705 269.307 143.79 268.993 143.96C268.682 144.127 268.436 144.36 268.254 144.659C268.072 144.955 267.982 145.292 267.982 145.67V151H266.283ZM272.423 151V142.273H274.054V143.693H274.162C274.344 143.212 274.641 142.837 275.054 142.568C275.467 142.295 275.961 142.159 276.537 142.159C277.12 142.159 277.609 142.295 278.003 142.568C278.401 142.841 278.694 143.216 278.884 143.693H278.974C279.183 143.227 279.514 142.856 279.969 142.58C280.423 142.299 280.965 142.159 281.594 142.159C282.385 142.159 283.031 142.407 283.531 142.903C284.035 143.4 284.287 144.148 284.287 145.148V151H282.588V145.307C282.588 144.716 282.427 144.288 282.105 144.023C281.783 143.758 281.399 143.625 280.952 143.625C280.399 143.625 279.969 143.795 279.662 144.136C279.355 144.473 279.202 144.907 279.202 145.438V151H277.509V145.199C277.509 144.725 277.361 144.345 277.065 144.057C276.77 143.769 276.385 143.625 275.912 143.625C275.59 143.625 275.293 143.71 275.02 143.881C274.751 144.047 274.533 144.28 274.366 144.58C274.204 144.879 274.122 145.225 274.122 145.619V151H272.423ZM293.104 144.403L291.564 144.676C291.5 144.479 291.397 144.292 291.257 144.114C291.121 143.936 290.935 143.79 290.7 143.676C290.465 143.562 290.172 143.506 289.82 143.506C289.339 143.506 288.937 143.614 288.615 143.83C288.293 144.042 288.132 144.316 288.132 144.653C288.132 144.945 288.24 145.18 288.456 145.358C288.672 145.536 289.02 145.682 289.501 145.795L290.888 146.114C291.691 146.299 292.289 146.585 292.683 146.972C293.077 147.358 293.274 147.86 293.274 148.477C293.274 149 293.123 149.466 292.82 149.875C292.52 150.28 292.102 150.598 291.564 150.83C291.03 151.061 290.411 151.176 289.706 151.176C288.729 151.176 287.931 150.968 287.314 150.551C286.696 150.131 286.318 149.534 286.178 148.761L287.82 148.511C287.922 148.939 288.132 149.263 288.45 149.483C288.768 149.699 289.183 149.807 289.695 149.807C290.251 149.807 290.696 149.691 291.03 149.46C291.363 149.225 291.53 148.939 291.53 148.602C291.53 148.33 291.428 148.1 291.223 147.915C291.022 147.729 290.714 147.589 290.297 147.494L288.82 147.17C288.005 146.985 287.403 146.689 287.013 146.284C286.626 145.879 286.433 145.366 286.433 144.744C286.433 144.229 286.577 143.778 286.865 143.392C287.153 143.006 287.551 142.705 288.058 142.489C288.566 142.269 289.147 142.159 289.803 142.159C290.746 142.159 291.488 142.364 292.03 142.773C292.571 143.178 292.929 143.722 293.104 144.403ZM297.284 139.364L297.136 147.653H295.562L295.415 139.364H297.284ZM296.352 151.108C296.038 151.108 295.769 150.998 295.545 150.778C295.322 150.555 295.212 150.286 295.216 149.972C295.212 149.661 295.322 149.396 295.545 149.176C295.769 148.953 296.038 148.841 296.352 148.841C296.659 148.841 296.924 148.953 297.148 149.176C297.371 149.396 297.485 149.661 297.489 149.972C297.485 150.18 297.43 150.371 297.324 150.545C297.222 150.716 297.085 150.852 296.915 150.955C296.744 151.057 296.557 151.108 296.352 151.108Z" fill="#929292"/>
<path d="M6.22585 177.909V191H4.24432V179.891H4.16761L1.03551 181.936V180.044L4.30185 177.909H6.22585ZM9.76705 191V189.568L14.1967 184.979C14.6697 184.48 15.0597 184.043 15.3665 183.668C15.6776 183.289 15.9098 182.929 16.0632 182.588C16.2166 182.247 16.2933 181.885 16.2933 181.501C16.2933 181.067 16.1911 180.692 15.9865 180.376C15.782 180.057 15.5028 179.812 15.1491 179.641C14.7955 179.467 14.397 179.379 13.9538 179.379C13.4851 179.379 13.076 179.475 12.7266 179.667C12.3771 179.859 12.1087 180.129 11.9212 180.479C11.7337 180.828 11.6399 181.237 11.6399 181.706H9.75426C9.75426 180.909 9.9375 180.212 10.304 179.616C10.6705 179.019 11.1733 178.557 11.8125 178.229C12.4517 177.896 13.1783 177.73 13.9922 177.73C14.8146 177.73 15.5391 177.894 16.1655 178.222C16.7962 178.546 17.2884 178.989 17.642 179.552C17.9957 180.11 18.1726 180.741 18.1726 181.444C18.1726 181.93 18.081 182.405 17.8977 182.869C17.7188 183.334 17.4055 183.852 16.9581 184.423C16.5107 184.989 15.8885 185.678 15.0916 186.487L12.4901 189.21V189.306H18.3835V191H9.76705ZM25.3636 191.217C24.3537 191.213 23.4908 190.947 22.7749 190.418C22.0589 189.89 21.5114 189.121 21.1321 188.111C20.7528 187.101 20.5632 185.884 20.5632 184.461C20.5632 183.042 20.7528 181.83 21.1321 180.824C21.5156 179.818 22.0653 179.051 22.7812 178.523C23.5014 177.994 24.3622 177.73 25.3636 177.73C26.3651 177.73 27.2237 177.996 27.9396 178.529C28.6555 179.058 29.2031 179.825 29.5824 180.83C29.9659 181.832 30.1577 183.042 30.1577 184.461C30.1577 185.888 29.968 187.107 29.5888 188.117C29.2095 189.123 28.6619 189.892 27.946 190.425C27.2301 190.953 26.3693 191.217 25.3636 191.217ZM25.3636 189.511C26.25 189.511 26.9425 189.078 27.4411 188.213C27.9439 187.348 28.1953 186.097 28.1953 184.461C28.1953 183.374 28.0803 182.456 27.8501 181.706C27.6243 180.952 27.2983 180.381 26.8722 179.993C26.4503 179.601 25.9474 179.405 25.3636 179.405C24.4815 179.405 23.7891 179.839 23.2862 180.709C22.7834 181.578 22.5298 182.829 22.5256 184.461C22.5256 185.552 22.6385 186.474 22.8643 187.229C23.0945 187.979 23.4205 188.548 23.8423 188.935C24.2642 189.319 24.7713 189.511 25.3636 189.511ZM36.9828 191.217C35.9728 191.213 35.1099 190.947 34.394 190.418C33.6781 189.89 33.1305 189.121 32.7512 188.111C32.372 187.101 32.1824 185.884 32.1824 184.461C32.1824 183.042 32.372 181.83 32.7512 180.824C33.1348 179.818 33.6845 179.051 34.4004 178.523C35.1206 177.994 35.9814 177.73 36.9828 177.73C37.9842 177.73 38.8429 177.996 39.5588 178.529C40.2747 179.058 40.8223 179.825 41.2015 180.83C41.585 181.832 41.7768 183.042 41.7768 184.461C41.7768 185.888 41.5872 187.107 41.2079 188.117C40.8287 189.123 40.2811 189.892 39.5652 190.425C38.8493 190.953 37.9885 191.217 36.9828 191.217ZM36.9828 189.511C37.8691 189.511 38.5616 189.078 39.0602 188.213C39.563 187.348 39.8145 186.097 39.8145 184.461C39.8145 183.374 39.6994 182.456 39.4693 181.706C39.2434 180.952 38.9174 180.381 38.4913 179.993C38.0694 179.601 37.5666 179.405 36.9828 179.405C36.1007 179.405 35.4082 179.839 34.9054 180.709C34.4025 181.578 34.149 182.829 34.1447 184.461C34.1447 185.552 34.2576 186.474 34.4835 187.229C34.7136 187.979 35.0396 188.548 35.4615 188.935C35.8833 189.319 36.3904 189.511 36.9828 189.511ZM48.0842 192.636V176.273H49.1325V192.636H48.0842ZM51.3633 181.348C51.2951 180.743 51.0138 180.274 50.5195 179.942C50.0252 179.605 49.4031 179.437 48.6531 179.437C48.1161 179.437 47.6516 179.522 47.2596 179.692C46.8675 179.859 46.5629 180.089 46.3455 180.383C46.1325 180.673 46.0259 181.003 46.0259 181.374C46.0259 181.685 46.0984 181.953 46.2433 182.179C46.3924 182.405 46.5863 182.594 46.8249 182.748C47.0678 182.897 47.3278 183.023 47.6048 183.125C47.8817 183.223 48.1481 183.304 48.4038 183.368L49.6822 183.7C50.0998 183.803 50.5281 183.941 50.967 184.116C51.4059 184.29 51.8129 184.521 52.1879 184.806C52.5629 185.092 52.8654 185.445 53.0955 185.867C53.3299 186.289 53.4471 186.794 53.4471 187.382C53.4471 188.124 53.2553 188.782 52.8718 189.357C52.4925 189.933 51.9407 190.386 51.2163 190.719C50.4961 191.051 49.6246 191.217 48.6019 191.217C47.6218 191.217 46.7738 191.062 46.0579 190.751C45.342 190.44 44.7816 189.999 44.3768 189.428C43.9719 188.852 43.7482 188.17 43.7056 187.382H45.6871C45.7255 187.855 45.8789 188.249 46.1474 188.565C46.4201 188.876 46.7674 189.108 47.1893 189.261C47.6154 189.411 48.082 189.485 48.5891 189.485C49.1474 189.485 49.6438 189.398 50.0785 189.223C50.5174 189.044 50.8626 188.797 51.114 188.482C51.3654 188.162 51.4911 187.789 51.4911 187.363C51.4911 186.975 51.3803 186.658 51.1587 186.411C50.9414 186.163 50.6452 185.959 50.2702 185.797C49.8995 185.635 49.4798 185.492 49.011 185.369L47.4641 184.947C46.4158 184.661 45.5849 184.241 44.9712 183.688C44.3619 183.134 44.0572 182.401 44.0572 181.489C44.0572 180.734 44.2617 180.076 44.6708 179.513C45.0799 178.951 45.6339 178.514 46.3327 178.203C47.0316 177.888 47.82 177.73 48.6978 177.73C49.5842 177.73 50.3661 177.886 51.0437 178.197C51.7255 178.508 52.2624 178.936 52.6545 179.482C53.0465 180.023 53.2511 180.645 53.2681 181.348H51.3633Z" fill="white"/>
</svg>
