<svg width="552" height="316" viewBox="0 0 552 316" fill="none" xmlns="http://www.w3.org/2000/svg">
<path d="M1.45739 24.3182V15.7273H35.5909V24.3182H23.7784V55H13.2699V24.3182H1.45739ZM39.6035 55V15.7273H50.2654V31.0682H64.3791V15.7273H75.041V55H64.3791V39.6591H50.2654V55H39.6035ZM80.1035 55V15.7273H108.407V24.3182H90.7654V31.0682H106.95V39.6591H90.7654V46.4091H108.331V55H80.1035ZM158.433 15.7273V55H149.536L135.345 34.3665H135.115V55H124.453V15.7273H133.504L147.464 36.2841H147.771V15.7273H158.433ZM163.477 55V15.7273H191.781V24.3182H174.138V31.0682H190.323V39.6591H174.138V46.4091H191.704V55H163.477ZM207.04 55L195.458 15.7273H207.347L212.716 39.8892H213.023L219.389 15.7273H228.747L235.114 39.9659H235.421L240.79 15.7273H252.679L241.097 55H230.895L224.222 33.0625H223.915L217.242 55H207.04ZM288.059 28C287.957 26.7216 287.477 25.7244 286.621 25.0085C285.777 24.2926 284.492 23.9347 282.767 23.9347C281.667 23.9347 280.766 24.0689 280.063 24.3374C279.372 24.593 278.861 24.9446 278.529 25.392C278.196 25.8395 278.024 26.3509 278.011 26.9261C277.985 27.3991 278.068 27.8274 278.26 28.2109C278.465 28.5817 278.784 28.9205 279.219 29.2273C279.654 29.5213 280.21 29.7898 280.887 30.0327C281.565 30.2756 282.37 30.4929 283.303 30.6847L286.525 31.375C288.698 31.8352 290.558 32.4425 292.105 33.1967C293.652 33.951 294.918 34.8395 295.902 35.8622C296.887 36.8722 297.609 38.0099 298.069 39.2756C298.542 40.5412 298.785 41.9219 298.798 43.4176C298.785 46 298.139 48.1861 296.861 49.9759C295.583 51.7656 293.754 53.1271 291.377 54.0604C289.012 54.9936 286.167 55.4602 282.843 55.4602C279.43 55.4602 276.451 54.9553 273.907 53.9453C271.376 52.9354 269.407 51.3821 268.001 49.2855C266.607 47.1761 265.904 44.4787 265.892 41.1932H276.017C276.08 42.3949 276.381 43.4048 276.918 44.223C277.455 45.0412 278.209 45.6612 279.181 46.0831C280.165 46.505 281.335 46.7159 282.69 46.7159C283.828 46.7159 284.78 46.5753 285.547 46.294C286.314 46.0128 286.896 45.6229 287.292 45.1243C287.688 44.6257 287.893 44.0568 287.906 43.4176C287.893 42.8168 287.695 42.2926 287.311 41.8452C286.941 41.3849 286.327 40.9759 285.47 40.6179C284.614 40.2472 283.457 39.902 281.999 39.5824L278.088 38.7386C274.61 37.9844 271.868 36.7251 269.861 34.9609C267.867 33.1839 266.876 30.7614 266.889 27.6932C266.876 25.2003 267.541 23.0206 268.883 21.1541C270.238 19.2749 272.111 17.8111 274.502 16.7628C276.905 15.7145 279.66 15.1903 282.767 15.1903C285.937 15.1903 288.679 15.7209 290.993 16.782C293.307 17.843 295.09 19.3388 296.343 21.2692C297.609 23.1868 298.248 25.4304 298.261 28H288.059ZM301.78 24.3182V15.7273H335.913V24.3182H324.101V55H313.592V24.3182H301.78ZM345.17 55H333.665L346.628 15.7273H361.202L374.165 55H362.659L354.068 26.5426H353.761L345.17 55ZM343.023 39.5057H364.653V47.483H343.023V39.5057ZM377.947 55V15.7273H394.899C397.814 15.7273 400.364 16.2578 402.55 17.3189C404.736 18.38 406.437 19.9077 407.651 21.902C408.866 23.8963 409.473 26.2869 409.473 29.0739C409.473 31.8864 408.846 34.2578 407.594 36.1882C406.354 38.1186 404.608 39.576 402.358 40.5604C400.121 41.5447 397.507 42.0369 394.515 42.0369H384.39V33.7528H392.368C393.621 33.7528 394.688 33.5994 395.57 33.2926C396.465 32.973 397.149 32.468 397.622 31.7777C398.108 31.0874 398.351 30.1861 398.351 29.0739C398.351 27.9489 398.108 27.0348 397.622 26.3317C397.149 25.6158 396.465 25.0916 395.57 24.7592C394.688 24.4141 393.621 24.2415 392.368 24.2415H388.609V55H377.947ZM400.959 36.9744L410.777 55H399.194L389.606 36.9744H400.959ZM412.944 24.3182V15.7273H447.077V24.3182H435.265V55H424.756V24.3182H412.944ZM499.893 35.3636C499.893 39.7358 499.043 43.424 497.343 46.4283C495.642 49.4197 493.348 51.6889 490.458 53.2358C487.569 54.7699 484.348 55.5369 480.794 55.5369C477.214 55.5369 473.98 54.7635 471.091 53.2166C468.214 51.657 465.926 49.3814 464.225 46.3899C462.538 43.3857 461.694 39.7102 461.694 35.3636C461.694 30.9915 462.538 27.3097 464.225 24.3182C465.926 21.3139 468.214 19.0447 471.091 17.5107C473.98 15.9638 477.214 15.1903 480.794 15.1903C484.348 15.1903 487.569 15.9638 490.458 17.5107C493.348 19.0447 495.642 21.3139 497.343 24.3182C499.043 27.3097 499.893 30.9915 499.893 35.3636ZM488.924 35.3636C488.924 33.0114 488.611 31.0298 487.985 29.419C487.371 27.7955 486.457 26.5682 485.243 25.7372C484.041 24.8935 482.558 24.4716 480.794 24.4716C479.029 24.4716 477.54 24.8935 476.326 25.7372C475.124 26.5682 474.21 27.7955 473.583 29.419C472.97 31.0298 472.663 33.0114 472.663 35.3636C472.663 37.7159 472.97 39.7038 473.583 41.3274C474.21 42.9382 475.124 44.1655 476.326 45.0092C477.54 45.8402 479.029 46.2557 480.794 46.2557C482.558 46.2557 484.041 45.8402 485.243 45.0092C486.457 44.1655 487.371 42.9382 487.985 41.3274C488.611 39.7038 488.924 37.7159 488.924 35.3636ZM504.826 55V15.7273H532.44V24.3182H515.488V31.0682H530.752V39.6591H515.488V55H504.826Z" fill="white"/>
<path d="M6.36648 85.7273L18.0256 118.787H18.4858L30.1449 85.7273H35.1307L20.7102 125H15.8011L1.38068 85.7273H6.36648ZM41.2479 125V85.7273H54.5178C57.5859 85.7273 60.1044 86.2514 62.0732 87.2997C64.0419 88.3352 65.4993 89.7607 66.4453 91.576C67.3913 93.3913 67.8643 95.456 67.8643 97.7699C67.8643 100.084 67.3913 102.136 66.4453 103.925C65.4993 105.715 64.0483 107.121 62.0923 108.144C60.1364 109.154 57.6371 109.659 54.5945 109.659H43.8558V105.364H54.4411C56.5376 105.364 58.2251 105.057 59.5036 104.443C60.7947 103.83 61.728 102.96 62.3033 101.835C62.8913 100.697 63.1854 99.3423 63.1854 97.7699C63.1854 96.1974 62.8913 94.8232 62.3033 93.647C61.7152 92.4709 60.7756 91.5632 59.4844 90.924C58.1932 90.272 56.4865 89.946 54.3643 89.946H46.0036V125H41.2479ZM59.7337 107.358L69.3984 125H63.8757L54.3643 107.358H59.7337ZM90.9764 125V85.7273H95.7321V120.781H113.988V125H90.9764ZM152.958 105.364C152.958 109.506 152.211 113.085 150.715 116.102C149.219 119.119 147.167 121.446 144.559 123.082C141.951 124.719 138.973 125.537 135.623 125.537C132.274 125.537 129.295 124.719 126.687 123.082C124.079 121.446 122.027 119.119 120.532 116.102C119.036 113.085 118.288 109.506 118.288 105.364C118.288 101.222 119.036 97.642 120.532 94.625C122.027 91.608 124.079 89.2812 126.687 87.6449C129.295 86.0085 132.274 85.1903 135.623 85.1903C138.973 85.1903 141.951 86.0085 144.559 87.6449C147.167 89.2812 149.219 91.608 150.715 94.625C152.211 97.642 152.958 101.222 152.958 105.364ZM148.356 105.364C148.356 101.963 147.787 99.093 146.65 96.7536C145.525 94.4141 143.997 92.6435 142.066 91.4418C140.149 90.2401 138.001 89.6392 135.623 89.6392C133.245 89.6392 131.091 90.2401 129.161 91.4418C127.243 92.6435 125.716 94.4141 124.578 96.7536C123.453 99.093 122.89 101.963 122.89 105.364C122.89 108.764 123.453 111.634 124.578 113.974C125.716 116.313 127.243 118.084 129.161 119.286C131.091 120.487 133.245 121.088 135.623 121.088C138.001 121.088 140.149 120.487 142.066 119.286C143.997 118.084 145.525 116.313 146.65 113.974C147.787 111.634 148.356 108.764 148.356 105.364ZM192.557 98H187.801C187.52 96.6321 187.028 95.4304 186.325 94.3949C185.635 93.3594 184.791 92.4901 183.794 91.7869C182.809 91.071 181.716 90.5341 180.515 90.1761C179.313 89.8182 178.06 89.6392 176.756 89.6392C174.378 89.6392 172.224 90.2401 170.294 91.4418C168.376 92.6435 166.848 94.4141 165.711 96.7536C164.586 99.093 164.023 101.963 164.023 105.364C164.023 108.764 164.586 111.634 165.711 113.974C166.848 116.313 168.376 118.084 170.294 119.286C172.224 120.487 174.378 121.088 176.756 121.088C178.06 121.088 179.313 120.909 180.515 120.551C181.716 120.193 182.809 119.663 183.794 118.96C184.791 118.244 185.635 117.368 186.325 116.332C187.028 115.284 187.52 114.082 187.801 112.727H192.557C192.199 114.734 191.547 116.531 190.601 118.116C189.655 119.701 188.479 121.05 187.073 122.162C185.667 123.261 184.088 124.099 182.336 124.674C180.598 125.249 178.738 125.537 176.756 125.537C173.407 125.537 170.428 124.719 167.82 123.082C165.212 121.446 163.16 119.119 161.664 116.102C160.169 113.085 159.421 109.506 159.421 105.364C159.421 101.222 160.169 97.642 161.664 94.625C163.16 91.608 165.212 89.2812 167.82 87.6449C170.428 86.0085 173.407 85.1903 176.756 85.1903C178.738 85.1903 180.598 85.478 182.336 86.0533C184.088 86.6286 185.667 87.4723 187.073 88.5845C188.479 89.6839 189.655 91.0263 190.601 92.6115C191.547 94.1839 192.199 95.9801 192.557 98ZM233.378 105.364C233.378 109.506 232.631 113.085 231.135 116.102C229.639 119.119 227.587 121.446 224.979 123.082C222.371 124.719 219.393 125.537 216.043 125.537C212.694 125.537 209.715 124.719 207.107 123.082C204.499 121.446 202.447 119.119 200.952 116.102C199.456 113.085 198.708 109.506 198.708 105.364C198.708 101.222 199.456 97.642 200.952 94.625C202.447 91.608 204.499 89.2812 207.107 87.6449C209.715 86.0085 212.694 85.1903 216.043 85.1903C219.393 85.1903 222.371 86.0085 224.979 87.6449C227.587 89.2812 229.639 91.608 231.135 94.625C232.631 97.642 233.378 101.222 233.378 105.364ZM228.776 105.364C228.776 101.963 228.207 99.093 227.069 96.7536C225.944 94.4141 224.417 92.6435 222.486 91.4418C220.569 90.2401 218.421 89.6392 216.043 89.6392C213.665 89.6392 211.511 90.2401 209.581 91.4418C207.663 92.6435 206.135 94.4141 204.998 96.7536C203.873 99.093 203.31 101.963 203.31 105.364C203.31 108.764 203.873 111.634 204.998 113.974C206.135 116.313 207.663 118.084 209.581 119.286C211.511 120.487 213.665 121.088 216.043 121.088C218.421 121.088 220.569 120.487 222.486 119.286C224.417 118.084 225.944 116.313 227.069 113.974C228.207 111.634 228.776 108.764 228.776 105.364ZM241.375 85.7273H247.051L260.398 118.327H260.858L274.204 85.7273H279.881V125H275.432V95.1619H275.048L262.775 125H258.48L246.207 95.1619H245.824V125H241.375V85.7273ZM322.552 105.364C322.552 109.506 321.804 113.085 320.309 116.102C318.813 119.119 316.761 121.446 314.153 123.082C311.545 124.719 308.566 125.537 305.217 125.537C301.868 125.537 298.889 124.719 296.281 123.082C293.673 121.446 291.621 119.119 290.125 116.102C288.63 113.085 287.882 109.506 287.882 105.364C287.882 101.222 288.63 97.642 290.125 94.625C291.621 91.608 293.673 89.2812 296.281 87.6449C298.889 86.0085 301.868 85.1903 305.217 85.1903C308.566 85.1903 311.545 86.0085 314.153 87.6449C316.761 89.2812 318.813 91.608 320.309 94.625C321.804 97.642 322.552 101.222 322.552 105.364ZM317.95 105.364C317.95 101.963 317.381 99.093 316.243 96.7536C315.118 94.4141 313.591 92.6435 311.66 91.4418C309.743 90.2401 307.595 89.6392 305.217 89.6392C302.839 89.6392 300.685 90.2401 298.755 91.4418C296.837 92.6435 295.309 94.4141 294.172 96.7536C293.047 99.093 292.484 101.963 292.484 105.364C292.484 108.764 293.047 111.634 294.172 113.974C295.309 116.313 296.837 118.084 298.755 119.286C300.685 120.487 302.839 121.088 305.217 121.088C307.595 121.088 309.743 120.487 311.66 119.286C313.591 118.084 315.118 116.313 316.243 113.974C317.381 111.634 317.95 108.764 317.95 105.364ZM326.766 89.946V85.7273H356.221V89.946H343.871V125H339.116V89.946H326.766ZM368.316 85.7273V125H363.56V85.7273H368.316ZM410.988 105.364C410.988 109.506 410.24 113.085 408.744 116.102C407.248 119.119 405.197 121.446 402.589 123.082C399.981 124.719 397.002 125.537 393.653 125.537C390.303 125.537 387.324 124.719 384.716 123.082C382.108 121.446 380.057 119.119 378.561 116.102C377.065 113.085 376.317 109.506 376.317 105.364C376.317 101.222 377.065 97.642 378.561 94.625C380.057 91.608 382.108 89.2812 384.716 87.6449C387.324 86.0085 390.303 85.1903 393.653 85.1903C397.002 85.1903 399.981 86.0085 402.589 87.6449C405.197 89.2812 407.248 91.608 408.744 94.625C410.24 97.642 410.988 101.222 410.988 105.364ZM406.385 105.364C406.385 101.963 405.817 99.093 404.679 96.7536C403.554 94.4141 402.026 92.6435 400.096 91.4418C398.178 90.2401 396.03 89.6392 393.653 89.6392C391.275 89.6392 389.121 90.2401 387.19 91.4418C385.273 92.6435 383.745 94.4141 382.607 96.7536C381.482 99.093 380.92 101.963 380.92 105.364C380.92 108.764 381.482 111.634 382.607 113.974C383.745 116.313 385.273 118.084 387.19 119.286C389.121 120.487 391.275 121.088 393.653 121.088C396.03 121.088 398.178 120.487 400.096 119.286C402.026 118.084 403.554 116.313 404.679 113.974C405.817 111.634 406.385 108.764 406.385 105.364ZM450.126 85.7273V125H445.524L424.123 94.1648H423.74V125H418.984V85.7273H423.586L445.064 116.639H445.447V85.7273H450.126Z" fill="#05C2DF"/>
<path d="M98.3068 197H93.598V182.455H98.456C99.8812 182.455 101.105 182.746 102.128 183.328C103.151 183.906 103.934 184.737 104.479 185.821C105.028 186.901 105.303 188.196 105.303 189.706C105.303 191.221 105.026 192.523 104.472 193.612C103.922 194.701 103.127 195.539 102.085 196.126C101.044 196.709 99.7841 197 98.3068 197ZM95.7926 195.082H98.1861C99.294 195.082 100.215 194.874 100.949 194.457C101.683 194.036 102.232 193.428 102.597 192.632C102.961 191.832 103.143 190.857 103.143 189.706C103.143 188.565 102.961 187.597 102.597 186.801C102.237 186.006 101.699 185.402 100.984 184.99C100.269 184.578 99.3816 184.372 98.321 184.372H95.7926V195.082ZM107.861 197V186.091H109.985V197H107.861ZM108.934 184.408C108.564 184.408 108.247 184.285 107.982 184.038C107.721 183.787 107.591 183.489 107.591 183.143C107.591 182.793 107.721 182.495 107.982 182.249C108.247 181.998 108.564 181.872 108.934 181.872C109.303 181.872 109.618 181.998 109.878 182.249C110.143 182.495 110.276 182.793 110.276 183.143C110.276 183.489 110.143 183.787 109.878 184.038C109.618 184.285 109.303 184.408 108.934 184.408ZM121.016 188.754L119.092 189.095C119.011 188.849 118.883 188.615 118.708 188.392C118.538 188.17 118.306 187.987 118.012 187.845C117.719 187.703 117.352 187.632 116.911 187.632C116.31 187.632 115.808 187.767 115.406 188.037C115.003 188.302 114.802 188.645 114.802 189.067C114.802 189.431 114.937 189.725 115.207 189.947C115.477 190.17 115.912 190.352 116.513 190.494L118.246 190.892C119.25 191.124 119.998 191.482 120.491 191.964C120.983 192.447 121.229 193.075 121.229 193.847C121.229 194.5 121.04 195.082 120.661 195.594C120.287 196.1 119.764 196.498 119.092 196.787C118.424 197.076 117.65 197.22 116.769 197.22C115.548 197.22 114.551 196.96 113.779 196.439C113.007 195.913 112.534 195.168 112.359 194.202L114.411 193.889C114.539 194.424 114.802 194.829 115.2 195.104C115.597 195.374 116.116 195.509 116.755 195.509C117.451 195.509 118.007 195.364 118.424 195.075C118.841 194.782 119.049 194.424 119.049 194.003C119.049 193.662 118.921 193.375 118.665 193.143C118.415 192.911 118.029 192.736 117.508 192.618L115.661 192.213C114.643 191.981 113.89 191.612 113.403 191.105C112.92 190.598 112.678 189.957 112.678 189.18C112.678 188.536 112.858 187.973 113.218 187.49C113.578 187.007 114.075 186.631 114.71 186.361C115.344 186.086 116.071 185.949 116.89 185.949C118.069 185.949 118.997 186.205 119.674 186.716C120.351 187.223 120.799 187.902 121.016 188.754ZM128.159 197.22C127.104 197.22 126.194 196.981 125.432 196.503C124.675 196.02 124.092 195.355 123.685 194.507C123.278 193.66 123.074 192.689 123.074 191.595C123.074 190.487 123.283 189.509 123.699 188.662C124.116 187.81 124.703 187.144 125.461 186.666C126.218 186.188 127.111 185.949 128.138 185.949C128.967 185.949 129.705 186.103 130.354 186.411C131.003 186.714 131.526 187.14 131.924 187.689C132.326 188.238 132.565 188.88 132.641 189.614H130.574C130.461 189.102 130.2 188.662 129.793 188.293C129.391 187.923 128.851 187.739 128.174 187.739C127.582 187.739 127.063 187.895 126.618 188.207C126.178 188.515 125.835 188.955 125.588 189.528C125.342 190.097 125.219 190.769 125.219 191.545C125.219 192.341 125.34 193.027 125.581 193.605C125.823 194.183 126.164 194.63 126.604 194.947C127.049 195.265 127.572 195.423 128.174 195.423C128.576 195.423 128.941 195.35 129.267 195.203C129.599 195.052 129.876 194.836 130.098 194.557C130.326 194.277 130.484 193.941 130.574 193.548H132.641C132.565 194.254 132.336 194.884 131.952 195.438C131.569 195.991 131.055 196.427 130.411 196.744C129.772 197.062 129.021 197.22 128.159 197.22ZM139.507 197.22C138.484 197.22 137.592 196.986 136.83 196.517C136.067 196.048 135.475 195.393 135.054 194.55C134.633 193.707 134.422 192.722 134.422 191.595C134.422 190.464 134.633 189.474 135.054 188.626C135.475 187.779 136.067 187.121 136.83 186.652C137.592 186.183 138.484 185.949 139.507 185.949C140.53 185.949 141.422 186.183 142.185 186.652C142.947 187.121 143.539 187.779 143.96 188.626C144.382 189.474 144.592 190.464 144.592 191.595C144.592 192.722 144.382 193.707 143.96 194.55C143.539 195.393 142.947 196.048 142.185 196.517C141.422 196.986 140.53 197.22 139.507 197.22ZM139.514 195.438C140.177 195.438 140.726 195.262 141.162 194.912C141.598 194.562 141.92 194.095 142.128 193.513C142.341 192.93 142.447 192.289 142.447 191.588C142.447 190.892 142.341 190.253 142.128 189.67C141.92 189.083 141.598 188.612 141.162 188.257C140.726 187.902 140.177 187.724 139.514 187.724C138.847 187.724 138.293 187.902 137.852 188.257C137.417 188.612 137.092 189.083 136.879 189.67C136.671 190.253 136.567 190.892 136.567 191.588C136.567 192.289 136.671 192.93 136.879 193.513C137.092 194.095 137.417 194.562 137.852 194.912C138.293 195.262 138.847 195.438 139.514 195.438ZM155.924 186.091L151.968 197H149.695L145.732 186.091H148.012L150.775 194.486H150.888L153.644 186.091H155.924ZM162.25 197.22C161.176 197.22 160.25 196.991 159.473 196.531C158.702 196.067 158.105 195.416 157.684 194.578C157.267 193.735 157.059 192.748 157.059 191.616C157.059 190.499 157.267 189.514 157.684 188.662C158.105 187.81 158.692 187.144 159.445 186.666C160.203 186.188 161.088 185.949 162.101 185.949C162.717 185.949 163.313 186.051 163.891 186.254C164.469 186.458 164.987 186.777 165.446 187.213C165.906 187.649 166.268 188.214 166.533 188.911C166.798 189.602 166.931 190.442 166.931 191.432V192.185H158.259V190.594H164.85C164.85 190.035 164.736 189.54 164.509 189.109C164.282 188.674 163.962 188.33 163.55 188.08C163.143 187.829 162.665 187.703 162.115 187.703C161.519 187.703 160.998 187.85 160.553 188.143C160.113 188.432 159.772 188.811 159.53 189.28C159.293 189.744 159.175 190.248 159.175 190.793V192.036C159.175 192.765 159.303 193.385 159.559 193.896C159.819 194.408 160.181 194.798 160.645 195.068C161.109 195.333 161.651 195.466 162.272 195.466C162.674 195.466 163.041 195.409 163.373 195.295C163.704 195.177 163.99 195.002 164.232 194.77C164.473 194.538 164.658 194.251 164.786 193.911L166.796 194.273C166.635 194.865 166.346 195.383 165.929 195.828C165.517 196.268 164.999 196.612 164.374 196.858C163.754 197.099 163.046 197.22 162.25 197.22ZM169.287 197V186.091H171.339V187.824H171.453C171.652 187.237 172.002 186.775 172.504 186.439C173.011 186.098 173.584 185.928 174.223 185.928C174.356 185.928 174.512 185.932 174.692 185.942C174.876 185.951 175.021 185.963 175.125 185.977V188.009C175.04 187.985 174.888 187.959 174.67 187.93C174.453 187.897 174.235 187.881 174.017 187.881C173.515 187.881 173.068 187.987 172.675 188.2C172.286 188.409 171.979 188.7 171.751 189.074C171.524 189.443 171.411 189.865 171.411 190.338V197H169.287ZM187.348 186.091V187.795H181.389V186.091H187.348ZM182.987 183.477H185.111V193.797C185.111 194.209 185.172 194.519 185.295 194.727C185.419 194.931 185.577 195.071 185.771 195.146C185.97 195.217 186.186 195.253 186.418 195.253C186.588 195.253 186.737 195.241 186.865 195.217C186.993 195.194 187.092 195.175 187.163 195.161L187.547 196.915C187.424 196.962 187.249 197.009 187.021 197.057C186.794 197.109 186.51 197.137 186.169 197.142C185.61 197.152 185.089 197.052 184.607 196.844C184.124 196.635 183.733 196.313 183.435 195.878C183.136 195.442 182.987 194.895 182.987 194.237V183.477ZM192.055 190.523V197H189.931V182.455H192.027V187.866H192.162C192.417 187.279 192.808 186.813 193.333 186.467C193.859 186.122 194.546 185.949 195.393 185.949C196.141 185.949 196.795 186.103 197.353 186.411C197.917 186.718 198.352 187.178 198.66 187.788C198.973 188.394 199.129 189.152 199.129 190.061V197H197.005V190.317C197.005 189.517 196.799 188.896 196.387 188.456C195.975 188.011 195.403 187.788 194.669 187.788C194.167 187.788 193.717 187.895 193.319 188.108C192.926 188.321 192.616 188.634 192.389 189.045C192.166 189.453 192.055 189.945 192.055 190.523ZM206.664 197.22C205.59 197.22 204.664 196.991 203.887 196.531C203.116 196.067 202.519 195.416 202.098 194.578C201.681 193.735 201.473 192.748 201.473 191.616C201.473 190.499 201.681 189.514 202.098 188.662C202.519 187.81 203.106 187.144 203.859 186.666C204.617 186.188 205.502 185.949 206.515 185.949C207.131 185.949 207.727 186.051 208.305 186.254C208.883 186.458 209.401 186.777 209.86 187.213C210.32 187.649 210.682 188.214 210.947 188.911C211.212 189.602 211.345 190.442 211.345 191.432V192.185H202.673V190.594H209.264C209.264 190.035 209.15 189.54 208.923 189.109C208.696 188.674 208.376 188.33 207.964 188.08C207.557 187.829 207.079 187.703 206.529 187.703C205.933 187.703 205.412 187.85 204.967 188.143C204.527 188.432 204.186 188.811 203.944 189.28C203.708 189.744 203.589 190.248 203.589 190.793V192.036C203.589 192.765 203.717 193.385 203.973 193.896C204.233 194.408 204.595 194.798 205.059 195.068C205.523 195.333 206.065 195.466 206.686 195.466C207.088 195.466 207.455 195.409 207.787 195.295C208.118 195.177 208.404 195.002 208.646 194.77C208.887 194.538 209.072 194.251 209.2 193.911L211.21 194.273C211.049 194.865 210.76 195.383 210.343 195.828C209.931 196.268 209.413 196.612 208.788 196.858C208.168 197.099 207.46 197.22 206.664 197.22ZM218.994 197V186.091H221.032V187.866H221.167C221.395 187.265 221.766 186.796 222.282 186.46C222.798 186.119 223.416 185.949 224.136 185.949C224.865 185.949 225.476 186.119 225.968 186.46C226.466 186.801 226.833 187.27 227.069 187.866H227.183C227.443 187.284 227.858 186.82 228.426 186.474C228.994 186.124 229.671 185.949 230.457 185.949C231.447 185.949 232.254 186.259 232.879 186.879C233.509 187.5 233.824 188.435 233.824 189.685V197H231.7V189.884C231.7 189.145 231.499 188.61 231.096 188.278C230.694 187.947 230.213 187.781 229.654 187.781C228.963 187.781 228.426 187.994 228.042 188.42C227.659 188.842 227.467 189.384 227.467 190.047V197H225.35V189.749C225.35 189.157 225.166 188.681 224.797 188.321C224.427 187.961 223.947 187.781 223.355 187.781C222.952 187.781 222.581 187.888 222.24 188.101C221.904 188.309 221.631 188.6 221.423 188.974C221.219 189.348 221.118 189.782 221.118 190.274V197H218.994ZM241.265 197.22C240.242 197.22 239.35 196.986 238.587 196.517C237.825 196.048 237.233 195.393 236.812 194.55C236.39 193.707 236.18 192.722 236.18 191.595C236.18 190.464 236.39 189.474 236.812 188.626C237.233 187.779 237.825 187.121 238.587 186.652C239.35 186.183 240.242 185.949 241.265 185.949C242.288 185.949 243.18 186.183 243.942 186.652C244.705 187.121 245.297 187.779 245.718 188.626C246.139 189.474 246.35 190.464 246.35 191.595C246.35 192.722 246.139 193.707 245.718 194.55C245.297 195.393 244.705 196.048 243.942 196.517C243.18 196.986 242.288 197.22 241.265 197.22ZM241.272 195.438C241.935 195.438 242.484 195.262 242.92 194.912C243.355 194.562 243.677 194.095 243.886 193.513C244.099 192.93 244.205 192.289 244.205 191.588C244.205 190.892 244.099 190.253 243.886 189.67C243.677 189.083 243.355 188.612 242.92 188.257C242.484 187.902 241.935 187.724 241.272 187.724C240.604 187.724 240.05 187.902 239.61 188.257C239.174 188.612 238.85 189.083 238.637 189.67C238.429 190.253 238.325 190.892 238.325 191.588C238.325 192.289 238.429 192.93 238.637 193.513C238.85 194.095 239.174 194.562 239.61 194.912C240.05 195.262 240.604 195.438 241.272 195.438ZM256.895 188.754L254.971 189.095C254.89 188.849 254.762 188.615 254.587 188.392C254.417 188.17 254.185 187.987 253.891 187.845C253.597 187.703 253.23 187.632 252.79 187.632C252.189 187.632 251.687 187.767 251.284 188.037C250.882 188.302 250.681 188.645 250.681 189.067C250.681 189.431 250.816 189.725 251.086 189.947C251.355 190.17 251.791 190.352 252.392 190.494L254.125 190.892C255.129 191.124 255.877 191.482 256.37 191.964C256.862 192.447 257.108 193.075 257.108 193.847C257.108 194.5 256.919 195.082 256.54 195.594C256.166 196.1 255.643 196.498 254.971 196.787C254.303 197.076 253.529 197.22 252.648 197.22C251.426 197.22 250.43 196.96 249.658 196.439C248.886 195.913 248.413 195.168 248.238 194.202L250.29 193.889C250.418 194.424 250.681 194.829 251.078 195.104C251.476 195.374 251.995 195.509 252.634 195.509C253.33 195.509 253.886 195.364 254.303 195.075C254.72 194.782 254.928 194.424 254.928 194.003C254.928 193.662 254.8 193.375 254.544 193.143C254.293 192.911 253.908 192.736 253.387 192.618L251.54 192.213C250.522 191.981 249.769 191.612 249.282 191.105C248.799 190.598 248.557 189.957 248.557 189.18C248.557 188.536 248.737 187.973 249.097 187.49C249.457 187.007 249.954 186.631 250.588 186.361C251.223 186.086 251.95 185.949 252.769 185.949C253.948 185.949 254.876 186.205 255.553 186.716C256.23 187.223 256.677 187.902 256.895 188.754ZM264.536 186.091V187.795H258.577V186.091H264.536ZM260.175 183.477H262.298V193.797C262.298 194.209 262.36 194.519 262.483 194.727C262.606 194.931 262.765 195.071 262.959 195.146C263.158 195.217 263.373 195.253 263.605 195.253C263.776 195.253 263.925 195.241 264.053 195.217C264.18 195.194 264.28 195.175 264.351 195.161L264.734 196.915C264.611 196.962 264.436 197.009 264.209 197.057C263.982 197.109 263.697 197.137 263.357 197.142C262.798 197.152 262.277 197.052 261.794 196.844C261.311 196.635 260.92 196.313 260.622 195.878C260.324 195.442 260.175 194.895 260.175 194.237V183.477ZM276.773 197.22C275.717 197.22 274.808 196.981 274.045 196.503C273.288 196.02 272.705 195.355 272.298 194.507C271.891 193.66 271.688 192.689 271.688 191.595C271.688 190.487 271.896 189.509 272.312 188.662C272.729 187.81 273.316 187.144 274.074 186.666C274.831 186.188 275.724 185.949 276.751 185.949C277.58 185.949 278.319 186.103 278.967 186.411C279.616 186.714 280.139 187.14 280.537 187.689C280.939 188.238 281.179 188.88 281.254 189.614H279.188C279.074 189.102 278.813 188.662 278.406 188.293C278.004 187.923 277.464 187.739 276.787 187.739C276.195 187.739 275.677 187.895 275.232 188.207C274.791 188.515 274.448 188.955 274.202 189.528C273.955 190.097 273.832 190.769 273.832 191.545C273.832 192.341 273.953 193.027 274.195 193.605C274.436 194.183 274.777 194.63 275.217 194.947C275.662 195.265 276.186 195.423 276.787 195.423C277.189 195.423 277.554 195.35 277.881 195.203C278.212 195.052 278.489 194.836 278.712 194.557C278.939 194.277 279.098 193.941 279.188 193.548H281.254C281.179 194.254 280.949 194.884 280.565 195.438C280.182 195.991 279.668 196.427 279.024 196.744C278.385 197.062 277.634 197.22 276.773 197.22ZM288.12 197.22C287.098 197.22 286.205 196.986 285.443 196.517C284.681 196.048 284.089 195.393 283.667 194.55C283.246 193.707 283.035 192.722 283.035 191.595C283.035 190.464 283.246 189.474 283.667 188.626C284.089 187.779 284.681 187.121 285.443 186.652C286.205 186.183 287.098 185.949 288.12 185.949C289.143 185.949 290.036 186.183 290.798 186.652C291.56 187.121 292.152 187.779 292.574 188.626C292.995 189.474 293.206 190.464 293.206 191.595C293.206 192.722 292.995 193.707 292.574 194.55C292.152 195.393 291.56 196.048 290.798 196.517C290.036 196.986 289.143 197.22 288.12 197.22ZM288.127 195.438C288.79 195.438 289.34 195.262 289.775 194.912C290.211 194.562 290.533 194.095 290.741 193.513C290.954 192.93 291.061 192.289 291.061 191.588C291.061 190.892 290.954 190.253 290.741 189.67C290.533 189.083 290.211 188.612 289.775 188.257C289.34 187.902 288.79 187.724 288.127 187.724C287.46 187.724 286.906 187.902 286.466 188.257C286.03 188.612 285.706 189.083 285.493 189.67C285.284 190.253 285.18 190.892 285.18 191.588C285.18 192.289 285.284 192.93 285.493 193.513C285.706 194.095 286.03 194.562 286.466 194.912C286.906 195.262 287.46 195.438 288.127 195.438ZM295.576 197V186.091H297.614V187.866H297.749C297.977 187.265 298.348 186.796 298.864 186.46C299.38 186.119 299.998 185.949 300.718 185.949C301.447 185.949 302.058 186.119 302.55 186.46C303.048 186.801 303.415 187.27 303.651 187.866H303.765C304.025 187.284 304.44 186.82 305.008 186.474C305.576 186.124 306.253 185.949 307.039 185.949C308.029 185.949 308.836 186.259 309.461 186.879C310.091 187.5 310.406 188.435 310.406 189.685V197H308.282V189.884C308.282 189.145 308.081 188.61 307.678 188.278C307.276 187.947 306.795 187.781 306.237 187.781C305.545 187.781 305.008 187.994 304.624 188.42C304.241 188.842 304.049 189.384 304.049 190.047V197H301.933V189.749C301.933 189.157 301.748 188.681 301.379 188.321C301.009 187.961 300.529 187.781 299.937 187.781C299.534 187.781 299.163 187.888 298.822 188.101C298.486 188.309 298.213 188.6 298.005 188.974C297.801 189.348 297.7 189.782 297.7 190.274V197H295.576ZM313.252 201.091V186.091H315.326V187.859H315.503C315.626 187.632 315.804 187.369 316.036 187.071C316.268 186.773 316.59 186.512 317.002 186.29C317.414 186.062 317.958 185.949 318.635 185.949C319.516 185.949 320.302 186.171 320.993 186.616C321.685 187.062 322.227 187.703 322.62 188.541C323.017 189.379 323.216 190.388 323.216 191.567C323.216 192.746 323.02 193.757 322.627 194.599C322.234 195.437 321.694 196.084 321.007 196.538C320.321 196.988 319.537 197.213 318.657 197.213C317.994 197.213 317.452 197.102 317.03 196.879C316.614 196.657 316.287 196.396 316.05 196.098C315.813 195.8 315.631 195.535 315.503 195.303H315.375V201.091H313.252ZM315.333 191.545C315.333 192.312 315.444 192.985 315.667 193.562C315.889 194.14 316.211 194.592 316.632 194.919C317.054 195.241 317.57 195.402 318.181 195.402C318.815 195.402 319.346 195.234 319.772 194.898C320.198 194.557 320.52 194.095 320.738 193.513C320.96 192.93 321.071 192.275 321.071 191.545C321.071 190.826 320.962 190.179 320.745 189.607C320.532 189.034 320.21 188.581 319.779 188.25C319.353 187.919 318.82 187.753 318.181 187.753C317.565 187.753 317.044 187.911 316.618 188.229C316.197 188.546 315.877 188.989 315.659 189.557C315.442 190.125 315.333 190.788 315.333 191.545ZM325.596 197V186.091H327.648V187.824H327.762C327.961 187.237 328.311 186.775 328.813 186.439C329.319 186.098 329.892 185.928 330.532 185.928C330.664 185.928 330.82 185.932 331 185.942C331.185 185.951 331.329 185.963 331.434 185.977V188.009C331.348 187.985 331.197 187.959 330.979 187.93C330.761 187.897 330.543 187.881 330.326 187.881C329.824 187.881 329.376 187.987 328.983 188.2C328.595 188.409 328.287 188.7 328.06 189.074C327.833 189.443 327.719 189.865 327.719 190.338V197H325.596ZM337.582 197.22C336.508 197.22 335.582 196.991 334.805 196.531C334.034 196.067 333.437 195.416 333.016 194.578C332.599 193.735 332.391 192.748 332.391 191.616C332.391 190.499 332.599 189.514 333.016 188.662C333.437 187.81 334.024 187.144 334.777 186.666C335.535 186.188 336.42 185.949 337.433 185.949C338.049 185.949 338.645 186.051 339.223 186.254C339.801 186.458 340.319 186.777 340.778 187.213C341.238 187.649 341.6 188.214 341.865 188.911C342.13 189.602 342.263 190.442 342.263 191.432V192.185H333.591V190.594H340.182C340.182 190.035 340.068 189.54 339.841 189.109C339.614 188.674 339.294 188.33 338.882 188.08C338.475 187.829 337.997 187.703 337.447 187.703C336.851 187.703 336.33 187.85 335.885 188.143C335.445 188.432 335.104 188.811 334.862 189.28C334.625 189.744 334.507 190.248 334.507 190.793V192.036C334.507 192.765 334.635 193.385 334.891 193.896C335.151 194.408 335.513 194.798 335.977 195.068C336.441 195.333 336.983 195.466 337.604 195.466C338.006 195.466 338.373 195.409 338.705 195.295C339.036 195.177 339.322 195.002 339.564 194.77C339.805 194.538 339.99 194.251 340.118 193.911L342.128 194.273C341.967 194.865 341.678 195.383 341.261 195.828C340.849 196.268 340.331 196.612 339.706 196.858C339.086 197.099 338.378 197.22 337.582 197.22ZM346.743 190.523V197H344.619V182.455H346.714V187.866H346.849C347.105 187.279 347.495 186.813 348.021 186.467C348.547 186.122 349.233 185.949 350.081 185.949C350.829 185.949 351.482 186.103 352.041 186.411C352.604 186.718 353.04 187.178 353.348 187.788C353.66 188.394 353.816 189.152 353.816 190.061V197H351.693V190.317C351.693 189.517 351.487 188.896 351.075 188.456C350.663 188.011 350.09 187.788 349.356 187.788C348.854 187.788 348.404 187.895 348.007 188.108C347.614 188.321 347.304 188.634 347.076 189.045C346.854 189.453 346.743 189.945 346.743 190.523ZM361.352 197.22C360.277 197.22 359.351 196.991 358.575 196.531C357.803 196.067 357.207 195.416 356.785 194.578C356.368 193.735 356.16 192.748 356.16 191.616C356.16 190.499 356.368 189.514 356.785 188.662C357.207 187.81 357.794 187.144 358.547 186.666C359.304 186.188 360.19 185.949 361.203 185.949C361.818 185.949 362.415 186.051 362.993 186.254C363.57 186.458 364.089 186.777 364.548 187.213C365.007 187.649 365.369 188.214 365.635 188.911C365.9 189.602 366.032 190.442 366.032 191.432V192.185H357.36V190.594H363.951C363.951 190.035 363.838 189.54 363.61 189.109C363.383 188.674 363.064 188.33 362.652 188.08C362.244 187.829 361.766 187.703 361.217 187.703C360.62 187.703 360.1 187.85 359.654 188.143C359.214 188.432 358.873 188.811 358.632 189.28C358.395 189.744 358.277 190.248 358.277 190.793V192.036C358.277 192.765 358.404 193.385 358.66 193.896C358.921 194.408 359.283 194.798 359.747 195.068C360.211 195.333 360.753 195.466 361.373 195.466C361.776 195.466 362.143 195.409 362.474 195.295C362.806 195.177 363.092 195.002 363.333 194.77C363.575 194.538 363.76 194.251 363.887 193.911L365.897 194.273C365.736 194.865 365.448 195.383 365.031 195.828C364.619 196.268 364.1 196.612 363.475 196.858C362.855 197.099 362.147 197.22 361.352 197.22ZM370.512 190.523V197H368.388V186.091H370.427V187.866H370.562C370.813 187.289 371.206 186.825 371.741 186.474C372.281 186.124 372.96 185.949 373.779 185.949C374.522 185.949 375.174 186.105 375.732 186.418C376.291 186.725 376.724 187.185 377.032 187.795C377.34 188.406 377.494 189.161 377.494 190.061V197H375.37V190.317C375.37 189.526 375.164 188.908 374.752 188.463C374.34 188.013 373.774 187.788 373.055 187.788C372.562 187.788 372.124 187.895 371.741 188.108C371.362 188.321 371.061 188.634 370.839 189.045C370.621 189.453 370.512 189.945 370.512 190.523ZM388.516 188.754L386.592 189.095C386.511 188.849 386.383 188.615 386.208 188.392C386.038 188.17 385.806 187.987 385.512 187.845C385.219 187.703 384.852 187.632 384.411 187.632C383.81 187.632 383.308 187.767 382.906 188.037C382.503 188.302 382.302 188.645 382.302 189.067C382.302 189.431 382.437 189.725 382.707 189.947C382.977 190.17 383.412 190.352 384.013 190.494L385.746 190.892C386.75 191.124 387.498 191.482 387.991 191.964C388.483 192.447 388.729 193.075 388.729 193.847C388.729 194.5 388.54 195.082 388.161 195.594C387.787 196.1 387.264 196.498 386.592 196.787C385.924 197.076 385.15 197.22 384.269 197.22C383.048 197.22 382.051 196.96 381.279 196.439C380.507 195.913 380.034 195.168 379.859 194.202L381.911 193.889C382.039 194.424 382.302 194.829 382.7 195.104C383.097 195.374 383.616 195.509 384.255 195.509C384.951 195.509 385.507 195.364 385.924 195.075C386.341 194.782 386.549 194.424 386.549 194.003C386.549 193.662 386.421 193.375 386.165 193.143C385.915 192.911 385.529 192.736 385.008 192.618L383.161 192.213C382.143 191.981 381.39 191.612 380.903 191.105C380.42 190.598 380.178 189.957 380.178 189.18C380.178 188.536 380.358 187.973 380.718 187.49C381.078 187.007 381.575 186.631 382.21 186.361C382.844 186.086 383.571 185.949 384.39 185.949C385.569 185.949 386.497 186.205 387.174 186.716C387.851 187.223 388.299 187.902 388.516 188.754ZM391.064 197V186.091H393.188V197H391.064ZM392.137 184.408C391.767 184.408 391.45 184.285 391.185 184.038C390.925 183.787 390.794 183.489 390.794 183.143C390.794 182.793 390.925 182.495 391.185 182.249C391.45 181.998 391.767 181.872 392.137 181.872C392.506 181.872 392.821 181.998 393.081 182.249C393.346 182.495 393.479 182.793 393.479 183.143C393.479 183.489 393.346 183.787 393.081 184.038C392.821 184.285 392.506 184.408 392.137 184.408ZM405.377 186.091L401.421 197H399.148L395.185 186.091H397.465L400.228 194.486H400.342L403.097 186.091H405.377ZM411.703 197.22C410.629 197.22 409.703 196.991 408.926 196.531C408.155 196.067 407.558 195.416 407.137 194.578C406.72 193.735 406.512 192.748 406.512 191.616C406.512 190.499 406.72 189.514 407.137 188.662C407.558 187.81 408.145 187.144 408.898 186.666C409.656 186.188 410.541 185.949 411.554 185.949C412.17 185.949 412.766 186.051 413.344 186.254C413.922 186.458 414.44 186.777 414.9 187.213C415.359 187.649 415.721 188.214 415.986 188.911C416.251 189.602 416.384 190.442 416.384 191.432V192.185H407.712V190.594H414.303C414.303 190.035 414.189 189.54 413.962 189.109C413.735 188.674 413.415 188.33 413.003 188.08C412.596 187.829 412.118 187.703 411.569 187.703C410.972 187.703 410.451 187.85 410.006 188.143C409.566 188.432 409.225 188.811 408.983 189.28C408.747 189.744 408.628 190.248 408.628 190.793V192.036C408.628 192.765 408.756 193.385 409.012 193.896C409.272 194.408 409.634 194.798 410.098 195.068C410.562 195.333 411.105 195.466 411.725 195.466C412.127 195.466 412.494 195.409 412.826 195.295C413.157 195.177 413.444 195.002 413.685 194.77C413.926 194.538 414.111 194.251 414.239 193.911L416.249 194.273C416.088 194.865 415.799 195.383 415.382 195.828C414.971 196.268 414.452 196.612 413.827 196.858C413.207 197.099 412.499 197.22 411.703 197.22ZM425.475 182.455L429.523 194.301H429.686L433.735 182.455H436.107L430.873 197H428.337L423.103 182.455H425.475ZM438.207 197V182.455H443.392C444.519 182.455 445.454 182.649 446.197 183.037C446.946 183.425 447.504 183.963 447.874 184.649C448.243 185.331 448.428 186.119 448.428 187.014C448.428 187.904 448.241 188.688 447.866 189.365C447.497 190.037 446.938 190.561 446.19 190.935C445.447 191.309 444.512 191.496 443.385 191.496H439.457V189.607H443.186C443.896 189.607 444.474 189.505 444.919 189.301C445.369 189.098 445.698 188.802 445.906 188.413C446.115 188.025 446.219 187.559 446.219 187.014C446.219 186.465 446.112 185.989 445.899 185.587C445.691 185.184 445.362 184.876 444.912 184.663C444.467 184.446 443.882 184.337 443.158 184.337H440.402V197H438.207ZM445.388 190.438L448.982 197H446.482L442.959 190.438H445.388ZM93.598 227V212.455H95.7926V225.111H102.384V227H93.598ZM109.312 227.22C108.289 227.22 107.397 226.986 106.634 226.517C105.872 226.048 105.28 225.393 104.859 224.55C104.437 223.707 104.227 222.722 104.227 221.595C104.227 220.464 104.437 219.474 104.859 218.626C105.28 217.779 105.872 217.121 106.634 216.652C107.397 216.183 108.289 215.949 109.312 215.949C110.335 215.949 111.227 216.183 111.989 216.652C112.752 217.121 113.344 217.779 113.765 218.626C114.186 219.474 114.397 220.464 114.397 221.595C114.397 222.722 114.186 223.707 113.765 224.55C113.344 225.393 112.752 226.048 111.989 226.517C111.227 226.986 110.335 227.22 109.312 227.22ZM109.319 225.438C109.982 225.438 110.531 225.262 110.967 224.912C111.402 224.562 111.724 224.095 111.933 223.513C112.146 222.93 112.252 222.289 112.252 221.588C112.252 220.892 112.146 220.253 111.933 219.67C111.724 219.083 111.402 218.612 110.967 218.257C110.531 217.902 109.982 217.724 109.319 217.724C108.651 217.724 108.097 217.902 107.657 218.257C107.221 218.612 106.897 219.083 106.684 219.67C106.476 220.253 106.371 220.892 106.371 221.588C106.371 222.289 106.476 222.93 106.684 223.513C106.897 224.095 107.221 224.562 107.657 224.912C108.097 225.262 108.651 225.438 109.319 225.438ZM121.363 227.22C120.307 227.22 119.398 226.981 118.635 226.503C117.878 226.02 117.295 225.355 116.888 224.507C116.481 223.66 116.277 222.689 116.277 221.595C116.277 220.487 116.486 219.509 116.902 218.662C117.319 217.81 117.906 217.144 118.664 216.666C119.421 216.188 120.314 215.949 121.341 215.949C122.17 215.949 122.908 216.103 123.557 216.411C124.206 216.714 124.729 217.14 125.127 217.689C125.529 218.238 125.768 218.88 125.844 219.614H123.777C123.664 219.102 123.403 218.662 122.996 218.293C122.594 217.923 122.054 217.739 121.377 217.739C120.785 217.739 120.266 217.895 119.821 218.207C119.381 218.515 119.038 218.955 118.792 219.528C118.545 220.097 118.422 220.769 118.422 221.545C118.422 222.341 118.543 223.027 118.784 223.605C119.026 224.183 119.367 224.63 119.807 224.947C120.252 225.265 120.775 225.423 121.377 225.423C121.779 225.423 122.144 225.35 122.471 225.203C122.802 225.052 123.079 224.836 123.301 224.557C123.529 224.277 123.687 223.941 123.777 223.548H125.844C125.768 224.254 125.539 224.884 125.155 225.438C124.772 225.991 124.258 226.427 123.614 226.744C122.975 227.062 122.224 227.22 121.363 227.22ZM132.71 227.22C131.688 227.22 130.795 226.986 130.033 226.517C129.27 226.048 128.679 225.393 128.257 224.55C127.836 223.707 127.625 222.722 127.625 221.595C127.625 220.464 127.836 219.474 128.257 218.626C128.679 217.779 129.27 217.121 130.033 216.652C130.795 216.183 131.688 215.949 132.71 215.949C133.733 215.949 134.625 216.183 135.388 216.652C136.15 217.121 136.742 217.779 137.163 218.626C137.585 219.474 137.795 220.464 137.795 221.595C137.795 222.722 137.585 223.707 137.163 224.55C136.742 225.393 136.15 226.048 135.388 226.517C134.625 226.986 133.733 227.22 132.71 227.22ZM132.717 225.438C133.38 225.438 133.929 225.262 134.365 224.912C134.801 224.562 135.123 224.095 135.331 223.513C135.544 222.93 135.651 222.289 135.651 221.588C135.651 220.892 135.544 220.253 135.331 219.67C135.123 219.083 134.801 218.612 134.365 218.257C133.929 217.902 133.38 217.724 132.717 217.724C132.05 217.724 131.496 217.902 131.055 218.257C130.62 218.612 130.295 219.083 130.082 219.67C129.874 220.253 129.77 220.892 129.77 221.588C129.77 222.289 129.874 222.93 130.082 223.513C130.295 224.095 130.62 224.562 131.055 224.912C131.496 225.262 132.05 225.438 132.717 225.438ZM140.166 227V216.091H142.204V217.866H142.339C142.566 217.265 142.938 216.796 143.454 216.46C143.97 216.119 144.588 215.949 145.308 215.949C146.037 215.949 146.648 216.119 147.14 216.46C147.637 216.801 148.004 217.27 148.241 217.866H148.355C148.615 217.284 149.029 216.82 149.598 216.474C150.166 216.124 150.843 215.949 151.629 215.949C152.618 215.949 153.426 216.259 154.051 216.879C154.681 217.5 154.995 218.435 154.995 219.685V227H152.872V219.884C152.872 219.145 152.671 218.61 152.268 218.278C151.866 217.947 151.385 217.781 150.826 217.781C150.135 217.781 149.598 217.994 149.214 218.42C148.831 218.842 148.639 219.384 148.639 220.047V227H146.522V219.749C146.522 219.157 146.338 218.681 145.968 218.321C145.599 217.961 145.118 217.781 144.527 217.781C144.124 217.781 143.752 217.888 143.412 218.101C143.075 218.309 142.803 218.6 142.595 218.974C142.391 219.348 142.289 219.782 142.289 220.274V227H140.166ZM162.437 227.22C161.414 227.22 160.522 226.986 159.759 226.517C158.997 226.048 158.405 225.393 157.984 224.55C157.562 223.707 157.352 222.722 157.352 221.595C157.352 220.464 157.562 219.474 157.984 218.626C158.405 217.779 158.997 217.121 159.759 216.652C160.522 216.183 161.414 215.949 162.437 215.949C163.46 215.949 164.352 216.183 165.114 216.652C165.877 217.121 166.469 217.779 166.89 218.626C167.311 219.474 167.522 220.464 167.522 221.595C167.522 222.722 167.311 223.707 166.89 224.55C166.469 225.393 165.877 226.048 165.114 226.517C164.352 226.986 163.46 227.22 162.437 227.22ZM162.444 225.438C163.107 225.438 163.656 225.262 164.092 224.912C164.527 224.562 164.849 224.095 165.058 223.513C165.271 222.93 165.377 222.289 165.377 221.588C165.377 220.892 165.271 220.253 165.058 219.67C164.849 219.083 164.527 218.612 164.092 218.257C163.656 217.902 163.107 217.724 162.444 217.724C161.776 217.724 161.222 217.902 160.782 218.257C160.346 218.612 160.022 219.083 159.809 219.67C159.601 220.253 159.496 220.892 159.496 221.588C159.496 222.289 159.601 222.93 159.809 223.513C160.022 224.095 160.346 224.562 160.782 224.912C161.222 225.262 161.776 225.438 162.444 225.438ZM174.985 216.091V217.795H169.026V216.091H174.985ZM170.624 213.477H172.748V223.797C172.748 224.209 172.809 224.519 172.932 224.727C173.055 224.931 173.214 225.071 173.408 225.146C173.607 225.217 173.822 225.253 174.054 225.253C174.225 225.253 174.374 225.241 174.502 225.217C174.63 225.194 174.729 225.175 174.8 225.161L175.184 226.915C175.06 226.962 174.885 227.009 174.658 227.057C174.431 227.109 174.147 227.137 173.806 227.142C173.247 227.152 172.726 227.052 172.243 226.844C171.76 226.635 171.37 226.313 171.071 225.878C170.773 225.442 170.624 224.895 170.624 224.237V213.477ZM177.334 227V216.091H179.457V227H177.334ZM178.406 214.408C178.037 214.408 177.72 214.285 177.455 214.038C177.194 213.787 177.064 213.489 177.064 213.143C177.064 212.793 177.194 212.495 177.455 212.249C177.72 211.998 178.037 211.872 178.406 211.872C178.776 211.872 179.09 211.998 179.351 212.249C179.616 212.495 179.749 212.793 179.749 213.143C179.749 213.489 179.616 213.787 179.351 214.038C179.09 214.285 178.776 214.408 178.406 214.408ZM186.909 227.22C185.887 227.22 184.994 226.986 184.232 226.517C183.47 226.048 182.878 225.393 182.456 224.55C182.035 223.707 181.824 222.722 181.824 221.595C181.824 220.464 182.035 219.474 182.456 218.626C182.878 217.779 183.47 217.121 184.232 216.652C184.994 216.183 185.887 215.949 186.909 215.949C187.932 215.949 188.825 216.183 189.587 216.652C190.349 217.121 190.941 217.779 191.363 218.626C191.784 219.474 191.995 220.464 191.995 221.595C191.995 222.722 191.784 223.707 191.363 224.55C190.941 225.393 190.349 226.048 189.587 226.517C188.825 226.986 187.932 227.22 186.909 227.22ZM186.917 225.438C187.579 225.438 188.129 225.262 188.564 224.912C189 224.562 189.322 224.095 189.53 223.513C189.743 222.93 189.85 222.289 189.85 221.588C189.85 220.892 189.743 220.253 189.53 219.67C189.322 219.083 189 218.612 188.564 218.257C188.129 217.902 187.579 217.724 186.917 217.724C186.249 217.724 185.695 217.902 185.255 218.257C184.819 218.612 184.495 219.083 184.282 219.67C184.073 220.253 183.969 220.892 183.969 221.588C183.969 222.289 184.073 222.93 184.282 223.513C184.495 224.095 184.819 224.562 185.255 224.912C185.695 225.262 186.249 225.438 186.917 225.438ZM196.489 220.523V227H194.365V216.091H196.403V217.866H196.538C196.789 217.289 197.182 216.825 197.717 216.474C198.257 216.124 198.937 215.949 199.756 215.949C200.499 215.949 201.15 216.105 201.709 216.418C202.268 216.725 202.701 217.185 203.009 217.795C203.316 218.406 203.47 219.161 203.47 220.061V227H201.347V220.317C201.347 219.526 201.141 218.908 200.729 218.463C200.317 218.013 199.751 217.788 199.031 217.788C198.539 217.788 198.101 217.895 197.717 218.108C197.339 218.321 197.038 218.634 196.815 219.045C196.598 219.453 196.489 219.945 196.489 220.523ZM219.786 218.754L217.861 219.095C217.781 218.849 217.653 218.615 217.478 218.392C217.307 218.17 217.075 217.987 216.782 217.845C216.488 217.703 216.121 217.632 215.681 217.632C215.079 217.632 214.578 217.767 214.175 218.037C213.773 218.302 213.571 218.645 213.571 219.067C213.571 219.431 213.706 219.725 213.976 219.947C214.246 220.17 214.682 220.352 215.283 220.494L217.016 220.892C218.02 221.124 218.768 221.482 219.26 221.964C219.753 222.447 219.999 223.075 219.999 223.847C219.999 224.5 219.81 225.082 219.431 225.594C219.057 226.1 218.533 226.498 217.861 226.787C217.194 227.076 216.419 227.22 215.539 227.22C214.317 227.22 213.32 226.96 212.549 226.439C211.777 225.913 211.303 225.168 211.128 224.202L213.181 223.889C213.309 224.424 213.571 224.829 213.969 225.104C214.367 225.374 214.885 225.509 215.525 225.509C216.221 225.509 216.777 225.364 217.194 225.075C217.61 224.782 217.819 224.424 217.819 224.003C217.819 223.662 217.691 223.375 217.435 223.143C217.184 222.911 216.798 222.736 216.277 222.618L214.431 222.213C213.413 221.981 212.66 221.612 212.172 221.105C211.689 220.598 211.448 219.957 211.448 219.18C211.448 218.536 211.628 217.973 211.988 217.49C212.347 217.007 212.845 216.631 213.479 216.361C214.114 216.086 214.84 215.949 215.659 215.949C216.838 215.949 217.766 216.205 218.444 216.716C219.121 217.223 219.568 217.902 219.786 218.754ZM223.676 231.091C223.359 231.091 223.07 231.065 222.81 231.013C222.549 230.965 222.355 230.913 222.227 230.857L222.739 229.116C223.127 229.221 223.473 229.266 223.776 229.251C224.079 229.237 224.346 229.124 224.578 228.911C224.815 228.697 225.023 228.349 225.203 227.866L225.466 227.142L221.474 216.091H223.747L226.51 224.557H226.624L229.386 216.091H231.666L227.17 228.456C226.962 229.024 226.697 229.505 226.375 229.898C226.053 230.295 225.67 230.594 225.224 230.793C224.779 230.991 224.263 231.091 223.676 231.091ZM241.837 218.754L239.912 219.095C239.831 218.849 239.704 218.615 239.528 218.392C239.358 218.17 239.126 217.987 238.832 217.845C238.539 217.703 238.172 217.632 237.732 217.632C237.13 217.632 236.628 217.767 236.226 218.037C235.823 218.302 235.622 218.645 235.622 219.067C235.622 219.431 235.757 219.725 236.027 219.947C236.297 220.17 236.732 220.352 237.334 220.494L239.067 220.892C240.071 221.124 240.819 221.482 241.311 221.964C241.804 222.447 242.05 223.075 242.05 223.847C242.05 224.5 241.86 225.082 241.482 225.594C241.107 226.1 240.584 226.498 239.912 226.787C239.244 227.076 238.47 227.22 237.589 227.22C236.368 227.22 235.371 226.96 234.599 226.439C233.828 225.913 233.354 225.168 233.179 224.202L235.232 223.889C235.359 224.424 235.622 224.829 236.02 225.104C236.418 225.374 236.936 225.509 237.575 225.509C238.271 225.509 238.828 225.364 239.244 225.075C239.661 224.782 239.869 224.424 239.869 224.003C239.869 223.662 239.741 223.375 239.486 223.143C239.235 222.911 238.849 222.736 238.328 222.618L236.482 222.213C235.464 221.981 234.711 221.612 234.223 221.105C233.74 220.598 233.499 219.957 233.499 219.18C233.499 218.536 233.679 217.973 234.038 217.49C234.398 217.007 234.895 216.631 235.53 216.361C236.164 216.086 236.891 215.949 237.71 215.949C238.889 215.949 239.817 216.205 240.494 216.716C241.171 217.223 241.619 217.902 241.837 218.754ZM249.477 216.091V217.795H243.518V216.091H249.477ZM245.116 213.477H247.24V223.797C247.24 224.209 247.301 224.519 247.424 224.727C247.547 224.931 247.706 225.071 247.9 225.146C248.099 225.217 248.315 225.253 248.547 225.253C248.717 225.253 248.866 225.241 248.994 225.217C249.122 225.194 249.221 225.175 249.292 225.161L249.676 226.915C249.553 226.962 249.377 227.009 249.15 227.057C248.923 227.109 248.639 227.137 248.298 227.142C247.739 227.152 247.218 227.052 246.735 226.844C246.252 226.635 245.862 226.313 245.564 225.878C245.265 225.442 245.116 224.895 245.116 224.237V213.477ZM256.411 227.22C255.336 227.22 254.41 226.991 253.634 226.531C252.862 226.067 252.265 225.416 251.844 224.578C251.427 223.735 251.219 222.748 251.219 221.616C251.219 220.499 251.427 219.514 251.844 218.662C252.265 217.81 252.852 217.144 253.605 216.666C254.363 216.188 255.248 215.949 256.261 215.949C256.877 215.949 257.473 216.051 258.051 216.254C258.629 216.458 259.147 216.777 259.607 217.213C260.066 217.649 260.428 218.214 260.693 218.911C260.958 219.602 261.091 220.442 261.091 221.432V222.185H252.419V220.594H259.01C259.01 220.035 258.896 219.54 258.669 219.109C258.442 218.674 258.122 218.33 257.71 218.08C257.303 217.829 256.825 217.703 256.276 217.703C255.679 217.703 255.158 217.85 254.713 218.143C254.273 218.432 253.932 218.811 253.69 219.28C253.454 219.744 253.335 220.248 253.335 220.793V222.036C253.335 222.765 253.463 223.385 253.719 223.896C253.979 224.408 254.341 224.798 254.805 225.068C255.269 225.333 255.812 225.466 256.432 225.466C256.834 225.466 257.201 225.409 257.533 225.295C257.864 225.177 258.151 225.002 258.392 224.77C258.634 224.538 258.818 224.251 258.946 223.911L260.956 224.273C260.795 224.865 260.506 225.383 260.089 225.828C259.678 226.268 259.159 226.612 258.534 226.858C257.914 227.099 257.206 227.22 256.411 227.22ZM263.447 227V216.091H265.485V217.866H265.62C265.848 217.265 266.219 216.796 266.735 216.46C267.252 216.119 267.869 215.949 268.589 215.949C269.318 215.949 269.929 216.119 270.422 216.46C270.919 216.801 271.286 217.27 271.522 217.866H271.636C271.896 217.284 272.311 216.82 272.879 216.474C273.447 216.124 274.124 215.949 274.91 215.949C275.9 215.949 276.707 216.259 277.332 216.879C277.962 217.5 278.277 218.435 278.277 219.685V227H276.153V219.884C276.153 219.145 275.952 218.61 275.549 218.278C275.147 217.947 274.666 217.781 274.108 217.781C273.416 217.781 272.879 217.994 272.495 218.42C272.112 218.842 271.92 219.384 271.92 220.047V227H269.804V219.749C269.804 219.157 269.619 218.681 269.25 218.321C268.88 217.961 268.4 217.781 267.808 217.781C267.405 217.781 267.034 217.888 266.693 218.101C266.357 218.309 266.084 218.6 265.876 218.974C265.672 219.348 265.571 219.782 265.571 220.274V227H263.447ZM283.886 225.011L283.779 225.786C283.708 226.354 283.587 226.946 283.417 227.561C283.251 228.181 283.078 228.757 282.898 229.287C282.723 229.817 282.579 230.239 282.465 230.551H280.96C281.021 230.258 281.106 229.86 281.215 229.358C281.324 228.861 281.431 228.304 281.535 227.689C281.639 227.073 281.717 226.446 281.769 225.807L281.84 225.011H283.886ZM295.118 227.241C294.427 227.241 293.802 227.114 293.243 226.858C292.684 226.598 292.241 226.221 291.915 225.729C291.593 225.236 291.432 224.633 291.432 223.918C291.432 223.302 291.55 222.795 291.787 222.398C292.024 222 292.343 221.685 292.746 221.453C293.148 221.221 293.598 221.046 294.095 220.928C294.592 220.809 295.099 220.719 295.615 220.658C296.268 220.582 296.799 220.52 297.206 220.473C297.613 220.421 297.909 220.338 298.094 220.224C298.278 220.111 298.371 219.926 298.371 219.67V219.621C298.371 219 298.196 218.52 297.845 218.179C297.5 217.838 296.983 217.668 296.297 217.668C295.582 217.668 295.018 217.826 294.607 218.143C294.199 218.456 293.918 218.804 293.761 219.188L291.766 218.733C292.002 218.07 292.348 217.535 292.803 217.128C293.262 216.716 293.79 216.418 294.386 216.233C294.983 216.044 295.61 215.949 296.268 215.949C296.704 215.949 297.166 216.001 297.653 216.105C298.146 216.205 298.605 216.389 299.031 216.659C299.462 216.929 299.815 217.315 300.089 217.817C300.364 218.314 300.501 218.96 300.501 219.756V227H298.428V225.509H298.342C298.205 225.783 297.999 226.053 297.724 226.318C297.45 226.583 297.097 226.804 296.666 226.979C296.235 227.154 295.719 227.241 295.118 227.241ZM295.58 225.537C296.167 225.537 296.669 225.421 297.085 225.189C297.507 224.957 297.826 224.654 298.044 224.28C298.267 223.901 298.378 223.496 298.378 223.065V221.659C298.302 221.735 298.155 221.806 297.938 221.872C297.724 221.934 297.481 221.988 297.206 222.036C296.931 222.078 296.664 222.118 296.403 222.156C296.143 222.189 295.925 222.218 295.75 222.241C295.338 222.294 294.962 222.381 294.621 222.504C294.285 222.627 294.015 222.805 293.811 223.037C293.612 223.264 293.513 223.567 293.513 223.946C293.513 224.472 293.707 224.869 294.095 225.139C294.483 225.404 294.978 225.537 295.58 225.537ZM305.453 220.523V227H303.33V216.091H305.368V217.866H305.503C305.754 217.289 306.147 216.825 306.682 216.474C307.222 216.124 307.901 215.949 308.721 215.949C309.464 215.949 310.115 216.105 310.674 216.418C311.232 216.725 311.666 217.185 311.973 217.795C312.281 218.406 312.435 219.161 312.435 220.061V227H310.311V220.317C310.311 219.526 310.105 218.908 309.694 218.463C309.282 218.013 308.716 217.788 307.996 217.788C307.504 217.788 307.066 217.895 306.682 218.108C306.303 218.321 306.003 218.634 305.78 219.045C305.562 219.453 305.453 219.945 305.453 220.523ZM319.367 227.213C318.486 227.213 317.7 226.988 317.009 226.538C316.322 226.084 315.783 225.437 315.39 224.599C315.001 223.757 314.807 222.746 314.807 221.567C314.807 220.388 315.004 219.379 315.397 218.541C315.794 217.703 316.339 217.062 317.03 216.616C317.721 216.171 318.505 215.949 319.381 215.949C320.058 215.949 320.603 216.062 321.015 216.29C321.431 216.512 321.753 216.773 321.98 217.071C322.212 217.369 322.392 217.632 322.52 217.859H322.648V212.455H324.772V227H322.698V225.303H322.52C322.392 225.535 322.208 225.8 321.966 226.098C321.73 226.396 321.403 226.657 320.986 226.879C320.569 227.102 320.03 227.213 319.367 227.213ZM319.836 225.402C320.446 225.402 320.962 225.241 321.384 224.919C321.81 224.592 322.132 224.14 322.35 223.562C322.572 222.985 322.684 222.312 322.684 221.545C322.684 220.788 322.575 220.125 322.357 219.557C322.139 218.989 321.819 218.546 321.398 218.229C320.977 217.911 320.456 217.753 319.836 217.753C319.196 217.753 318.664 217.919 318.238 218.25C317.811 218.581 317.489 219.034 317.272 219.607C317.059 220.179 316.952 220.826 316.952 221.545C316.952 222.275 317.061 222.93 317.279 223.513C317.497 224.095 317.819 224.557 318.245 224.898C318.676 225.234 319.206 225.402 319.836 225.402ZM340.006 222.476V216.091H342.137V227H340.049V225.111H339.935C339.684 225.693 339.282 226.179 338.728 226.567C338.178 226.95 337.494 227.142 336.675 227.142C335.974 227.142 335.354 226.988 334.814 226.68C334.279 226.368 333.858 225.906 333.55 225.295C333.247 224.685 333.096 223.929 333.096 223.03V216.091H335.219V222.774C335.219 223.518 335.425 224.109 335.837 224.55C336.249 224.99 336.784 225.21 337.442 225.21C337.84 225.21 338.235 225.111 338.628 224.912C339.026 224.713 339.355 224.412 339.615 224.01C339.881 223.607 340.011 223.096 340.006 222.476ZM347.114 220.523V227H344.99V216.091H347.028V217.866H347.163C347.414 217.289 347.807 216.825 348.342 216.474C348.882 216.124 349.562 215.949 350.381 215.949C351.124 215.949 351.775 216.105 352.334 216.418C352.893 216.725 353.326 217.185 353.634 217.795C353.941 218.406 354.095 219.161 354.095 220.061V227H351.972V220.317C351.972 219.526 351.766 218.908 351.354 218.463C350.942 218.013 350.376 217.788 349.656 217.788C349.164 217.788 348.726 217.895 348.342 218.108C347.964 218.321 347.663 218.634 347.44 219.045C347.223 219.453 347.114 219.945 347.114 220.523ZM359.067 212.455V227H356.943V212.455H359.067ZM366.519 227.22C365.496 227.22 364.604 226.986 363.841 226.517C363.079 226.048 362.487 225.393 362.066 224.55C361.644 223.707 361.434 222.722 361.434 221.595C361.434 220.464 361.644 219.474 362.066 218.626C362.487 217.779 363.079 217.121 363.841 216.652C364.604 216.183 365.496 215.949 366.519 215.949C367.542 215.949 368.434 216.183 369.196 216.652C369.959 217.121 370.551 217.779 370.972 218.626C371.393 219.474 371.604 220.464 371.604 221.595C371.604 222.722 371.393 223.707 370.972 224.55C370.551 225.393 369.959 226.048 369.196 226.517C368.434 226.986 367.542 227.22 366.519 227.22ZM366.526 225.438C367.189 225.438 367.738 225.262 368.174 224.912C368.609 224.562 368.931 224.095 369.14 223.513C369.353 222.93 369.459 222.289 369.459 221.588C369.459 220.892 369.353 220.253 369.14 219.67C368.931 219.083 368.609 218.612 368.174 218.257C367.738 217.902 367.189 217.724 366.526 217.724C365.858 217.724 365.304 217.902 364.864 218.257C364.428 218.612 364.104 219.083 363.891 219.67C363.683 220.253 363.578 220.892 363.578 221.588C363.578 222.289 363.683 222.93 363.891 223.513C364.104 224.095 364.428 224.562 364.864 224.912C365.304 225.262 365.858 225.438 366.526 225.438ZM378.57 227.22C377.514 227.22 376.605 226.981 375.842 226.503C375.085 226.02 374.502 225.355 374.095 224.507C373.688 223.66 373.484 222.689 373.484 221.595C373.484 220.487 373.693 219.509 374.109 218.662C374.526 217.81 375.113 217.144 375.871 216.666C376.628 216.188 377.521 215.949 378.548 215.949C379.377 215.949 380.116 216.103 380.764 216.411C381.413 216.714 381.936 217.14 382.334 217.689C382.736 218.238 382.975 218.88 383.051 219.614H380.984C380.871 219.102 380.61 218.662 380.203 218.293C379.801 217.923 379.261 217.739 378.584 217.739C377.992 217.739 377.473 217.895 377.028 218.207C376.588 218.515 376.245 218.955 375.999 219.528C375.752 220.097 375.629 220.769 375.629 221.545C375.629 222.341 375.75 223.027 375.991 223.605C376.233 224.183 376.574 224.63 377.014 224.947C377.459 225.265 377.982 225.423 378.584 225.423C378.986 225.423 379.351 225.35 379.678 225.203C380.009 225.052 380.286 224.836 380.509 224.557C380.736 224.277 380.894 223.941 380.984 223.548H383.051C382.975 224.254 382.746 224.884 382.362 225.438C381.979 225.991 381.465 226.427 380.821 226.744C380.182 227.062 379.431 227.22 378.57 227.22ZM387.275 223.3L387.261 220.707H387.63L391.977 216.091H394.52L389.562 221.347H389.228L387.275 223.3ZM385.322 227V212.455H387.446V227H385.322ZM392.211 227L388.305 221.815L389.768 220.331L394.818 227H392.211ZM401.748 227V216.091H403.871V227H401.748ZM402.82 214.408C402.451 214.408 402.134 214.285 401.869 214.038C401.608 213.787 401.478 213.489 401.478 213.143C401.478 212.793 401.608 212.495 401.869 212.249C402.134 211.998 402.451 211.872 402.82 211.872C403.19 211.872 403.504 211.998 403.765 212.249C404.03 212.495 404.163 212.793 404.163 213.143C404.163 213.489 404.03 213.787 403.765 214.038C403.504 214.285 403.19 214.408 402.82 214.408ZM408.852 220.523V227H406.728V216.091H408.767V217.866H408.902C409.153 217.289 409.546 216.825 410.081 216.474C410.62 216.124 411.3 215.949 412.119 215.949C412.862 215.949 413.513 216.105 414.072 216.418C414.631 216.725 415.064 217.185 415.372 217.795C415.68 218.406 415.833 219.161 415.833 220.061V227H413.71V220.317C413.71 219.526 413.504 218.908 413.092 218.463C412.68 218.013 412.114 217.788 411.395 217.788C410.902 217.788 410.464 217.895 410.081 218.108C409.702 218.321 409.401 218.634 409.179 219.045C408.961 219.453 408.852 219.945 408.852 220.523ZM423.873 216.091V217.795H417.708V216.091H423.873ZM419.399 227V214.827C419.399 214.145 419.548 213.579 419.846 213.129C420.145 212.675 420.54 212.336 421.032 212.114C421.525 211.886 422.06 211.773 422.637 211.773C423.064 211.773 423.428 211.808 423.731 211.879C424.034 211.946 424.259 212.007 424.406 212.064L423.909 213.783C423.809 213.754 423.681 213.721 423.525 213.683C423.369 213.641 423.18 213.619 422.957 213.619C422.441 213.619 422.072 213.747 421.849 214.003C421.631 214.259 421.522 214.628 421.522 215.111V227H419.399ZM426.064 227V216.091H428.188V227H426.064ZM427.137 214.408C426.767 214.408 426.45 214.285 426.185 214.038C425.925 213.787 425.794 213.489 425.794 213.143C425.794 212.793 425.925 212.495 426.185 212.249C426.45 211.998 426.767 211.872 427.137 211.872C427.506 211.872 427.821 211.998 428.081 212.249C428.346 212.495 428.479 212.793 428.479 213.143C428.479 213.489 428.346 213.787 428.081 214.038C427.821 214.285 427.506 214.408 427.137 214.408ZM433.168 220.523V227H431.045V216.091H433.083V217.866H433.218C433.469 217.289 433.862 216.825 434.397 216.474C434.937 216.124 435.616 215.949 436.435 215.949C437.179 215.949 437.83 216.105 438.388 216.418C438.947 216.725 439.38 217.185 439.688 217.795C439.996 218.406 440.15 219.161 440.15 220.061V227H438.026V220.317C438.026 219.526 437.82 218.908 437.408 218.463C436.996 218.013 436.431 217.788 435.711 217.788C435.219 217.788 434.781 217.895 434.397 218.108C434.018 218.321 433.718 218.634 433.495 219.045C433.277 219.453 433.168 219.945 433.168 220.523ZM442.998 227V216.091H445.121V227H442.998ZM444.07 214.408C443.701 214.408 443.384 214.285 443.119 214.038C442.858 213.787 442.728 213.489 442.728 213.143C442.728 212.793 442.858 212.495 443.119 212.249C443.384 211.998 443.701 211.872 444.07 211.872C444.44 211.872 444.754 211.998 445.015 212.249C445.28 212.495 445.413 212.793 445.413 213.143C445.413 213.489 445.28 213.787 445.015 214.038C444.754 214.285 444.44 214.408 444.07 214.408ZM453.071 216.091V217.795H447.112V216.091H453.071ZM448.71 213.477H450.833V223.797C450.833 224.209 450.895 224.519 451.018 224.727C451.141 224.931 451.3 225.071 451.494 225.146C451.693 225.217 451.908 225.253 452.14 225.253C452.311 225.253 452.46 225.241 452.588 225.217C452.716 225.194 452.815 225.175 452.886 225.161L453.27 226.915C453.146 226.962 452.971 227.009 452.744 227.057C452.517 227.109 452.233 227.137 451.892 227.142C451.333 227.152 450.812 227.052 450.329 226.844C449.846 226.635 449.456 226.313 449.157 225.878C448.859 225.442 448.71 224.895 448.71 224.237V213.477ZM460.004 227.22C458.929 227.22 458.004 226.991 457.227 226.531C456.455 226.067 455.859 225.416 455.438 224.578C455.021 223.735 454.812 222.748 454.812 221.616C454.812 220.499 455.021 219.514 455.438 218.662C455.859 217.81 456.446 217.144 457.199 216.666C457.956 216.188 458.842 215.949 459.855 215.949C460.471 215.949 461.067 216.051 461.645 216.254C462.223 216.458 462.741 216.777 463.2 217.213C463.66 217.649 464.022 218.214 464.287 218.911C464.552 219.602 464.685 220.442 464.685 221.432V222.185H456.013V220.594H462.604C462.604 220.035 462.49 219.54 462.263 219.109C462.036 218.674 461.716 218.33 461.304 218.08C460.897 217.829 460.419 217.703 459.869 217.703C459.273 217.703 458.752 217.85 458.307 218.143C457.866 218.432 457.526 218.811 457.284 219.28C457.047 219.744 456.929 220.248 456.929 220.793V222.036C456.929 222.765 457.057 223.385 457.312 223.896C457.573 224.408 457.935 224.798 458.399 225.068C458.863 225.333 459.405 225.466 460.026 225.466C460.428 225.466 460.795 225.409 461.126 225.295C461.458 225.177 461.744 225.002 461.986 224.77C462.227 224.538 462.412 224.251 462.54 223.911L464.55 224.273C464.389 224.865 464.1 225.383 463.683 225.828C463.271 226.268 462.753 226.612 462.128 226.858C461.508 227.099 460.8 227.22 460.004 227.22ZM93.4276 257V246.091H95.4659V247.866H95.6009C95.8281 247.265 96.1998 246.796 96.7159 246.46C97.232 246.119 97.8499 245.949 98.5696 245.949C99.2988 245.949 99.9096 246.119 100.402 246.46C100.899 246.801 101.266 247.27 101.503 247.866H101.616C101.877 247.284 102.291 246.82 102.859 246.474C103.428 246.124 104.105 245.949 104.891 245.949C105.88 245.949 106.688 246.259 107.312 246.879C107.942 247.5 108.257 248.435 108.257 249.685V257H106.134V249.884C106.134 249.145 105.932 248.61 105.53 248.278C105.127 247.947 104.647 247.781 104.088 247.781C103.397 247.781 102.859 247.994 102.476 248.42C102.092 248.842 101.901 249.384 101.901 250.047V257H99.7841V249.749C99.7841 249.157 99.5994 248.681 99.2301 248.321C98.8608 247.961 98.3802 247.781 97.7884 247.781C97.3859 247.781 97.0142 247.888 96.6733 248.101C96.3371 248.309 96.0649 248.6 95.8565 248.974C95.6529 249.348 95.5511 249.782 95.5511 250.274V257H93.4276ZM115.699 257.22C114.676 257.22 113.783 256.986 113.021 256.517C112.259 256.048 111.667 255.393 111.245 254.55C110.824 253.707 110.613 252.722 110.613 251.595C110.613 250.464 110.824 249.474 111.245 248.626C111.667 247.779 112.259 247.121 113.021 246.652C113.783 246.183 114.676 245.949 115.699 245.949C116.721 245.949 117.614 246.183 118.376 246.652C119.138 247.121 119.73 247.779 120.152 248.626C120.573 249.474 120.784 250.464 120.784 251.595C120.784 252.722 120.573 253.707 120.152 254.55C119.73 255.393 119.138 256.048 118.376 256.517C117.614 256.986 116.721 257.22 115.699 257.22ZM115.706 255.438C116.368 255.438 116.918 255.262 117.353 254.912C117.789 254.562 118.111 254.095 118.319 253.513C118.532 252.93 118.639 252.289 118.639 251.588C118.639 250.892 118.532 250.253 118.319 249.67C118.111 249.083 117.789 248.612 117.353 248.257C116.918 247.902 116.368 247.724 115.706 247.724C115.038 247.724 114.484 247.902 114.044 248.257C113.608 248.612 113.284 249.083 113.071 249.67C112.862 250.253 112.758 250.892 112.758 251.588C112.758 252.289 112.862 252.93 113.071 253.513C113.284 254.095 113.608 254.562 114.044 254.912C114.484 255.262 115.038 255.438 115.706 255.438ZM128.246 246.091V247.795H122.288V246.091H128.246ZM123.886 243.477H126.009V253.797C126.009 254.209 126.071 254.519 126.194 254.727C126.317 254.931 126.476 255.071 126.67 255.146C126.869 255.217 127.084 255.253 127.316 255.253C127.487 255.253 127.636 255.241 127.763 255.217C127.891 255.194 127.991 255.175 128.062 255.161L128.445 256.915C128.322 256.962 128.147 257.009 127.92 257.057C127.692 257.109 127.408 257.137 127.067 257.142C126.509 257.152 125.988 257.052 125.505 256.844C125.022 256.635 124.631 256.313 124.333 255.878C124.035 255.442 123.886 254.895 123.886 254.237V243.477ZM130.596 257V246.091H132.719V257H130.596ZM131.668 244.408C131.299 244.408 130.981 244.285 130.716 244.038C130.456 243.787 130.326 243.489 130.326 243.143C130.326 242.793 130.456 242.495 130.716 242.249C130.981 241.998 131.299 241.872 131.668 241.872C132.037 241.872 132.352 241.998 132.613 242.249C132.878 242.495 133.01 242.793 133.01 243.143C133.01 243.489 132.878 243.787 132.613 244.038C132.352 244.285 132.037 244.408 131.668 244.408ZM140.171 257.22C139.148 257.22 138.256 256.986 137.494 256.517C136.731 256.048 136.139 255.393 135.718 254.55C135.297 253.707 135.086 252.722 135.086 251.595C135.086 250.464 135.297 249.474 135.718 248.626C136.139 247.779 136.731 247.121 137.494 246.652C138.256 246.183 139.148 245.949 140.171 245.949C141.194 245.949 142.086 246.183 142.849 246.652C143.611 247.121 144.203 247.779 144.624 248.626C145.046 249.474 145.256 250.464 145.256 251.595C145.256 252.722 145.046 253.707 144.624 254.55C144.203 255.393 143.611 256.048 142.849 256.517C142.086 256.986 141.194 257.22 140.171 257.22ZM140.178 255.438C140.841 255.438 141.39 255.262 141.826 254.912C142.262 254.562 142.584 254.095 142.792 253.513C143.005 252.93 143.112 252.289 143.112 251.588C143.112 250.892 143.005 250.253 142.792 249.67C142.584 249.083 142.262 248.612 141.826 248.257C141.39 247.902 140.841 247.724 140.178 247.724C139.511 247.724 138.957 247.902 138.516 248.257C138.081 248.612 137.756 249.083 137.543 249.67C137.335 250.253 137.231 250.892 137.231 251.588C137.231 252.289 137.335 252.93 137.543 253.513C137.756 254.095 138.081 254.562 138.516 254.912C138.957 255.262 139.511 255.438 140.178 255.438ZM149.75 250.523V257H147.627V246.091H149.665V247.866H149.8C150.051 247.289 150.444 246.825 150.979 246.474C151.519 246.124 152.198 245.949 153.017 245.949C153.761 245.949 154.412 246.105 154.971 246.418C155.529 246.725 155.962 247.185 156.27 247.795C156.578 248.406 156.732 249.161 156.732 250.061V257H154.608V250.317C154.608 249.526 154.402 248.908 153.99 248.463C153.578 248.013 153.013 247.788 152.293 247.788C151.801 247.788 151.363 247.895 150.979 248.108C150.6 248.321 150.3 248.634 150.077 249.045C149.859 249.453 149.75 249.945 149.75 250.523ZM164.873 257V246.091H166.996V257H164.873ZM165.945 244.408C165.576 244.408 165.259 244.285 164.994 244.038C164.733 243.787 164.603 243.489 164.603 243.143C164.603 242.793 164.733 242.495 164.994 242.249C165.259 241.998 165.576 241.872 165.945 241.872C166.315 241.872 166.629 241.998 166.89 242.249C167.155 242.495 167.288 242.793 167.288 243.143C167.288 243.489 167.155 243.787 166.89 244.038C166.629 244.285 166.315 244.408 165.945 244.408ZM171.977 250.523V257H169.853V246.091H171.892V247.866H172.027C172.278 247.289 172.671 246.825 173.206 246.474C173.745 246.124 174.425 245.949 175.244 245.949C175.987 245.949 176.638 246.105 177.197 246.418C177.756 246.725 178.189 247.185 178.497 247.795C178.805 248.406 178.958 249.161 178.958 250.061V257H176.835V250.317C176.835 249.526 176.629 248.908 176.217 248.463C175.805 248.013 175.239 247.788 174.52 247.788C174.027 247.788 173.589 247.895 173.206 248.108C172.827 248.321 172.526 248.634 172.304 249.045C172.086 249.453 171.977 249.945 171.977 250.523ZM190.274 257.241C189.583 257.241 188.958 257.114 188.399 256.858C187.84 256.598 187.398 256.221 187.071 255.729C186.749 255.236 186.588 254.633 186.588 253.918C186.588 253.302 186.706 252.795 186.943 252.398C187.18 252 187.5 251.685 187.902 251.453C188.304 251.221 188.754 251.046 189.251 250.928C189.749 250.809 190.255 250.719 190.771 250.658C191.425 250.582 191.955 250.52 192.362 250.473C192.769 250.421 193.065 250.338 193.25 250.224C193.435 250.111 193.527 249.926 193.527 249.67V249.621C193.527 249 193.352 248.52 193.001 248.179C192.656 247.838 192.14 247.668 191.453 247.668C190.738 247.668 190.175 247.826 189.763 248.143C189.356 248.456 189.074 248.804 188.918 249.188L186.922 248.733C187.159 248.07 187.504 247.535 187.959 247.128C188.418 246.716 188.946 246.418 189.543 246.233C190.139 246.044 190.767 245.949 191.425 245.949C191.86 245.949 192.322 246.001 192.81 246.105C193.302 246.205 193.761 246.389 194.188 246.659C194.618 246.929 194.971 247.315 195.246 247.817C195.52 248.314 195.658 248.96 195.658 249.756V257H193.584V255.509H193.499C193.361 255.783 193.155 256.053 192.881 256.318C192.606 256.583 192.253 256.804 191.822 256.979C191.392 257.154 190.875 257.241 190.274 257.241ZM190.736 255.537C191.323 255.537 191.825 255.421 192.241 255.189C192.663 254.957 192.982 254.654 193.2 254.28C193.423 253.901 193.534 253.496 193.534 253.065V251.659C193.458 251.735 193.312 251.806 193.094 251.872C192.881 251.934 192.637 251.988 192.362 252.036C192.088 252.078 191.82 252.118 191.56 252.156C191.299 252.189 191.081 252.218 190.906 252.241C190.494 252.294 190.118 252.381 189.777 252.504C189.441 252.627 189.171 252.805 188.967 253.037C188.768 253.264 188.669 253.567 188.669 253.946C188.669 254.472 188.863 254.869 189.251 255.139C189.64 255.404 190.134 255.537 190.736 255.537ZM200.61 250.523V257H198.486V246.091H200.525V247.866H200.659C200.91 247.289 201.303 246.825 201.838 246.474C202.378 246.124 203.058 245.949 203.877 245.949C204.62 245.949 205.271 246.105 205.83 246.418C206.389 246.725 206.822 247.185 207.13 247.795C207.437 248.406 207.591 249.161 207.591 250.061V257H205.468V250.317C205.468 249.526 205.262 248.908 204.85 248.463C204.438 248.013 203.872 247.788 203.152 247.788C202.66 247.788 202.222 247.895 201.838 248.108C201.46 248.321 201.159 248.634 200.936 249.045C200.719 249.453 200.61 249.945 200.61 250.523ZM211.391 261.091C211.074 261.091 210.785 261.065 210.525 261.013C210.264 260.965 210.07 260.913 209.942 260.857L210.453 259.116C210.842 259.221 211.187 259.266 211.49 259.251C211.793 259.237 212.061 259.124 212.293 258.911C212.53 258.697 212.738 258.349 212.918 257.866L213.181 257.142L209.189 246.091H211.462L214.225 254.557H214.338L217.101 246.091H219.381L214.885 258.456C214.677 259.024 214.412 259.505 214.09 259.898C213.768 260.295 213.384 260.594 212.939 260.793C212.494 260.991 211.978 261.091 211.391 261.091ZM231.244 261.318C230.377 261.318 229.631 261.205 229.006 260.977C228.386 260.75 227.879 260.449 227.487 260.075C227.094 259.701 226.8 259.292 226.606 258.847L228.431 258.094C228.559 258.302 228.729 258.522 228.942 258.754C229.16 258.991 229.454 259.192 229.823 259.358C230.197 259.524 230.678 259.607 231.265 259.607C232.07 259.607 232.735 259.41 233.261 259.017C233.786 258.629 234.049 258.009 234.049 257.156V255.011H233.914C233.786 255.243 233.602 255.501 233.36 255.786C233.123 256.07 232.797 256.316 232.38 256.524C231.963 256.732 231.421 256.837 230.754 256.837C229.892 256.837 229.115 256.635 228.424 256.233C227.737 255.826 227.193 255.227 226.79 254.436C226.393 253.641 226.194 252.663 226.194 251.503C226.194 250.343 226.39 249.348 226.783 248.52C227.181 247.691 227.726 247.057 228.417 246.616C229.108 246.171 229.892 245.949 230.768 245.949C231.445 245.949 231.992 246.062 232.408 246.29C232.825 246.512 233.149 246.773 233.381 247.071C233.618 247.369 233.8 247.632 233.928 247.859H234.085V246.091H236.165V257.241C236.165 258.179 235.948 258.948 235.512 259.55C235.076 260.151 234.487 260.596 233.744 260.885C233.005 261.174 232.172 261.318 231.244 261.318ZM231.222 255.075C231.833 255.075 232.349 254.933 232.771 254.649C233.197 254.36 233.519 253.948 233.737 253.413C233.959 252.874 234.07 252.227 234.07 251.474C234.07 250.741 233.961 250.094 233.744 249.536C233.526 248.977 233.206 248.541 232.785 248.229C232.363 247.911 231.843 247.753 231.222 247.753C230.583 247.753 230.05 247.919 229.624 248.25C229.198 248.577 228.876 249.022 228.658 249.585C228.445 250.149 228.339 250.778 228.339 251.474C228.339 252.189 228.448 252.817 228.665 253.357C228.883 253.896 229.205 254.318 229.631 254.621C230.062 254.924 230.593 255.075 231.222 255.075ZM242.188 257.241C241.497 257.241 240.872 257.114 240.313 256.858C239.754 256.598 239.312 256.221 238.985 255.729C238.663 255.236 238.502 254.633 238.502 253.918C238.502 253.302 238.621 252.795 238.857 252.398C239.094 252 239.414 251.685 239.816 251.453C240.219 251.221 240.668 251.046 241.165 250.928C241.663 250.809 242.169 250.719 242.685 250.658C243.339 250.582 243.869 250.52 244.276 250.473C244.683 250.421 244.979 250.338 245.164 250.224C245.349 250.111 245.441 249.926 245.441 249.67V249.621C245.441 249 245.266 248.52 244.915 248.179C244.57 247.838 244.054 247.668 243.367 247.668C242.652 247.668 242.089 247.826 241.677 248.143C241.27 248.456 240.988 248.804 240.832 249.188L238.836 248.733C239.073 248.07 239.418 247.535 239.873 247.128C240.332 246.716 240.86 246.418 241.457 246.233C242.053 246.044 242.681 245.949 243.339 245.949C243.774 245.949 244.236 246.001 244.724 246.105C245.216 246.205 245.675 246.389 246.102 246.659C246.532 246.929 246.885 247.315 247.16 247.817C247.434 248.314 247.572 248.96 247.572 249.756V257H245.498V255.509H245.413C245.275 255.783 245.069 256.053 244.795 256.318C244.52 256.583 244.167 256.804 243.737 256.979C243.306 257.154 242.79 257.241 242.188 257.241ZM242.65 255.537C243.237 255.537 243.739 255.421 244.156 255.189C244.577 254.957 244.897 254.654 245.114 254.28C245.337 253.901 245.448 253.496 245.448 253.065V251.659C245.372 251.735 245.226 251.806 245.008 251.872C244.795 251.934 244.551 251.988 244.276 252.036C244.002 252.078 243.734 252.118 243.474 252.156C243.213 252.189 242.996 252.218 242.82 252.241C242.408 252.294 242.032 252.381 241.691 252.504C241.355 252.627 241.085 252.805 240.881 253.037C240.683 253.264 240.583 253.567 240.583 253.946C240.583 254.472 240.777 254.869 241.165 255.139C241.554 255.404 242.049 255.537 242.65 255.537ZM250.4 257V246.091H252.439V247.866H252.574C252.801 247.265 253.172 246.796 253.689 246.46C254.205 246.119 254.823 245.949 255.542 245.949C256.271 245.949 256.882 246.119 257.375 246.46C257.872 246.801 258.239 247.27 258.475 247.866H258.589C258.85 247.284 259.264 246.82 259.832 246.474C260.4 246.124 261.077 245.949 261.863 245.949C262.853 245.949 263.66 246.259 264.285 246.879C264.915 247.5 265.23 248.435 265.23 249.685V257H263.106V249.884C263.106 249.145 262.905 248.61 262.502 248.278C262.1 247.947 261.619 247.781 261.061 247.781C260.369 247.781 259.832 247.994 259.449 248.42C259.065 248.842 258.873 249.384 258.873 250.047V257H256.757V249.749C256.757 249.157 256.572 248.681 256.203 248.321C255.833 247.961 255.353 247.781 254.761 247.781C254.359 247.781 253.987 247.888 253.646 248.101C253.31 248.309 253.038 248.6 252.829 248.974C252.626 249.348 252.524 249.782 252.524 250.274V257H250.4ZM272.778 257.22C271.703 257.22 270.777 256.991 270.001 256.531C269.229 256.067 268.632 255.416 268.211 254.578C267.794 253.735 267.586 252.748 267.586 251.616C267.586 250.499 267.794 249.514 268.211 248.662C268.632 247.81 269.219 247.144 269.972 246.666C270.73 246.188 271.615 245.949 272.629 245.949C273.244 245.949 273.841 246.051 274.418 246.254C274.996 246.458 275.514 246.777 275.974 247.213C276.433 247.649 276.795 248.214 277.06 248.911C277.326 249.602 277.458 250.442 277.458 251.432V252.185H268.786V250.594H275.377C275.377 250.035 275.263 249.54 275.036 249.109C274.809 248.674 274.489 248.33 274.077 248.08C273.67 247.829 273.192 247.703 272.643 247.703C272.046 247.703 271.525 247.85 271.08 248.143C270.64 248.432 270.299 248.811 270.058 249.28C269.821 249.744 269.702 250.248 269.702 250.793V252.036C269.702 252.765 269.83 253.385 270.086 253.896C270.346 254.408 270.709 254.798 271.173 255.068C271.637 255.333 272.179 255.466 272.799 255.466C273.201 255.466 273.568 255.409 273.9 255.295C274.231 255.177 274.518 255.002 274.759 254.77C275.001 254.538 275.185 254.251 275.313 253.911L277.323 254.273C277.162 254.865 276.873 255.383 276.457 255.828C276.045 256.268 275.526 256.612 274.901 256.858C274.281 257.099 273.573 257.22 272.778 257.22ZM287.989 248.754L286.064 249.095C285.984 248.849 285.856 248.615 285.681 248.392C285.51 248.17 285.278 247.987 284.985 247.845C284.691 247.703 284.324 247.632 283.884 247.632C283.283 247.632 282.781 247.767 282.378 248.037C281.976 248.302 281.775 248.645 281.775 249.067C281.775 249.431 281.909 249.725 282.179 249.947C282.449 250.17 282.885 250.352 283.486 250.494L285.219 250.892C286.223 251.124 286.971 251.482 287.463 251.964C287.956 252.447 288.202 253.075 288.202 253.847C288.202 254.5 288.013 255.082 287.634 255.594C287.26 256.1 286.737 256.498 286.064 256.787C285.397 257.076 284.623 257.22 283.742 257.22C282.52 257.22 281.524 256.96 280.752 256.439C279.98 255.913 279.507 255.168 279.331 254.202L281.384 253.889C281.512 254.424 281.775 254.829 282.172 255.104C282.57 255.374 283.088 255.509 283.728 255.509C284.424 255.509 284.98 255.364 285.397 255.075C285.813 254.782 286.022 254.424 286.022 254.003C286.022 253.662 285.894 253.375 285.638 253.143C285.387 252.911 285.001 252.736 284.48 252.618L282.634 252.213C281.616 251.981 280.863 251.612 280.375 251.105C279.892 250.598 279.651 249.957 279.651 249.18C279.651 248.536 279.831 247.973 280.191 247.49C280.551 247.007 281.048 246.631 281.682 246.361C282.317 246.086 283.043 245.949 283.863 245.949C285.042 245.949 285.97 246.205 286.647 246.716C287.324 247.223 287.771 247.902 287.989 248.754ZM300.425 257.22C299.402 257.22 298.51 256.986 297.748 256.517C296.985 256.048 296.393 255.393 295.972 254.55C295.551 253.707 295.34 252.722 295.34 251.595C295.34 250.464 295.551 249.474 295.972 248.626C296.393 247.779 296.985 247.121 297.748 246.652C298.51 246.183 299.402 245.949 300.425 245.949C301.448 245.949 302.34 246.183 303.103 246.652C303.865 247.121 304.457 247.779 304.878 248.626C305.3 249.474 305.51 250.464 305.51 251.595C305.51 252.722 305.3 253.707 304.878 254.55C304.457 255.393 303.865 256.048 303.103 256.517C302.34 256.986 301.448 257.22 300.425 257.22ZM300.432 255.438C301.095 255.438 301.644 255.262 302.08 254.912C302.516 254.562 302.837 254.095 303.046 253.513C303.259 252.93 303.365 252.289 303.365 251.588C303.365 250.892 303.259 250.253 303.046 249.67C302.837 249.083 302.516 248.612 302.08 248.257C301.644 247.902 301.095 247.724 300.432 247.724C299.765 247.724 299.211 247.902 298.77 248.257C298.335 248.612 298.01 249.083 297.797 249.67C297.589 250.253 297.485 250.892 297.485 251.588C297.485 252.289 297.589 252.93 297.797 253.513C298.01 254.095 298.335 254.562 298.77 254.912C299.211 255.262 299.765 255.438 300.432 255.438ZM310.004 250.523V257H307.881V246.091H309.919V247.866H310.054C310.305 247.289 310.698 246.825 311.233 246.474C311.773 246.124 312.452 245.949 313.271 245.949C314.015 245.949 314.666 246.105 315.224 246.418C315.783 246.725 316.216 247.185 316.524 247.795C316.832 248.406 316.986 249.161 316.986 250.061V257H314.862V250.317C314.862 249.526 314.656 248.908 314.244 248.463C313.832 248.013 313.267 247.788 312.547 247.788C312.054 247.788 311.616 247.895 311.233 248.108C310.854 248.321 310.554 248.634 310.331 249.045C310.113 249.453 310.004 249.945 310.004 250.523ZM328.301 257.241C327.61 257.241 326.985 257.114 326.426 256.858C325.868 256.598 325.425 256.221 325.098 255.729C324.776 255.236 324.615 254.633 324.615 253.918C324.615 253.302 324.734 252.795 324.971 252.398C325.207 252 325.527 251.685 325.929 251.453C326.332 251.221 326.782 251.046 327.279 250.928C327.776 250.809 328.283 250.719 328.799 250.658C329.452 250.582 329.982 250.52 330.39 250.473C330.797 250.421 331.093 250.338 331.277 250.224C331.462 250.111 331.554 249.926 331.554 249.67V249.621C331.554 249 331.379 248.52 331.029 248.179C330.683 247.838 330.167 247.668 329.48 247.668C328.766 247.668 328.202 247.826 327.79 248.143C327.383 248.456 327.101 248.804 326.945 249.188L324.949 248.733C325.186 248.07 325.532 247.535 325.986 247.128C326.445 246.716 326.973 246.418 327.57 246.233C328.167 246.044 328.794 245.949 329.452 245.949C329.888 245.949 330.349 246.001 330.837 246.105C331.329 246.205 331.789 246.389 332.215 246.659C332.646 246.929 332.998 247.315 333.273 247.817C333.548 248.314 333.685 248.96 333.685 249.756V257H331.611V255.509H331.526C331.389 255.783 331.183 256.053 330.908 256.318C330.633 256.583 330.281 256.804 329.85 256.979C329.419 257.154 328.903 257.241 328.301 257.241ZM328.763 255.537C329.35 255.537 329.852 255.421 330.269 255.189C330.69 254.957 331.01 254.654 331.228 254.28C331.45 253.901 331.561 253.496 331.561 253.065V251.659C331.486 251.735 331.339 251.806 331.121 251.872C330.908 251.934 330.664 251.988 330.39 252.036C330.115 252.078 329.847 252.118 329.587 252.156C329.327 252.189 329.109 252.218 328.934 252.241C328.522 252.294 328.145 252.381 327.804 252.504C327.468 252.627 327.198 252.805 326.995 253.037C326.796 253.264 326.696 253.567 326.696 253.946C326.696 254.472 326.891 254.869 327.279 255.139C327.667 255.404 328.162 255.537 328.763 255.537ZM338.637 250.523V257H336.513V246.091H338.552V247.866H338.687C338.938 247.289 339.331 246.825 339.866 246.474C340.406 246.124 341.085 245.949 341.904 245.949C342.647 245.949 343.299 246.105 343.857 246.418C344.416 246.725 344.849 247.185 345.157 247.795C345.465 248.406 345.619 249.161 345.619 250.061V257H343.495V250.317C343.495 249.526 343.289 248.908 342.877 248.463C342.465 248.013 341.899 247.788 341.18 247.788C340.687 247.788 340.249 247.895 339.866 248.108C339.487 248.321 339.186 248.634 338.964 249.045C338.746 249.453 338.637 249.945 338.637 250.523ZM349.418 261.091C349.101 261.091 348.812 261.065 348.552 261.013C348.291 260.965 348.097 260.913 347.969 260.857L348.481 259.116C348.869 259.221 349.215 259.266 349.518 259.251C349.821 259.237 350.088 259.124 350.32 258.911C350.557 258.697 350.765 258.349 350.945 257.866L351.208 257.142L347.217 246.091H349.489L352.252 254.557H352.366L355.129 246.091H357.408L352.913 258.456C352.704 259.024 352.439 259.505 352.117 259.898C351.795 260.295 351.412 260.594 350.967 260.793C350.522 260.991 350.005 261.091 349.418 261.091ZM364.697 261.091V246.091H366.771V247.859H366.949C367.072 247.632 367.249 247.369 367.481 247.071C367.713 246.773 368.035 246.512 368.447 246.29C368.859 246.062 369.404 245.949 370.081 245.949C370.961 245.949 371.747 246.171 372.439 246.616C373.13 247.062 373.672 247.703 374.065 248.541C374.463 249.379 374.662 250.388 374.662 251.567C374.662 252.746 374.465 253.757 374.072 254.599C373.679 255.437 373.139 256.084 372.453 256.538C371.766 256.988 370.983 257.213 370.102 257.213C369.439 257.213 368.897 257.102 368.475 256.879C368.059 256.657 367.732 256.396 367.495 256.098C367.259 255.8 367.076 255.535 366.949 255.303H366.821V261.091H364.697ZM366.778 251.545C366.778 252.312 366.889 252.985 367.112 253.562C367.334 254.14 367.656 254.592 368.078 254.919C368.499 255.241 369.015 255.402 369.626 255.402C370.261 255.402 370.791 255.234 371.217 254.898C371.643 254.557 371.965 254.095 372.183 253.513C372.405 252.93 372.517 252.275 372.517 251.545C372.517 250.826 372.408 250.179 372.19 249.607C371.977 249.034 371.655 248.581 371.224 248.25C370.798 247.919 370.265 247.753 369.626 247.753C369.011 247.753 368.49 247.911 368.064 248.229C367.642 248.546 367.323 248.989 367.105 249.557C366.887 250.125 366.778 250.788 366.778 251.545ZM379.164 242.455V257H377.041V242.455H379.164ZM385.196 257.241C384.505 257.241 383.88 257.114 383.321 256.858C382.762 256.598 382.32 256.221 381.993 255.729C381.671 255.236 381.51 254.633 381.51 253.918C381.51 253.302 381.628 252.795 381.865 252.398C382.102 252 382.421 251.685 382.824 251.453C383.226 251.221 383.676 251.046 384.173 250.928C384.67 250.809 385.177 250.719 385.693 250.658C386.347 250.582 386.877 250.52 387.284 250.473C387.691 250.421 387.987 250.338 388.172 250.224C388.357 250.111 388.449 249.926 388.449 249.67V249.621C388.449 249 388.274 248.52 387.923 248.179C387.578 247.838 387.062 247.668 386.375 247.668C385.66 247.668 385.097 247.826 384.685 248.143C384.277 248.456 383.996 248.804 383.839 249.188L381.844 248.733C382.08 248.07 382.426 247.535 382.881 247.128C383.34 246.716 383.868 246.418 384.464 246.233C385.061 246.044 385.688 245.949 386.347 245.949C386.782 245.949 387.244 246.001 387.732 246.105C388.224 246.205 388.683 246.389 389.109 246.659C389.54 246.929 389.893 247.315 390.168 247.817C390.442 248.314 390.58 248.96 390.58 249.756V257H388.506V255.509H388.42C388.283 255.783 388.077 256.053 387.803 256.318C387.528 256.583 387.175 256.804 386.744 256.979C386.313 257.154 385.797 257.241 385.196 257.241ZM385.658 255.537C386.245 255.537 386.747 255.421 387.163 255.189C387.585 254.957 387.904 254.654 388.122 254.28C388.345 253.901 388.456 253.496 388.456 253.065V251.659C388.38 251.735 388.233 251.806 388.016 251.872C387.803 251.934 387.559 251.988 387.284 252.036C387.009 252.078 386.742 252.118 386.482 252.156C386.221 252.189 386.003 252.218 385.828 252.241C385.416 252.294 385.04 252.381 384.699 252.504C384.363 252.627 384.093 252.805 383.889 253.037C383.69 253.264 383.591 253.567 383.591 253.946C383.591 254.472 383.785 254.869 384.173 255.139C384.562 255.404 385.056 255.537 385.658 255.537ZM398.5 246.091V247.795H392.542V246.091H398.5ZM394.14 243.477H396.263V253.797C396.263 254.209 396.325 254.519 396.448 254.727C396.571 254.931 396.73 255.071 396.924 255.146C397.123 255.217 397.338 255.253 397.57 255.253C397.74 255.253 397.89 255.241 398.017 255.217C398.145 255.194 398.245 255.175 398.316 255.161L398.699 256.915C398.576 256.962 398.401 257.009 398.174 257.057C397.946 257.109 397.662 257.137 397.321 257.142C396.763 257.152 396.242 257.052 395.759 256.844C395.276 256.635 394.885 256.313 394.587 255.878C394.289 255.442 394.14 254.895 394.14 254.237V243.477ZM406.041 246.091V247.795H399.876V246.091H406.041ZM401.567 257V244.827C401.567 244.145 401.716 243.579 402.014 243.129C402.313 242.675 402.708 242.336 403.2 242.114C403.693 241.886 404.228 241.773 404.805 241.773C405.232 241.773 405.596 241.808 405.899 241.879C406.202 241.946 406.427 242.007 406.574 242.064L406.077 243.783C405.977 243.754 405.849 243.721 405.693 243.683C405.537 243.641 405.348 243.619 405.125 243.619C404.609 243.619 404.24 243.747 404.017 244.003C403.799 244.259 403.69 244.628 403.69 245.111V257H401.567ZM412.398 257.22C411.375 257.22 410.482 256.986 409.72 256.517C408.958 256.048 408.366 255.393 407.945 254.55C407.523 253.707 407.312 252.722 407.312 251.595C407.312 250.464 407.523 249.474 407.945 248.626C408.366 247.779 408.958 247.121 409.72 246.652C410.482 246.183 411.375 245.949 412.398 245.949C413.42 245.949 414.313 246.183 415.075 246.652C415.838 247.121 416.429 247.779 416.851 248.626C417.272 249.474 417.483 250.464 417.483 251.595C417.483 252.722 417.272 253.707 416.851 254.55C416.429 255.393 415.838 256.048 415.075 256.517C414.313 256.986 413.42 257.22 412.398 257.22ZM412.405 255.438C413.068 255.438 413.617 255.262 414.053 254.912C414.488 254.562 414.81 254.095 415.018 253.513C415.232 252.93 415.338 252.289 415.338 251.588C415.338 250.892 415.232 250.253 415.018 249.67C414.81 249.083 414.488 248.612 414.053 248.257C413.617 247.902 413.068 247.724 412.405 247.724C411.737 247.724 411.183 247.902 410.743 248.257C410.307 248.612 409.983 249.083 409.77 249.67C409.562 250.253 409.457 250.892 409.457 251.588C409.457 252.289 409.562 252.93 409.77 253.513C409.983 254.095 410.307 254.562 410.743 254.912C411.183 255.262 411.737 255.438 412.405 255.438ZM419.853 257V246.091H421.906V247.824H422.02C422.218 247.237 422.569 246.775 423.071 246.439C423.577 246.098 424.15 245.928 424.789 245.928C424.922 245.928 425.078 245.932 425.258 245.942C425.443 245.951 425.587 245.963 425.691 245.977V248.009C425.606 247.985 425.455 247.959 425.237 247.93C425.019 247.897 424.801 247.881 424.583 247.881C424.082 247.881 423.634 247.987 423.241 248.2C422.853 248.409 422.545 248.7 422.318 249.074C422.091 249.443 421.977 249.865 421.977 250.338V257H419.853ZM427.529 257V246.091H429.567V247.866H429.702C429.93 247.265 430.301 246.796 430.817 246.46C431.334 246.119 431.951 245.949 432.671 245.949C433.4 245.949 434.011 246.119 434.504 246.46C435.001 246.801 435.368 247.27 435.604 247.866H435.718C435.978 247.284 436.393 246.82 436.961 246.474C437.529 246.124 438.206 245.949 438.992 245.949C439.982 245.949 440.789 246.259 441.414 246.879C442.044 247.5 442.359 248.435 442.359 249.685V257H440.235V249.884C440.235 249.145 440.034 248.61 439.631 248.278C439.229 247.947 438.748 247.781 438.19 247.781C437.498 247.781 436.961 247.994 436.577 248.42C436.194 248.842 436.002 249.384 436.002 250.047V257H433.886V249.749C433.886 249.157 433.701 248.681 433.332 248.321C432.962 247.961 432.482 247.781 431.89 247.781C431.487 247.781 431.116 247.888 430.775 248.101C430.439 248.309 430.166 248.6 429.958 248.974C429.754 249.348 429.653 249.782 429.653 250.274V257H427.529ZM453.38 248.754L451.455 249.095C451.374 248.849 451.247 248.615 451.071 248.392C450.901 248.17 450.669 247.987 450.375 247.845C450.082 247.703 449.715 247.632 449.275 247.632C448.673 247.632 448.171 247.767 447.769 248.037C447.366 248.302 447.165 248.645 447.165 249.067C447.165 249.431 447.3 249.725 447.57 249.947C447.84 250.17 448.275 250.352 448.877 250.494L450.61 250.892C451.614 251.124 452.362 251.482 452.854 251.964C453.346 252.447 453.593 253.075 453.593 253.847C453.593 254.5 453.403 255.082 453.025 255.594C452.65 256.1 452.127 256.498 451.455 256.787C450.787 257.076 450.013 257.22 449.132 257.22C447.911 257.22 446.914 256.96 446.142 256.439C445.371 255.913 444.897 255.168 444.722 254.202L446.775 253.889C446.902 254.424 447.165 254.829 447.563 255.104C447.961 255.374 448.479 255.509 449.118 255.509C449.814 255.509 450.371 255.364 450.787 255.075C451.204 254.782 451.412 254.424 451.412 254.003C451.412 253.662 451.284 253.375 451.029 253.143C450.778 252.911 450.392 252.736 449.871 252.618L448.025 252.213C447.007 251.981 446.254 251.612 445.766 251.105C445.283 250.598 445.042 249.957 445.042 249.18C445.042 248.536 445.221 247.973 445.581 247.49C445.941 247.007 446.438 246.631 447.073 246.361C447.707 246.086 448.434 245.949 449.253 245.949C450.432 245.949 451.36 246.205 452.037 246.716C452.714 247.223 453.162 247.902 453.38 248.754ZM458.605 242.455L458.42 252.817H456.453L456.268 242.455H458.605ZM457.44 257.135C457.047 257.135 456.711 256.998 456.432 256.723C456.152 256.444 456.015 256.107 456.02 255.714C456.015 255.326 456.152 254.995 456.432 254.72C456.711 254.441 457.047 254.301 457.44 254.301C457.824 254.301 458.155 254.441 458.435 254.72C458.714 254.995 458.856 255.326 458.861 255.714C458.856 255.975 458.787 256.214 458.655 256.432C458.527 256.645 458.357 256.815 458.143 256.943C457.93 257.071 457.696 257.135 457.44 257.135Z" fill="#929292"/>
<path d="M98.9176 296.455V311H96.7159V298.656H96.6307L93.1506 300.929V298.827L96.7798 296.455H98.9176ZM102.852 311V309.409L107.774 304.31C108.3 303.756 108.733 303.27 109.074 302.854C109.42 302.432 109.678 302.032 109.848 301.653C110.018 301.275 110.104 300.872 110.104 300.446C110.104 299.963 109.99 299.546 109.763 299.196C109.536 298.841 109.225 298.569 108.832 298.379C108.439 298.185 107.997 298.088 107.504 298.088C106.983 298.088 106.529 298.195 106.141 298.408C105.752 298.621 105.454 298.921 105.246 299.31C105.037 299.698 104.933 300.152 104.933 300.673H102.838C102.838 299.788 103.042 299.014 103.449 298.351C103.856 297.688 104.415 297.174 105.125 296.81C105.835 296.44 106.643 296.256 107.547 296.256C108.461 296.256 109.266 296.438 109.962 296.803C110.662 297.162 111.209 297.655 111.602 298.28C111.995 298.9 112.192 299.601 112.192 300.382C112.192 300.922 112.09 301.45 111.886 301.966C111.688 302.482 111.339 303.057 110.842 303.692C110.345 304.321 109.654 305.086 108.768 305.986L105.878 309.011V309.118H112.426V311H102.852ZM120.182 311.241C119.06 311.237 118.101 310.941 117.305 310.354C116.51 309.767 115.902 308.912 115.48 307.79C115.059 306.668 114.848 305.316 114.848 303.734C114.848 302.158 115.059 300.811 115.48 299.693C115.906 298.576 116.517 297.723 117.312 297.136C118.113 296.549 119.069 296.256 120.182 296.256C121.295 296.256 122.249 296.552 123.044 297.143C123.839 297.731 124.448 298.583 124.869 299.7C125.295 300.813 125.509 302.158 125.509 303.734C125.509 305.321 125.298 306.675 124.876 307.797C124.455 308.914 123.847 309.769 123.051 310.361C122.256 310.948 121.299 311.241 120.182 311.241ZM120.182 309.345C121.167 309.345 121.936 308.865 122.49 307.903C123.049 306.942 123.328 305.553 123.328 303.734C123.328 302.527 123.2 301.507 122.945 300.673C122.694 299.835 122.331 299.201 121.858 298.77C121.389 298.334 120.83 298.116 120.182 298.116C119.202 298.116 118.432 298.599 117.874 299.565C117.315 300.531 117.033 301.921 117.028 303.734C117.028 304.946 117.154 305.972 117.405 306.81C117.661 307.643 118.023 308.275 118.491 308.706C118.96 309.132 119.524 309.345 120.182 309.345ZM133.092 311.241C131.97 311.237 131.011 310.941 130.216 310.354C129.42 309.767 128.812 308.912 128.39 307.79C127.969 306.668 127.758 305.316 127.758 303.734C127.758 302.158 127.969 300.811 128.39 299.693C128.816 298.576 129.427 297.723 130.223 297.136C131.023 296.549 131.979 296.256 133.092 296.256C134.205 296.256 135.159 296.552 135.954 297.143C136.75 297.731 137.358 298.583 137.779 299.7C138.206 300.813 138.419 302.158 138.419 303.734C138.419 305.321 138.208 306.675 137.787 307.797C137.365 308.914 136.757 309.769 135.961 310.361C135.166 310.948 134.209 311.241 133.092 311.241ZM133.092 309.345C134.077 309.345 134.846 308.865 135.4 307.903C135.959 306.942 136.238 305.553 136.238 303.734C136.238 302.527 136.11 301.507 135.855 300.673C135.604 299.835 135.242 299.201 134.768 298.77C134.299 298.334 133.741 298.116 133.092 298.116C132.112 298.116 131.342 298.599 130.784 299.565C130.225 300.531 129.943 301.921 129.939 303.734C129.939 304.946 130.064 305.972 130.315 306.81C130.571 307.643 130.933 308.275 131.402 308.706C131.87 309.132 132.434 309.345 133.092 309.345ZM145.427 312.818V294.636H146.592V312.818H145.427ZM149.07 300.276C148.995 299.603 148.682 299.082 148.133 298.713C147.584 298.339 146.892 298.152 146.059 298.152C145.462 298.152 144.946 298.247 144.511 298.436C144.075 298.621 143.737 298.876 143.495 299.203C143.258 299.525 143.14 299.892 143.14 300.304C143.14 300.65 143.22 300.948 143.381 301.199C143.547 301.45 143.763 301.661 144.028 301.831C144.298 301.997 144.586 302.136 144.894 302.25C145.202 302.359 145.498 302.449 145.782 302.52L147.202 302.889C147.666 303.003 148.142 303.157 148.63 303.351C149.118 303.545 149.57 303.801 149.987 304.118C150.403 304.435 150.739 304.828 150.995 305.297C151.255 305.766 151.386 306.327 151.386 306.98C151.386 307.804 151.173 308.536 150.746 309.175C150.325 309.814 149.712 310.318 148.907 310.688C148.107 311.057 147.138 311.241 146.002 311.241C144.913 311.241 143.971 311.069 143.175 310.723C142.38 310.377 141.757 309.887 141.308 309.253C140.858 308.614 140.609 307.856 140.562 306.98H142.763C142.806 307.506 142.977 307.944 143.275 308.294C143.578 308.64 143.964 308.898 144.433 309.068C144.906 309.234 145.424 309.317 145.988 309.317C146.608 309.317 147.16 309.22 147.643 309.026C148.13 308.827 148.514 308.552 148.793 308.202C149.073 307.847 149.212 307.432 149.212 306.959C149.212 306.528 149.089 306.175 148.843 305.901C148.602 305.626 148.272 305.399 147.856 305.219C147.444 305.039 146.978 304.88 146.457 304.743L144.738 304.274C143.573 303.957 142.65 303.491 141.968 302.875C141.291 302.259 140.952 301.445 140.952 300.432C140.952 299.594 141.18 298.862 141.634 298.237C142.089 297.612 142.704 297.127 143.481 296.781C144.257 296.431 145.133 296.256 146.109 296.256C147.094 296.256 147.962 296.429 148.715 296.774C149.473 297.12 150.069 297.596 150.505 298.202C150.941 298.803 151.168 299.494 151.187 300.276H149.07Z" fill="white"/>
</svg>
