<svg width="135" height="14" viewBox="0 0 135 14" fill="none" xmlns="http://www.w3.org/2000/svg">
<path d="M0.232955 11V0.818182H1.46591V5.35227H6.89489V0.818182H8.12784V11H6.89489V6.44602H1.46591V11H0.232955ZM12.6843 11.179C12.2004 11.179 11.7612 11.0878 11.3668 10.9055C10.9724 10.7199 10.6592 10.4531 10.4272 10.1051C10.1952 9.75379 10.0792 9.32955 10.0792 8.83239C10.0792 8.39489 10.1654 8.04025 10.3377 7.76847C10.5101 7.49337 10.7404 7.27794 11.0288 7.12216C11.3171 6.96638 11.6353 6.85038 11.9833 6.77415C12.3346 6.6946 12.6876 6.63163 13.0423 6.58523C13.5063 6.52557 13.8825 6.48082 14.1708 6.45099C14.4625 6.41785 14.6746 6.36316 14.8072 6.28693C14.9431 6.2107 15.011 6.07812 15.011 5.8892V5.84943C15.011 5.3589 14.8768 4.97775 14.6083 4.70597C14.3432 4.43419 13.9405 4.2983 13.4002 4.2983C12.8401 4.2983 12.4009 4.42093 12.0827 4.66619C11.7646 4.91146 11.5408 5.1733 11.4116 5.4517L10.2979 5.05398C10.4968 4.58996 10.762 4.22869 11.0934 3.97017C11.4281 3.70833 11.7927 3.52604 12.1871 3.4233C12.5849 3.31723 12.976 3.2642 13.3604 3.2642C13.6057 3.2642 13.8874 3.29403 14.2056 3.35369C14.5271 3.41004 14.837 3.5277 15.1353 3.70668C15.4369 3.88565 15.6871 4.15578 15.886 4.51705C16.0849 4.87831 16.1843 5.36222 16.1843 5.96875V11H15.011V9.96591H14.9513C14.8718 10.1316 14.7392 10.3089 14.5536 10.4979C14.368 10.6868 14.1211 10.8475 13.8129 10.9801C13.5046 11.1127 13.1284 11.179 12.6843 11.179ZM12.8633 10.125C13.3273 10.125 13.7184 10.0339 14.0366 9.85156C14.3581 9.66927 14.6 9.43395 14.7624 9.1456C14.9281 8.85724 15.011 8.55398 15.011 8.2358V7.16193C14.9613 7.22159 14.8519 7.27628 14.6829 7.32599C14.5172 7.3724 14.3249 7.41383 14.1062 7.45028C13.8907 7.48343 13.6803 7.51326 13.4748 7.53977C13.2726 7.56297 13.1085 7.58286 12.9826 7.59943C12.6777 7.6392 12.3926 7.70384 12.1275 7.79332C11.8656 7.8795 11.6535 8.01042 11.4911 8.18608C11.332 8.35843 11.2525 8.59375 11.2525 8.89205C11.2525 9.29972 11.4033 9.60795 11.7049 9.81676C12.0098 10.0223 12.396 10.125 12.8633 10.125ZM24.2967 3.36364L21.4728 11H20.2797L17.4558 3.36364H18.7285L20.8365 9.44886H20.916L23.024 3.36364H24.2967ZM28.7736 11.1591C28.0378 11.1591 27.4031 10.9967 26.8695 10.6719C26.3392 10.3438 25.9299 9.88636 25.6415 9.29972C25.3565 8.70975 25.214 8.02367 25.214 7.24148C25.214 6.45928 25.3565 5.76989 25.6415 5.1733C25.9299 4.57339 26.3309 4.10606 26.8446 3.77131C27.3617 3.43324 27.9649 3.2642 28.6543 3.2642C29.052 3.2642 29.4448 3.33049 29.8326 3.46307C30.2203 3.59564 30.5733 3.81108 30.8915 4.10938C31.2097 4.40436 31.4632 4.79545 31.6522 5.28267C31.8411 5.76989 31.9355 6.36979 31.9355 7.08239V7.57955H26.0492V6.56534H30.7424C30.7424 6.13447 30.6562 5.75 30.4838 5.41193C30.3148 5.07386 30.0729 4.80705 29.758 4.61151C29.4464 4.41596 29.0785 4.31818 28.6543 4.31818C28.187 4.31818 27.7826 4.43419 27.4412 4.66619C27.1032 4.89489 26.843 5.19318 26.6607 5.56108C26.4784 5.92898 26.3873 6.32339 26.3873 6.74432V7.42045C26.3873 7.99716 26.4867 8.48603 26.6855 8.88707C26.8877 9.2848 27.1678 9.58807 27.5257 9.79688C27.8837 10.0024 28.2997 10.1051 28.7736 10.1051C29.0819 10.1051 29.3603 10.062 29.6088 9.97585C29.8607 9.88636 30.0778 9.75379 30.2601 9.57812C30.4424 9.39915 30.5833 9.17708 30.6827 8.91193L31.8162 9.23011C31.6969 9.61458 31.4964 9.95265 31.2147 10.2443C30.9329 10.5327 30.5849 10.758 30.1706 10.9205C29.7563 11.0795 29.2907 11.1591 28.7736 11.1591ZM39.905 11.179C39.4211 11.179 38.9819 11.0878 38.5875 10.9055C38.1931 10.7199 37.8799 10.4531 37.6479 10.1051C37.4159 9.75379 37.2999 9.32955 37.2999 8.83239C37.2999 8.39489 37.3861 8.04025 37.5584 7.76847C37.7308 7.49337 37.9611 7.27794 38.2495 7.12216C38.5378 6.96638 38.856 6.85038 39.204 6.77415C39.5553 6.6946 39.9083 6.63163 40.263 6.58523C40.727 6.52557 41.1032 6.48082 41.3915 6.45099C41.6832 6.41785 41.8953 6.36316 42.0279 6.28693C42.1638 6.2107 42.2317 6.07812 42.2317 5.8892V5.84943C42.2317 5.3589 42.0975 4.97775 41.829 4.70597C41.5639 4.43419 41.1612 4.2983 40.6209 4.2983C40.0608 4.2983 39.6216 4.42093 39.3034 4.66619C38.9853 4.91146 38.7615 5.1733 38.6323 5.4517L37.5186 5.05398C37.7175 4.58996 37.9827 4.22869 38.3141 3.97017C38.6489 3.70833 39.0134 3.52604 39.4078 3.4233C39.8056 3.31723 40.1967 3.2642 40.5811 3.2642C40.8264 3.2642 41.1081 3.29403 41.4263 3.35369C41.7478 3.41004 42.0577 3.5277 42.356 3.70668C42.6576 3.88565 42.9078 4.15578 43.1067 4.51705C43.3056 4.87831 43.405 5.36222 43.405 5.96875V11H42.2317V9.96591H42.1721C42.0925 10.1316 41.9599 10.3089 41.7743 10.4979C41.5887 10.6868 41.3418 10.8475 41.0336 10.9801C40.7253 11.1127 40.3491 11.179 39.905 11.179ZM40.084 10.125C40.548 10.125 40.9391 10.0339 41.2573 9.85156C41.5788 9.66927 41.8207 9.43395 41.9831 9.1456C42.1489 8.85724 42.2317 8.55398 42.2317 8.2358V7.16193C42.182 7.22159 42.0726 7.27628 41.9036 7.32599C41.7379 7.3724 41.5456 7.41383 41.3269 7.45028C41.1114 7.48343 40.901 7.51326 40.6955 7.53977C40.4933 7.56297 40.3292 7.58286 40.2033 7.59943C39.8984 7.6392 39.6133 7.70384 39.3482 7.79332C39.0864 7.8795 38.8742 8.01042 38.7118 8.18608C38.5527 8.35843 38.4732 8.59375 38.4732 8.89205C38.4732 9.29972 38.624 9.60795 38.9256 9.81676C39.2305 10.0223 39.6167 10.125 40.084 10.125ZM46.7198 6.40625V11H45.5465V3.36364H46.68V4.55682H46.7795C46.9585 4.16903 47.2302 3.85748 47.5948 3.62216C47.9594 3.38352 48.43 3.2642 49.0067 3.2642C49.5238 3.2642 49.9762 3.37027 50.364 3.58239C50.7518 3.79119 51.0534 4.10938 51.2688 4.53693C51.4843 4.96117 51.592 5.49811 51.592 6.14773V11H50.4187V6.22727C50.4187 5.62737 50.2629 5.16004 49.9513 4.82528C49.6398 4.48722 49.2122 4.31818 48.6687 4.31818C48.2942 4.31818 47.9594 4.39938 47.6644 4.56179C47.3728 4.72419 47.1424 4.96117 46.9734 5.27273C46.8043 5.58428 46.7198 5.96212 46.7198 6.40625ZM54.2182 13.8636C54.0194 13.8636 53.842 13.8471 53.6863 13.8139C53.5305 13.7841 53.4228 13.7543 53.3631 13.7244L53.6614 12.6903C53.9464 12.7633 54.1983 12.7898 54.4171 12.7699C54.6358 12.75 54.8297 12.6522 54.9988 12.4766C55.1711 12.3042 55.3285 12.0241 55.4711 11.6364L55.6898 11.0398L52.8659 3.36364H54.1387L56.2466 9.44886H56.3262L58.4341 3.36364H59.7069L56.4654 12.1136C56.3195 12.508 56.1389 12.8345 55.9235 13.093C55.708 13.3549 55.4578 13.5488 55.1728 13.6747C54.891 13.8007 54.5729 13.8636 54.2182 13.8636ZM70.4032 13.8636V9.8267H70.3038C70.2176 9.96591 70.095 10.1416 69.9359 10.3537C69.7768 10.5625 69.5498 10.7498 69.2548 10.9155C68.9598 11.0779 68.5671 11.1591 68.0765 11.1591C67.4402 11.1591 66.8784 10.9983 66.3912 10.6768C65.9039 10.352 65.5228 9.89465 65.2477 9.30469C64.9726 8.71141 64.835 8.01042 64.835 7.2017C64.835 6.39962 64.9726 5.7036 65.2477 5.11364C65.5228 4.52367 65.9056 4.06794 66.3961 3.74645C66.8867 3.42495 67.4534 3.2642 68.0964 3.2642C68.5936 3.2642 68.9863 3.34706 69.2747 3.51278C69.5663 3.67519 69.7884 3.8608 69.9409 4.0696C70.0967 4.27509 70.2176 4.44413 70.3038 4.5767H70.443V3.36364H71.5765V13.8636H70.4032ZM68.2356 10.1051C68.7063 10.1051 69.104 9.98248 69.4288 9.73722C69.7536 9.48864 70.0005 9.1456 70.1696 8.7081C70.3386 8.26728 70.4231 7.75852 70.4231 7.18182C70.4231 6.61174 70.3403 6.11293 70.1745 5.68537C70.0088 5.2545 69.7636 4.91974 69.4387 4.68111C69.1139 4.43916 68.7129 4.31818 68.2356 4.31818C67.7385 4.31818 67.3242 4.44579 66.9927 4.70099C66.6646 4.95289 66.4177 5.29593 66.252 5.73011C66.0895 6.16098 66.0083 6.64489 66.0083 7.18182C66.0083 7.72538 66.0912 8.21922 66.2569 8.66335C66.426 9.10417 66.6745 9.45549 67.0027 9.71733C67.3341 9.97585 67.7451 10.1051 68.2356 10.1051ZM78.5368 7.87784V3.36364H79.71V11H78.5368V9.70739H78.4572C78.2782 10.0952 77.9998 10.425 77.622 10.6967C77.2441 10.9652 76.7669 11.0994 76.1902 11.0994C75.7129 11.0994 75.2886 10.995 74.9174 10.7862C74.5462 10.5741 74.2546 10.2559 74.0424 9.83168C73.8303 9.40412 73.7243 8.86553 73.7243 8.21591V3.36364H74.8975V8.13636C74.8975 8.69318 75.0533 9.13731 75.3649 9.46875C75.6797 9.80019 76.0808 9.96591 76.568 9.96591C76.8597 9.96591 77.1563 9.89134 77.4579 9.74219C77.7628 9.59304 78.0181 9.36435 78.2235 9.05611C78.4324 8.74787 78.5368 8.35511 78.5368 7.87784ZM85.0607 11.1591C84.3249 11.1591 83.6902 10.9967 83.1566 10.6719C82.6263 10.3438 82.217 9.88636 81.9286 9.29972C81.6436 8.70975 81.5011 8.02367 81.5011 7.24148C81.5011 6.45928 81.6436 5.76989 81.9286 5.1733C82.217 4.57339 82.618 4.10606 83.1317 3.77131C83.6488 3.43324 84.252 3.2642 84.9414 3.2642C85.3391 3.2642 85.7319 3.33049 86.1197 3.46307C86.5075 3.59564 86.8604 3.81108 87.1786 4.10938C87.4968 4.40436 87.7504 4.79545 87.9393 5.28267C88.1282 5.76989 88.2227 6.36979 88.2227 7.08239V7.57955H82.3363V6.56534H87.0295C87.0295 6.13447 86.9433 5.75 86.771 5.41193C86.6019 5.07386 86.36 4.80705 86.0451 4.61151C85.7335 4.41596 85.3656 4.31818 84.9414 4.31818C84.4741 4.31818 84.0697 4.43419 83.7283 4.66619C83.3903 4.89489 83.1301 5.19318 82.9478 5.56108C82.7655 5.92898 82.6744 6.32339 82.6744 6.74432V7.42045C82.6744 7.99716 82.7738 8.48603 82.9727 8.88707C83.1748 9.2848 83.4549 9.58807 83.8129 9.79688C84.1708 10.0024 84.5868 10.1051 85.0607 10.1051C85.369 10.1051 85.6474 10.062 85.896 9.97585C86.1478 9.88636 86.3649 9.75379 86.5472 9.57812C86.7295 9.39915 86.8704 9.17708 86.9698 8.91193L88.1033 9.23011C87.984 9.61458 87.7835 9.95265 87.5018 10.2443C87.2201 10.5327 86.872 10.758 86.4577 10.9205C86.0434 11.0795 85.5778 11.1591 85.0607 11.1591ZM95.4165 5.07386L94.3626 5.37216C94.2963 5.1965 94.1985 5.0258 94.0692 4.86009C93.9433 4.69105 93.771 4.55185 93.5522 4.44247C93.3335 4.3331 93.0534 4.27841 92.712 4.27841C92.2447 4.27841 91.8552 4.38613 91.5437 4.60156C91.2354 4.81368 91.0813 5.08381 91.0813 5.41193C91.0813 5.7036 91.1874 5.93395 91.3995 6.10298C91.6116 6.27202 91.9431 6.41288 92.3938 6.52557L93.5273 6.80398C94.2101 6.9697 94.7189 7.22325 95.0536 7.56463C95.3884 7.9027 95.5558 8.33854 95.5558 8.87216C95.5558 9.30966 95.4298 9.70076 95.1779 10.0455C94.9293 10.3902 94.5813 10.6619 94.1339 10.8608C93.6864 11.0597 93.1661 11.1591 92.5728 11.1591C91.7939 11.1591 91.1493 10.9901 90.6388 10.652C90.1284 10.3139 89.8053 9.82008 89.6694 9.17045L90.783 8.89205C90.8891 9.30303 91.0896 9.61127 91.3846 9.81676C91.6829 10.0223 92.0723 10.125 92.5529 10.125C93.0998 10.125 93.534 10.009 93.8555 9.77699C94.1803 9.54167 94.3427 9.25994 94.3427 8.93182C94.3427 8.66667 94.2499 8.4446 94.0643 8.26562C93.8787 8.08333 93.5936 7.94744 93.2092 7.85795L91.9364 7.55966C91.2371 7.39394 90.7234 7.13707 90.3952 6.78906C90.0704 6.43774 89.908 5.99858 89.908 5.47159C89.908 5.04072 90.029 4.65956 90.271 4.32812C90.5162 3.99669 90.8493 3.73651 91.2702 3.54758C91.6945 3.35866 92.1751 3.2642 92.712 3.2642C93.4677 3.2642 94.061 3.42992 94.4918 3.76136C94.926 4.0928 95.2343 4.5303 95.4165 5.07386ZM100.643 3.36364V4.35795H96.6855V3.36364H100.643ZM97.839 1.53409H99.0123V8.8125C99.0123 9.14394 99.0603 9.39252 99.1564 9.55824C99.2559 9.72064 99.3818 9.83002 99.5343 9.88636C99.69 9.93939 99.8541 9.96591 100.026 9.96591C100.156 9.96591 100.262 9.95928 100.345 9.94602C100.427 9.92945 100.494 9.91619 100.544 9.90625L100.782 10.9602C100.703 10.9901 100.592 11.0199 100.449 11.0497C100.307 11.0829 100.126 11.0994 99.9071 11.0994C99.5757 11.0994 99.2509 11.0282 98.9327 10.8857C98.6178 10.7431 98.356 10.526 98.1472 10.2344C97.9417 9.94271 97.839 9.57481 97.839 9.13068V1.53409ZM102.408 11V3.36364H103.581V11H102.408ZM103.004 2.09091C102.776 2.09091 102.579 2.01302 102.413 1.85724C102.25 1.70147 102.169 1.5142 102.169 1.29545C102.169 1.0767 102.25 0.889441 102.413 0.733664C102.579 0.577888 102.776 0.5 103.004 0.5C103.233 0.5 103.429 0.577888 103.591 0.733664C103.757 0.889441 103.84 1.0767 103.84 1.29545C103.84 1.5142 103.757 1.70147 103.591 1.85724C103.429 2.01302 103.233 2.09091 103.004 2.09091ZM108.832 11.1591C108.143 11.1591 107.538 10.995 107.018 10.6669C106.501 10.3388 106.096 9.87973 105.805 9.28977C105.516 8.69981 105.372 8.01042 105.372 7.22159C105.372 6.42614 105.516 5.73177 105.805 5.13849C106.096 4.54522 106.501 4.08452 107.018 3.75639C107.538 3.42827 108.143 3.2642 108.832 3.2642C109.522 3.2642 110.125 3.42827 110.642 3.75639C111.162 4.08452 111.567 4.54522 111.855 5.13849C112.147 5.73177 112.293 6.42614 112.293 7.22159C112.293 8.01042 112.147 8.69981 111.855 9.28977C111.567 9.87973 111.162 10.3388 110.642 10.6669C110.125 10.995 109.522 11.1591 108.832 11.1591ZM108.832 10.1051C109.356 10.1051 109.787 9.97088 110.125 9.70241C110.463 9.43395 110.713 9.08097 110.876 8.64347C111.038 8.20597 111.119 7.73201 111.119 7.22159C111.119 6.71117 111.038 6.23556 110.876 5.79474C110.713 5.35393 110.463 4.99763 110.125 4.72585C109.787 4.45407 109.356 4.31818 108.832 4.31818C108.309 4.31818 107.878 4.45407 107.54 4.72585C107.202 4.99763 106.951 5.35393 106.789 5.79474C106.627 6.23556 106.545 6.71117 106.545 7.22159C106.545 7.73201 106.627 8.20597 106.789 8.64347C106.951 9.08097 107.202 9.43395 107.54 9.70241C107.878 9.97088 108.309 10.1051 108.832 10.1051ZM115.257 6.40625V11H114.084V3.36364H115.217V4.55682H115.317C115.496 4.16903 115.767 3.85748 116.132 3.62216C116.497 3.38352 116.967 3.2642 117.544 3.2642C118.061 3.2642 118.513 3.37027 118.901 3.58239C119.289 3.79119 119.59 4.10938 119.806 4.53693C120.021 4.96117 120.129 5.49811 120.129 6.14773V11H118.956V6.22727C118.956 5.62737 118.8 5.16004 118.488 4.82528C118.177 4.48722 117.749 4.31818 117.206 4.31818C116.831 4.31818 116.497 4.39938 116.202 4.56179C115.91 4.72419 115.68 4.96117 115.51 5.27273C115.341 5.58428 115.257 5.96212 115.257 6.40625ZM127.682 5.07386L126.628 5.37216C126.562 5.1965 126.464 5.0258 126.335 4.86009C126.209 4.69105 126.037 4.55185 125.818 4.44247C125.599 4.3331 125.319 4.27841 124.978 4.27841C124.51 4.27841 124.121 4.38613 123.809 4.60156C123.501 4.81368 123.347 5.08381 123.347 5.41193C123.347 5.7036 123.453 5.93395 123.665 6.10298C123.877 6.27202 124.209 6.41288 124.659 6.52557L125.793 6.80398C126.476 6.9697 126.984 7.22325 127.319 7.56463C127.654 7.9027 127.821 8.33854 127.821 8.87216C127.821 9.30966 127.695 9.70076 127.444 10.0455C127.195 10.3902 126.847 10.6619 126.4 10.8608C125.952 11.0597 125.432 11.1591 124.838 11.1591C124.06 11.1591 123.415 10.9901 122.904 10.652C122.394 10.3139 122.071 9.82008 121.935 9.17045L123.049 8.89205C123.155 9.30303 123.355 9.61127 123.65 9.81676C123.949 10.0223 124.338 10.125 124.819 10.125C125.365 10.125 125.8 10.009 126.121 9.77699C126.446 9.54167 126.608 9.25994 126.608 8.93182C126.608 8.66667 126.516 8.4446 126.33 8.26562C126.144 8.08333 125.859 7.94744 125.475 7.85795L124.202 7.55966C123.503 7.39394 122.989 7.13707 122.661 6.78906C122.336 6.43774 122.174 5.99858 122.174 5.47159C122.174 5.04072 122.295 4.65956 122.537 4.32812C122.782 3.99669 123.115 3.73651 123.536 3.54758C123.96 3.35866 124.441 3.2642 124.978 3.2642C125.733 3.2642 126.327 3.42992 126.757 3.76136C127.192 4.0928 127.5 4.5303 127.682 5.07386ZM131.119 8.13636V8.0767C131.125 7.44366 131.192 6.93987 131.318 6.56534C131.444 6.19081 131.623 5.88755 131.855 5.65554C132.087 5.42353 132.365 5.20975 132.69 5.0142C132.885 4.89489 133.061 4.75402 133.217 4.59162C133.373 4.4259 133.495 4.23532 133.585 4.01989C133.677 3.80445 133.724 3.56581 133.724 3.30398C133.724 2.97917 133.648 2.69744 133.495 2.45881C133.343 2.22017 133.139 2.03622 132.884 1.90696C132.628 1.7777 132.345 1.71307 132.034 1.71307C131.762 1.71307 131.5 1.76941 131.248 1.8821C130.996 1.99479 130.786 2.17211 130.617 2.41406C130.448 2.65601 130.35 2.97254 130.323 3.36364H129.07C129.097 2.80019 129.243 2.31794 129.508 1.9169C129.776 1.51586 130.129 1.20928 130.567 0.997158C131.008 0.785037 131.497 0.678977 132.034 0.678977C132.617 0.678977 133.124 0.794981 133.555 1.02699C133.989 1.259 134.324 1.57718 134.559 1.98153C134.798 2.38589 134.917 2.84659 134.917 3.36364C134.917 3.72822 134.861 4.058 134.748 4.35298C134.639 4.64796 134.48 4.91146 134.271 5.14347C134.065 5.37547 133.817 5.58097 133.525 5.75994C133.233 5.94223 133 6.13447 132.824 6.33665C132.648 6.53551 132.521 6.77249 132.441 7.04759C132.362 7.32268 132.319 7.66572 132.312 8.0767V8.13636H131.119ZM131.755 11.0795C131.51 11.0795 131.299 10.9917 131.124 10.8161C130.948 10.6404 130.86 10.4299 130.86 10.1847C130.86 9.93939 130.948 9.72893 131.124 9.55327C131.299 9.3776 131.51 9.28977 131.755 9.28977C132 9.28977 132.211 9.3776 132.387 9.55327C132.562 9.72893 132.65 9.93939 132.65 10.1847C132.65 10.3471 132.609 10.4962 132.526 10.6321C132.446 10.768 132.338 10.8774 132.203 10.9602C132.07 11.0398 131.921 11.0795 131.755 11.0795Z" fill="#05C2DF"/>
</svg>
