<svg width="257" height="55" viewBox="0 0 257 55" fill="none" xmlns="http://www.w3.org/2000/svg">
<path d="M0.701705 5.22727V1.09091H17.1364V5.22727H11.4489V20H6.3892V5.22727H0.701705ZM19.0684 20V1.09091H24.2019V8.47727H30.9973V1.09091H36.1309V20H30.9973V12.6136H24.2019V20H19.0684ZM38.5684 20V1.09091H52.1962V5.22727H43.7019V8.47727H51.4945V12.6136H43.7019V15.8636H52.1593V20H38.5684ZM76.2827 1.09091V20H71.9986L65.1662 10.0653H65.0554V20H59.9219V1.09091H64.2798L71.0014 10.9886H71.1491V1.09091H76.2827ZM78.7109 20V1.09091H92.3388V5.22727H83.8445V8.47727H91.6371V12.6136H83.8445V15.8636H92.3018V20H78.7109ZM99.6859 20L94.1092 1.09091H99.8336L102.419 12.7244H102.567L105.632 1.09091H110.138L113.203 12.7614H113.351L115.936 1.09091H121.66L116.084 20H111.172L107.959 9.4375H107.811L104.598 20H99.6859ZM138.695 7C138.646 6.38447 138.415 5.90436 138.003 5.55966C137.596 5.21496 136.978 5.04261 136.147 5.04261C135.617 5.04261 135.184 5.10724 134.845 5.2365C134.513 5.35961 134.266 5.52888 134.106 5.74432C133.946 5.95975 133.863 6.20597 133.857 6.48295C133.845 6.7107 133.885 6.9169 133.977 7.10156C134.076 7.28007 134.229 7.44318 134.439 7.59091C134.648 7.73248 134.916 7.86174 135.242 7.97869C135.568 8.09564 135.956 8.20028 136.405 8.29261L137.956 8.625C139.003 8.84659 139.898 9.13897 140.643 9.50213C141.388 9.86529 141.997 10.2931 142.471 10.7855C142.945 11.2718 143.293 11.8196 143.515 12.429C143.742 13.0384 143.859 13.7031 143.866 14.4233C143.859 15.6667 143.549 16.7192 142.933 17.581C142.318 18.4427 141.437 19.0982 140.292 19.5476C139.154 19.9969 137.784 20.2216 136.184 20.2216C134.54 20.2216 133.106 19.9785 131.881 19.4922C130.662 19.0059 129.715 18.258 129.037 17.2486C128.367 16.233 128.028 14.9342 128.022 13.3523H132.897C132.928 13.9309 133.072 14.4171 133.331 14.8111C133.589 15.205 133.952 15.5036 134.42 15.7067C134.894 15.9098 135.457 16.0114 136.11 16.0114C136.658 16.0114 137.116 15.9437 137.486 15.8082C137.855 15.6728 138.135 15.4851 138.326 15.245C138.517 15.005 138.615 14.7311 138.621 14.4233C138.615 14.134 138.52 13.8816 138.335 13.6662C138.157 13.4446 137.861 13.2476 137.449 13.0753C137.036 12.8968 136.479 12.7306 135.778 12.5767L133.894 12.1705C132.22 11.8073 130.899 11.201 129.933 10.3516C128.973 9.49598 128.496 8.32955 128.502 6.85227C128.496 5.65199 128.816 4.60251 129.462 3.70384C130.115 2.79901 131.016 2.09422 132.167 1.58949C133.325 1.08475 134.651 0.832386 136.147 0.832386C137.673 0.832386 138.994 1.08783 140.108 1.59872C141.222 2.10961 142.081 2.82978 142.684 3.75923C143.293 4.68253 143.601 5.76278 143.607 7H138.695ZM145.301 5.22727V1.09091H161.736V5.22727H156.048V20H150.989V5.22727H145.301ZM166.193 20H160.653L166.895 1.09091H173.912L180.153 20H174.614L170.477 6.2983H170.33L166.193 20ZM165.159 12.5398H175.574V16.3807H165.159V12.5398ZM181.975 20V1.09091H190.137C191.54 1.09091 192.768 1.34635 193.82 1.85724C194.873 2.36813 195.692 3.10369 196.276 4.06392C196.861 5.02415 197.154 6.17519 197.154 7.51704C197.154 8.87121 196.852 10.013 196.249 10.9425C195.652 11.8719 194.811 12.5736 193.728 13.0476C192.651 13.5215 191.392 13.7585 189.952 13.7585H185.077V9.76989H188.918C189.521 9.76989 190.035 9.69602 190.46 9.54829C190.891 9.39441 191.22 9.15128 191.448 8.81889C191.682 8.48651 191.798 8.05256 191.798 7.51704C191.798 6.97538 191.682 6.53527 191.448 6.19673C191.22 5.85204 190.891 5.59967 190.46 5.43963C190.035 5.27344 189.521 5.19034 188.918 5.19034H187.108V20H181.975ZM193.054 11.321L197.781 20H192.205L187.588 11.321H193.054ZM198.825 5.22727V1.09091H215.259V5.22727H209.572V20H204.512V5.22727H198.825ZM240.689 10.5455C240.689 12.6506 240.28 14.4264 239.461 15.8729C238.643 17.3132 237.538 18.4058 236.147 19.1506C234.756 19.8892 233.204 20.2585 231.493 20.2585C229.77 20.2585 228.212 19.8861 226.821 19.1413C225.436 18.3904 224.335 17.2947 223.516 15.8544C222.703 14.4079 222.297 12.6383 222.297 10.5455C222.297 8.44034 222.703 6.66761 223.516 5.22727C224.335 3.78078 225.436 2.68821 226.821 1.94957C228.212 1.20478 229.77 0.832386 231.493 0.832386C233.204 0.832386 234.756 1.20478 236.147 1.94957C237.538 2.68821 238.643 3.78078 239.461 5.22727C240.28 6.66761 240.689 8.44034 240.689 10.5455ZM235.408 10.5455C235.408 9.41288 235.257 8.45881 234.956 7.68324C234.66 6.90151 234.22 6.31061 233.635 5.91051C233.057 5.50426 232.343 5.30114 231.493 5.30114C230.644 5.30114 229.927 5.50426 229.342 5.91051C228.763 6.31061 228.323 6.90151 228.022 7.68324C227.726 8.45881 227.578 9.41288 227.578 10.5455C227.578 11.678 227.726 12.6352 228.022 13.4169C228.323 14.1925 228.763 14.7834 229.342 15.1896C229.927 15.5897 230.644 15.7898 231.493 15.7898C232.343 15.7898 233.057 15.5897 233.635 15.1896C234.22 14.7834 234.66 14.1925 234.956 13.4169C235.257 12.6352 235.408 11.678 235.408 10.5455ZM243.064 20V1.09091H256.36V5.22727H248.198V8.47727H255.547V12.6136H248.198V20H243.064Z" fill="white"/>
<path d="M3.06534 35.0909L8.67898 51.0085H8.90057L14.5142 35.0909H16.9148L9.97159 54H7.60796L0.664773 35.0909H3.06534ZM19.8601 54V35.0909H26.2493C27.7266 35.0909 28.9392 35.3433 29.8871 35.848C30.835 36.3466 31.5367 37.0329 31.9922 37.907C32.4477 38.781 32.6754 39.7751 32.6754 40.8892C32.6754 42.0033 32.4477 42.9912 31.9922 43.853C31.5367 44.7147 30.8381 45.3918 29.8963 45.8842C28.9545 46.3705 27.7512 46.6136 26.2862 46.6136H21.1158V44.5455H26.2124C27.2218 44.5455 28.0343 44.3977 28.6499 44.1023C29.2715 43.8068 29.7209 43.3883 29.9979 42.8466C30.281 42.2988 30.4226 41.6463 30.4226 40.8892C30.4226 40.1321 30.281 39.4704 29.9979 38.9041C29.7147 38.3378 29.2623 37.9008 28.6406 37.593C28.0189 37.2791 27.1972 37.1222 26.1754 37.1222H22.1499V54H19.8601ZM28.7607 45.5057L33.4141 54H30.755L26.1754 45.5057H28.7607ZM43.8034 54V35.0909H46.0932V51.9688H54.883V54H43.8034ZM73.6467 44.5455C73.6467 46.5398 73.2866 48.2633 72.5664 49.7159C71.8462 51.1686 70.8583 52.2888 69.6026 53.0767C68.3469 53.8646 66.9128 54.2585 65.3001 54.2585C63.6874 54.2585 62.2532 53.8646 60.9975 53.0767C59.7418 52.2888 58.7539 51.1686 58.0337 49.7159C57.3136 48.2633 56.9535 46.5398 56.9535 44.5455C56.9535 42.5511 57.3136 40.8277 58.0337 39.375C58.7539 37.9223 59.7418 36.8021 60.9975 36.0142C62.2532 35.2263 63.6874 34.8324 65.3001 34.8324C66.9128 34.8324 68.3469 35.2263 69.6026 36.0142C70.8583 36.8021 71.8462 37.9223 72.5664 39.375C73.2866 40.8277 73.6467 42.5511 73.6467 44.5455ZM71.4308 44.5455C71.4308 42.9081 71.1568 41.5263 70.609 40.3999C70.0674 39.2734 69.3318 38.4209 68.4023 37.8423C67.479 37.2637 66.445 36.9744 65.3001 36.9744C64.1552 36.9744 63.118 37.2637 62.1886 37.8423C61.2653 38.4209 60.5297 39.2734 59.9819 40.3999C59.4402 41.5263 59.1694 42.9081 59.1694 44.5455C59.1694 46.1828 59.4402 47.5646 59.9819 48.6911C60.5297 49.8175 61.2653 50.67 62.1886 51.2486C63.118 51.8272 64.1552 52.1165 65.3001 52.1165C66.445 52.1165 67.479 51.8272 68.4023 51.2486C69.3318 50.67 70.0674 49.8175 70.609 48.6911C71.1568 47.5646 71.4308 46.1828 71.4308 44.5455ZM92.7127 41H90.4229C90.2875 40.3414 90.0505 39.7628 89.712 39.2642C89.3796 38.7656 88.9734 38.3471 88.4933 38.0085C88.0193 37.6638 87.493 37.4053 86.9144 37.233C86.3358 37.0606 85.7326 36.9744 85.1048 36.9744C83.9599 36.9744 82.9227 37.2637 81.9933 37.8423C81.07 38.4209 80.3344 39.2734 79.7866 40.3999C79.2449 41.5263 78.9741 42.9081 78.9741 44.5455C78.9741 46.1828 79.2449 47.5646 79.7866 48.6911C80.3344 49.8175 81.07 50.67 81.9933 51.2486C82.9227 51.8272 83.9599 52.1165 85.1048 52.1165C85.7326 52.1165 86.3358 52.0303 86.9144 51.858C87.493 51.6856 88.0193 51.4302 88.4933 51.0916C88.9734 50.7469 89.3796 50.3253 89.712 49.8267C90.0505 49.322 90.2875 48.7434 90.4229 48.0909H92.7127C92.5404 49.0573 92.2264 49.9221 91.771 50.6854C91.3155 51.4486 90.7492 52.098 90.0721 52.6335C89.395 53.1629 88.6348 53.5661 87.7915 53.843C86.9544 54.12 86.0588 54.2585 85.1048 54.2585C83.4921 54.2585 82.0579 53.8646 80.8022 53.0767C79.5465 52.2888 78.5586 51.1686 77.8384 49.7159C77.1183 48.2633 76.7582 46.5398 76.7582 44.5455C76.7582 42.5511 77.1183 40.8277 77.8384 39.375C78.5586 37.9223 79.5465 36.8021 80.8022 36.0142C82.0579 35.2263 83.4921 34.8324 85.1048 34.8324C86.0588 34.8324 86.9544 34.9709 87.7915 35.2479C88.6348 35.5249 89.395 35.9311 90.0721 36.4666C90.7492 36.996 91.3155 37.6423 91.771 38.4055C92.2264 39.1626 92.5404 40.0275 92.7127 41ZM112.367 44.5455C112.367 46.5398 112.007 48.2633 111.287 49.7159C110.567 51.1686 109.579 52.2888 108.323 53.0767C107.068 53.8646 105.633 54.2585 104.021 54.2585C102.408 54.2585 100.974 53.8646 99.7182 53.0767C98.4625 52.2888 97.4746 51.1686 96.7544 49.7159C96.0343 48.2633 95.6742 46.5398 95.6742 44.5455C95.6742 42.5511 96.0343 40.8277 96.7544 39.375C97.4746 37.9223 98.4625 36.8021 99.7182 36.0142C100.974 35.2263 102.408 34.8324 104.021 34.8324C105.633 34.8324 107.068 35.2263 108.323 36.0142C109.579 36.8021 110.567 37.9223 111.287 39.375C112.007 40.8277 112.367 42.5511 112.367 44.5455ZM110.151 44.5455C110.151 42.9081 109.878 41.5263 109.33 40.3999C108.788 39.2734 108.052 38.4209 107.123 37.8423C106.2 37.2637 105.166 36.9744 104.021 36.9744C102.876 36.9744 101.839 37.2637 100.909 37.8423C99.986 38.4209 99.2504 39.2734 98.7026 40.3999C98.1609 41.5263 97.8901 42.9081 97.8901 44.5455C97.8901 46.1828 98.1609 47.5646 98.7026 48.6911C99.2504 49.8175 99.986 50.67 100.909 51.2486C101.839 51.8272 102.876 52.1165 104.021 52.1165C105.166 52.1165 106.2 51.8272 107.123 51.2486C108.052 50.67 108.788 49.8175 109.33 48.6911C109.878 47.5646 110.151 46.1828 110.151 44.5455ZM116.218 35.0909H118.95L125.377 50.7869H125.598L132.024 35.0909H134.757V54H132.615V39.6335H132.431L126.521 54H124.453L118.544 39.6335H118.36V54H116.218V35.0909ZM155.303 44.5455C155.303 46.5398 154.943 48.2633 154.223 49.7159C153.502 51.1686 152.515 52.2888 151.259 53.0767C150.003 53.8646 148.569 54.2585 146.956 54.2585C145.344 54.2585 143.909 53.8646 142.654 53.0767C141.398 52.2888 140.41 51.1686 139.69 49.7159C138.97 48.2633 138.61 46.5398 138.61 44.5455C138.61 42.5511 138.97 40.8277 139.69 39.375C140.41 37.9223 141.398 36.8021 142.654 36.0142C143.909 35.2263 145.344 34.8324 146.956 34.8324C148.569 34.8324 150.003 35.2263 151.259 36.0142C152.515 36.8021 153.502 37.9223 154.223 39.375C154.943 40.8277 155.303 42.5511 155.303 44.5455ZM153.087 44.5455C153.087 42.9081 152.813 41.5263 152.265 40.3999C151.724 39.2734 150.988 38.4209 150.059 37.8423C149.135 37.2637 148.101 36.9744 146.956 36.9744C145.811 36.9744 144.774 37.2637 143.845 37.8423C142.922 38.4209 142.186 39.2734 141.638 40.3999C141.096 41.5263 140.826 42.9081 140.826 44.5455C140.826 46.1828 141.096 47.5646 141.638 48.6911C142.186 49.8175 142.922 50.67 143.845 51.2486C144.774 51.8272 145.811 52.1165 146.956 52.1165C148.101 52.1165 149.135 51.8272 150.059 51.2486C150.988 50.67 151.724 49.8175 152.265 48.6911C152.813 47.5646 153.087 46.1828 153.087 44.5455ZM157.332 37.1222V35.0909H171.514V37.1222H165.568V54H163.278V37.1222H157.332ZM177.337 35.0909V54H175.048V35.0909H177.337ZM197.883 44.5455C197.883 46.5398 197.523 48.2633 196.803 49.7159C196.083 51.1686 195.095 52.2888 193.839 53.0767C192.583 53.8646 191.149 54.2585 189.536 54.2585C187.924 54.2585 186.49 53.8646 185.234 53.0767C183.978 52.2888 182.99 51.1686 182.27 49.7159C181.55 48.2633 181.19 46.5398 181.19 44.5455C181.19 42.5511 181.55 40.8277 182.27 39.375C182.99 37.9223 183.978 36.8021 185.234 36.0142C186.49 35.2263 187.924 34.8324 189.536 34.8324C191.149 34.8324 192.583 35.2263 193.839 36.0142C195.095 36.8021 196.083 37.9223 196.803 39.375C197.523 40.8277 197.883 42.5511 197.883 44.5455ZM195.667 44.5455C195.667 42.9081 195.393 41.5263 194.845 40.3999C194.304 39.2734 193.568 38.4209 192.639 37.8423C191.715 37.2637 190.681 36.9744 189.536 36.9744C188.392 36.9744 187.354 37.2637 186.425 37.8423C185.502 38.4209 184.766 39.2734 184.218 40.3999C183.677 41.5263 183.406 42.9081 183.406 44.5455C183.406 46.1828 183.677 47.5646 184.218 48.6911C184.766 49.8175 185.502 50.67 186.425 51.2486C187.354 51.8272 188.392 52.1165 189.536 52.1165C190.681 52.1165 191.715 51.8272 192.639 51.2486C193.568 50.67 194.304 49.8175 194.845 48.6911C195.393 47.5646 195.667 46.1828 195.667 44.5455ZM216.727 35.0909V54H214.512L204.208 39.1534H204.023V54H201.733V35.0909H203.949L214.29 49.9744H214.475V35.0909H216.727Z" fill="#05C2DF"/>
</svg>
