<svg width="347" height="28" viewBox="0 0 347 28" fill="none" xmlns="http://www.w3.org/2000/svg">
<path d="M23.3409 0.818059V26.9999H17.4091L7.94886 13.2442H7.79545V26.9999H0.6875V0.818059H6.72159L16.0284 14.5226H16.233V0.818059H23.3409ZM33.8111 0.818059V26.9999H26.7031V0.818059H33.8111ZM61.6229 10.6362H54.4126C54.3615 10.0396 54.2251 9.49846 54.0036 9.01266C53.7905 8.52687 53.4922 8.10925 53.1087 7.75982C52.7337 7.40187 52.2777 7.12914 51.7408 6.94164C51.2038 6.74562 50.5945 6.6476 49.9126 6.6476C48.7195 6.6476 47.7095 6.93738 46.8828 7.51692C46.0646 8.09647 45.4425 8.92743 45.0163 10.0098C44.5987 11.0922 44.3899 12.3919 44.3899 13.909C44.3899 15.5112 44.603 16.8536 45.0291 17.936C45.4638 19.0098 46.0902 19.8195 46.9084 20.3649C47.7266 20.9019 48.7109 21.1703 49.8615 21.1703C50.5178 21.1703 51.1058 21.0894 51.6257 20.9274C52.1456 20.757 52.5973 20.5141 52.9808 20.1987C53.3643 19.8834 53.6754 19.5041 53.9141 19.061C54.1612 18.6093 54.3274 18.1022 54.4126 17.5397L61.6229 17.5908C61.5376 18.6987 61.2266 19.828 60.6896 20.9786C60.1527 22.1206 59.3899 23.1774 58.4013 24.149C57.4212 25.1121 56.2067 25.8877 54.7578 26.4757C53.3089 27.0638 51.6257 27.3578 49.7081 27.3578C47.3047 27.3578 45.1484 26.8422 43.2393 25.811C41.3388 24.7797 39.8345 23.2627 38.7266 21.2598C37.6271 19.257 37.0774 16.8067 37.0774 13.909C37.0774 10.9942 37.6399 8.53965 38.7649 6.54533C39.8899 4.54249 41.407 3.02971 43.3161 2.00698C45.2251 0.975729 47.3558 0.460104 49.7081 0.460104C51.3615 0.460104 52.8828 0.685956 54.272 1.13766C55.6612 1.58937 56.88 2.24988 57.9283 3.11919C58.9766 3.97999 59.8203 5.04107 60.4595 6.30243C61.0987 7.5638 61.4865 9.0084 61.6229 10.6362ZM64.8477 26.9999V0.818059H83.717V6.54533H71.9556V11.0453H82.7454V16.7726H71.9556V21.2726H83.6658V26.9999H64.8477ZM93.6982 6.54533V0.818059H116.454V6.54533H108.579V26.9999H101.573V6.54533H93.6982ZM143.262 13.909C143.262 16.8237 142.695 19.2825 141.562 21.2854C140.428 23.2797 138.898 24.7925 136.972 25.8237C135.046 26.8465 132.898 27.3578 130.529 27.3578C128.143 27.3578 125.987 26.8422 124.06 25.811C122.143 24.7712 120.617 23.2541 119.484 21.2598C118.359 19.257 117.796 16.8067 117.796 13.909C117.796 10.9942 118.359 8.53965 119.484 6.54533C120.617 4.54249 122.143 3.02971 124.06 2.00698C125.987 0.975729 128.143 0.460104 130.529 0.460104C132.898 0.460104 135.046 0.975729 136.972 2.00698C138.898 3.02971 140.428 4.54249 141.562 6.54533C142.695 8.53965 143.262 10.9942 143.262 13.909ZM135.95 13.909C135.95 12.3408 135.741 11.0198 135.323 9.9459C134.914 8.86351 134.305 8.04533 133.495 7.49135C132.694 6.92885 131.705 6.6476 130.529 6.6476C129.353 6.6476 128.36 6.92885 127.55 7.49135C126.749 8.04533 126.14 8.86351 125.722 9.9459C125.313 11.0198 125.109 12.3408 125.109 13.909C125.109 15.4772 125.313 16.8024 125.722 17.8848C126.14 18.9587 126.749 19.7769 127.55 20.3394C128.36 20.8933 129.353 21.1703 130.529 21.1703C131.705 21.1703 132.694 20.8933 133.495 20.3394C134.305 19.7769 134.914 18.9587 135.323 17.8848C135.741 16.8024 135.95 15.4772 135.95 13.909ZM153.723 0.818059H162.569L168.654 15.6476H168.961L175.047 0.818059H183.893V26.9999H176.939V11.8635H176.734L170.904 26.7953H166.711L160.882 11.7612H160.677V26.9999H153.723V0.818059ZM187.262 26.9999V0.818059H206.131V6.54533H194.37V11.0453H205.159V16.7726H194.37V21.2726H206.08V26.9999H187.262ZM209.656 26.9999V0.818059H228.526V6.54533H216.764V11.0453H227.554V16.7726H216.764V21.2726H228.474V26.9999H209.656ZM231.335 6.54533V0.818059H254.091V6.54533H246.216V26.9999H239.21V6.54533H231.335Z" fill="white"/>
<path d="M263.17 0.818059H266.801L274.062 13.0397H274.369L281.631 0.818059H285.261L275.801 16.2101V26.9999H272.631V16.2101L263.17 0.818059ZM310.222 13.909C310.222 16.6703 309.724 19.0567 308.727 21.0681C307.729 23.0794 306.362 24.6306 304.623 25.7215C302.884 26.8124 300.898 27.3578 298.665 27.3578C296.433 27.3578 294.447 26.8124 292.708 25.7215C290.969 24.6306 289.602 23.0794 288.604 21.0681C287.607 19.0567 287.109 16.6703 287.109 13.909C287.109 11.1476 287.607 8.76124 288.604 6.74988C289.602 4.73851 290.969 3.18738 292.708 2.09647C294.447 1.00556 296.433 0.460104 298.665 0.460104C300.898 0.460104 302.884 1.00556 304.623 2.09647C306.362 3.18738 307.729 4.73851 308.727 6.74988C309.724 8.76124 310.222 11.1476 310.222 13.909ZM307.154 13.909C307.154 11.6419 306.775 9.72857 306.016 8.16891C305.266 6.60925 304.248 5.42885 302.961 4.62772C301.683 3.82658 300.251 3.42601 298.665 3.42601C297.08 3.42601 295.644 3.82658 294.357 4.62772C293.079 5.42885 292.06 6.60925 291.302 8.16891C290.552 9.72857 290.177 11.6419 290.177 13.909C290.177 16.176 290.552 18.0894 291.302 19.649C292.06 21.2087 293.079 22.3891 294.357 23.1902C295.644 23.9914 297.08 24.3919 298.665 24.3919C300.251 24.3919 301.683 23.9914 302.961 23.1902C304.248 22.3891 305.266 21.2087 306.016 19.649C306.775 18.0894 307.154 16.176 307.154 13.909ZM332.735 0.818059H335.906V18.1533C335.906 19.9431 335.484 21.5411 334.64 22.9473C333.805 24.345 332.624 25.4487 331.099 26.2584C329.573 27.0595 327.783 27.4601 325.729 27.4601C323.675 27.4601 321.886 27.0595 320.36 26.2584C318.835 25.4487 317.65 24.345 316.806 22.9473C315.971 21.5411 315.553 19.9431 315.553 18.1533V0.818059H318.724V17.8976C318.724 19.176 319.005 20.3138 319.567 21.311C320.13 22.2996 320.931 23.0794 321.971 23.6504C323.019 24.2129 324.272 24.4942 325.729 24.4942C327.187 24.4942 328.44 24.2129 329.488 23.6504C330.536 23.0794 331.337 22.2996 331.891 21.311C332.454 20.3138 332.735 19.176 332.735 17.8976V0.818059ZM345.816 0.818059L345.561 19.6362H342.595L342.339 0.818059H345.816ZM344.078 27.2044C343.447 27.2044 342.906 26.9786 342.454 26.5269C342.002 26.0752 341.777 25.534 341.777 24.9033C341.777 24.2726 342.002 23.7314 342.454 23.2797C342.906 22.828 343.447 22.6022 344.078 22.6022C344.708 22.6022 345.25 22.828 345.701 23.2797C346.153 23.7314 346.379 24.2726 346.379 24.9033C346.379 25.3209 346.272 25.7044 346.059 26.0539C345.855 26.4033 345.578 26.6845 345.228 26.8976C344.887 27.1022 344.504 27.2044 344.078 27.2044Z" fill="#05C2DF"/>
</svg>
