<svg width="325" height="14" viewBox="0 0 325 14" fill="none" xmlns="http://www.w3.org/2000/svg">
<path d="M0.676136 1.91193V0.818182H8.3125V1.91193H5.1108V11H3.87784V1.91193H0.676136ZM11.2296 6.40625V11H10.0563V0.818182H11.2296V4.55682H11.329C11.508 4.16241 11.7765 3.84919 12.1344 3.61719C12.4957 3.38187 12.9763 3.2642 13.5762 3.2642C14.0965 3.2642 14.5523 3.36861 14.9434 3.57741C15.3345 3.78291 15.6377 4.09943 15.8532 4.52699C16.0719 4.95123 16.1813 5.49148 16.1813 6.14773V11H15.008V6.22727C15.008 5.62074 14.8506 5.15175 14.5357 4.82031C14.2241 4.48556 13.7916 4.31818 13.2381 4.31818C12.8536 4.31818 12.5089 4.39938 12.204 4.56179C11.9024 4.72419 11.6638 4.96117 11.4881 5.27273C11.3158 5.58428 11.2296 5.96212 11.2296 6.40625ZM18.3278 11V3.36364H19.5011V11H18.3278ZM18.9244 2.09091C18.6957 2.09091 18.4985 2.01302 18.3327 1.85724C18.1703 1.70147 18.0891 1.5142 18.0891 1.29545C18.0891 1.0767 18.1703 0.889441 18.3327 0.733664C18.4985 0.577888 18.6957 0.5 18.9244 0.5C19.1531 0.5 19.3486 0.577888 19.511 0.733664C19.6767 0.889441 19.7596 1.0767 19.7596 1.29545C19.7596 1.5142 19.6767 1.70147 19.511 1.85724C19.3486 2.01302 19.1531 2.09091 18.9244 2.09091ZM27.0591 5.07386L26.0051 5.37216C25.9389 5.1965 25.8411 5.0258 25.7118 4.86009C25.5859 4.69105 25.4135 4.55185 25.1948 4.44247C24.976 4.3331 24.696 4.27841 24.3546 4.27841C23.8873 4.27841 23.4978 4.38613 23.1863 4.60156C22.878 4.81368 22.7239 5.08381 22.7239 5.41193C22.7239 5.7036 22.83 5.93395 23.0421 6.10298C23.2542 6.27202 23.5856 6.41288 24.0364 6.52557L25.1699 6.80398C25.8527 6.9697 26.3614 7.22325 26.6962 7.56463C27.031 7.9027 27.1983 8.33854 27.1983 8.87216C27.1983 9.30966 27.0724 9.70076 26.8205 10.0455C26.5719 10.3902 26.2239 10.6619 25.7765 10.8608C25.329 11.0597 24.8087 11.1591 24.2154 11.1591C23.4365 11.1591 22.7918 10.9901 22.2814 10.652C21.771 10.3139 21.4479 9.82008 21.312 9.17045L22.4256 8.89205C22.5317 9.30303 22.7322 9.61127 23.0272 9.81676C23.3255 10.0223 23.7149 10.125 24.1955 10.125C24.7424 10.125 25.1766 10.009 25.498 9.77699C25.8229 9.54167 25.9853 9.25994 25.9853 8.93182C25.9853 8.66667 25.8925 8.4446 25.7069 8.26562C25.5212 8.08333 25.2362 7.94744 24.8517 7.85795L23.579 7.55966C22.8797 7.39394 22.3659 7.13707 22.0378 6.78906C21.713 6.43774 21.5506 5.99858 21.5506 5.47159C21.5506 5.04072 21.6716 4.65956 21.9135 4.32812C22.1588 3.99669 22.4919 3.73651 22.9128 3.54758C23.3371 3.35866 23.8176 3.2642 24.3546 3.2642C25.1103 3.2642 25.7035 3.42992 26.1344 3.76136C26.5686 4.0928 26.8768 4.5303 27.0591 5.07386ZM35.1491 11.179C34.6652 11.179 34.2261 11.0878 33.8317 10.9055C33.4373 10.7199 33.1241 10.4531 32.892 10.1051C32.66 9.75379 32.544 9.32955 32.544 8.83239C32.544 8.39489 32.6302 8.04025 32.8026 7.76847C32.9749 7.49337 33.2053 7.27794 33.4936 7.12216C33.782 6.96638 34.1001 6.85038 34.4482 6.77415C34.7995 6.6946 35.1525 6.63163 35.5071 6.58523C35.9711 6.52557 36.3473 6.48082 36.6357 6.45099C36.9273 6.41785 37.1394 6.36316 37.272 6.28693C37.4079 6.2107 37.4759 6.07812 37.4759 5.8892V5.84943C37.4759 5.3589 37.3416 4.97775 37.0732 4.70597C36.808 4.43419 36.4053 4.2983 35.8651 4.2983C35.3049 4.2983 34.8658 4.42093 34.5476 4.66619C34.2294 4.91146 34.0057 5.1733 33.8764 5.4517L32.7628 5.05398C32.9616 4.58996 33.2268 4.22869 33.5582 3.97017C33.893 3.70833 34.2576 3.52604 34.652 3.4233C35.0497 3.31723 35.4408 3.2642 35.8253 3.2642C36.0705 3.2642 36.3523 3.29403 36.6705 3.35369C36.992 3.41004 37.3018 3.5277 37.6001 3.70668C37.9018 3.88565 38.152 4.15578 38.3509 4.51705C38.5497 4.87831 38.6491 5.36222 38.6491 5.96875V11H37.4759V9.96591H37.4162C37.3366 10.1316 37.2041 10.3089 37.0185 10.4979C36.8329 10.6868 36.5859 10.8475 36.2777 10.9801C35.9695 11.1127 35.5933 11.179 35.1491 11.179ZM35.3281 10.125C35.7921 10.125 36.1832 10.0339 36.5014 9.85156C36.8229 9.66927 37.0649 9.43395 37.2273 9.1456C37.393 8.85724 37.4759 8.55398 37.4759 8.2358V7.16193C37.4261 7.22159 37.3168 7.27628 37.1477 7.32599C36.982 7.3724 36.7898 7.41383 36.571 7.45028C36.3556 7.48343 36.1451 7.51326 35.9396 7.53977C35.7375 7.56297 35.5734 7.58286 35.4474 7.59943C35.1425 7.6392 34.8575 7.70384 34.5923 7.79332C34.3305 7.8795 34.1184 8.01042 33.956 8.18608C33.7969 8.35843 33.7173 8.59375 33.7173 8.89205C33.7173 9.29972 33.8681 9.60795 34.1697 9.81676C34.4747 10.0223 34.8608 10.125 35.3281 10.125ZM41.964 0.818182V11H40.7907V0.818182H41.964ZM49.522 5.07386L48.468 5.37216C48.4018 5.1965 48.304 5.0258 48.1747 4.86009C48.0488 4.69105 47.8764 4.55185 47.6577 4.44247C47.4389 4.3331 47.1589 4.27841 46.8175 4.27841C46.3501 4.27841 45.9607 4.38613 45.6491 4.60156C45.3409 4.81368 45.1868 5.08381 45.1868 5.41193C45.1868 5.7036 45.2929 5.93395 45.505 6.10298C45.7171 6.27202 46.0485 6.41288 46.4993 6.52557L47.6328 6.80398C48.3156 6.9697 48.8243 7.22325 49.1591 7.56463C49.4938 7.9027 49.6612 8.33854 49.6612 8.87216C49.6612 9.30966 49.5353 9.70076 49.2834 10.0455C49.0348 10.3902 48.6868 10.6619 48.2393 10.8608C47.7919 11.0597 47.2715 11.1591 46.6783 11.1591C45.8994 11.1591 45.2547 10.9901 44.7443 10.652C44.2339 10.3139 43.9107 9.82008 43.7749 9.17045L44.8885 8.89205C44.9946 9.30303 45.1951 9.61127 45.4901 9.81676C45.7884 10.0223 46.1778 10.125 46.6584 10.125C47.2053 10.125 47.6394 10.009 47.9609 9.77699C48.2857 9.54167 48.4482 9.25994 48.4482 8.93182C48.4482 8.66667 48.3554 8.4446 48.1697 8.26562C47.9841 8.08333 47.6991 7.94744 47.3146 7.85795L46.0419 7.55966C45.3426 7.39394 44.8288 7.13707 44.5007 6.78906C44.1759 6.43774 44.0135 5.99858 44.0135 5.47159C44.0135 5.04072 44.1345 4.65956 44.3764 4.32812C44.6217 3.99669 44.9548 3.73651 45.3757 3.54758C45.8 3.35866 46.2805 3.2642 46.8175 3.2642C47.5732 3.2642 48.1664 3.42992 48.5973 3.76136C49.0315 4.0928 49.3397 4.5303 49.522 5.07386ZM54.5297 11.1591C53.8403 11.1591 53.2354 10.995 52.715 10.6669C52.198 10.3388 51.7936 9.87973 51.502 9.28977C51.2136 8.69981 51.0694 8.01042 51.0694 7.22159C51.0694 6.42614 51.2136 5.73177 51.502 5.13849C51.7936 4.54522 52.198 4.08452 52.715 3.75639C53.2354 3.42827 53.8403 3.2642 54.5297 3.2642C55.219 3.2642 55.8223 3.42827 56.3393 3.75639C56.8597 4.08452 57.264 4.54522 57.5524 5.13849C57.844 5.73177 57.9899 6.42614 57.9899 7.22159C57.9899 8.01042 57.844 8.69981 57.5524 9.28977C57.264 9.87973 56.8597 10.3388 56.3393 10.6669C55.8223 10.995 55.219 11.1591 54.5297 11.1591ZM54.5297 10.1051C55.0533 10.1051 55.4842 9.97088 55.8223 9.70241C56.1603 9.43395 56.4106 9.08097 56.573 8.64347C56.7354 8.20597 56.8166 7.73201 56.8166 7.22159C56.8166 6.71117 56.7354 6.23556 56.573 5.79474C56.4106 5.35393 56.1603 4.99763 55.8223 4.72585C55.4842 4.45407 55.0533 4.31818 54.5297 4.31818C54.006 4.31818 53.5751 4.45407 53.237 4.72585C52.899 4.99763 52.6487 5.35393 52.4863 5.79474C52.3239 6.23556 52.2427 6.71117 52.2427 7.22159C52.2427 7.73201 52.3239 8.20597 52.4863 8.64347C52.6487 9.08097 52.899 9.43395 53.237 9.70241C53.5751 9.97088 54.006 10.1051 54.5297 10.1051ZM63.7184 11V3.36364H64.8519V4.55682H64.9513C65.1104 4.14915 65.3673 3.83262 65.7219 3.60724C66.0766 3.37855 66.5025 3.2642 66.9996 3.2642C67.5034 3.2642 67.9227 3.37855 68.2575 3.60724C68.5955 3.83262 68.859 4.14915 69.0479 4.55682H69.1275C69.323 4.16241 69.6164 3.84919 70.0075 3.61719C70.3986 3.38187 70.8675 3.2642 71.4144 3.2642C72.0972 3.2642 72.6557 3.47798 73.0898 3.90554C73.524 4.32978 73.7411 4.991 73.7411 5.8892V11H72.5678V5.8892C72.5678 5.32576 72.4137 4.92306 72.1055 4.68111C71.7972 4.43916 71.4343 4.31818 71.0167 4.31818C70.4798 4.31818 70.0638 4.48059 69.7688 4.8054C69.4738 5.12689 69.3263 5.53456 69.3263 6.02841V11H68.1332V5.76989C68.1332 5.3357 67.9923 4.98603 67.7106 4.72088C67.4289 4.45241 67.0659 4.31818 66.6218 4.31818C66.3169 4.31818 66.0318 4.39938 65.7667 4.56179C65.5049 4.72419 65.2927 4.94957 65.1303 5.23793C64.9712 5.52296 64.8917 5.85275 64.8917 6.22727V11H63.7184ZM78.1335 11.179C77.6496 11.179 77.2105 11.0878 76.8161 10.9055C76.4216 10.7199 76.1084 10.4531 75.8764 10.1051C75.6444 9.75379 75.5284 9.32955 75.5284 8.83239C75.5284 8.39489 75.6146 8.04025 75.7869 7.76847C75.9593 7.49337 76.1896 7.27794 76.478 7.12216C76.7663 6.96638 77.0845 6.85038 77.4325 6.77415C77.7839 6.6946 78.1368 6.63163 78.4915 6.58523C78.9555 6.52557 79.3317 6.48082 79.62 6.45099C79.9117 6.41785 80.1238 6.36316 80.2564 6.28693C80.3923 6.2107 80.4602 6.07812 80.4602 5.8892V5.84943C80.4602 5.3589 80.326 4.97775 80.0575 4.70597C79.7924 4.43419 79.3897 4.2983 78.8494 4.2983C78.2893 4.2983 77.8501 4.42093 77.532 4.66619C77.2138 4.91146 76.9901 5.1733 76.8608 5.4517L75.7472 5.05398C75.946 4.58996 76.2112 4.22869 76.5426 3.97017C76.8774 3.70833 77.242 3.52604 77.6364 3.4233C78.0341 3.31723 78.4252 3.2642 78.8097 3.2642C79.0549 3.2642 79.3366 3.29403 79.6548 3.35369C79.9763 3.41004 80.2862 3.5277 80.5845 3.70668C80.8861 3.88565 81.1364 4.15578 81.3352 4.51705C81.5341 4.87831 81.6335 5.36222 81.6335 5.96875V11H80.4602V9.96591H80.4006C80.321 10.1316 80.1884 10.3089 80.0028 10.4979C79.8172 10.6868 79.5703 10.8475 79.2621 10.9801C78.9538 11.1127 78.5777 11.179 78.1335 11.179ZM78.3125 10.125C78.7765 10.125 79.1676 10.0339 79.4858 9.85156C79.8073 9.66927 80.0492 9.43395 80.2116 9.1456C80.3774 8.85724 80.4602 8.55398 80.4602 8.2358V7.16193C80.4105 7.22159 80.3011 7.27628 80.1321 7.32599C79.9664 7.3724 79.7741 7.41383 79.5554 7.45028C79.34 7.48343 79.1295 7.51326 78.924 7.53977C78.7218 7.56297 78.5578 7.58286 78.4318 7.59943C78.1269 7.6392 77.8419 7.70384 77.5767 7.79332C77.3149 7.8795 77.1027 8.01042 76.9403 8.18608C76.7813 8.35843 76.7017 8.59375 76.7017 8.89205C76.7017 9.29972 76.8525 9.60795 77.1541 9.81676C77.459 10.0223 77.8452 10.125 78.3125 10.125ZM86.6586 11.1591C86.0222 11.1591 85.4604 10.9983 84.9732 10.6768C84.486 10.352 84.1048 9.89465 83.8297 9.30469C83.5546 8.71141 83.4171 8.01042 83.4171 7.2017C83.4171 6.39962 83.5546 5.7036 83.8297 5.11364C84.1048 4.52367 84.4876 4.06794 84.9782 3.74645C85.4687 3.42495 86.0355 3.2642 86.6784 3.2642C87.1756 3.2642 87.5684 3.34706 87.8567 3.51278C88.1484 3.67519 88.3704 3.8608 88.5229 4.0696C88.6787 4.27509 88.7997 4.44413 88.8858 4.5767H88.9853V0.818182H90.1586V11H89.025V9.8267H88.8858C88.7997 9.96591 88.677 10.1416 88.5179 10.3537C88.3588 10.5625 88.1318 10.7498 87.8368 10.9155C87.5418 11.0779 87.1491 11.1591 86.6586 11.1591ZM86.8176 10.1051C87.2883 10.1051 87.686 9.98248 88.0108 9.73722C88.3356 9.48864 88.5826 9.1456 88.7516 8.7081C88.9206 8.26728 89.0051 7.75852 89.0051 7.18182C89.0051 6.61174 88.9223 6.11293 88.7566 5.68537C88.5909 5.2545 88.3456 4.91974 88.0208 4.68111C87.696 4.43916 87.2949 4.31818 86.8176 4.31818C86.3205 4.31818 85.9062 4.44579 85.5748 4.70099C85.2466 4.95289 84.9997 5.29593 84.834 5.73011C84.6716 6.16098 84.5904 6.64489 84.5904 7.18182C84.5904 7.72538 84.6732 8.21922 84.839 8.66335C85.008 9.10417 85.2566 9.45549 85.5847 9.71733C85.9161 9.97585 86.3271 10.1051 86.8176 10.1051ZM95.6721 11.1591C94.9363 11.1591 94.3016 10.9967 93.7679 10.6719C93.2376 10.3438 92.8283 9.88636 92.54 9.29972C92.2549 8.70975 92.1124 8.02367 92.1124 7.24148C92.1124 6.45928 92.2549 5.76989 92.54 5.1733C92.8283 4.57339 93.2293 4.10606 93.7431 3.77131C94.2601 3.43324 94.8633 3.2642 95.5527 3.2642C95.9505 3.2642 96.3432 3.33049 96.731 3.46307C97.1188 3.59564 97.4718 3.81108 97.79 4.10938C98.1081 4.40436 98.3617 4.79545 98.5506 5.28267C98.7395 5.76989 98.834 6.36979 98.834 7.08239V7.57955H92.9476V6.56534H97.6408C97.6408 6.13447 97.5546 5.75 97.3823 5.41193C97.2132 5.07386 96.9713 4.80705 96.6564 4.61151C96.3449 4.41596 95.977 4.31818 95.5527 4.31818C95.0854 4.31818 94.681 4.43419 94.3397 4.66619C94.0016 4.89489 93.7414 5.19318 93.5591 5.56108C93.3768 5.92898 93.2857 6.32339 93.2857 6.74432V7.42045C93.2857 7.99716 93.3851 8.48603 93.584 8.88707C93.7862 9.2848 94.0662 9.58807 94.4242 9.79688C94.7821 10.0024 95.1981 10.1051 95.6721 10.1051C95.9803 10.1051 96.2587 10.062 96.5073 9.97585C96.7592 9.88636 96.9763 9.75379 97.1586 9.57812C97.3409 9.39915 97.4817 9.17708 97.5811 8.91193L98.7147 9.23011C98.5953 9.61458 98.3948 9.95265 98.1131 10.2443C97.8314 10.5327 97.4834 10.758 97.0691 10.9205C96.6548 11.0795 96.1891 11.1591 95.6721 11.1591ZM107.957 3.36364V4.35795H103.84V3.36364H107.957ZM105.073 11V2.30966C105.073 1.87216 105.176 1.50758 105.382 1.21591C105.587 0.924242 105.854 0.705492 106.182 0.559658C106.51 0.413825 106.856 0.340908 107.221 0.340908C107.509 0.340908 107.745 0.364109 107.927 0.410511C108.109 0.456912 108.245 0.499999 108.335 0.539772L107.997 1.55398C107.937 1.53409 107.854 1.50923 107.748 1.4794C107.645 1.44957 107.509 1.43466 107.34 1.43466C106.953 1.43466 106.673 1.53243 106.5 1.72798C106.331 1.92353 106.247 2.21023 106.247 2.58807V11H105.073ZM112.389 11.1591C111.7 11.1591 111.095 10.995 110.574 10.6669C110.057 10.3388 109.653 9.87973 109.361 9.28977C109.073 8.69981 108.929 8.01042 108.929 7.22159C108.929 6.42614 109.073 5.73177 109.361 5.13849C109.653 4.54522 110.057 4.08452 110.574 3.75639C111.095 3.42827 111.7 3.2642 112.389 3.2642C113.078 3.2642 113.682 3.42827 114.199 3.75639C114.719 4.08452 115.123 4.54522 115.412 5.13849C115.703 5.73177 115.849 6.42614 115.849 7.22159C115.849 8.01042 115.703 8.69981 115.412 9.28977C115.123 9.87973 114.719 10.3388 114.199 10.6669C113.682 10.995 113.078 11.1591 112.389 11.1591ZM112.389 10.1051C112.913 10.1051 113.344 9.97088 113.682 9.70241C114.02 9.43395 114.27 9.08097 114.432 8.64347C114.595 8.20597 114.676 7.73201 114.676 7.22159C114.676 6.71117 114.595 6.23556 114.432 5.79474C114.27 5.35393 114.02 4.99763 113.682 4.72585C113.344 4.45407 112.913 4.31818 112.389 4.31818C111.865 4.31818 111.434 4.45407 111.096 4.72585C110.758 4.99763 110.508 5.35393 110.346 5.79474C110.183 6.23556 110.102 6.71117 110.102 7.22159C110.102 7.73201 110.183 8.20597 110.346 8.64347C110.508 9.08097 110.758 9.43395 111.096 9.70241C111.434 9.97088 111.865 10.1051 112.389 10.1051ZM117.64 11V3.36364H118.774V4.51705H118.853C118.993 4.1392 119.244 3.83262 119.609 3.5973C119.974 3.36198 120.385 3.24432 120.842 3.24432C120.928 3.24432 121.036 3.24597 121.165 3.24929C121.294 3.2526 121.392 3.25758 121.458 3.2642V4.45739C121.419 4.44744 121.328 4.43253 121.185 4.41264C121.046 4.38944 120.898 4.37784 120.743 4.37784C120.371 4.37784 120.04 4.45573 119.748 4.61151C119.46 4.76397 119.231 4.97609 119.062 5.24787C118.896 5.51634 118.814 5.82292 118.814 6.16761V11H117.64ZM126.787 13.8636V3.36364H127.92V4.5767H128.059C128.146 4.44413 128.265 4.27509 128.417 4.0696C128.573 3.8608 128.795 3.67519 129.084 3.51278C129.375 3.34706 129.77 3.2642 130.267 3.2642C130.91 3.2642 131.477 3.42495 131.967 3.74645C132.458 4.06794 132.84 4.52367 133.116 5.11364C133.391 5.7036 133.528 6.39962 133.528 7.2017C133.528 8.01042 133.391 8.71141 133.116 9.30469C132.84 9.89465 132.459 10.352 131.972 10.6768C131.485 10.9983 130.923 11.1591 130.287 11.1591C129.796 11.1591 129.403 11.0779 129.108 10.9155C128.814 10.7498 128.586 10.5625 128.427 10.3537C128.268 10.1416 128.146 9.96591 128.059 9.8267H127.96V13.8636H126.787ZM127.94 7.18182C127.94 7.75852 128.025 8.26728 128.194 8.7081C128.363 9.1456 128.61 9.48864 128.934 9.73722C129.259 9.98248 129.657 10.1051 130.128 10.1051C130.618 10.1051 131.028 9.97585 131.356 9.71733C131.687 9.45549 131.936 9.10417 132.101 8.66335C132.27 8.21922 132.355 7.72538 132.355 7.18182C132.355 6.64489 132.272 6.16098 132.106 5.73011C131.944 5.29593 131.697 4.95289 131.366 4.70099C131.037 4.44579 130.625 4.31818 130.128 4.31818C129.65 4.31818 129.249 4.43916 128.925 4.68111C128.6 4.91974 128.354 5.2545 128.189 5.68537C128.023 6.11293 127.94 6.61174 127.94 7.18182ZM138.52 11.1591C137.784 11.1591 137.149 10.9967 136.616 10.6719C136.085 10.3438 135.676 9.88636 135.388 9.29972C135.103 8.70975 134.96 8.02367 134.96 7.24148C134.96 6.45928 135.103 5.76989 135.388 5.1733C135.676 4.57339 136.077 4.10606 136.591 3.77131C137.108 3.43324 137.711 3.2642 138.4 3.2642C138.798 3.2642 139.191 3.33049 139.579 3.46307C139.966 3.59564 140.319 3.81108 140.638 4.10938C140.956 4.40436 141.209 4.79545 141.398 5.28267C141.587 5.76989 141.682 6.36979 141.682 7.08239V7.57955H135.795V6.56534H140.488C140.488 6.13447 140.402 5.75 140.23 5.41193C140.061 5.07386 139.819 4.80705 139.504 4.61151C139.193 4.41596 138.825 4.31818 138.4 4.31818C137.933 4.31818 137.529 4.43419 137.187 4.66619C136.849 4.89489 136.589 5.19318 136.407 5.56108C136.224 5.92898 136.133 6.32339 136.133 6.74432V7.42045C136.133 7.99716 136.233 8.48603 136.432 8.88707C136.634 9.2848 136.914 9.58807 137.272 9.79688C137.63 10.0024 138.046 10.1051 138.52 10.1051C138.828 10.1051 139.106 10.062 139.355 9.97585C139.607 9.88636 139.824 9.75379 140.006 9.57812C140.189 9.39915 140.329 9.17708 140.429 8.91193L141.562 9.23011C141.443 9.61458 141.242 9.95265 140.961 10.2443C140.679 10.5327 140.331 10.758 139.917 10.9205C139.502 11.0795 139.037 11.1591 138.52 11.1591ZM146.569 11.1591C145.879 11.1591 145.274 10.995 144.754 10.6669C144.237 10.3388 143.833 9.87973 143.541 9.28977C143.253 8.69981 143.108 8.01042 143.108 7.22159C143.108 6.42614 143.253 5.73177 143.541 5.13849C143.833 4.54522 144.237 4.08452 144.754 3.75639C145.274 3.42827 145.879 3.2642 146.569 3.2642C147.258 3.2642 147.861 3.42827 148.378 3.75639C148.899 4.08452 149.303 4.54522 149.591 5.13849C149.883 5.73177 150.029 6.42614 150.029 7.22159C150.029 8.01042 149.883 8.69981 149.591 9.28977C149.303 9.87973 148.899 10.3388 148.378 10.6669C147.861 10.995 147.258 11.1591 146.569 11.1591ZM146.569 10.1051C147.092 10.1051 147.523 9.97088 147.861 9.70241C148.199 9.43395 148.45 9.08097 148.612 8.64347C148.774 8.20597 148.856 7.73201 148.856 7.22159C148.856 6.71117 148.774 6.23556 148.612 5.79474C148.45 5.35393 148.199 4.99763 147.861 4.72585C147.523 4.45407 147.092 4.31818 146.569 4.31818C146.045 4.31818 145.614 4.45407 145.276 4.72585C144.938 4.99763 144.688 5.35393 144.525 5.79474C144.363 6.23556 144.282 6.71117 144.282 7.22159C144.282 7.73201 144.363 8.20597 144.525 8.64347C144.688 9.08097 144.938 9.43395 145.276 9.70241C145.614 9.97088 146.045 10.1051 146.569 10.1051ZM151.82 13.8636V3.36364H152.953V4.5767H153.093C153.179 4.44413 153.298 4.27509 153.451 4.0696C153.606 3.8608 153.828 3.67519 154.117 3.51278C154.408 3.34706 154.803 3.2642 155.3 3.2642C155.943 3.2642 156.51 3.42495 157 3.74645C157.491 4.06794 157.874 4.52367 158.149 5.11364C158.424 5.7036 158.561 6.39962 158.561 7.2017C158.561 8.01042 158.424 8.71141 158.149 9.30469C157.874 9.89465 157.493 10.352 157.005 10.6768C156.518 10.9983 155.956 11.1591 155.32 11.1591C154.829 11.1591 154.437 11.0779 154.142 10.9155C153.847 10.7498 153.62 10.5625 153.461 10.3537C153.301 10.1416 153.179 9.96591 153.093 9.8267H152.993V13.8636H151.82ZM152.973 7.18182C152.973 7.75852 153.058 8.26728 153.227 8.7081C153.396 9.1456 153.643 9.48864 153.968 9.73722C154.292 9.98248 154.69 10.1051 155.161 10.1051C155.651 10.1051 156.061 9.97585 156.389 9.71733C156.72 9.45549 156.969 9.10417 157.135 8.66335C157.304 8.21922 157.388 7.72538 157.388 7.18182C157.388 6.64489 157.305 6.16098 157.14 5.73011C156.977 5.29593 156.73 4.95289 156.399 4.70099C156.071 4.44579 155.658 4.31818 155.161 4.31818C154.684 4.31818 154.283 4.43916 153.958 4.68111C153.633 4.91974 153.388 5.2545 153.222 5.68537C153.056 6.11293 152.973 6.61174 152.973 7.18182ZM161.525 0.818182V11H160.351V0.818182H161.525ZM166.875 11.1591C166.139 11.1591 165.505 10.9967 164.971 10.6719C164.441 10.3438 164.031 9.88636 163.743 9.29972C163.458 8.70975 163.316 8.02367 163.316 7.24148C163.316 6.45928 163.458 5.76989 163.743 5.1733C164.031 4.57339 164.432 4.10606 164.946 3.77131C165.463 3.43324 166.066 3.2642 166.756 3.2642C167.154 3.2642 167.546 3.33049 167.934 3.46307C168.322 3.59564 168.675 3.81108 168.993 4.10938C169.311 4.40436 169.565 4.79545 169.754 5.28267C169.943 5.76989 170.037 6.36979 170.037 7.08239V7.57955H164.151V6.56534H168.844C168.844 6.13447 168.758 5.75 168.585 5.41193C168.416 5.07386 168.174 4.80705 167.86 4.61151C167.548 4.41596 167.18 4.31818 166.756 4.31818C166.289 4.31818 165.884 4.43419 165.543 4.66619C165.205 4.89489 164.945 5.19318 164.762 5.56108C164.58 5.92898 164.489 6.32339 164.489 6.74432V7.42045C164.489 7.99716 164.588 8.48603 164.787 8.88707C164.989 9.2848 165.269 9.58807 165.627 9.79688C165.985 10.0024 166.401 10.1051 166.875 10.1051C167.183 10.1051 167.462 10.062 167.71 9.97585C167.962 9.88636 168.179 9.75379 168.362 9.57812C168.544 9.39915 168.685 9.17708 168.784 8.91193L169.918 9.23011C169.798 9.61458 169.598 9.95265 169.316 10.2443C169.035 10.5327 168.686 10.758 168.272 10.9205C167.858 11.0795 167.392 11.1591 166.875 11.1591ZM177.49 11L175.163 3.36364H176.396L178.046 9.21023H178.126L179.757 3.36364H181.009L182.62 9.19034H182.7L184.35 3.36364H185.583L183.257 11H182.103L180.433 5.13352H180.313L178.643 11H177.49ZM188.308 6.40625V11H187.134V0.818182H188.308V4.55682H188.407C188.586 4.16241 188.855 3.84919 189.213 3.61719C189.574 3.38187 190.054 3.2642 190.654 3.2642C191.175 3.2642 191.63 3.36861 192.021 3.57741C192.413 3.78291 192.716 4.09943 192.931 4.52699C193.15 4.95123 193.259 5.49148 193.259 6.14773V11H192.086V6.22727C192.086 5.62074 191.929 5.15175 191.614 4.82031C191.302 4.48556 190.87 4.31818 190.316 4.31818C189.932 4.31818 189.587 4.39938 189.282 4.56179C188.981 4.72419 188.742 4.96117 188.566 5.27273C188.394 5.58428 188.308 5.96212 188.308 6.40625ZM198.508 11.1591C197.819 11.1591 197.214 10.995 196.694 10.6669C196.176 10.3388 195.772 9.87973 195.48 9.28977C195.192 8.69981 195.048 8.01042 195.048 7.22159C195.048 6.42614 195.192 5.73177 195.48 5.13849C195.772 4.54522 196.176 4.08452 196.694 3.75639C197.214 3.42827 197.819 3.2642 198.508 3.2642C199.198 3.2642 199.801 3.42827 200.318 3.75639C200.838 4.08452 201.243 4.54522 201.531 5.13849C201.823 5.73177 201.968 6.42614 201.968 7.22159C201.968 8.01042 201.823 8.69981 201.531 9.28977C201.243 9.87973 200.838 10.3388 200.318 10.6669C199.801 10.995 199.198 11.1591 198.508 11.1591ZM198.508 10.1051C199.032 10.1051 199.463 9.97088 199.801 9.70241C200.139 9.43395 200.389 9.08097 200.551 8.64347C200.714 8.20597 200.795 7.73201 200.795 7.22159C200.795 6.71117 200.714 6.23556 200.551 5.79474C200.389 5.35393 200.139 4.99763 199.801 4.72585C199.463 4.45407 199.032 4.31818 198.508 4.31818C197.984 4.31818 197.554 4.45407 197.216 4.72585C196.877 4.99763 196.627 5.35393 196.465 5.79474C196.302 6.23556 196.221 6.71117 196.221 7.22159C196.221 7.73201 196.302 8.20597 196.465 8.64347C196.627 9.08097 196.877 9.43395 197.216 9.70241C197.554 9.97088 197.984 10.1051 198.508 10.1051ZM209.944 11.179C209.46 11.179 209.021 11.0878 208.627 10.9055C208.232 10.7199 207.919 10.4531 207.687 10.1051C207.455 9.75379 207.339 9.32955 207.339 8.83239C207.339 8.39489 207.425 8.04025 207.597 7.76847C207.77 7.49337 208 7.27794 208.289 7.12216C208.577 6.96638 208.895 6.85038 209.243 6.77415C209.594 6.6946 209.947 6.63163 210.302 6.58523C210.766 6.52557 211.142 6.48082 211.431 6.45099C211.722 6.41785 211.934 6.36316 212.067 6.28693C212.203 6.2107 212.271 6.07812 212.271 5.8892V5.84943C212.271 5.3589 212.137 4.97775 211.868 4.70597C211.603 4.43419 211.2 4.2983 210.66 4.2983C210.1 4.2983 209.661 4.42093 209.343 4.66619C209.024 4.91146 208.801 5.1733 208.671 5.4517L207.558 5.05398C207.757 4.58996 208.022 4.22869 208.353 3.97017C208.688 3.70833 209.052 3.52604 209.447 3.4233C209.845 3.31723 210.236 3.2642 210.62 3.2642C210.865 3.2642 211.147 3.29403 211.465 3.35369C211.787 3.41004 212.097 3.5277 212.395 3.70668C212.697 3.88565 212.947 4.15578 213.146 4.51705C213.345 4.87831 213.444 5.36222 213.444 5.96875V11H212.271V9.96591H212.211C212.132 10.1316 211.999 10.3089 211.813 10.4979C211.628 10.6868 211.381 10.8475 211.073 10.9801C210.764 11.1127 210.388 11.179 209.944 11.179ZM210.123 10.125C210.587 10.125 210.978 10.0339 211.296 9.85156C211.618 9.66927 211.86 9.43395 212.022 9.1456C212.188 8.85724 212.271 8.55398 212.271 8.2358V7.16193C212.221 7.22159 212.112 7.27628 211.943 7.32599C211.777 7.3724 211.585 7.41383 211.366 7.45028C211.151 7.48343 210.94 7.51326 210.735 7.53977C210.532 7.56297 210.368 7.58286 210.242 7.59943C209.937 7.6392 209.652 7.70384 209.387 7.79332C209.125 7.8795 208.913 8.01042 208.751 8.18608C208.592 8.35843 208.512 8.59375 208.512 8.89205C208.512 9.29972 208.663 9.60795 208.965 9.81676C209.27 10.0223 209.656 10.125 210.123 10.125ZM215.586 11V3.36364H216.719V4.51705H216.799C216.938 4.1392 217.19 3.83262 217.554 3.5973C217.919 3.36198 218.33 3.24432 218.787 3.24432C218.873 3.24432 218.981 3.24597 219.11 3.24929C219.24 3.2526 219.337 3.25758 219.404 3.2642V4.45739C219.364 4.44744 219.273 4.43253 219.13 4.41264C218.991 4.38944 218.844 4.37784 218.688 4.37784C218.317 4.37784 217.985 4.45573 217.694 4.61151C217.405 4.76397 217.176 4.97609 217.007 5.24787C216.842 5.51634 216.759 5.82292 216.759 6.16761V11H215.586ZM223.764 11.1591C223.028 11.1591 222.393 10.9967 221.86 10.6719C221.329 10.3438 220.92 9.88636 220.632 9.29972C220.347 8.70975 220.204 8.02367 220.204 7.24148C220.204 6.45928 220.347 5.76989 220.632 5.1733C220.92 4.57339 221.321 4.10606 221.835 3.77131C222.352 3.43324 222.955 3.2642 223.645 3.2642C224.042 3.2642 224.435 3.33049 224.823 3.46307C225.211 3.59564 225.564 3.81108 225.882 4.10938C226.2 4.40436 226.453 4.79545 226.642 5.28267C226.831 5.76989 226.926 6.36979 226.926 7.08239V7.57955H221.039V6.56534H225.733C225.733 6.13447 225.646 5.75 225.474 5.41193C225.305 5.07386 225.063 4.80705 224.748 4.61151C224.437 4.41596 224.069 4.31818 223.645 4.31818C223.177 4.31818 222.773 4.43419 222.431 4.66619C222.093 4.89489 221.833 5.19318 221.651 5.56108C221.469 5.92898 221.377 6.32339 221.377 6.74432V7.42045C221.377 7.99716 221.477 8.48603 221.676 8.88707C221.878 9.2848 222.158 9.58807 222.516 9.79688C222.874 10.0024 223.29 10.1051 223.764 10.1051C224.072 10.1051 224.35 10.062 224.599 9.97585C224.851 9.88636 225.068 9.75379 225.25 9.57812C225.433 9.39915 225.574 9.17708 225.673 8.91193L226.806 9.23011C226.687 9.61458 226.487 9.95265 226.205 10.2443C225.923 10.5327 225.575 10.758 225.161 10.9205C224.747 11.0795 224.281 11.1591 223.764 11.1591ZM232.648 11V3.36364H233.821V11H232.648ZM233.245 2.09091C233.016 2.09091 232.819 2.01302 232.653 1.85724C232.491 1.70147 232.409 1.5142 232.409 1.29545C232.409 1.0767 232.491 0.889441 232.653 0.733664C232.819 0.577888 233.016 0.5 233.245 0.5C233.473 0.5 233.669 0.577888 233.831 0.733664C233.997 0.889441 234.08 1.0767 234.08 1.29545C234.08 1.5142 233.997 1.70147 233.831 1.85724C233.669 2.01302 233.473 2.09091 233.245 2.09091ZM237.144 6.40625V11H235.97V3.36364H237.104V4.55682H237.203C237.382 4.16903 237.654 3.85748 238.019 3.62216C238.383 3.38352 238.854 3.2642 239.431 3.2642C239.948 3.2642 240.4 3.37027 240.788 3.58239C241.176 3.79119 241.477 4.10938 241.693 4.53693C241.908 4.96117 242.016 5.49811 242.016 6.14773V11H240.843V6.22727C240.843 5.62737 240.687 5.16004 240.375 4.82528C240.064 4.48722 239.636 4.31818 239.093 4.31818C238.718 4.31818 238.383 4.39938 238.088 4.56179C237.797 4.72419 237.566 4.96117 237.397 5.27273C237.228 5.58428 237.144 5.96212 237.144 6.40625ZM247.481 3.36364V4.35795H243.523V3.36364H247.481ZM244.677 1.53409H245.85V8.8125C245.85 9.14394 245.898 9.39252 245.994 9.55824C246.094 9.72064 246.22 9.83002 246.372 9.88636C246.528 9.93939 246.692 9.96591 246.864 9.96591C246.994 9.96591 247.1 9.95928 247.183 9.94602C247.265 9.92945 247.332 9.91619 247.381 9.90625L247.62 10.9602C247.54 10.9901 247.429 11.0199 247.287 11.0497C247.144 11.0829 246.964 11.0994 246.745 11.0994C246.414 11.0994 246.089 11.0282 245.771 10.8857C245.456 10.7431 245.194 10.526 244.985 10.2344C244.78 9.94271 244.677 9.57481 244.677 9.13068V1.53409ZM252.365 11.1591C251.63 11.1591 250.995 10.9967 250.461 10.6719C249.931 10.3438 249.522 9.88636 249.233 9.29972C248.948 8.70975 248.806 8.02367 248.806 7.24148C248.806 6.45928 248.948 5.76989 249.233 5.1733C249.522 4.57339 249.923 4.10606 250.436 3.77131C250.953 3.43324 251.557 3.2642 252.246 3.2642C252.644 3.2642 253.037 3.33049 253.424 3.46307C253.812 3.59564 254.165 3.81108 254.483 4.10938C254.801 4.40436 255.055 4.79545 255.244 5.28267C255.433 5.76989 255.527 6.36979 255.527 7.08239V7.57955H249.641V6.56534H254.334C254.334 6.13447 254.248 5.75 254.076 5.41193C253.907 5.07386 253.665 4.80705 253.35 4.61151C253.038 4.41596 252.67 4.31818 252.246 4.31818C251.779 4.31818 251.374 4.43419 251.033 4.66619C250.695 4.89489 250.435 5.19318 250.252 5.56108C250.07 5.92898 249.979 6.32339 249.979 6.74432V7.42045C249.979 7.99716 250.078 8.48603 250.277 8.88707C250.48 9.2848 250.76 9.58807 251.118 9.79688C251.475 10.0024 251.891 10.1051 252.365 10.1051C252.674 10.1051 252.952 10.062 253.201 9.97585C253.453 9.88636 253.67 9.75379 253.852 9.57812C254.034 9.39915 254.175 9.17708 254.275 8.91193L255.408 9.23011C255.289 9.61458 255.088 9.95265 254.806 10.2443C254.525 10.5327 254.177 10.758 253.762 10.9205C253.348 11.0795 252.882 11.1591 252.365 11.1591ZM257.312 11V3.36364H258.446V4.51705H258.525C258.664 4.1392 258.916 3.83262 259.281 3.5973C259.645 3.36198 260.056 3.24432 260.514 3.24432C260.6 3.24432 260.708 3.24597 260.837 3.24929C260.966 3.2526 261.064 3.25758 261.13 3.2642V4.45739C261.091 4.44744 260.999 4.43253 260.857 4.41264C260.718 4.38944 260.57 4.37784 260.414 4.37784C260.043 4.37784 259.712 4.45573 259.42 4.61151C259.132 4.76397 258.903 4.97609 258.734 5.24787C258.568 5.51634 258.485 5.82292 258.485 6.16761V11H257.312ZM265.49 11.1591C264.755 11.1591 264.12 10.9967 263.586 10.6719C263.056 10.3438 262.647 9.88636 262.358 9.29972C262.073 8.70975 261.931 8.02367 261.931 7.24148C261.931 6.45928 262.073 5.76989 262.358 5.1733C262.647 4.57339 263.048 4.10606 263.561 3.77131C264.078 3.43324 264.682 3.2642 265.371 3.2642C265.769 3.2642 266.162 3.33049 266.549 3.46307C266.937 3.59564 267.29 3.81108 267.608 4.10938C267.926 4.40436 268.18 4.79545 268.369 5.28267C268.558 5.76989 268.652 6.36979 268.652 7.08239V7.57955H262.766V6.56534H267.459C267.459 6.13447 267.373 5.75 267.201 5.41193C267.032 5.07386 266.79 4.80705 266.475 4.61151C266.163 4.41596 265.795 4.31818 265.371 4.31818C264.904 4.31818 264.499 4.43419 264.158 4.66619C263.82 4.89489 263.56 5.19318 263.377 5.56108C263.195 5.92898 263.104 6.32339 263.104 6.74432V7.42045C263.104 7.99716 263.203 8.48603 263.402 8.88707C263.605 9.2848 263.885 9.58807 264.243 9.79688C264.6 10.0024 265.016 10.1051 265.49 10.1051C265.799 10.1051 266.077 10.062 266.326 9.97585C266.578 9.88636 266.795 9.75379 266.977 9.57812C267.159 9.39915 267.3 9.17708 267.4 8.91193L268.533 9.23011C268.414 9.61458 268.213 9.95265 267.931 10.2443C267.65 10.5327 267.302 10.758 266.887 10.9205C266.473 11.0795 266.007 11.1591 265.49 11.1591ZM275.846 5.07386L274.792 5.37216C274.726 5.1965 274.628 5.0258 274.499 4.86009C274.373 4.69105 274.201 4.55185 273.982 4.44247C273.763 4.3331 273.483 4.27841 273.142 4.27841C272.674 4.27841 272.285 4.38613 271.973 4.60156C271.665 4.81368 271.511 5.08381 271.511 5.41193C271.511 5.7036 271.617 5.93395 271.829 6.10298C272.041 6.27202 272.373 6.41288 272.824 6.52557L273.957 6.80398C274.64 6.9697 275.149 7.22325 275.483 7.56463C275.818 7.9027 275.985 8.33854 275.985 8.87216C275.985 9.30966 275.859 9.70076 275.608 10.0455C275.359 10.3902 275.011 10.6619 274.564 10.8608C274.116 11.0597 273.596 11.1591 273.002 11.1591C272.224 11.1591 271.579 10.9901 271.069 10.652C270.558 10.3139 270.235 9.82008 270.099 9.17045L271.213 8.89205C271.319 9.30303 271.519 9.61127 271.814 9.81676C272.113 10.0223 272.502 10.125 272.983 10.125C273.529 10.125 273.964 10.009 274.285 9.77699C274.61 9.54167 274.772 9.25994 274.772 8.93182C274.772 8.66667 274.68 8.4446 274.494 8.26562C274.308 8.08333 274.023 7.94744 273.639 7.85795L272.366 7.55966C271.667 7.39394 271.153 7.13707 270.825 6.78906C270.5 6.43774 270.338 5.99858 270.338 5.47159C270.338 5.04072 270.459 4.65956 270.701 4.32812C270.946 3.99669 271.279 3.73651 271.7 3.54758C272.124 3.35866 272.605 3.2642 273.142 3.2642C273.897 3.2642 274.491 3.42992 274.922 3.76136C275.356 4.0928 275.664 4.5303 275.846 5.07386ZM281.073 3.36364V4.35795H277.115V3.36364H281.073ZM278.269 1.53409H279.442V8.8125C279.442 9.14394 279.49 9.39252 279.586 9.55824C279.686 9.72064 279.811 9.83002 279.964 9.88636C280.12 9.93939 280.284 9.96591 280.456 9.96591C280.585 9.96591 280.691 9.95928 280.774 9.94602C280.857 9.92945 280.923 9.91619 280.973 9.90625L281.212 10.9602C281.132 10.9901 281.021 11.0199 280.879 11.0497C280.736 11.0829 280.556 11.0994 280.337 11.0994C280.005 11.0994 279.681 11.0282 279.362 10.8857C279.048 10.7431 278.786 10.526 278.577 10.2344C278.371 9.94271 278.269 9.57481 278.269 9.13068V1.53409ZM285.957 11.1591C285.221 11.1591 284.587 10.9967 284.053 10.6719C283.523 10.3438 283.113 9.88636 282.825 9.29972C282.54 8.70975 282.398 8.02367 282.398 7.24148C282.398 6.45928 282.54 5.76989 282.825 5.1733C283.113 4.57339 283.515 4.10606 284.028 3.77131C284.545 3.43324 285.148 3.2642 285.838 3.2642C286.236 3.2642 286.628 3.33049 287.016 3.46307C287.404 3.59564 287.757 3.81108 288.075 4.10938C288.393 4.40436 288.647 4.79545 288.836 5.28267C289.025 5.76989 289.119 6.36979 289.119 7.08239V7.57955H283.233V6.56534H287.926C287.926 6.13447 287.84 5.75 287.667 5.41193C287.498 5.07386 287.256 4.80705 286.942 4.61151C286.63 4.41596 286.262 4.31818 285.838 4.31818C285.371 4.31818 284.966 4.43419 284.625 4.66619C284.287 4.89489 284.027 5.19318 283.844 5.56108C283.662 5.92898 283.571 6.32339 283.571 6.74432V7.42045C283.571 7.99716 283.67 8.48603 283.869 8.88707C284.071 9.2848 284.351 9.58807 284.709 9.79688C285.067 10.0024 285.483 10.1051 285.957 10.1051C286.265 10.1051 286.544 10.062 286.792 9.97585C287.044 9.88636 287.261 9.75379 287.444 9.57812C287.626 9.39915 287.767 9.17708 287.866 8.91193L289 9.23011C288.881 9.61458 288.68 9.95265 288.398 10.2443C288.117 10.5327 287.769 10.758 287.354 10.9205C286.94 11.0795 286.474 11.1591 285.957 11.1591ZM293.787 11.1591C293.151 11.1591 292.589 10.9983 292.102 10.6768C291.615 10.352 291.234 9.89465 290.959 9.30469C290.684 8.71141 290.546 8.01042 290.546 7.2017C290.546 6.39962 290.684 5.7036 290.959 5.11364C291.234 4.52367 291.617 4.06794 292.107 3.74645C292.598 3.42495 293.164 3.2642 293.807 3.2642C294.305 3.2642 294.697 3.34706 294.986 3.51278C295.277 3.67519 295.499 3.8608 295.652 4.0696C295.808 4.27509 295.929 4.44413 296.015 4.5767H296.114V0.818182H297.287V11H296.154V9.8267H296.015C295.929 9.96591 295.806 10.1416 295.647 10.3537C295.488 10.5625 295.261 10.7498 294.966 10.9155C294.671 11.0779 294.278 11.1591 293.787 11.1591ZM293.947 10.1051C294.417 10.1051 294.815 9.98248 295.14 9.73722C295.465 9.48864 295.711 9.1456 295.881 8.7081C296.05 8.26728 296.134 7.75852 296.134 7.18182C296.134 6.61174 296.051 6.11293 295.885 5.68537C295.72 5.2545 295.474 4.91974 295.15 4.68111C294.825 4.43916 294.424 4.31818 293.947 4.31818C293.449 4.31818 293.035 4.44579 292.704 4.70099C292.376 4.95289 292.129 5.29593 291.963 5.73011C291.8 6.16098 291.719 6.64489 291.719 7.18182C291.719 7.72538 291.802 8.21922 291.968 8.66335C292.137 9.10417 292.385 9.45549 292.714 9.71733C293.045 9.97585 293.456 10.1051 293.947 10.1051ZM303.537 11V3.36364H304.71V11H303.537ZM304.133 2.09091C303.905 2.09091 303.707 2.01302 303.542 1.85724C303.379 1.70147 303.298 1.5142 303.298 1.29545C303.298 1.0767 303.379 0.889441 303.542 0.733664C303.707 0.577888 303.905 0.5 304.133 0.5C304.362 0.5 304.558 0.577888 304.72 0.733664C304.886 0.889441 304.969 1.0767 304.969 1.29545C304.969 1.5142 304.886 1.70147 304.72 1.85724C304.558 2.01302 304.362 2.09091 304.133 2.09091ZM308.032 6.40625V11H306.859V3.36364H307.993V4.55682H308.092C308.271 4.16903 308.543 3.85748 308.907 3.62216C309.272 3.38352 309.743 3.2642 310.319 3.2642C310.836 3.2642 311.289 3.37027 311.676 3.58239C312.064 3.79119 312.366 4.10938 312.581 4.53693C312.797 4.96117 312.904 5.49811 312.904 6.14773V11H311.731V6.22727C311.731 5.62737 311.575 5.16004 311.264 4.82528C310.952 4.48722 310.525 4.31818 309.981 4.31818C309.607 4.31818 309.272 4.39938 308.977 4.56179C308.685 4.72419 308.455 4.96117 308.286 5.27273C308.117 5.58428 308.032 5.96212 308.032 6.40625ZM315.904 11.0795C315.658 11.0795 315.448 10.9917 315.272 10.8161C315.097 10.6404 315.009 10.4299 315.009 10.1847C315.009 9.93939 315.097 9.72893 315.272 9.55327C315.448 9.3776 315.658 9.28977 315.904 9.28977C316.149 9.28977 316.359 9.3776 316.535 9.55327C316.711 9.72893 316.798 9.93939 316.798 10.1847C316.798 10.3471 316.757 10.4962 316.674 10.6321C316.595 10.768 316.487 10.8774 316.351 10.9602C316.218 11.0398 316.069 11.0795 315.904 11.0795ZM319.759 11.0795C319.514 11.0795 319.303 10.9917 319.128 10.8161C318.952 10.6404 318.864 10.4299 318.864 10.1847C318.864 9.93939 318.952 9.72893 319.128 9.55327C319.303 9.3776 319.514 9.28977 319.759 9.28977C320.004 9.28977 320.215 9.3776 320.39 9.55327C320.566 9.72893 320.654 9.93939 320.654 10.1847C320.654 10.3471 320.613 10.4962 320.53 10.6321C320.45 10.768 320.342 10.8774 320.206 10.9602C320.074 11.0398 319.925 11.0795 319.759 11.0795ZM323.615 11.0795C323.369 11.0795 323.159 10.9917 322.983 10.8161C322.807 10.6404 322.72 10.4299 322.72 10.1847C322.72 9.93939 322.807 9.72893 322.983 9.55327C323.159 9.3776 323.369 9.28977 323.615 9.28977C323.86 9.28977 324.07 9.3776 324.246 9.55327C324.422 9.72893 324.509 9.93939 324.509 10.1847C324.509 10.3471 324.468 10.4962 324.385 10.6321C324.306 10.768 324.198 10.8774 324.062 10.9602C323.929 11.0398 323.78 11.0795 323.615 11.0795Z" fill="#05C2DF"/>
</svg>
