<svg width="703" height="35" viewBox="0 0 703 35" fill="none" xmlns="http://www.w3.org/2000/svg">
<path d="M0.408469 7.86364V0.545454H29.4852V7.86364H19.4227V34H10.471V7.86364H0.408469ZM32.9033 34V0.545454H41.9857V13.6136H54.0084V0.545454H63.0908V34H54.0084V20.9318H41.9857V34H32.9033ZM76.0937 34H66.2925L77.3351 0.545454H89.7499L100.793 34H90.9914L83.6732 9.75852H83.4118L76.0937 34ZM74.2641 20.8011H92.6903V27.5966H74.2641V20.8011ZM132.961 0.545454V34H125.381L113.293 16.4233H113.097V34H104.015V0.545454H111.725L123.617 18.0568H123.878V0.545454H132.961ZM137.257 34V0.545454H146.339V14.071H146.797L156.859 0.545454H167.444L156.14 15.4432L167.706 34H156.859L149.345 21.4545L146.339 25.375V34H137.257ZM177.932 0.545454H188.059L194.593 14.1364H194.855L201.389 0.545454H211.517L199.233 23.4801V34H190.216V23.4801L177.932 0.545454ZM244.551 17.2727C244.551 20.9972 243.826 24.139 242.378 26.6982C240.93 29.2464 238.975 31.1795 236.514 32.4972C234.053 33.804 231.308 34.4574 228.281 34.4574C225.232 34.4574 222.476 33.7985 220.015 32.4808C217.565 31.1522 215.616 29.2138 214.167 26.6655C212.73 24.1063 212.011 20.9754 212.011 17.2727C212.011 13.5483 212.73 10.4119 214.167 7.86364C215.616 5.30445 217.565 3.37145 220.015 2.06463C222.476 0.746921 225.232 0.0880669 228.281 0.0880669C231.308 0.0880669 234.053 0.746921 236.514 2.06463C238.975 3.37145 240.93 5.30445 242.378 7.86364C243.826 10.4119 244.551 13.5483 244.551 17.2727ZM235.207 17.2727C235.207 15.2689 234.94 13.581 234.407 12.2088C233.884 10.8258 233.105 9.7803 232.071 9.07244C231.047 8.35369 229.784 7.99432 228.281 7.99432C226.778 7.99432 225.509 8.35369 224.475 9.07244C223.451 9.7803 222.672 10.8258 222.139 12.2088C221.616 13.581 221.355 15.2689 221.355 17.2727C221.355 19.2765 221.616 20.9699 222.139 22.353C222.672 23.7251 223.451 24.7706 224.475 25.4893C225.509 26.1972 226.778 26.5511 228.281 26.5511C229.784 26.5511 231.047 26.1972 232.071 25.4893C233.105 24.7706 233.884 23.7251 234.407 22.353C234.94 20.9699 235.207 19.2765 235.207 17.2727ZM268.551 0.545454H277.634V21.9773C277.634 24.5256 277.024 26.7308 275.804 28.593C274.595 30.4444 272.907 31.8764 270.74 32.8892C268.573 33.8911 266.057 34.392 263.193 34.392C260.307 34.392 257.781 33.8911 255.614 32.8892C253.447 31.8764 251.759 30.4444 250.55 28.593C249.352 26.7308 248.753 24.5256 248.753 21.9773V0.545454H257.835V21.1932C257.835 22.2277 258.064 23.1534 258.521 23.9702C258.979 24.776 259.61 25.4077 260.416 25.8651C261.233 26.3224 262.159 26.5511 263.193 26.5511C264.239 26.5511 265.164 26.3224 265.97 25.8651C266.776 25.4077 267.408 24.776 267.865 23.9702C268.323 23.1534 268.551 22.2277 268.551 21.1932V0.545454ZM291.114 34V0.545454H314.637V7.86364H300.197V13.6136H313.199V20.9318H300.197V34H291.114ZM350.387 17.2727C350.387 20.9972 349.662 24.139 348.214 26.6982C346.766 29.2464 344.811 31.1795 342.35 32.4972C339.889 33.804 337.144 34.4574 334.117 34.4574C331.068 34.4574 328.312 33.7985 325.851 32.4808C323.401 31.1522 321.451 29.2138 320.003 26.6655C318.566 24.1063 317.847 20.9754 317.847 17.2727C317.847 13.5483 318.566 10.4119 320.003 7.86364C321.451 5.30445 323.401 3.37145 325.851 2.06463C328.312 0.746921 331.068 0.0880669 334.117 0.0880669C337.144 0.0880669 339.889 0.746921 342.35 2.06463C344.811 3.37145 346.766 5.30445 348.214 7.86364C349.662 10.4119 350.387 13.5483 350.387 17.2727ZM341.043 17.2727C341.043 15.2689 340.776 13.581 340.242 12.2088C339.72 10.8258 338.941 9.7803 337.907 9.07244C336.883 8.35369 335.62 7.99432 334.117 7.99432C332.614 7.99432 331.345 8.35369 330.311 9.07244C329.287 9.7803 328.508 10.8258 327.975 12.2088C327.452 13.581 327.191 15.2689 327.191 17.2727C327.191 19.2765 327.452 20.9699 327.975 22.353C328.508 23.7251 329.287 24.7706 330.311 25.4893C331.345 26.1972 332.614 26.5511 334.117 26.5511C335.62 26.5511 336.883 26.1972 337.907 25.4893C338.941 24.7706 339.72 23.7251 340.242 22.353C340.776 20.9699 341.043 19.2765 341.043 17.2727ZM354.589 34V0.545454H369.029C371.512 0.545454 373.685 0.997395 375.547 1.90128C377.409 2.80516 378.858 4.10653 379.892 5.8054C380.927 7.50426 381.444 9.54072 381.444 11.9148C381.444 14.3106 380.91 16.3307 379.843 17.9751C378.787 19.6196 377.3 20.861 375.384 21.6996C373.478 22.5381 371.251 22.9574 368.703 22.9574H360.078V15.9006H366.873C367.94 15.9006 368.85 15.7699 369.601 15.5085C370.363 15.2363 370.946 14.8061 371.349 14.218C371.763 13.63 371.97 12.8622 371.97 11.9148C371.97 10.9564 371.763 10.1778 371.349 9.57884C370.946 8.96899 370.363 8.52249 369.601 8.23934C368.85 7.94531 367.94 7.79829 366.873 7.79829H363.671V34H354.589ZM374.191 18.6449L382.555 34H372.688L364.521 18.6449H374.191ZM563.631 17.2727C563.631 20.9972 562.907 24.139 561.458 26.6982C560.01 29.2464 558.055 31.1795 555.594 32.4972C553.133 33.804 550.388 34.4574 547.361 34.4574C544.312 34.4574 541.556 33.7985 539.095 32.4808C536.645 31.1522 534.696 29.2138 533.247 26.6655C531.81 24.1063 531.091 20.9754 531.091 17.2727C531.091 13.5483 531.81 10.4119 533.247 7.86364C534.696 5.30445 536.645 3.37145 539.095 2.06463C541.556 0.746921 544.312 0.0880669 547.361 0.0880669C550.388 0.0880669 553.133 0.746921 555.594 2.06463C558.055 3.37145 560.01 5.30445 561.458 7.86364C562.907 10.4119 563.631 13.5483 563.631 17.2727ZM554.287 17.2727C554.287 15.2689 554.02 13.581 553.487 12.2088C552.964 10.8258 552.185 9.7803 551.151 9.07244C550.127 8.35369 548.864 7.99432 547.361 7.99432C545.858 7.99432 544.589 8.35369 543.555 9.07244C542.531 9.7803 541.752 10.8258 541.219 12.2088C540.696 13.581 540.435 15.2689 540.435 17.2727C540.435 19.2765 540.696 20.9699 541.219 22.353C541.752 23.7251 542.531 24.7706 543.555 25.4893C544.589 26.1972 545.858 26.5511 547.361 26.5511C548.864 26.5511 550.127 26.1972 551.151 25.4893C552.185 24.7706 552.964 23.7251 553.487 22.353C554.02 20.9699 554.287 19.2765 554.287 17.2727ZM567.833 34V0.545454H582.273C584.756 0.545454 586.929 0.997395 588.791 1.90128C590.653 2.80516 592.102 4.10653 593.136 5.8054C594.171 7.50426 594.688 9.54072 594.688 11.9148C594.688 14.3106 594.155 16.3307 593.087 17.9751C592.031 19.6196 590.544 20.861 588.628 21.6996C586.722 22.5381 584.495 22.9574 581.947 22.9574H573.322V15.9006H580.117C581.184 15.9006 582.094 15.7699 582.845 15.5085C583.607 15.2363 584.19 14.8061 584.593 14.218C585.007 13.63 585.214 12.8622 585.214 11.9148C585.214 10.9564 585.007 10.1778 584.593 9.57884C584.19 8.96899 583.607 8.52249 582.845 8.23934C582.094 7.94531 581.184 7.79829 580.117 7.79829H576.915V34H567.833ZM587.435 18.6449L595.799 34H585.932L577.765 18.6449H587.435ZM611.432 34H598.56V0.545454H611.301C614.742 0.545454 617.715 1.2152 620.22 2.55469C622.736 3.88328 624.674 5.79995 626.035 8.30469C627.408 10.7985 628.094 13.7879 628.094 17.2727C628.094 20.7576 627.413 23.7524 626.052 26.2571C624.69 28.7509 622.763 30.6676 620.269 32.0071C617.775 33.3357 614.829 34 611.432 34ZM607.642 26.2898H611.105C612.76 26.2898 614.171 26.023 615.336 25.4893C616.512 24.9557 617.405 24.0355 618.015 22.7287C618.636 21.4219 618.946 19.6032 618.946 17.2727C618.946 14.9422 618.63 13.1236 617.998 11.8168C617.378 10.5099 616.463 9.58972 615.254 9.05611C614.056 8.52249 612.586 8.25568 610.844 8.25568H607.642V26.2898ZM632.296 34V0.545454H656.407V7.86364H641.378V13.6136H655.165V20.9318H641.378V26.6818H656.341V34H632.296ZM660.911 34V0.545454H675.351C677.834 0.545454 680.007 0.997395 681.869 1.90128C683.731 2.80516 685.18 4.10653 686.214 5.8054C687.249 7.50426 687.766 9.54072 687.766 11.9148C687.766 14.3106 687.233 16.3307 686.165 17.9751C685.109 19.6196 683.623 20.861 681.706 21.6996C679.8 22.5381 677.573 22.9574 675.025 22.9574H666.4V15.9006H673.195C674.262 15.9006 675.172 15.7699 675.923 15.5085C676.686 15.2363 677.268 14.8061 677.671 14.218C678.085 13.63 678.292 12.8622 678.292 11.9148C678.292 10.9564 678.085 10.1778 677.671 9.57884C677.268 8.96899 676.686 8.52249 675.923 8.23934C675.172 7.94531 674.262 7.79829 673.195 7.79829H669.994V34H660.911ZM680.513 18.6449L688.877 34H679.011L670.843 18.6449H680.513ZM702.223 0.545454L701.373 23.5455H693.925L693.075 0.545454H702.223ZM697.649 34.5227C696.386 34.5227 695.302 34.0817 694.398 33.1996C693.505 32.3066 693.064 31.223 693.075 29.9489C693.064 28.7074 693.505 27.6456 694.398 26.7635C695.302 25.8814 696.386 25.4403 697.649 25.4403C698.847 25.4403 699.903 25.8814 700.818 26.7635C701.744 27.6456 702.212 28.7074 702.223 29.9489C702.212 30.7983 701.989 31.5715 701.553 32.2685C701.128 32.9545 700.573 33.5045 699.887 33.9183C699.201 34.3213 698.455 34.5227 697.649 34.5227Z" fill="white"/>
<path d="M393.499 0.545454H398.139L407.417 16.1619H407.809L417.087 0.545454H421.727L409.639 20.2131V34H405.587V20.2131L393.499 0.545454ZM453.621 17.2727C453.621 20.8011 452.984 23.8504 451.71 26.4205C450.436 28.9905 448.688 30.9725 446.466 32.3665C444.245 33.7604 441.707 34.4574 438.854 34.4574C436.001 34.4574 433.464 33.7604 431.242 32.3665C429.02 30.9725 427.272 28.9905 425.998 26.4205C424.724 23.8504 424.087 20.8011 424.087 17.2727C424.087 13.7443 424.724 10.6951 425.998 8.125C427.272 5.55492 429.02 3.57292 431.242 2.17898C433.464 0.785037 436.001 0.0880669 438.854 0.0880669C441.707 0.0880669 444.245 0.785037 446.466 2.17898C448.688 3.57292 450.436 5.55492 451.71 8.125C452.984 10.6951 453.621 13.7443 453.621 17.2727ZM449.701 17.2727C449.701 14.3759 449.216 11.9311 448.247 9.93821C447.289 7.94531 445.987 6.43703 444.343 5.41335C442.709 4.38968 440.88 3.87784 438.854 3.87784C436.829 3.87784 434.994 4.38968 433.349 5.41335C431.716 6.43703 430.414 7.94531 429.445 9.93821C428.487 11.9311 428.008 14.3759 428.008 17.2727C428.008 20.1695 428.487 22.6143 429.445 24.6072C430.414 26.6001 431.716 28.1084 433.349 29.1321C434.994 30.1558 436.829 30.6676 438.854 30.6676C440.88 30.6676 442.709 30.1558 444.343 29.1321C445.987 28.1084 447.289 26.6001 448.247 24.6072C449.216 22.6143 449.701 20.1695 449.701 17.2727ZM482.388 0.545454H486.439V22.696C486.439 24.983 485.9 27.0249 484.821 28.8217C483.754 30.6077 482.246 32.018 480.297 33.0526C478.347 34.0762 476.06 34.5881 473.436 34.5881C470.811 34.5881 468.524 34.0762 466.575 33.0526C464.626 32.018 463.112 30.6077 462.034 28.8217C460.967 27.0249 460.433 24.983 460.433 22.696V0.545454H464.484V22.3693C464.484 24.0028 464.843 25.4567 465.562 26.7308C466.281 27.9941 467.305 28.9905 468.633 29.7202C469.973 30.4389 471.574 30.7983 473.436 30.7983C475.298 30.7983 476.899 30.4389 478.238 29.7202C479.578 28.9905 480.602 27.9941 481.309 26.7308C482.028 25.4567 482.388 24.0028 482.388 22.3693V0.545454ZM494.529 34V0.545454H505.833C508.446 0.545454 510.592 0.99195 512.269 1.88494C513.946 2.76704 515.187 3.9813 515.993 5.5277C516.799 7.0741 517.202 8.83286 517.202 10.804C517.202 12.7751 516.799 14.523 515.993 16.0476C515.187 17.5722 513.951 18.7701 512.285 19.6413C510.619 20.5017 508.49 20.9318 505.898 20.9318H496.75V17.2727H505.767C507.553 17.2727 508.991 17.0114 510.08 16.4886C511.18 15.9659 511.975 15.2254 512.465 14.267C512.966 13.2978 513.216 12.1435 513.216 10.804C513.216 9.46449 512.966 8.2938 512.465 7.2919C511.964 6.29001 511.163 5.51681 510.063 4.9723C508.964 4.4169 507.51 4.1392 505.702 4.1392H498.58V34H494.529ZM510.276 18.9716L518.509 34H513.804L505.702 18.9716H510.276Z" fill="#05C2DF"/>
</svg>
