<svg width="217" height="55" viewBox="0 0 217 55" fill="none" xmlns="http://www.w3.org/2000/svg">
<path d="M0.182173 5.22727V1.09091H16.6168V5.22727H10.9293V20H5.86967V5.22727H0.182173ZM18.5488 20V1.09091H23.6824V8.47727H30.4778V1.09091H35.6113V20H30.4778V12.6136H23.6824V20H18.5488ZM42.9608 20H37.421L43.6625 1.09091H50.6795L56.921 20H51.3812L47.2449 6.2983H47.0971L42.9608 20ZM41.9267 12.5398H52.3414V16.3807H41.9267V12.5398ZM75.103 1.09091V20H70.8189L63.9865 10.0653H63.8757V20H58.7422V1.09091H63.1001L69.8217 10.9886H69.9695V1.09091H75.103ZM77.5312 20V1.09091H82.6648V8.73579H82.9233L88.6108 1.09091H94.5938L88.2045 9.51136L94.7415 20H88.6108L84.3636 12.9091L82.6648 15.125V20H77.5312ZM100.521 1.09091H106.246L109.939 8.77273H110.087L113.78 1.09091H119.504L112.561 14.054V20H107.464V14.054L100.521 1.09091ZM138.176 10.5455C138.176 12.6506 137.766 14.4264 136.948 15.8729C136.129 17.3132 135.024 18.4058 133.633 19.1506C132.242 19.8892 130.691 20.2585 128.98 20.2585C127.256 20.2585 125.699 19.8861 124.308 19.1413C122.923 18.3904 121.821 17.2947 121.002 15.8544C120.19 14.4079 119.784 12.6383 119.784 10.5455C119.784 8.44034 120.19 6.66761 121.002 5.22727C121.821 3.78078 122.923 2.68821 124.308 1.94957C125.699 1.20478 127.256 0.832386 128.98 0.832386C130.691 0.832386 132.242 1.20478 133.633 1.94957C135.024 2.68821 136.129 3.78078 136.948 5.22727C137.766 6.66761 138.176 8.44034 138.176 10.5455ZM132.894 10.5455C132.894 9.41288 132.744 8.45881 132.442 7.68324C132.146 6.90151 131.706 6.31061 131.122 5.91051C130.543 5.50426 129.829 5.30114 128.98 5.30114C128.13 5.30114 127.413 5.50426 126.828 5.91051C126.25 6.31061 125.81 6.90151 125.508 7.68324C125.213 8.45881 125.065 9.41288 125.065 10.5455C125.065 11.678 125.213 12.6352 125.508 13.4169C125.81 14.1925 126.25 14.7834 126.828 15.1896C127.413 15.5897 128.13 15.7898 128.98 15.7898C129.829 15.7898 130.543 15.5897 131.122 15.1896C131.706 14.7834 132.146 14.1925 132.442 13.4169C132.744 12.6352 132.894 11.678 132.894 10.5455ZM151.741 1.09091H156.875V13.2045C156.875 14.6449 156.53 15.8913 155.841 16.9439C155.157 17.9903 154.203 18.7997 152.978 19.3722C151.753 19.9384 150.332 20.2216 148.713 20.2216C147.082 20.2216 145.654 19.9384 144.429 19.3722C143.204 18.7997 142.25 17.9903 141.566 16.9439C140.889 15.8913 140.551 14.6449 140.551 13.2045V1.09091H145.684V12.7614C145.684 13.3461 145.814 13.8693 146.072 14.331C146.331 14.7865 146.688 15.1435 147.143 15.402C147.605 15.6605 148.128 15.7898 148.713 15.7898C149.304 15.7898 149.827 15.6605 150.282 15.402C150.738 15.1435 151.095 14.7865 151.353 14.331C151.612 13.8693 151.741 13.3461 151.741 12.7614V1.09091ZM164.494 20V1.09091H177.79V5.22727H169.628V8.47727H176.977V12.6136H169.628V20H164.494ZM197.996 10.5455C197.996 12.6506 197.587 14.4264 196.768 15.8729C195.949 17.3132 194.844 18.4058 193.453 19.1506C192.062 19.8892 190.511 20.2585 188.8 20.2585C187.076 20.2585 185.519 19.8861 184.128 19.1413C182.743 18.3904 181.641 17.2947 180.823 15.8544C180.01 14.4079 179.604 12.6383 179.604 10.5455C179.604 8.44034 180.01 6.66761 180.823 5.22727C181.641 3.78078 182.743 2.68821 184.128 1.94957C185.519 1.20478 187.076 0.832386 188.8 0.832386C190.511 0.832386 192.062 1.20478 193.453 1.94957C194.844 2.68821 195.949 3.78078 196.768 5.22727C197.587 6.66761 197.996 8.44034 197.996 10.5455ZM192.715 10.5455C192.715 9.41288 192.564 8.45881 192.262 7.68324C191.967 6.90151 191.527 6.31061 190.942 5.91051C190.363 5.50426 189.649 5.30114 188.8 5.30114C187.95 5.30114 187.233 5.50426 186.649 5.91051C186.07 6.31061 185.63 6.90151 185.328 7.68324C185.033 8.45881 184.885 9.41288 184.885 10.5455C184.885 11.678 185.033 12.6352 185.328 13.4169C185.63 14.1925 186.07 14.7834 186.649 15.1896C187.233 15.5897 187.95 15.7898 188.8 15.7898C189.649 15.7898 190.363 15.5897 190.942 15.1896C191.527 14.7834 191.967 14.1925 192.262 13.4169C192.564 12.6352 192.715 11.678 192.715 10.5455ZM200.371 20V1.09091H208.533C209.936 1.09091 211.164 1.34635 212.217 1.85724C213.27 2.36813 214.088 3.10369 214.673 4.06392C215.258 5.02415 215.55 6.17519 215.55 7.51704C215.55 8.87121 215.248 10.013 214.645 10.9425C214.048 11.8719 213.208 12.5736 212.125 13.0476C211.047 13.5215 209.789 13.7585 208.348 13.7585H203.473V9.76989H207.314C207.917 9.76989 208.431 9.69602 208.856 9.54829C209.287 9.39441 209.616 9.15128 209.844 8.81889C210.078 8.48651 210.195 8.05256 210.195 7.51704C210.195 6.97538 210.078 6.53527 209.844 6.19673C209.616 5.85204 209.287 5.59967 208.856 5.43963C208.431 5.27344 207.917 5.19034 207.314 5.19034H205.505V20H200.371ZM211.451 11.321L216.178 20H210.601L205.985 11.321H211.451ZM116.225 44.5455C116.225 46.6506 115.816 48.4264 114.997 49.8729C114.179 51.3132 113.074 52.4058 111.683 53.1506C110.292 53.8892 108.741 54.2585 107.029 54.2585C105.306 54.2585 103.749 53.8861 102.358 53.1413C100.973 52.3904 99.8708 51.2947 99.0521 49.8544C98.2396 48.4079 97.8334 46.6383 97.8334 44.5455C97.8334 42.4403 98.2396 40.6676 99.0521 39.2273C99.8708 37.7808 100.973 36.6882 102.358 35.9496C103.749 35.2048 105.306 34.8324 107.029 34.8324C108.741 34.8324 110.292 35.2048 111.683 35.9496C113.074 36.6882 114.179 37.7808 114.997 39.2273C115.816 40.6676 116.225 42.4403 116.225 44.5455ZM110.944 44.5455C110.944 43.4129 110.793 42.4588 110.492 41.6832C110.196 40.9015 109.756 40.3106 109.171 39.9105C108.593 39.5043 107.879 39.3011 107.029 39.3011C106.18 39.3011 105.463 39.5043 104.878 39.9105C104.3 40.3106 103.859 40.9015 103.558 41.6832C103.262 42.4588 103.115 43.4129 103.115 44.5455C103.115 45.678 103.262 46.6352 103.558 47.4169C103.859 48.1925 104.3 48.7834 104.878 49.1896C105.463 49.5897 106.18 49.7898 107.029 49.7898C107.879 49.7898 108.593 49.5897 109.171 49.1896C109.756 48.7834 110.196 48.1925 110.492 47.4169C110.793 46.6352 110.944 45.678 110.944 44.5455ZM118.601 54V35.0909H126.763C128.166 35.0909 129.394 35.3464 130.446 35.8572C131.499 36.3681 132.318 37.1037 132.902 38.0639C133.487 39.0241 133.78 40.1752 133.78 41.517C133.78 42.8712 133.478 44.013 132.875 44.9425C132.278 45.8719 131.437 46.5736 130.354 47.0476C129.277 47.5215 128.018 47.7585 126.578 47.7585H121.703V43.7699H125.544C126.147 43.7699 126.661 43.696 127.086 43.5483C127.517 43.3944 127.846 43.1513 128.074 42.8189C128.307 42.4865 128.424 42.0526 128.424 41.517C128.424 40.9754 128.307 40.5353 128.074 40.1967C127.846 39.852 127.517 39.5997 127.086 39.4396C126.661 39.2734 126.147 39.1903 125.544 39.1903H123.734V54H118.601ZM129.68 45.321L134.407 54H128.831L124.214 45.321H129.68ZM143.243 54H135.968V35.0909H143.169C145.115 35.0909 146.795 35.4695 148.211 36.2266C149.633 36.9775 150.728 38.0608 151.498 39.4766C152.273 40.8861 152.661 42.5758 152.661 44.5455C152.661 46.5152 152.276 48.2079 151.507 49.6236C150.737 51.0331 149.648 52.1165 148.238 52.8736C146.829 53.6245 145.164 54 143.243 54ZM141.101 49.642H143.059C143.994 49.642 144.791 49.4912 145.45 49.1896C146.115 48.888 146.62 48.3679 146.964 47.6293C147.315 46.8906 147.491 45.8627 147.491 44.5455C147.491 43.2282 147.312 42.2003 146.955 41.4616C146.604 40.723 146.087 40.2029 145.404 39.9013C144.727 39.5997 143.896 39.4489 142.911 39.4489H141.101V49.642ZM155.036 54V35.0909H168.664V39.2273H160.17V42.4773H167.962V46.6136H160.17V49.8636H168.627V54H155.036ZM171.21 54V35.0909H179.372C180.775 35.0909 182.003 35.3464 183.056 35.8572C184.108 36.3681 184.927 37.1037 185.512 38.0639C186.097 39.0241 186.389 40.1752 186.389 41.517C186.389 42.8712 186.087 44.013 185.484 44.9425C184.887 45.8719 184.047 46.5736 182.964 47.0476C181.886 47.5215 180.628 47.7585 179.187 47.7585H174.312V43.7699H178.153C178.756 43.7699 179.27 43.696 179.695 43.5483C180.126 43.3944 180.455 43.1513 180.683 42.8189C180.917 42.4865 181.034 42.0526 181.034 41.517C181.034 40.9754 180.917 40.5353 180.683 40.1967C180.455 39.852 180.126 39.5997 179.695 39.4396C179.27 39.2734 178.756 39.1903 178.153 39.1903H176.343V54H171.21ZM182.29 45.321L187.017 54H181.44L176.824 45.321H182.29ZM194.56 35.0909L194.08 48.0909H189.87L189.39 35.0909H194.56ZM191.975 54.2955C191.261 54.2955 190.648 54.0462 190.138 53.5476C189.633 53.0429 189.383 52.4304 189.39 51.7102C189.383 51.0085 189.633 50.4084 190.138 49.9098C190.648 49.4112 191.261 49.1619 191.975 49.1619C192.652 49.1619 193.249 49.4112 193.766 49.9098C194.289 50.4084 194.554 51.0085 194.56 51.7102C194.554 52.1903 194.428 52.6274 194.182 53.0213C193.941 53.4091 193.628 53.7199 193.24 53.9538C192.852 54.1816 192.43 54.2955 191.975 54.2955Z" fill="white"/>
<path d="M20.0642 35.0909H22.6863L27.9307 43.9176H28.1523L33.3966 35.0909H36.0187L29.1863 46.2074V54H26.8966V46.2074L20.0642 35.0909ZM54.0461 44.5455C54.0461 46.5398 53.686 48.2633 52.9658 49.7159C52.2457 51.1686 51.2577 52.2888 50.002 53.0767C48.7464 53.8646 47.3122 54.2585 45.6995 54.2585C44.0868 54.2585 42.6526 53.8646 41.3969 53.0767C40.1412 52.2888 39.1533 51.1686 38.4331 49.7159C37.713 48.2633 37.3529 46.5398 37.3529 44.5455C37.3529 42.5511 37.713 40.8277 38.4331 39.375C39.1533 37.9223 40.1412 36.8021 41.3969 36.0142C42.6526 35.2263 44.0868 34.8324 45.6995 34.8324C47.3122 34.8324 48.7464 35.2263 50.002 36.0142C51.2577 36.8021 52.2457 37.9223 52.9658 39.375C53.686 40.8277 54.0461 42.5511 54.0461 44.5455ZM51.8302 44.5455C51.8302 42.9081 51.5563 41.5263 51.0084 40.3999C50.4668 39.2734 49.7312 38.4209 48.8018 37.8423C47.8785 37.2637 46.8444 36.9744 45.6995 36.9744C44.5546 36.9744 43.5174 37.2637 42.588 37.8423C41.6647 38.4209 40.9291 39.2734 40.3813 40.3999C39.8396 41.5263 39.5688 42.9081 39.5688 44.5455C39.5688 46.1828 39.8396 47.5646 40.3813 48.6911C40.9291 49.8175 41.6647 50.67 42.588 51.2486C43.5174 51.8272 44.5546 52.1165 45.6995 52.1165C46.8444 52.1165 47.8785 51.8272 48.8018 51.2486C49.7312 50.67 50.4668 49.8175 51.0084 48.6911C51.5563 47.5646 51.8302 46.1828 51.8302 44.5455ZM70.3053 35.0909H72.5951V47.6108C72.5951 48.9034 72.2904 50.0575 71.681 51.0732C71.0778 52.0826 70.2253 52.8797 69.1235 53.4645C68.0217 54.0431 66.7291 54.3324 65.2457 54.3324C63.7622 54.3324 62.4696 54.0431 61.3678 53.4645C60.266 52.8797 59.4104 52.0826 58.801 51.0732C58.1978 50.0575 57.8962 48.9034 57.8962 47.6108V35.0909H60.186V47.4261C60.186 48.3494 60.3891 49.1712 60.7954 49.8913C61.2016 50.6054 61.7802 51.1686 62.5312 51.581C63.2883 51.9872 64.1931 52.1903 65.2457 52.1903C66.2982 52.1903 67.203 51.9872 67.9601 51.581C68.7172 51.1686 69.2958 50.6054 69.6959 49.8913C70.1022 49.1712 70.3053 48.3494 70.3053 47.4261V35.0909ZM77.1677 54V35.0909H83.5569C85.0342 35.0909 86.2468 35.3433 87.1947 35.848C88.1426 36.3466 88.8443 37.0329 89.2998 37.907C89.7553 38.781 89.983 39.7751 89.983 40.8892C89.983 42.0033 89.7553 42.9912 89.2998 43.853C88.8443 44.7147 88.1457 45.3918 87.2039 45.8842C86.2622 46.3705 85.0588 46.6136 83.5938 46.6136H78.4234V44.5455H83.52C84.5294 44.5455 85.3419 44.3977 85.9575 44.1023C86.5792 43.8068 87.0285 43.3883 87.3055 42.8466C87.5886 42.2988 87.7302 41.6463 87.7302 40.8892C87.7302 40.1321 87.5886 39.4704 87.3055 38.9041C87.0223 38.3378 86.5699 37.9008 85.9482 37.593C85.3266 37.2791 84.5048 37.1222 83.483 37.1222H79.4575V54H77.1677ZM86.0683 45.5057L90.7217 54H88.0626L83.483 45.5057H86.0683Z" fill="#05C2DF"/>
</svg>
