<svg width="280" height="29" viewBox="0 0 280 29" fill="none" xmlns="http://www.w3.org/2000/svg">
<path d="M0.566761 8.06818V4.72727H13.8409V8.06818H9.24716V20H5.16051V8.06818H0.566761ZM15.4014 20V4.72727H26.4085V8.06818H19.5477V10.6932H25.8417V14.0341H19.5477V16.6591H26.3786V20H15.4014ZM42.7234 10.4545H38.5174C38.4876 10.1065 38.408 9.79084 38.2788 9.50746C38.1545 9.22408 37.9805 8.98047 37.7567 8.77663C37.538 8.56783 37.272 8.40874 36.9588 8.29936C36.6456 8.18501 36.2901 8.12784 35.8924 8.12784C35.1964 8.12784 34.6072 8.29687 34.125 8.63494C33.6477 8.97301 33.2848 9.45774 33.0362 10.0891C32.7926 10.7205 32.6708 11.4787 32.6708 12.3636C32.6708 13.2983 32.7951 14.0813 33.0437 14.7127C33.2972 15.3391 33.6626 15.8114 34.1399 16.1296C34.6172 16.4428 35.1914 16.5994 35.8626 16.5994C36.2454 16.5994 36.5884 16.5522 36.8917 16.4577C37.195 16.3583 37.4585 16.2166 37.6822 16.0327C37.9059 15.8487 38.0874 15.6275 38.2266 15.369C38.3707 15.1055 38.4677 14.8097 38.5174 14.4815L42.7234 14.5114C42.6737 15.1577 42.4922 15.8164 42.179 16.4876C41.8658 17.1538 41.4208 17.7702 40.8441 18.337C40.2724 18.8988 39.5639 19.3512 38.7188 19.6942C37.8736 20.0373 36.8917 20.2088 35.7731 20.2088C34.3711 20.2088 33.1133 19.908 31.9996 19.3065C30.891 18.7049 30.0135 17.82 29.3672 16.6516C28.7259 15.4833 28.4052 14.054 28.4052 12.3636C28.4052 10.6634 28.7333 9.23153 29.3896 8.06818C30.0458 6.89986 30.9308 6.0174 32.0444 5.42081C33.158 4.81925 34.4009 4.51847 35.7731 4.51847C36.7376 4.51847 37.625 4.65021 38.4354 4.91371C39.2457 5.1772 39.9567 5.5625 40.5682 6.0696C41.1797 6.57173 41.6719 7.1907 42.0447 7.92649C42.4176 8.66229 42.6438 9.50497 42.7234 10.4545ZM44.6045 20V4.72727H48.7508V10.6932H54.2394V4.72727H58.3857V20H54.2394V14.0341H48.7508V20H44.6045Z" fill="white"/>
<path d="M73.7554 8.54545C73.6659 7.78977 73.303 7.20312 72.6666 6.78551C72.0303 6.3679 71.2497 6.15909 70.325 6.15909C69.6489 6.15909 69.0573 6.26847 68.5502 6.48722C68.048 6.70597 67.6553 7.00675 67.3719 7.38956C67.0935 7.77237 66.9543 8.20739 66.9543 8.6946C66.9543 9.10227 67.0512 9.45277 67.2451 9.74609C67.444 10.0344 67.6975 10.2756 68.0058 10.4695C68.314 10.6584 68.6372 10.815 68.9752 10.9393C69.3133 11.0586 69.624 11.1555 69.9074 11.2301L71.4585 11.6477C71.8563 11.7521 72.2987 11.8963 72.786 12.0803C73.2781 12.2642 73.748 12.5153 74.1954 12.8335C74.6478 13.1467 75.0207 13.5494 75.314 14.0415C75.6073 14.5337 75.754 15.1378 75.754 15.8537C75.754 16.679 75.5377 17.4247 75.1052 18.0909C74.6776 18.7571 74.0512 19.2866 73.2259 19.6793C72.4056 20.0721 71.4088 20.2685 70.2355 20.2685C69.1418 20.2685 68.1947 20.092 67.3943 19.739C66.5988 19.386 65.9724 18.8938 65.515 18.2624C65.0626 17.631 64.8066 16.8977 64.7469 16.0625H66.656C66.7057 16.6392 66.8996 17.1165 67.2377 17.4943C67.5807 17.8672 68.0132 18.1456 68.5352 18.3295C69.0622 18.5085 69.629 18.598 70.2355 18.598C70.9415 18.598 71.5754 18.4837 72.1372 18.255C72.699 18.0213 73.1439 17.6982 73.472 17.2855C73.8002 16.8679 73.9642 16.3807 73.9642 15.8239C73.9642 15.3168 73.8225 14.9041 73.5392 14.5859C73.2558 14.2678 72.8829 14.0092 72.4205 13.8104C71.9582 13.6115 71.4585 13.4375 70.9216 13.2884L69.0423 12.7514C67.8492 12.4084 66.9046 11.9187 66.2085 11.2823C65.5125 10.646 65.1645 9.81321 65.1645 8.78409C65.1645 7.92898 65.3957 7.18324 65.858 6.54688C66.3254 5.90554 66.9518 5.40838 67.7373 5.0554C68.5278 4.69744 69.4102 4.51847 70.3847 4.51847C71.3691 4.51847 72.2441 4.69496 73.0097 5.04794C73.7753 5.39595 74.3818 5.87322 74.8293 6.47976C75.2817 7.08629 75.5203 7.77486 75.5452 8.54545H73.7554ZM78.7947 20V4.72727H83.9553C85.1534 4.72727 86.1328 4.94354 86.8935 5.37606C87.6591 5.80362 88.2259 6.38281 88.5938 7.11364C88.9616 7.84446 89.1456 8.6598 89.1456 9.55966C89.1456 10.4595 88.9616 11.2773 88.5938 12.0131C88.2308 12.7489 87.669 13.3356 86.9084 13.7731C86.1477 14.2056 85.1733 14.4219 83.9851 14.4219H80.2862V12.7812H83.9254C84.7457 12.7812 85.4045 12.6396 85.9016 12.3562C86.3988 12.0728 86.7592 11.69 86.983 11.2077C87.2116 10.7205 87.326 10.1712 87.326 9.55966C87.326 8.94815 87.2116 8.40128 86.983 7.91903C86.7592 7.43679 86.3963 7.05895 85.8942 6.78551C85.392 6.5071 84.7259 6.3679 83.8956 6.3679H80.6442V20H78.7947ZM92.1248 20V4.72727H101.342V6.3679H93.9743V11.5284H100.865V13.169H93.9743V18.3594H101.461V20H92.1248ZM116.965 9.5H115.116C115.007 8.96804 114.815 8.50071 114.542 8.09801C114.273 7.69531 113.945 7.35724 113.557 7.08381C113.175 6.8054 112.749 6.59659 112.282 6.45739C111.815 6.31818 111.328 6.24858 110.82 6.24858C109.896 6.24858 109.058 6.48224 108.307 6.94957C107.562 7.4169 106.968 8.10547 106.525 9.01527C106.088 9.92507 105.869 11.0412 105.869 12.3636C105.869 13.6861 106.088 14.8022 106.525 15.712C106.968 16.6218 107.562 17.3104 108.307 17.7777C109.058 18.245 109.896 18.4787 110.82 18.4787C111.328 18.4787 111.815 18.4091 112.282 18.2699C112.749 18.1307 113.175 17.9244 113.557 17.6509C113.945 17.3725 114.273 17.032 114.542 16.6293C114.815 16.2216 115.007 15.7543 115.116 15.2273H116.965C116.826 16.0078 116.573 16.7063 116.205 17.3228C115.837 17.9393 115.379 18.4638 114.833 18.8963C114.286 19.3239 113.672 19.6495 112.991 19.8732C112.314 20.0969 111.591 20.2088 110.82 20.2088C109.518 20.2088 108.36 19.8906 107.345 19.2543C106.331 18.6179 105.533 17.7131 104.952 16.5398C104.37 15.3665 104.079 13.9744 104.079 12.3636C104.079 10.7528 104.37 9.3608 104.952 8.1875C105.533 7.0142 106.331 6.10937 107.345 5.47301C108.36 4.83665 109.518 4.51847 110.82 4.51847C111.591 4.51847 112.314 4.63033 112.991 4.85405C113.672 5.07777 114.286 5.40589 114.833 5.83842C115.379 6.26598 115.837 6.788 116.205 7.40447C116.573 8.01598 116.826 8.71449 116.965 9.5ZM128.306 8.54545C128.217 7.78977 127.854 7.20312 127.217 6.78551C126.581 6.3679 125.801 6.15909 124.876 6.15909C124.2 6.15909 123.608 6.26847 123.101 6.48722C122.599 6.70597 122.206 7.00675 121.923 7.38956C121.644 7.77237 121.505 8.20739 121.505 8.6946C121.505 9.10227 121.602 9.45277 121.796 9.74609C121.995 10.0344 122.248 10.2756 122.557 10.4695C122.865 10.6584 123.188 10.815 123.526 10.9393C123.864 11.0586 124.175 11.1555 124.458 11.2301L126.009 11.6477C126.407 11.7521 126.85 11.8963 127.337 12.0803C127.829 12.2642 128.299 12.5153 128.746 12.8335C129.199 13.1467 129.571 13.5494 129.865 14.0415C130.158 14.5337 130.305 15.1378 130.305 15.8537C130.305 16.679 130.089 17.4247 129.656 18.0909C129.228 18.7571 128.602 19.2866 127.777 19.6793C126.956 20.0721 125.96 20.2685 124.786 20.2685C123.693 20.2685 122.745 20.092 121.945 19.739C121.15 19.386 120.523 18.8938 120.066 18.2624C119.613 17.631 119.357 16.8977 119.298 16.0625H121.207C121.256 16.6392 121.45 17.1165 121.788 17.4943C122.131 17.8672 122.564 18.1456 123.086 18.3295C123.613 18.5085 124.18 18.598 124.786 18.598C125.492 18.598 126.126 18.4837 126.688 18.255C127.25 18.0213 127.695 17.6982 128.023 17.2855C128.351 16.8679 128.515 16.3807 128.515 15.8239C128.515 15.3168 128.373 14.9041 128.09 14.5859C127.807 14.2678 127.434 14.0092 126.971 13.8104C126.509 13.6115 126.009 13.4375 125.472 13.2884L123.593 12.7514C122.4 12.4084 121.455 11.9187 120.759 11.2823C120.063 10.646 119.715 9.81321 119.715 8.78409C119.715 7.92898 119.946 7.18324 120.409 6.54688C120.876 5.90554 121.503 5.40838 122.288 5.0554C123.079 4.69744 123.961 4.51847 124.935 4.51847C125.92 4.51847 126.795 4.69496 127.56 5.04794C128.326 5.39595 128.933 5.87322 129.38 6.47976C129.832 7.08629 130.071 7.77486 130.096 8.54545H128.306Z" fill="#05C2DF"/>
</svg>
