<svg width="308" height="44" viewBox="0 0 308 44" fill="none" xmlns="http://www.w3.org/2000/svg">
<path d="M8.33523 35L0.613636 8.81818H8.53977L12.1193 24.9261H12.3239L16.5682 8.81818H22.8068L27.0511 24.9773H27.2557L30.8352 8.81818H38.7614L31.0398 35H24.2386L19.7898 20.375H19.5852L15.1364 35H8.33523ZM41.0625 35V8.81818H48.1705V19.0455H57.5795V8.81818H64.6875V35H57.5795V24.7727H48.1705V35H41.0625ZM66.9886 8.81818H74.9148L80.0284 19.4545H80.233L85.3466 8.81818H93.2727L83.6591 26.767V35H76.6023V26.767L66.9886 8.81818Z" fill="white"/>
<path d="M114.37 35V8.81818H117.54V21.8068H117.847L129.608 8.81818H133.75L122.756 20.6307L133.75 35H129.915L120.813 22.8295L117.54 26.5114V35H114.37ZM138.928 35H135.604L145.218 8.81818H148.49L158.104 35H154.78L146.956 12.9602H146.752L138.928 35ZM140.155 24.7727H153.553V27.5852H140.155V24.7727ZM157.692 11.6307V8.81818H177.328V11.6307H169.095V35H165.925V11.6307H157.692ZM192.346 35V8.81818H195.517V32.1875H207.687V35H192.346ZM233.668 21.9091C233.668 24.6705 233.169 27.0568 232.172 29.0682C231.175 31.0795 229.807 32.6307 228.068 33.7216C226.33 34.8125 224.344 35.358 222.111 35.358C219.878 35.358 217.892 34.8125 216.153 33.7216C214.415 32.6307 213.047 31.0795 212.05 29.0682C211.053 27.0568 210.554 24.6705 210.554 21.9091C210.554 19.1477 211.053 16.7614 212.05 14.75C213.047 12.7386 214.415 11.1875 216.153 10.0966C217.892 9.00568 219.878 8.46023 222.111 8.46023C224.344 8.46023 226.33 9.00568 228.068 10.0966C229.807 11.1875 231.175 12.7386 232.172 14.75C233.169 16.7614 233.668 19.1477 233.668 21.9091ZM230.599 21.9091C230.599 19.642 230.22 17.7287 229.462 16.169C228.712 14.6094 227.693 13.429 226.406 12.6278C225.128 11.8267 223.696 11.4261 222.111 11.4261C220.526 11.4261 219.089 11.8267 217.803 12.6278C216.524 13.429 215.506 14.6094 214.747 16.169C213.997 17.7287 213.622 19.642 213.622 21.9091C213.622 24.1761 213.997 26.0895 214.747 27.6491C215.506 29.2088 216.524 30.3892 217.803 31.1903C219.089 31.9915 220.526 32.392 222.111 32.392C223.696 32.392 225.128 31.9915 226.406 31.1903C227.693 30.3892 228.712 29.2088 229.462 27.6491C230.22 26.0895 230.599 24.1761 230.599 21.9091ZM260.067 17H256.896C256.709 16.0881 256.381 15.2869 255.912 14.5966C255.452 13.9062 254.889 13.3267 254.224 12.858C253.568 12.3807 252.839 12.0227 252.038 11.7841C251.237 11.5455 250.402 11.4261 249.533 11.4261C247.947 11.4261 246.511 11.8267 245.224 12.6278C243.946 13.429 242.928 14.6094 242.169 16.169C241.419 17.7287 241.044 19.642 241.044 21.9091C241.044 24.1761 241.419 26.0895 242.169 27.6491C242.928 29.2088 243.946 30.3892 245.224 31.1903C246.511 31.9915 247.947 32.392 249.533 32.392C250.402 32.392 251.237 32.2727 252.038 32.0341C252.839 31.7955 253.568 31.4418 254.224 30.973C254.889 30.4957 255.452 29.9119 255.912 29.2216C256.381 28.5227 256.709 27.7216 256.896 26.8182H260.067C259.828 28.1562 259.393 29.3537 258.763 30.4105C258.132 31.4673 257.348 32.3665 256.411 33.108C255.473 33.8409 254.42 34.3991 253.253 34.7827C252.094 35.1662 250.854 35.358 249.533 35.358C247.3 35.358 245.314 34.8125 243.575 33.7216C241.837 32.6307 240.469 31.0795 239.472 29.0682C238.474 27.0568 237.976 24.6705 237.976 21.9091C237.976 19.1477 238.474 16.7614 239.472 14.75C240.469 12.7386 241.837 11.1875 243.575 10.0966C245.314 9.00568 247.3 8.46023 249.533 8.46023C250.854 8.46023 252.094 8.65199 253.253 9.03551C254.42 9.41903 255.473 9.98153 256.411 10.723C257.348 11.456 258.132 12.3509 258.763 13.4077C259.393 14.456 259.828 15.6534 260.067 17ZM287.281 21.9091C287.281 24.6705 286.782 27.0568 285.785 29.0682C284.788 31.0795 283.42 32.6307 281.681 33.7216C279.943 34.8125 277.957 35.358 275.724 35.358C273.491 35.358 271.505 34.8125 269.767 33.7216C268.028 32.6307 266.66 31.0795 265.663 29.0682C264.666 27.0568 264.167 24.6705 264.167 21.9091C264.167 19.1477 264.666 16.7614 265.663 14.75C266.66 12.7386 268.028 11.1875 269.767 10.0966C271.505 9.00568 273.491 8.46023 275.724 8.46023C277.957 8.46023 279.943 9.00568 281.681 10.0966C283.42 11.1875 284.788 12.7386 285.785 14.75C286.782 16.7614 287.281 19.1477 287.281 21.9091ZM284.213 21.9091C284.213 19.642 283.833 17.7287 283.075 16.169C282.325 14.6094 281.306 13.429 280.02 12.6278C278.741 11.8267 277.309 11.4261 275.724 11.4261C274.139 11.4261 272.703 11.8267 271.416 12.6278C270.137 13.429 269.119 14.6094 268.36 16.169C267.61 17.7287 267.235 19.642 267.235 21.9091C267.235 24.1761 267.61 26.0895 268.36 27.6491C269.119 29.2088 270.137 30.3892 271.416 31.1903C272.703 31.9915 274.139 32.392 275.724 32.392C277.309 32.392 278.741 31.9915 280.02 31.1903C281.306 30.3892 282.325 29.2088 283.075 27.6491C283.833 26.0895 284.213 24.1761 284.213 21.9091ZM296.14 27.6364V27.483C296.157 25.8551 296.328 24.5597 296.652 23.5966C296.975 22.6335 297.436 21.8537 298.032 21.2571C298.629 20.6605 299.345 20.1108 300.18 19.608C300.683 19.3011 301.135 18.9389 301.535 18.5213C301.936 18.0952 302.251 17.6051 302.481 17.0511C302.72 16.4972 302.839 15.8835 302.839 15.2102C302.839 14.375 302.643 13.6506 302.251 13.0369C301.859 12.4233 301.335 11.9503 300.679 11.6179C300.022 11.2855 299.294 11.1193 298.493 11.1193C297.794 11.1193 297.12 11.2642 296.473 11.554C295.825 11.8437 295.284 12.2997 294.849 12.9219C294.414 13.544 294.163 14.358 294.095 15.3636H290.873C290.941 13.9148 291.316 12.6747 291.998 11.6435C292.689 10.6122 293.596 9.82386 294.721 9.27841C295.855 8.73295 297.112 8.46023 298.493 8.46023C299.993 8.46023 301.297 8.75852 302.404 9.35511C303.521 9.9517 304.382 10.7699 304.987 11.8097C305.6 12.8494 305.907 14.0341 305.907 15.3636C305.907 16.3011 305.762 17.1491 305.473 17.9077C305.191 18.6662 304.782 19.3437 304.245 19.9403C303.717 20.5369 303.078 21.0653 302.328 21.5256C301.578 21.9943 300.977 22.4886 300.525 23.0085C300.074 23.5199 299.745 24.1293 299.541 24.8366C299.336 25.544 299.225 26.4261 299.208 27.483V27.6364H296.14ZM297.777 35.2045C297.146 35.2045 296.605 34.9787 296.153 34.527C295.701 34.0753 295.475 33.5341 295.475 32.9034C295.475 32.2727 295.701 31.7315 296.153 31.2798C296.605 30.8281 297.146 30.6023 297.777 30.6023C298.407 30.6023 298.949 30.8281 299.4 31.2798C299.852 31.7315 300.078 32.2727 300.078 32.9034C300.078 33.321 299.971 33.7045 299.758 34.054C299.554 34.4034 299.277 34.6847 298.927 34.8977C298.586 35.1023 298.203 35.2045 297.777 35.2045Z" fill="#05C2DF"/>
<path d="M161 30H166V34H158L161 30Z" fill="#05C2DF"/>
</svg>
